<svg width="103" height="48" viewBox="0 0 103 48" fill="none" xmlns="http://www.w3.org/2000/svg">
<g clip-path="url(#clip0_328_3269)">
<mask id="mask0_328_3269" style="mask-type:luminance" maskUnits="userSpaceOnUse" x="0" y="0" width="103" height="48">
<path d="M102.19 0.735107H0.19043V47.4751H102.19V0.735107Z" fill="white"/>
</mask>
<g mask="url(#mask0_328_3269)">
<path d="M11.9654 19.2931L15.9884 19.3261C17.8518 19.388 19.6761 18.783 21.1334 17.6201C21.819 17.0569 22.3846 16.3619 22.7969 15.5763C23.2091 14.7906 23.4595 13.9303 23.5334 13.0461C23.6627 12.3725 23.6474 11.679 23.4886 11.0117C23.3298 10.3444 23.0312 9.71838 22.6124 9.17511C22.148 8.67118 21.5789 8.27511 20.945 8.01475C20.3111 7.7544 19.6279 7.63608 18.9434 7.66811C17.434 7.5921 15.9478 8.06368 14.7584 8.99611C13.6172 9.8827 12.8549 11.1693 12.6254 12.5961L4.21739 12.6551C4.28014 10.9739 4.71773 9.32804 5.4982 7.83769C6.27867 6.34734 7.38229 5.05021 8.72839 4.04111C11.6773 1.76077 15.3344 0.590459 19.0594 0.735114C23.1541 0.816447 26.3967 1.96311 28.7874 4.17511C29.9735 5.28688 30.8844 6.6595 31.4482 8.18429C32.0119 9.70908 32.213 11.3442 32.0354 12.9601C31.7547 17.1014 29.1214 20.3481 24.1354 22.7001C25.9609 23.5234 27.4639 24.9258 28.4114 26.6901C29.3272 28.4613 29.7353 30.4514 29.5904 32.4401C29.4964 34.9401 28.6564 37.3547 27.1784 39.3731C25.6562 41.4018 23.6192 42.9866 21.2784 43.9631C18.7556 45.0374 16.0303 45.5532 13.2894 45.4751C9.79656 45.5759 6.39933 44.3263 3.80439 41.9861C2.58356 40.8312 1.62793 39.4251 1.00345 37.8648C0.378981 36.3046 0.100553 34.6274 0.187391 32.9491H8.53439C8.48648 33.6663 8.5814 34.386 8.81365 35.0662C9.0459 35.7465 9.41087 36.3739 9.88739 36.9121C10.3987 37.4392 11.0143 37.8538 11.695 38.1293C12.3757 38.4048 13.1064 38.5352 13.8404 38.5121C15.6553 38.5945 17.4364 38.0021 18.8404 36.8491C20.2248 35.7294 21.1079 34.1058 21.2954 32.3351C21.4705 31.5404 21.4666 30.7167 21.284 29.9236C21.1013 29.1306 20.7445 28.3882 20.2394 27.7501C19.6598 27.1842 18.9703 26.7432 18.2135 26.4544C17.4567 26.1656 16.6486 26.0352 15.8394 26.0711L10.8884 26.0441L11.9654 19.2931Z" fill="#1A1818"/>
<path d="M46.934 22.2801L54.211 22.3391C56.3076 22.4175 58.3679 21.7756 60.049 20.5201C60.814 19.9222 61.4532 19.1787 61.9294 18.3325C62.4057 17.4864 62.7097 16.5543 62.824 15.5901C63.0074 14.7388 63.0132 13.8589 62.8411 13.0053C62.6691 12.1517 62.3228 11.3428 61.824 10.6291C61.3056 9.99782 60.6512 9.49206 59.9096 9.14968C59.168 8.8073 58.3586 8.63718 57.542 8.65206L49.324 8.62506L46.934 22.2801ZM45.712 29.5421L43.03 44.8701H34.293L41.839 1.36206L57.039 1.39506C61.7303 1.39506 65.418 2.70006 68.102 5.31006C69.4376 6.6252 70.4506 8.2317 71.0616 10.0037C71.6727 11.7758 71.8651 13.6652 71.624 15.5241C71.5276 17.5109 71.0021 19.4533 70.0836 21.2177C69.165 22.9821 67.8753 24.5266 66.303 25.7451C63.071 28.2944 58.952 29.5691 53.946 29.5691L45.712 29.5421Z" fill="#1A1818"/>
<path d="M82.7692 37.6701H101.19L99.9402 44.8701H72.7822L80.3242 1.36011H89.0602L82.7692 37.6701Z" fill="#1A1818"/>
</g>
</g>
<defs>
<clipPath id="clip0_328_3269">
<rect width="102" height="46.74" fill="white" transform="translate(0.19043 0.735107)"/>
</clipPath>
</defs>
</svg>
