<svg width="238" height="48" viewBox="0 0 238 48" fill="none" xmlns="http://www.w3.org/2000/svg">
<g clip-path="url(#clip0_0_9572)">
<path d="M27.547 0C29.869 0.588 32.184 1.206 34.509 1.756C40.574 3.178 46.645 4.568 52.712 5.973C52.998 6.039 53.273 6.126 53.607 6.219V38.53L47.087 40.964C41.141 43.161 35.197 45.362 29.257 47.569C28.9694 47.6946 28.6901 47.8386 28.421 48H27.759C27.4617 47.8237 27.1483 47.676 26.823 47.559C21.8461 46.2145 16.8654 44.8842 11.881 43.568C7.923 42.525 3.961 41.516 0 40.494V6.16C6.882 4.58 13.768 3.01 20.647 1.408C22.443 0.988 24.22 0.473 26.005 0H27.547ZM51.237 36.913V8.1C51.114 8.04584 50.9882 7.99843 50.86 7.958C43.0399 6.12964 35.2156 4.31963 27.387 2.528C26.9615 2.45602 26.5255 2.47717 26.109 2.59C21.175 3.71 16.243 4.842 11.314 5.987C8.358 6.682 5.396 7.377 2.472 8.072V38.59C2.585 38.644 2.702 38.692 2.82 38.733C11.042 40.913 19.27 43.088 27.502 45.255C27.9973 45.3488 28.5091 45.3003 28.978 45.115C32.111 43.989 35.244 42.818 38.377 41.663C42.666 40.078 46.952 38.495 51.237 36.914V36.913ZM238 34.33H233.44V9.463H238V34.33ZM145.671 16.597H140.641C136.812 11.994 130.629 13.12 128.046 15.867C126.558 17.4638 125.721 19.559 125.698 21.7414C125.676 23.9237 126.47 26.0358 127.924 27.663C131.27 31.306 135.694 31.247 140.282 27.485H145.546C144.568 31.824 138.761 35.182 132.937 34.807C126.807 34.417 121.672 29.401 121.038 23.202C120.724 20.1466 121.508 17.0792 123.249 14.549C124.992 12.0173 127.578 10.1877 130.545 9.387C136.78 7.746 143.078 10.707 145.671 16.597ZM166.75 27.044H152.293C152.738 28.782 153.741 29.877 155.3 30.346C157.615 31.042 159.826 30.92 161.528 28.89H166.27C166.033 32.31 161.023 35.224 156.146 34.8C150.667 34.313 146.806 29.408 147.443 23.741C148.035 18.474 153.194 14.563 158.562 15.314C164.205 16.086 167.7 21.019 166.75 27.044ZM152.31 23.024H162.367C161.862 20.553 160.038 19.308 157.1 19.381C154.503 19.448 152.609 20.875 152.31 23.024ZM225.906 18.078V15.718H229.972V34.376H225.952V31.942C223.588 34.789 220.709 35.21 217.597 34.675C216.473 34.4768 215.401 34.0545 214.444 33.4332C213.487 32.812 212.665 32.0046 212.027 31.059C209.05 26.887 209.875 20.56 213.705 17.289C216.441 14.949 222.672 13.923 225.906 18.078ZM214.791 25.18C214.791 28.518 216.935 30.677 220.281 30.684C223.626 30.69 225.725 28.535 225.739 25.156C225.753 21.776 223.494 19.402 220.302 19.382C217.04 19.364 214.791 21.718 214.791 25.18ZM93.968 9.494C90.633 8.987 87.727 9.275 83.761 9.275V34.47H88.423V25.105C89.906 25.018 91.208 25.164 92.6 25.032C97.07 24.601 99.302 22.421 99.754 18.308C100.259 13.612 98.341 10.155 93.968 9.494ZM91.834 20.671H88.148V13.485L91.834 13.558C92.777 13.575 93.674 13.961 94.334 14.633C94.9938 15.3045 95.3627 16.2086 95.361 17.15C95.3599 18.0839 94.988 18.9792 94.327 19.639C93.6653 20.2994 92.7688 20.6705 91.834 20.671ZM79.775 24.433C79.344 22.399 78.063 21.023 76.249 20.083C78.491 17.65 78.839 14.663 77.238 12.088C75.636 9.512 72.409 8.344 69.22 9.265C67.9309 9.67161 66.8086 10.4858 66.022 11.585C65.2362 12.6839 64.829 14.0085 64.862 15.359H68.764C68.7953 14.7789 68.9961 14.2207 69.3417 13.7537C69.6873 13.2867 70.1624 12.9315 70.708 12.732C71.2536 12.532 71.8458 12.4961 72.4116 12.6287C72.9774 12.7612 73.492 13.0565 73.892 13.478C74.2917 13.8996 74.5589 14.4293 74.6604 15.0013C74.762 15.5733 74.6934 16.1626 74.4632 16.696C74.233 17.2294 73.8513 17.6835 73.3655 18.0021C72.8796 18.3206 72.311 18.4896 71.73 18.488H69.802V22.228H71.194C72.0415 22.2278 72.871 22.4716 73.5836 22.9304C74.2961 23.3892 74.8615 24.0434 75.212 24.815C75.5615 25.5863 75.6809 26.4422 75.5556 27.2797C75.4304 28.1172 75.0659 28.9007 74.506 29.536C73.9459 30.1725 73.2142 30.6339 72.3985 30.865C71.5827 31.0961 70.7177 31.0871 69.907 30.839C69.0968 30.5911 68.3753 30.115 67.8287 29.4677C67.2821 28.8204 66.9336 28.0292 66.825 27.189L66.787 27.235V26.96H62.957C62.847 30.642 65.394 33.816 69.091 34.713C73.411 35.756 77.446 34.063 79.187 30.443C80.0614 28.565 80.2688 26.4449 79.775 24.433ZM174.332 34.358H169.883V15.735H173.953C173.991 16.187 174.033 16.645 174.054 16.878C175.453 16.34 176.845 15.53 178.342 15.297C182.809 14.633 185.841 16.837 186.189 21.346C186.52 25.632 186.262 29.96 186.262 34.334H181.966V33.04C181.914 29.633 181.966 26.219 181.775 22.819C181.636 20.243 180.323 19.189 177.946 19.342C176.341 19.45 175.22 20.253 174.812 21.821C174.533 22.9599 174.377 24.1257 174.349 25.298C174.283 27.936 174.329 30.578 174.329 33.22L174.332 34.357V34.358ZM102.818 9.48H107.441V30.05H115.04V34.473H102.818V9.48ZM188.643 15.644H190.77V9.498H195.237V15.61H197.966V19.816H195.296V34.351H190.826V19.854H188.643V15.644ZM204.751 34.369H200.34V15.724H204.309C204.34 16.184 204.372 16.642 204.41 17.261C206.934 14.991 209.754 15.658 212.594 16.151C211.78 17.296 210.986 18.405 210.129 19.611C209.611 19.611 208.991 19.58 208.371 19.611C206.408 19.726 205.238 20.723 204.915 22.656C204.784 23.71 204.732 24.7722 204.758 25.834C204.741 28.65 204.751 31.462 204.751 34.369Z" fill="#298CCC"/>
<path d="M51.236 36.913L38.356 41.663C35.223 42.817 32.09 43.988 28.956 45.115C28.488 45.299 27.976 45.348 27.481 45.254C19.2512 43.0981 11.0271 40.9201 2.809 38.72C2.69038 38.6794 2.57419 38.632 2.461 38.578V8.05902C5.396 7.36302 8.343 6.66802 11.303 5.97302C16.2377 4.84127 21.1734 3.7136 26.11 2.59002C26.5287 2.47583 26.9672 2.45433 27.395 2.52702C35.2216 4.31866 43.0439 6.12866 50.862 7.95702C50.989 7.99802 51.115 8.04602 51.237 8.10002L51.236 36.913ZM9.612 11.125L9.657 10.93L28.237 14.177C28.087 21.53 27.937 28.754 27.787 35.978H27.533C26.882 30.385 26.227 24.794 25.555 19.013L6.183 36.573L27.575 42.066L48.552 34.716V10.381L32.122 13.771L32.062 13.544L44.64 8.77102C38.665 7.34202 33.067 5.99002 27.462 4.68602C26.9601 4.59635 26.4447 4.61785 25.952 4.74902C18.8707 6.37259 11.7976 8.03194 4.733 9.72702V33.374L23.95 16.552L9.61 11.125H9.612Z" fill="#FEFDFD"/>
<path d="M9.612 11.125L23.951 16.552L4.73 33.374V9.734C7.125 9.161 9.572 8.574 12.04 7.996C16.682 6.906 21.324 5.826 25.965 4.756C26.458 4.62469 26.9738 4.60318 27.476 4.693C33.081 6.003 38.679 7.349 44.653 8.778L32.061 13.538L32.121 13.764L48.551 10.374V34.709L27.574 42.066L6.182 36.573L25.555 19.027C26.226 24.808 26.881 30.398 27.532 35.992H27.786C27.936 28.768 28.086 21.544 28.236 14.192L9.656 10.927L9.611 11.125H9.612Z" fill="#F47321"/>
</g>
<defs>
<clipPath id="clip0_0_9572">
<rect width="238" height="48" fill="white"/>
</clipPath>
</defs>
</svg>
