<svg width="70" height="48" viewBox="0 0 70 48" fill="none" xmlns="http://www.w3.org/2000/svg">
<path d="M60.83 36.9398V36.1998H61.36C61.72 36.1998 61.8199 36.3098 61.8199 36.5298C61.8199 36.7498 61.72 36.9298 61.29 36.9398H60.83ZM61.2 37.3898C61.35 37.3898 61.5 37.3898 61.62 37.5098C61.73 37.6998 61.79 37.9098 61.78 38.1298C61.78 38.2998 61.85 38.4898 61.88 38.6598H62.5C62.41 38.3898 62.36 38.0998 62.33 37.8198C62.28 37.5098 62.24 37.3298 61.84 37.2498C62.01 37.2298 62.16 37.1498 62.27 37.0298C62.37 36.9098 62.4399 36.7398 62.4399 36.5798C62.4399 35.9298 61.91 35.7798 61.38 35.7798H60.39V38.6798H60.84V37.4198L61.22 37.3898H61.2ZM61.34 39.6998C61.83 39.6998 62.31 39.5498 62.71 39.2798C63.11 39.0098 63.43 38.6198 63.61 38.1698C63.8 37.7198 63.84 37.2198 63.75 36.7398C63.65 36.2598 63.4199 35.8198 63.0699 35.4798C62.7299 35.1298 62.2799 34.8998 61.8099 34.7998C61.3299 34.7098 60.84 34.7498 60.39 34.9398C59.94 35.1298 59.56 35.4398 59.29 35.8498C59.01 36.2598 58.87 36.7298 58.87 37.2198C58.87 37.5498 58.9299 37.8698 59.0599 38.1698C59.1899 38.4698 59.37 38.7498 59.6 38.9798C59.83 39.2098 60.1 39.3898 60.41 39.5098C60.71 39.6298 61.04 39.6898 61.36 39.6898H61.34V39.6998ZM61.34 39.2698C60.94 39.2698 60.55 39.1498 60.22 38.9298C59.88 38.7098 59.63 38.3898 59.47 38.0198C59.32 37.6498 59.28 37.2398 59.35 36.8398C59.43 36.4398 59.62 36.0798 59.9 35.7998C60.18 35.5098 60.5499 35.3198 60.9399 35.2398C61.3299 35.1598 61.74 35.1998 62.11 35.3498C62.48 35.4998 62.79 35.7598 63.02 36.0998C63.24 36.4298 63.36 36.8298 63.36 37.2298C63.36 37.7698 63.15 38.2798 62.77 38.6598C62.39 39.0398 61.88 39.2598 61.35 39.2698H61.33H61.34Z" fill="#D0271D"/>
<path d="M57.1799 14.79H53.23V18.75H57.1799C57.6099 18.77 58.0199 18.96 58.3199 19.28C58.6199 19.6 58.78 20.02 58.78 20.45C58.78 20.88 58.6099 21.3 58.3199 21.62C58.0199 21.94 57.6099 22.13 57.1799 22.15H53.23V26.11H57.1799C58.6799 26.11 60.11 25.51 61.17 24.45C62.23 23.39 62.8199 21.95 62.8199 20.45C62.8199 18.95 62.23 17.51 61.17 16.45C60.12 15.39 58.6799 14.79 57.1799 14.79ZM34.66 35.75C36.9 35.75 39.1 35.11 41 33.91C42.9 32.71 44.41 30.99 45.37 28.95H50.41V35.75H53.23V28.95H57.1799C58.2999 28.98 59.43 28.78 60.48 28.37C61.53 27.96 62.49 27.34 63.3 26.54C64.11 25.75 64.7499 24.8 65.1899 23.76C65.6299 22.71 65.86 21.59 65.86 20.46C65.86 19.33 65.6299 18.2 65.1899 17.16C64.7499 16.12 64.11 15.17 63.3 14.38C62.49 13.59 61.53 12.97 60.48 12.55C59.43 12.14 58.2999 11.94 57.1799 11.97H50.41V22.18H46.39C45.98 19.35 44.57 16.76 42.42 14.89C40.27 13.02 37.51 11.99 34.66 11.99H20.76L6.96 35.78H10.26L14.21 28.98H28.41V35.78L34.66 35.76V35.75ZM69.6 20.45C69.6 22.09 69.28 23.71 68.66 25.22C68.03 26.73 67.12 28.1 65.96 29.26C64.81 30.42 63.4399 31.33 61.9299 31.96C60.4199 32.59 58.8099 32.91 57.1799 32.91V39.71H46.46V34.43C44.98 36.1 43.16 37.43 41.12 38.35C39.09 39.26 36.89 39.74 34.66 39.73H24.4399V32.92H16.48L12.53 39.72H0L18.4299 8H34.6899C36.9199 8 39.12 8.48 41.16 9.4C43.19 10.32 45.01 11.66 46.49 13.33V8H57.1899C58.8199 8 60.4399 8.32 61.9399 8.95C63.4499 9.58 64.82 10.49 65.97 11.65C67.13 12.81 68.05 14.18 68.67 15.69C69.3 17.2 69.62 18.82 69.62 20.46H69.61L69.6 20.45ZM24.4399 14.79V22.17H18.14L15.84 26.13H28.4V14.79H24.4399ZM43.7 23.85C43.7 26.25 42.75 28.56 41.05 30.25C39.3601 31.95 37.06 32.9 34.67 32.9H31.22V28.94H34.67C36.01 28.94 37.3 28.4 38.26 27.45C39.21 26.49 39.74 25.2 39.74 23.84C39.74 22.48 39.21 21.19 38.26 20.23C37.3 19.27 36.01 18.74 34.67 18.74H31.22V14.78H34.67C35.86 14.78 37.03 15.01 38.12 15.47C39.22 15.93 40.22 16.59 41.05 17.43C41.89 18.27 42.56 19.27 43.01 20.37C43.46 21.47 43.6899 22.65 43.6899 23.84L43.7 23.85Z" fill="#D0271D"/>
</svg>
