<svg width="111" height="49" viewBox="0 0 111 49" fill="none" xmlns="http://www.w3.org/2000/svg">
<g clip-path="url(#clip0_0_9012)">
<mask id="mask0_0_9012" style="mask-type:luminance" maskUnits="userSpaceOnUse" x="0" y="0" width="111" height="49">
<path d="M0.140015 0.440918H110.14V48.4409H0.140015V0.440918Z" fill="white"/>
</mask>
<g mask="url(#mask0_0_9012)">
<path fill-rule="evenodd" clip-rule="evenodd" d="M68.08 38.241C61.7 42.941 52.49 45.441 44.55 45.441C33.9342 45.4961 23.6807 41.5837 15.8 34.471C15.2 33.931 15.73 33.201 16.45 33.621C25.2074 38.6284 35.122 41.2587 45.21 41.251C52.7446 41.2159 60.1978 39.6899 67.14 36.761C68.22 36.301 69.12 37.461 68.07 38.251L68.08 38.241Z" fill="#FF9900"/>
<path fill-rule="evenodd" clip-rule="evenodd" d="M70.72 35.221C69.92 34.181 65.35 34.721 63.3 34.971C62.67 35.051 62.58 34.501 63.14 34.111C66.78 31.551 72.74 32.291 73.44 33.151C74.14 34.011 73.26 40.001 69.84 42.851C69.32 43.291 68.82 43.051 69.05 42.471C69.82 40.561 71.54 36.271 70.72 35.221Z" fill="#FF9900"/>
<mask id="path-4-inside-1_0_9012" fill="white">
<path fill-rule="evenodd" clip-rule="evenodd" d="M63.44 16.0409V13.5609C63.44 13.1809 63.73 12.9309 64.07 12.9309H75.2C75.56 12.9309 75.84 13.1809 75.84 13.5609V15.6909C75.84 16.0409 75.54 16.5109 75 17.2509L69.23 25.4909C71.4333 25.3703 73.6288 25.8398 75.59 26.8509C76.02 27.1009 76.14 27.4609 76.18 27.8209V30.4809C76.18 30.8409 75.78 31.2609 75.36 31.0409C73.5389 30.1048 71.5202 29.6181 69.4726 29.6216C67.425 29.6251 65.4079 30.1186 63.59 31.0609C63.2 31.2709 62.79 30.8609 62.79 30.4909V27.9709C62.79 27.5709 62.8 26.8709 63.21 26.2609L69.89 16.6609H64.07C63.72 16.6609 63.43 16.4209 63.43 16.0409H63.44ZM22.8 31.5709H19.41C19.2572 31.562 19.1126 31.4986 19.0025 31.3922C18.8924 31.2857 18.8241 31.1434 18.81 30.9909V13.5909C18.81 13.2509 19.1 12.9709 19.46 12.9709H22.62C22.95 12.9909 23.22 13.2409 23.24 13.5609V15.8309H23.3C24.12 13.6309 25.67 12.6109 27.76 12.6109C29.88 12.6109 31.21 13.6309 32.16 15.8309C32.4958 14.866 33.1308 14.0334 33.9725 13.4543C34.8142 12.8751 35.8188 12.5797 36.84 12.6109C38.26 12.6109 39.82 13.1909 40.76 14.5109C41.84 15.9709 41.62 18.1009 41.62 19.9609V30.9409C41.62 31.2909 41.32 31.5709 40.96 31.5709H37.58C37.4172 31.5633 37.2635 31.4939 37.1502 31.3768C37.0368 31.2597 36.9724 31.1038 36.97 30.9409V21.7209C36.97 20.9909 37.03 19.1609 36.87 18.4609C36.62 17.2909 35.86 16.9609 34.87 16.9609C34.06 16.9609 33.2 17.5109 32.85 18.3909C32.5 19.2709 32.54 20.7309 32.54 21.7209V30.9409C32.54 31.2909 32.24 31.5709 31.88 31.5709H28.5C28.3372 31.5633 28.1835 31.4939 28.0702 31.3768C27.9568 31.2597 27.8924 31.1038 27.89 30.9409V21.7209C27.89 19.7809 28.2 16.9209 25.79 16.9209C23.36 16.9209 23.46 19.7109 23.46 21.7209V30.9409C23.46 31.2909 23.16 31.5709 22.8 31.5709ZM85.44 12.6109C90.47 12.6109 93.19 16.9309 93.19 22.4109C93.19 27.7209 90.19 31.9309 85.44 31.9309C80.5 31.9309 77.82 27.6109 77.82 22.2309C77.82 16.8209 80.54 12.6109 85.44 12.6109ZM85.47 16.1609C82.97 16.1609 82.82 19.5609 82.82 21.6809C82.82 23.8109 82.78 28.3509 85.44 28.3509C88.07 28.3509 88.19 24.6909 88.19 22.4509C88.19 20.9909 88.13 19.2309 87.69 17.8509C87.31 16.6309 86.55 16.1509 85.47 16.1509V16.1609ZM99.71 31.5709H96.34C96.1772 31.5633 96.0235 31.4939 95.9102 31.3768C95.7968 31.2597 95.7324 31.1038 95.73 30.9409V13.5409C95.7475 13.3818 95.8239 13.2351 95.9442 13.1296C96.0645 13.0241 96.22 12.9675 96.38 12.9709H99.52C99.82 12.9909 100.06 13.1909 100.12 13.4609V16.1209H100.19C101.14 13.7409 102.47 12.6109 104.81 12.6109C106.33 12.6109 107.81 13.1509 108.76 14.6609C109.65 16.0509 109.65 18.3909 109.65 20.0709V31.0209C109.626 31.1772 109.545 31.3193 109.424 31.4205C109.302 31.5217 109.148 31.5752 108.99 31.5709H105.59C105.442 31.5631 105.301 31.5039 105.191 31.4036C105.082 31.3032 105.011 31.168 104.99 31.0209V21.5709C104.99 19.6709 105.22 16.8909 102.88 16.8909C102.454 16.9076 102.041 17.0479 101.693 17.2947C101.345 17.5415 101.077 17.8841 100.92 18.2809C100.5 19.3281 100.316 20.4546 100.38 21.5809V30.9409C100.38 31.2909 100.08 31.5709 99.71 31.5709ZM54.56 23.2609C54.56 24.5809 54.59 25.6809 53.93 26.8609C53.39 27.8109 52.53 28.3909 51.58 28.3909C50.28 28.3909 49.52 27.4009 49.52 25.9409C49.52 23.0509 52.1 22.5309 54.56 22.5309V23.2609ZM57.98 31.5209C57.871 31.6148 57.7358 31.6729 57.5926 31.6872C57.4495 31.7015 57.3054 31.6714 57.18 31.6009C56.05 30.6709 55.85 30.2309 55.23 29.3409C53.37 31.2409 52.05 31.8109 49.65 31.8109C46.79 31.8109 44.57 30.0509 44.57 26.5309C44.5293 25.3471 44.8552 24.1795 45.5031 23.1879C46.1511 22.1963 47.0895 21.429 48.19 20.9909C50.03 20.1809 52.59 20.0309 54.56 19.8109V19.3709C54.56 18.5709 54.62 17.6109 54.14 16.9209C53.74 16.2909 52.94 16.0309 52.24 16.0309C50.95 16.0309 49.8 16.7009 49.52 18.0709C49.46 18.3709 49.24 18.6709 48.93 18.6909L45.65 18.3409C45.37 18.2709 45.05 18.0509 45.15 17.6309C45.89 13.6409 49.5 12.4409 52.72 12.4409C54.37 12.4409 56.52 12.8809 57.82 14.1309C59.47 15.6709 59.32 17.7309 59.32 19.9609V25.2409C59.32 26.8309 59.97 27.5209 60.59 28.3809C60.81 28.6809 60.86 29.0509 60.58 29.2809C59.88 29.8609 58.66 30.9309 57.98 31.5309V31.5209ZM10.13 23.2609C10.13 24.5809 10.16 25.6809 9.49001 26.8609C8.96001 27.8109 8.10001 28.3909 7.15001 28.3909C5.85001 28.3909 5.09001 27.4009 5.09001 25.9409C5.09001 23.0509 7.68001 22.5309 10.13 22.5309V23.2609ZM13.55 31.5209C13.441 31.6148 13.3058 31.6729 13.1626 31.6872C13.0195 31.7015 12.8754 31.6714 12.75 31.6009C11.62 30.6709 11.42 30.2309 10.8 29.3409C8.94001 31.2409 7.63001 31.8109 5.21001 31.8109C2.36001 31.8109 0.140015 30.0509 0.140015 26.5309C0.140015 23.7809 1.64001 21.9009 3.76001 20.9909C5.60001 20.1809 8.16001 20.0309 10.13 19.8109V19.3709C10.13 18.5709 10.19 17.6109 9.72001 16.9209C9.30001 16.2909 8.52001 16.0309 7.82001 16.0309C6.52001 16.0309 5.37002 16.7009 5.09001 18.0709C5.03001 18.3709 4.81001 18.6709 4.50001 18.6909L1.22001 18.3409C0.940015 18.2709 0.630015 18.0509 0.710015 17.6309C1.47001 13.6409 5.07001 12.4409 8.29001 12.4409C9.94001 12.4409 12.09 12.8809 13.39 14.1309C15.04 15.6709 14.89 17.7309 14.89 19.9609V25.2409C14.89 26.8309 15.54 27.5209 16.16 28.3809C16.38 28.6809 16.43 29.0509 16.16 29.2809C15.46 29.8609 14.23 30.9309 13.56 31.5309H13.55V31.5209Z"/>
</mask>
<path fill-rule="evenodd" clip-rule="evenodd" d="M63.44 16.0409V13.5609C63.44 13.1809 63.73 12.9309 64.07 12.9309H75.2C75.56 12.9309 75.84 13.1809 75.84 13.5609V15.6909C75.84 16.0409 75.54 16.5109 75 17.2509L69.23 25.4909C71.4333 25.3703 73.6288 25.8398 75.59 26.8509C76.02 27.1009 76.14 27.4609 76.18 27.8209V30.4809C76.18 30.8409 75.78 31.2609 75.36 31.0409C73.5389 30.1048 71.5202 29.6181 69.4726 29.6216C67.425 29.6251 65.4079 30.1186 63.59 31.0609C63.2 31.2709 62.79 30.8609 62.79 30.4909V27.9709C62.79 27.5709 62.8 26.8709 63.21 26.2609L69.89 16.6609H64.07C63.72 16.6609 63.43 16.4209 63.43 16.0409H63.44ZM22.8 31.5709H19.41C19.2572 31.562 19.1126 31.4986 19.0025 31.3922C18.8924 31.2857 18.8241 31.1434 18.81 30.9909V13.5909C18.81 13.2509 19.1 12.9709 19.46 12.9709H22.62C22.95 12.9909 23.22 13.2409 23.24 13.5609V15.8309H23.3C24.12 13.6309 25.67 12.6109 27.76 12.6109C29.88 12.6109 31.21 13.6309 32.16 15.8309C32.4958 14.866 33.1308 14.0334 33.9725 13.4543C34.8142 12.8751 35.8188 12.5797 36.84 12.6109C38.26 12.6109 39.82 13.1909 40.76 14.5109C41.84 15.9709 41.62 18.1009 41.62 19.9609V30.9409C41.62 31.2909 41.32 31.5709 40.96 31.5709H37.58C37.4172 31.5633 37.2635 31.4939 37.1502 31.3768C37.0368 31.2597 36.9724 31.1038 36.97 30.9409V21.7209C36.97 20.9909 37.03 19.1609 36.87 18.4609C36.62 17.2909 35.86 16.9609 34.87 16.9609C34.06 16.9609 33.2 17.5109 32.85 18.3909C32.5 19.2709 32.54 20.7309 32.54 21.7209V30.9409C32.54 31.2909 32.24 31.5709 31.88 31.5709H28.5C28.3372 31.5633 28.1835 31.4939 28.0702 31.3768C27.9568 31.2597 27.8924 31.1038 27.89 30.9409V21.7209C27.89 19.7809 28.2 16.9209 25.79 16.9209C23.36 16.9209 23.46 19.7109 23.46 21.7209V30.9409C23.46 31.2909 23.16 31.5709 22.8 31.5709ZM85.44 12.6109C90.47 12.6109 93.19 16.9309 93.19 22.4109C93.19 27.7209 90.19 31.9309 85.44 31.9309C80.5 31.9309 77.82 27.6109 77.82 22.2309C77.82 16.8209 80.54 12.6109 85.44 12.6109ZM85.47 16.1609C82.97 16.1609 82.82 19.5609 82.82 21.6809C82.82 23.8109 82.78 28.3509 85.44 28.3509C88.07 28.3509 88.19 24.6909 88.19 22.4509C88.19 20.9909 88.13 19.2309 87.69 17.8509C87.31 16.6309 86.55 16.1509 85.47 16.1509V16.1609ZM99.71 31.5709H96.34C96.1772 31.5633 96.0235 31.4939 95.9102 31.3768C95.7968 31.2597 95.7324 31.1038 95.73 30.9409V13.5409C95.7475 13.3818 95.8239 13.2351 95.9442 13.1296C96.0645 13.0241 96.22 12.9675 96.38 12.9709H99.52C99.82 12.9909 100.06 13.1909 100.12 13.4609V16.1209H100.19C101.14 13.7409 102.47 12.6109 104.81 12.6109C106.33 12.6109 107.81 13.1509 108.76 14.6609C109.65 16.0509 109.65 18.3909 109.65 20.0709V31.0209C109.626 31.1772 109.545 31.3193 109.424 31.4205C109.302 31.5217 109.148 31.5752 108.99 31.5709H105.59C105.442 31.5631 105.301 31.5039 105.191 31.4036C105.082 31.3032 105.011 31.168 104.99 31.0209V21.5709C104.99 19.6709 105.22 16.8909 102.88 16.8909C102.454 16.9076 102.041 17.0479 101.693 17.2947C101.345 17.5415 101.077 17.8841 100.92 18.2809C100.5 19.3281 100.316 20.4546 100.38 21.5809V30.9409C100.38 31.2909 100.08 31.5709 99.71 31.5709ZM54.56 23.2609C54.56 24.5809 54.59 25.6809 53.93 26.8609C53.39 27.8109 52.53 28.3909 51.58 28.3909C50.28 28.3909 49.52 27.4009 49.52 25.9409C49.52 23.0509 52.1 22.5309 54.56 22.5309V23.2609ZM57.98 31.5209C57.871 31.6148 57.7358 31.6729 57.5926 31.6872C57.4495 31.7015 57.3054 31.6714 57.18 31.6009C56.05 30.6709 55.85 30.2309 55.23 29.3409C53.37 31.2409 52.05 31.8109 49.65 31.8109C46.79 31.8109 44.57 30.0509 44.57 26.5309C44.5293 25.3471 44.8552 24.1795 45.5031 23.1879C46.1511 22.1963 47.0895 21.429 48.19 20.9909C50.03 20.1809 52.59 20.0309 54.56 19.8109V19.3709C54.56 18.5709 54.62 17.6109 54.14 16.9209C53.74 16.2909 52.94 16.0309 52.24 16.0309C50.95 16.0309 49.8 16.7009 49.52 18.0709C49.46 18.3709 49.24 18.6709 48.93 18.6909L45.65 18.3409C45.37 18.2709 45.05 18.0509 45.15 17.6309C45.89 13.6409 49.5 12.4409 52.72 12.4409C54.37 12.4409 56.52 12.8809 57.82 14.1309C59.47 15.6709 59.32 17.7309 59.32 19.9609V25.2409C59.32 26.8309 59.97 27.5209 60.59 28.3809C60.81 28.6809 60.86 29.0509 60.58 29.2809C59.88 29.8609 58.66 30.9309 57.98 31.5309V31.5209ZM10.13 23.2609C10.13 24.5809 10.16 25.6809 9.49001 26.8609C8.96001 27.8109 8.10001 28.3909 7.15001 28.3909C5.85001 28.3909 5.09001 27.4009 5.09001 25.9409C5.09001 23.0509 7.68001 22.5309 10.13 22.5309V23.2609ZM13.55 31.5209C13.441 31.6148 13.3058 31.6729 13.1626 31.6872C13.0195 31.7015 12.8754 31.6714 12.75 31.6009C11.62 30.6709 11.42 30.2309 10.8 29.3409C8.94001 31.2409 7.63001 31.8109 5.21001 31.8109C2.36001 31.8109 0.140015 30.0509 0.140015 26.5309C0.140015 23.7809 1.64001 21.9009 3.76001 20.9909C5.60001 20.1809 8.16001 20.0309 10.13 19.8109V19.3709C10.13 18.5709 10.19 17.6109 9.72001 16.9209C9.30001 16.2909 8.52001 16.0309 7.82001 16.0309C6.52001 16.0309 5.37002 16.7009 5.09001 18.0709C5.03001 18.3709 4.81001 18.6709 4.50001 18.6909L1.22001 18.3409C0.940015 18.2709 0.630015 18.0509 0.710015 17.6309C1.47001 13.6409 5.07001 12.4409 8.29001 12.4409C9.94001 12.4409 12.09 12.8809 13.39 14.1309C15.04 15.6709 14.89 17.7309 14.89 19.9609V25.2409C14.89 26.8309 15.54 27.5209 16.16 28.3809C16.38 28.6809 16.43 29.0509 16.16 29.2809C15.46 29.8609 14.23 30.9309 13.56 31.5309H13.55V31.5209Z" fill="#18181B" stroke="#18181B" stroke-width="2" mask="url(#path-4-inside-1_0_9012)"/>
</g>
</g>
<defs>
<clipPath id="clip0_0_9012">
<rect width="110.14" height="48" fill="white" transform="translate(0 0.440918)"/>
</clipPath>
</defs>
</svg>
