<svg width="245" height="48" viewBox="0 0 245 48" fill="none" xmlns="http://www.w3.org/2000/svg">
<g clip-path="url(#clip0_0_8664)">
<path fill-rule="evenodd" clip-rule="evenodd" d="M238.826 36.4776C238.973 38.1503 240.323 40.2764 242.665 40.2764H244.035C244.29 40.2751 244.535 40.1741 244.716 39.9952C244.897 39.8164 244.999 39.5742 245 39.3213V9.52004H244.995C244.982 9.27648 244.875 9.04712 244.697 8.87899C244.518 8.71086 244.281 8.61669 244.035 8.6158H239.791C239.277 8.6158 238.86 9.01823 238.831 9.52004H238.824V11.9419C236.227 8.77095 232.125 7.45459 228.017 7.45459C223.528 7.45652 219.225 9.22241 216.052 12.3639C212.88 15.5053 211.098 19.765 211.099 24.2061C211.098 26.4053 211.535 28.5832 212.385 30.6153C213.234 32.6475 214.48 34.4942 216.051 36.0499C217.622 37.6057 219.487 38.84 221.54 39.6825C223.593 40.525 225.794 40.9591 228.017 40.96C232.125 40.96 236.606 39.3843 238.824 36.4752V36.4776H238.826ZM228.031 35.0958C222.09 35.0958 217.273 30.2231 217.273 24.2061C217.273 18.194 222.09 13.3164 228.031 13.3164C233.975 13.3164 238.792 18.194 238.792 24.2061C238.792 30.2231 233.975 35.0982 228.031 35.0982V35.0958ZM205.734 37.5031V22.0849C205.734 13.3891 200.194 7.52489 191.365 7.52489C187.148 7.52489 183.691 9.93944 182.471 12.0146C182.209 10.3903 181.339 8.68853 178.642 8.68853H177.27C177.014 8.6898 176.769 8.79084 176.589 8.96969C176.408 9.14854 176.306 9.39075 176.304 9.64368V39.4473H176.309C176.323 39.6907 176.43 39.9197 176.608 40.0877C176.787 40.2557 177.023 40.3501 177.27 40.3516H181.513C181.577 40.3516 181.641 40.3443 181.702 40.3322C181.731 40.3273 181.758 40.3152 181.785 40.3079C181.817 40.2982 181.849 40.291 181.878 40.2788C181.917 40.2643 181.952 40.2425 181.986 40.2231L182.037 40.194C182.079 40.1673 182.118 40.1358 182.157 40.1019L182.177 40.0849C182.355 39.9179 182.461 39.6896 182.474 39.4473H182.478V21.8425C182.478 20.7327 182.699 19.6337 183.128 18.6083C183.557 17.5828 184.185 16.651 184.978 15.8661C185.771 15.0811 186.712 14.4583 187.748 14.0333C188.785 13.6084 189.895 13.3895 191.017 13.3891C193.281 13.3904 195.453 14.2817 197.054 15.8669C198.654 17.4522 199.553 19.6016 199.552 21.8425L199.555 36.5576V36.5528L199.56 36.594V39.4473H199.565C199.578 39.6909 199.685 39.9202 199.863 40.0884C200.042 40.2565 200.279 40.3507 200.525 40.3516H204.769C204.835 40.3516 204.898 40.3443 204.96 40.3322L205.033 40.3103L205.136 40.2788C205.17 40.2643 205.202 40.2449 205.234 40.2255L205.295 40.194C205.334 40.1697 205.369 40.1382 205.406 40.1067L205.432 40.0849C205.471 40.0463 205.508 40.0058 205.543 39.9637L205.548 39.9516C205.653 39.8085 205.719 39.6364 205.729 39.4497H205.734V37.5031ZM161.541 36.4776C161.688 38.1503 163.04 40.2764 165.38 40.2764H166.752C167.007 40.2751 167.252 40.174 167.432 39.9951C167.613 39.8162 167.714 39.574 167.715 39.3213V9.52004H167.71C167.697 9.27648 167.59 9.04712 167.411 8.87899C167.233 8.71086 166.996 8.61669 166.749 8.6158H162.508C161.994 8.6158 161.577 9.01823 161.548 9.52004H161.543V11.9419C158.944 8.77095 154.845 7.45459 150.734 7.45459C146.246 7.45652 141.942 9.22241 138.769 12.3639C135.597 15.5053 133.815 19.765 133.817 24.2061C133.816 26.4053 134.252 28.5832 135.102 30.6153C135.952 32.6475 137.198 34.4942 138.768 36.0499C140.339 37.6057 142.205 38.84 144.258 39.6825C146.311 40.525 148.511 40.9591 150.734 40.96C154.845 40.96 159.323 39.3843 161.543 36.4752V36.4776H161.541ZM150.748 35.0958C144.807 35.0958 139.988 30.2231 139.988 24.2061C139.988 18.194 144.805 13.3164 150.748 13.3164C156.69 13.3164 161.506 18.194 161.506 24.2061C161.506 30.2231 156.69 35.0982 150.748 35.0982V35.0958ZM108.721 32.211C111.553 34.1528 114.645 35.0958 117.615 35.0958C120.447 35.0958 123.372 33.6437 123.372 31.1152C123.372 27.7382 116.997 27.2122 112.989 25.8643C108.983 24.5164 105.531 21.7285 105.531 17.2146C105.531 10.3055 111.747 7.45459 117.549 7.45459C121.224 7.45459 125.016 8.65459 127.473 10.3734C128.321 11.0085 127.804 11.7382 127.804 11.7382L125.457 15.057C125.195 15.4303 124.732 15.7552 124.07 15.3479C123.409 14.9455 121.086 13.3164 117.549 13.3164C114.008 13.3164 111.877 14.9358 111.877 16.9431C111.877 19.3479 114.645 20.1043 117.894 20.9237C123.549 22.434 129.718 24.2497 129.718 31.1152C129.718 37.2 123.97 40.9625 117.615 40.9625C112.803 40.9625 108.702 39.6025 105.267 37.1055C104.549 36.3952 105.049 35.7358 105.049 35.7358L107.383 32.434C107.859 31.8158 108.459 32.0316 108.721 32.211ZM92.4066 36.4776C92.5536 38.1503 93.906 40.2764 96.2482 40.2764H97.6178C97.8734 40.2751 98.1182 40.1741 98.2989 39.9952C98.4797 39.8164 98.5818 39.5742 98.5831 39.3213V9.52004H98.5757C98.5626 9.2769 98.4562 9.04789 98.2781 8.87982C98.1001 8.71175 97.8639 8.61731 97.6178 8.6158H93.3744C92.8599 8.6158 92.4434 9.01823 92.4115 9.52004H92.4066V11.9419C89.8096 8.77095 85.7083 7.45459 81.5972 7.45459C77.109 7.45652 72.8053 9.22241 69.6328 12.3639C66.4602 15.5053 64.6787 19.765 64.68 24.2061C64.679 26.4053 65.1158 28.5832 65.9655 30.6153C66.8151 32.6475 68.061 34.4942 69.6319 36.0499C71.2028 37.6057 73.068 38.84 75.121 39.6825C77.1741 40.525 79.3747 40.9591 81.5972 40.96C85.7083 40.96 90.1869 39.3843 92.4066 36.4752V36.4776ZM81.6144 35.0958C75.6731 35.0958 70.854 30.2231 70.854 24.2061C70.854 18.194 75.6731 13.3164 81.6144 13.3164C87.5556 13.3164 92.3748 18.194 92.3748 24.2061C92.3748 30.2231 87.5556 35.0982 81.6144 35.0982V35.0958Z" fill="#18181B"/>
<path fill-rule="evenodd" clip-rule="evenodd" d="M40.964 25.3455C37.9445 25.3455 35.0486 26.5324 32.9135 28.645C30.7784 30.7577 29.5789 33.6231 29.5789 36.6109C29.5789 39.5987 30.7784 42.4641 32.9135 44.5768C35.0486 46.6895 37.9445 47.8764 40.964 47.8764C43.9835 47.8764 46.8794 46.6895 49.0145 44.5768C51.1496 42.4641 52.3492 39.5987 52.3492 36.6109C52.3492 33.6231 51.1496 30.7577 49.0145 28.645C46.8794 26.5324 43.9835 25.3455 40.964 25.3455ZM11.3852 25.3455C8.36562 25.3455 5.46976 26.5324 3.33463 28.645C1.1995 30.7577 0 33.6231 0 36.6109C0 39.5987 1.1995 42.4641 3.33463 44.5768C5.46976 46.6895 8.36562 47.8764 11.3852 47.8764C14.3754 47.833 17.2284 46.6271 19.3275 44.5194C21.4266 42.4116 22.6033 39.5713 22.6033 36.6121C22.6033 33.653 21.4266 30.8126 19.3275 28.7049C17.2284 26.5972 14.3754 25.3913 11.3852 25.3479V25.3455ZM37.5585 11.2679C37.5585 12.7473 37.264 14.2122 36.6919 15.579C36.1197 16.9458 35.2811 18.1877 34.2239 19.2338C33.1667 20.2799 31.9116 21.1097 30.5303 21.6758C29.1489 22.242 27.6685 22.5333 26.1734 22.5333C24.6782 22.5333 23.1978 22.242 21.8164 21.6758C20.4351 21.1097 19.18 20.2799 18.1228 19.2338C17.0656 18.1877 16.227 16.9458 15.6548 15.579C15.0827 14.2122 14.7882 12.7473 14.7882 11.2679C14.7882 8.28011 15.9877 5.4147 18.1228 3.30202C20.258 1.18933 23.1538 0.00244141 26.1734 0.00244141C29.1929 0.00244141 32.0887 1.18933 34.2239 3.30202C36.359 5.4147 37.5585 8.28011 37.5585 11.2679Z" fill="#F06A6A"/>
</g>
<defs>
<clipPath id="clip0_0_8664">
<rect width="245" height="48" fill="white"/>
</clipPath>
</defs>
</svg>
