<svg width="165" height="48" viewBox="0 0 165 48" fill="none" xmlns="http://www.w3.org/2000/svg">
<g clip-path="url(#clip0_0_8329)">
<mask id="mask0_0_8329" style="mask-type:luminance" maskUnits="userSpaceOnUse" x="0" y="0" width="165" height="48">
<path d="M0 0H164.654V48H0V0Z" fill="white"/>
</mask>
<g mask="url(#mask0_0_8329)">
<path d="M28.3365 45.4507L42.7716 42.8707L42.9099 42.8407L35.4898 33.8907C31.3994 28.9707 28.05 24.9307 28.05 24.9107C28.05 24.8907 35.7269 3.49074 35.7665 3.41074C35.7665 3.38074 41.003 12.5107 48.4132 25.5107L61.1587 47.8607L61.2575 48.0307H14.0299L28.3563 45.4707H28.3464L28.3365 45.4507ZM118.869 43.2907C117.243 43.2759 115.686 42.6237 114.526 41.4712C113.365 40.3188 112.691 38.7558 112.645 37.1107C112.412 34.531 112.36 31.938 112.487 29.3507V22.8707H115.668V29.1407C115.668 34.7907 115.688 35.4407 115.737 35.8407C115.817 37.118 116.302 38.3351 117.12 39.3107C117.713 39.9407 118.504 40.3607 119.343 40.4907C120.055 40.5907 120.776 40.5907 121.478 40.4907C122.396 40.3041 123.239 39.8445 123.898 39.1707C124.728 38.2908 125.296 37.1923 125.538 36.0007L125.627 35.5707V22.9307H128.888V42.8007H125.667V41.2307C125.688 40.7038 125.675 40.176 125.627 39.6507C125.558 39.7407 125.489 39.8307 125.44 39.9407C124.799 41.0971 123.831 42.0319 122.659 42.624C121.487 43.216 120.167 43.4379 118.869 43.2607V43.2907ZM155.347 43.2707C154.038 43.161 152.773 42.7433 151.652 42.0507C150.477 41.2719 149.498 40.2264 148.793 38.9972C148.088 37.7681 147.677 36.3893 147.591 34.9707C147.453 33.7707 147.433 32.5607 147.551 31.3607C147.789 29.2607 148.569 27.2807 149.824 25.6007C150.729 24.4338 151.914 23.5213 153.267 22.9505C154.62 22.3797 156.094 22.1698 157.55 22.3407C159.508 22.5101 161.321 23.451 162.599 24.9607C163.954 26.7491 164.675 28.9473 164.644 31.2007C164.644 31.6007 164.664 32.3207 164.644 32.8007L164.625 33.6407H150.703V33.9507C150.715 34.9758 150.927 35.9885 151.326 36.9307C151.652 37.7107 152.136 38.4307 152.739 39.0207C153.73 39.8831 154.964 40.4079 156.266 40.5207C158.64 40.7306 161.009 40.0549 162.925 38.6207L163.241 38.4007C163.31 38.8907 163.33 39.3807 163.281 39.8707V41.3707L162.955 41.5707C161.536 42.4521 159.945 43.0116 158.291 43.2107C157.303 43.2807 156.315 43.2907 155.327 43.2507L155.347 43.2707ZM161.404 30.6607C161.412 29.075 160.838 27.5426 159.793 26.3607C159.122 25.7071 158.265 25.2838 157.343 25.1507C156.704 25.0816 156.06 25.0984 155.426 25.2007C154.438 25.4007 153.539 25.8807 152.828 26.6007C151.703 27.7204 150.98 29.1879 150.772 30.7707L150.743 30.9407H161.413V30.6607H161.404ZM66.988 42.7707L72.2542 28.8107L77.4808 14.8807H80.8401L80.9883 15.2407L91.4614 42.8007C91.4614 42.8107 90.6611 42.8207 89.6829 42.8207H87.8847L86.4323 38.9107L84.9799 35.0107H73.3114L73.262 35.1407L71.8787 39.0407L70.5548 42.8207H68.7665C68.1736 42.8607 67.5808 42.8507 66.988 42.7807V42.7707ZM83.9228 32.0207L81.7491 26.0707C80.717 23.6549 79.8745 21.1605 79.2296 18.6107C79.1407 18.1507 79.1012 18.1407 79.0518 18.5507C78.9826 19.0107 78.8739 19.4507 78.7455 19.9007L76.5126 26.1007L74.3883 32.0007C74.3883 32.0107 76.5323 32.0307 79.1506 32.0307H83.9228V32.0207ZM92.5581 42.3107V41.8007L98.3677 33.7007L104.187 25.6207L98.921 25.6007L93.6548 25.5807V22.8807H108.91V23.7807L103.061 31.9207L97.2413 40.0807L102.992 40.0907H108.742V42.8207H92.5482V42.3107H92.5581ZM135.241 42.7907C135.241 42.7907 135.211 38.2907 135.211 32.8207V22.8707H138.393V24.9207C138.393 26.0507 138.393 26.9707 138.422 26.9707C138.501 26.8407 138.551 26.7107 138.59 26.5707C138.966 25.5107 139.578 24.5707 140.369 23.8007C140.837 23.3415 141.396 22.9882 142.009 22.7641C142.622 22.54 143.275 22.4502 143.925 22.5007C144.419 22.4907 144.913 22.5607 145.378 22.7007L145.516 22.7507V26.0907L145.131 25.8907C144.483 25.5618 143.759 25.4166 143.036 25.4707C142.382 25.4925 141.743 25.6773 141.176 26.0087C140.609 26.3401 140.131 26.808 139.786 27.3707C139.071 28.5488 138.617 29.8687 138.452 31.2407C138.432 31.4807 138.412 33.4107 138.412 37.2107V42.8107H136.851C135.962 42.8107 135.251 42.8107 135.231 42.7907H135.241ZM0 42.7207L7.77575 29.0607L15.5614 15.4107L24.6314 7.71074C29.6111 3.49074 33.7015 0.0107422 33.7213 0.0107422C33.6817 0.130742 33.6323 0.260742 33.5731 0.370742L23.7323 21.7607L14.0497 42.7307H0V42.7207Z" fill="#0089D6"/>
</g>
</g>
<defs>
<clipPath id="clip0_0_8329">
<rect width="165" height="48" fill="white"/>
</clipPath>
</defs>
</svg>
