<svg width="307" height="48" viewBox="0 0 307 48" fill="none" xmlns="http://www.w3.org/2000/svg">
<g clip-path="url(#clip0_0_8302)">
<mask id="mask0_0_8302" style="mask-type:luminance" maskUnits="userSpaceOnUse" x="0" y="0" width="307" height="48">
<path d="M0 0H306.408V48H0V0Z" fill="white"/>
</mask>
<g mask="url(#mask0_0_8302)">
<path d="M66.8292 25.901L68.8035 31.601H71.0739L65.1511 13.401H62.3871L56.2668 31.601H58.7347L60.5115 25.901H66.9279H66.8292ZM60.9064 24.101L62.6832 18.801C63.0463 17.7117 63.3755 16.6112 63.6704 15.501C63.9665 16.501 64.164 17.601 64.6575 18.801L66.3357 24.101H60.9064ZM72.7521 31.601H83.3144V29.701H75.7135L77.3916 27.701L83.117 20.001V18.601H73.3443V20.501H80.2543L78.6749 22.501L72.7521 30.201V31.601ZM96.6408 18.601H94.2717V26.601C94.2717 27.001 94.2717 27.401 94.0742 27.801C93.8167 28.4318 93.3776 28.9695 92.8142 29.3441C92.2508 29.7186 91.5892 29.9127 90.9154 29.901C88.8424 29.901 88.0527 28.301 88.0527 25.801V18.601H85.6836V26.201C85.6836 30.801 88.1514 31.901 90.2244 31.901C91.0762 31.906 91.9148 31.6876 92.6586 31.2671C93.4025 30.8465 94.0262 30.2381 94.4691 29.501L94.6665 31.601H96.6408V18.601ZM100.589 31.601H102.958V23.601C102.99 23.1275 103.122 22.6665 103.346 22.2494C103.569 21.8323 103.879 21.469 104.254 21.1843C104.629 20.8995 105.06 20.7 105.518 20.5993C105.976 20.4987 106.449 20.4992 106.907 20.601V18.301H106.315C105.511 18.3453 104.74 18.6373 104.105 19.1377C103.47 19.6381 103.001 20.3231 102.761 21.101H102.662L102.564 18.601H100.589V31.601ZM119.542 25.601V24.401C119.542 22.001 118.555 18.301 114.311 18.301C110.559 18.301 108.289 21.301 108.289 25.301C108.2 26.1726 108.301 27.0534 108.584 27.8813C108.868 28.7093 109.326 29.4644 109.929 30.0934C110.531 30.7225 111.262 31.2103 112.07 31.5226C112.878 31.8349 113.744 31.964 114.607 31.901C116.087 31.901 117.568 31.601 118.851 31.101L118.457 29.401C117.371 29.901 116.186 30.101 114.903 30.001C114.308 30.0458 113.711 29.9602 113.152 29.7499C112.593 29.5396 112.085 29.2096 111.664 28.7824C111.242 28.3553 110.916 27.841 110.709 27.2747C110.501 26.7084 110.416 26.1034 110.461 25.501H119.542V25.601ZM110.559 23.801C110.579 22.8232 110.951 21.8865 111.606 21.1679C112.261 20.4493 113.153 19.9986 114.113 19.901C114.6 19.9078 115.08 20.0218 115.519 20.2353C115.958 20.4487 116.346 20.7564 116.656 21.137C116.966 21.5176 117.191 21.962 117.314 22.4393C117.437 22.9166 117.457 23.4153 117.371 23.901H110.461L110.559 23.801ZM137.804 25.801L139.779 31.601H142.148L136.028 13.401H133.264L127.143 31.601H129.611L131.289 26.001H137.706L137.804 25.801ZM131.882 24.101L133.658 18.801L134.646 15.501C134.843 16.501 135.139 17.601 135.633 18.801L137.311 24.101H131.882ZM153.303 29.301C152.422 29.7748 151.437 30.0155 150.44 30.001C149.821 29.991 149.211 29.85 148.649 29.5871C148.087 29.3242 147.585 28.9452 147.176 28.4744C146.767 28.0036 146.46 27.4514 146.274 26.8533C146.088 26.2551 146.028 25.6242 146.096 25.001C146.026 24.3609 146.091 23.7129 146.289 23.1007C146.486 22.4885 146.811 21.9264 147.242 21.4524C147.672 20.9784 148.198 20.6036 148.784 20.3532C149.37 20.1028 150.002 19.9827 150.637 20.001C151.624 20.001 152.612 20.301 153.401 20.701L153.895 18.901C152.87 18.4358 151.76 18.1971 150.637 18.201C149.715 18.1424 148.791 18.2833 147.926 18.6144C147.061 18.9455 146.276 19.4591 145.623 20.1212C144.969 20.7832 144.462 21.5786 144.135 22.4544C143.809 23.3303 143.669 24.2665 143.727 25.201C143.67 26.0741 143.797 26.9495 144.098 27.7696C144.399 28.5897 144.868 29.336 145.474 29.9594C146.08 30.5828 146.809 31.0692 147.614 31.3866C148.419 31.704 149.281 31.8452 150.144 31.801C151.427 31.801 152.71 31.601 153.796 31.001L153.401 29.201L153.303 29.301ZM157.449 15.401V18.601H155.474V20.401H157.449V27.401C157.412 28.6431 157.757 29.866 158.436 30.901C158.754 31.2341 159.139 31.4953 159.564 31.6676C159.99 31.8399 160.446 31.9194 160.903 31.901C161.594 31.901 162.384 31.801 162.976 31.601V29.801L161.594 29.901C160.212 29.901 159.818 29.001 159.818 27.401V20.401H163.174V18.501H159.818V14.801L157.449 15.401ZM168.307 31.601V18.601H165.839V31.601H168.11H168.307ZM167.122 13.401C166.924 13.3861 166.725 13.4146 166.539 13.4847C166.353 13.5548 166.183 13.6648 166.043 13.8072C165.902 13.9496 165.794 14.121 165.724 14.3098C165.655 14.4985 165.627 14.7002 165.642 14.901C165.642 15.0848 165.678 15.2669 165.747 15.4368C165.816 15.6066 165.918 15.7609 166.047 15.8909C166.175 16.021 166.327 16.1241 166.495 16.1944C166.663 16.2648 166.842 16.301 167.024 16.301C167.213 16.3148 167.404 16.2887 167.583 16.2246C167.762 16.1604 167.926 16.0595 168.065 15.9281C168.204 15.7967 168.315 15.6376 168.391 15.4609C168.466 15.2842 168.505 15.0936 168.504 14.901C168.518 14.7089 168.492 14.5161 168.429 14.3345C168.366 14.1529 168.266 13.9865 168.136 13.8457C168.007 13.705 167.85 13.5928 167.675 13.5163C167.501 13.4398 167.313 13.4005 167.122 13.401ZM170.676 18.601L175.612 31.601H177.784L182.917 18.601H180.449L177.882 25.901L176.895 29.201H176.796C176.523 28.0848 176.193 26.9834 175.809 25.901L173.144 18.601H170.775H170.676ZM195.355 25.601V24.401C195.355 22.001 194.367 18.301 190.024 18.301C186.273 18.301 184.101 21.301 184.101 25.301C184.014 26.1637 184.113 27.0353 184.391 27.8557C184.668 28.676 185.118 29.4257 185.709 30.053C186.3 30.6803 187.019 31.1703 187.815 31.4894C188.611 31.8084 189.465 31.9488 190.32 31.901C191.801 31.901 193.282 31.601 194.664 31.101L194.269 29.401C193.084 29.901 191.9 30.101 190.715 30.001C190.12 30.0458 189.523 29.9602 188.964 29.7499C188.405 29.5396 187.898 29.2096 187.476 28.7824C187.054 28.3553 186.728 27.841 186.521 27.2747C186.313 26.7084 186.229 26.1034 186.273 25.501H195.355V25.601ZM186.273 23.801C186.295 22.8075 186.681 21.8577 187.356 21.1368C188.031 20.4158 188.947 19.9753 189.925 19.901C190.404 19.9218 190.873 20.0462 191.3 20.2658C191.727 20.4853 192.103 20.795 192.402 21.1739C192.701 21.5528 192.917 21.9922 193.035 22.4626C193.152 22.933 193.169 23.4234 193.084 23.901H186.273V23.801ZM204.338 31.601L208.484 31.801C211.445 32.001 214.209 31.001 216.381 29.201C217.309 28.2603 218.033 27.1345 218.509 25.8951C218.985 24.6557 219.201 23.3296 219.145 22.001C219.203 20.7943 219.005 19.589 218.562 18.4672C218.119 17.3455 217.442 16.3337 216.578 15.501C214.604 13.801 211.939 13.001 209.273 13.201C207.694 13.201 206.016 13.301 204.338 13.601V31.501V31.601ZM206.608 15.401C207.595 15.201 208.385 15.101 209.372 15.201C214.308 15.201 216.578 17.901 216.578 22.201C216.578 27.101 213.913 29.901 208.977 29.901L206.608 29.801V15.401ZM224.376 31.601V18.601H222.106V31.601H224.376ZM223.291 13.401C223.092 13.3861 222.893 13.4146 222.707 13.4847C222.521 13.5548 222.351 13.6648 222.211 13.8072C222.07 13.9496 221.962 14.121 221.893 14.3098C221.823 14.4985 221.795 14.7002 221.81 14.901C221.811 15.1831 221.897 15.4582 222.056 15.6902C222.214 15.9222 222.438 16.1002 222.698 16.201L223.192 16.301C223.382 16.3148 223.572 16.2887 223.751 16.2246C223.93 16.1604 224.095 16.0595 224.234 15.9281C224.373 15.7967 224.483 15.6376 224.559 15.4609C224.634 15.2842 224.673 15.0936 224.673 14.901C224.686 14.7089 224.661 14.5161 224.597 14.3345C224.534 14.1529 224.434 13.9865 224.304 13.8457C224.175 13.705 224.018 13.5928 223.843 13.5163C223.669 13.4398 223.481 13.4005 223.291 13.401ZM228.424 31.601H230.793V23.601C230.825 23.1275 230.957 22.6665 231.18 22.2494C231.404 21.8323 231.714 21.469 232.088 21.1843C232.463 20.8995 232.894 20.7 233.352 20.5993C233.81 20.4987 234.284 20.4992 234.741 20.601V18.301H234.149C233.346 18.3453 232.575 18.6373 231.94 19.1377C231.305 19.6381 230.836 20.3231 230.595 21.101H230.497L230.398 18.601H228.424V31.601ZM247.377 25.601V24.401C247.377 22.001 246.39 18.301 242.145 18.301C238.394 18.301 236.123 21.301 236.123 25.301C236.035 26.1726 236.135 27.0534 236.419 27.8813C236.702 28.7093 237.161 29.4644 237.763 30.0934C238.365 30.7225 239.096 31.2103 239.904 31.5226C240.712 31.8349 241.578 31.964 242.441 31.901C243.922 31.901 245.403 31.601 246.686 31.101L246.291 29.401C245.205 29.901 244.021 30.101 242.737 30.001C242.143 30.0458 241.545 29.9602 240.986 29.7499C240.427 29.5396 239.92 29.2096 239.498 28.7824C239.076 28.3553 238.751 27.841 238.543 27.2747C238.335 26.7084 238.251 26.1034 238.295 25.501H247.377V25.601ZM238.394 23.801C238.433 22.8561 238.802 21.9558 239.435 21.2602C240.067 20.5645 240.922 20.1184 241.849 20.001C242.317 20.0116 242.777 20.1212 243.2 20.3226C243.624 20.5241 244.001 20.813 244.308 21.1708C244.614 21.5286 244.844 21.9474 244.981 22.4004C245.119 22.8533 245.162 23.3304 245.106 23.801H238.196H238.394ZM259.321 29.301C258.334 29.801 257.347 30.001 256.36 30.001C255.742 30.0035 255.13 29.8753 254.563 29.6245C253.997 29.3738 253.489 29.0061 253.07 28.5449C252.652 28.0837 252.334 27.5392 252.135 26.9461C251.937 26.3531 251.863 25.7247 251.918 25.101C251.847 24.4609 251.912 23.8129 252.11 23.2007C252.307 22.5885 252.632 22.0264 253.063 21.5524C253.493 21.0784 254.019 20.7036 254.605 20.4532C255.191 20.2028 255.823 20.0827 256.458 20.101C257.446 20.101 258.433 20.401 259.222 20.801L259.716 19.001C258.692 18.5358 257.581 18.2971 256.458 18.301C255.536 18.2424 254.612 18.3833 253.747 18.7144C252.883 19.0455 252.098 19.5591 251.444 20.2212C250.79 20.8832 250.283 21.6786 249.957 22.5544C249.63 23.4303 249.491 24.3665 249.549 25.301C249.492 26.1741 249.618 27.0495 249.919 27.8696C250.22 28.6897 250.689 29.436 251.295 30.0594C251.901 30.6828 252.63 31.1692 253.435 31.4866C254.24 31.804 255.102 31.9452 255.965 31.901C257.248 31.901 258.531 31.701 259.716 31.101L259.321 29.301ZM263.467 15.401V18.601H261.493V20.401H263.467V27.401C263.27 28.701 263.665 29.901 264.356 30.901C264.686 31.2472 265.086 31.5161 265.53 31.6888C265.973 31.8615 266.448 31.934 266.922 31.901C267.613 31.901 268.304 31.801 268.896 31.601V29.801L267.514 29.901C266.132 29.901 265.738 29.001 265.738 27.401V20.401H269.094V18.601H265.738V14.801L263.467 15.401ZM277.188 18.301C273.536 18.301 270.772 20.801 270.772 25.201C270.703 26.0647 270.813 26.9336 271.096 27.7514C271.379 28.5693 271.827 29.318 272.413 29.9493C272.999 30.5806 273.71 31.0805 274.498 31.4167C275.286 31.7528 276.136 31.9178 276.991 31.901C277.881 31.9191 278.765 31.7463 279.585 31.3941C280.404 31.0419 281.141 30.5181 281.747 29.8572C282.353 29.1962 282.814 28.413 283.1 27.5589C283.386 26.7047 283.491 25.799 283.407 24.901C283.407 20.901 280.841 18.301 277.188 18.301ZM277.188 20.001C279.854 20.001 280.94 22.801 280.94 25.001C280.94 28.001 279.261 30.101 276.991 30.101C274.721 30.101 273.042 28.001 273.042 25.101C273.042 22.601 274.326 20.101 277.09 20.101L277.188 20.001ZM286.467 31.601H288.738V24.601L288.837 23.601C288.868 23.1275 289 22.6665 289.224 22.2494C289.448 21.8323 289.757 21.469 290.132 21.1843C290.507 20.8995 290.938 20.7 291.396 20.5993C291.854 20.4987 292.328 20.4992 292.785 20.601V18.301H292.193C291.372 18.3252 290.58 18.6078 289.925 19.1097C289.27 19.6115 288.786 20.3076 288.54 21.101L288.343 18.601H286.369V31.601H286.467ZM294.266 18.601L299.004 30.601L299.202 31.201L299.004 31.801C298.511 32.801 297.918 33.701 297.03 34.401C296.456 34.928 295.785 35.3357 295.056 35.601L295.549 37.601C296.638 37.2888 297.648 36.7431 298.511 36.001C299.991 34.601 301.176 32.301 302.854 27.901L306.408 18.601H303.94L301.373 26.201L300.485 28.901L299.596 26.301L296.832 18.601H294.167H294.266Z" fill="#287FCF"/>
<mask id="mask1_0_8302" style="mask-type:luminance" maskUnits="userSpaceOnUse" x="0" y="0" width="47" height="48">
<path d="M46.9878 0H0V48H46.9878V0Z" fill="white"/>
</mask>
<g mask="url(#mask1_0_8302)">
<path d="M23.4939 48.0002H23.3952C15.6305 41.4256 7.83204 34.8922 0 28.4002C7.81415 18.929 15.7116 9.52862 23.6913 0.200195C31.399 9.71539 39.1646 19.1822 46.9878 28.6002C39.2446 35.1757 31.4126 41.6429 23.4939 48.0002ZM13.4251 30.2002C15.9207 31.6427 18.4215 33.0761 20.9273 34.5002C20.9273 34.8002 20.8286 35.0002 20.6312 35.2002C20.3762 35.7474 20.244 36.3451 20.244 36.9502C20.244 37.5553 20.3762 38.153 20.6312 38.7002C21.026 39.5002 21.717 40.1002 22.6055 40.4002C22.9016 40.6002 23.2965 40.6002 23.5926 40.6002L24.6785 40.5002C25.6656 40.1002 26.4553 39.5002 26.9489 38.5002C27.3437 37.6002 27.3437 36.6002 27.0476 35.7002C26.7514 35.0002 26.7514 34.8002 27.3437 34.3002C29.284 32.8663 31.2937 31.5313 33.3653 30.3002C33.7601 30.3002 34.0563 30.4002 34.3524 30.6002C34.8771 30.9542 35.4995 31.1294 36.1293 31.1002C36.5729 31.1242 37.0162 31.0468 37.4263 30.8737C37.8364 30.7006 38.2028 30.4362 38.4984 30.1002C39.0907 29.7002 39.4855 29.1002 39.683 28.3002C39.7817 27.7002 39.7817 26.9002 39.5842 26.3002C39.1894 25.3002 38.4984 24.7002 37.61 24.3002C37.2151 24.1002 36.6228 24.0002 36.228 24.0002C35.7344 24.0002 35.2408 24.0002 34.846 24.3002L33.8588 24.5002L33.0691 23.9002C31.0385 21.4464 29.0637 18.9458 27.1463 16.4002L27.3437 15.7002C27.5789 15.1143 27.6659 14.4781 27.597 13.8495C27.528 13.2208 27.3052 12.6196 26.9489 12.1002C26.6104 11.5662 26.1421 11.1294 25.5889 10.8317C25.0357 10.5339 24.4163 10.3854 23.79 10.4002C22.8961 10.3324 22.0112 10.6193 21.3222 11.2002C20.6312 11.8002 20.1376 12.6002 19.9402 13.4002C19.725 14.3076 19.8297 15.2628 20.2363 16.1002L20.6312 16.9002L19.3479 18.1002C17.089 20.2497 14.7852 22.3501 12.4379 24.4002L11.8457 24.2002C11.2016 24.0057 10.5155 24.0057 9.87138 24.2002C9.2791 24.3002 8.68682 24.6002 8.29196 25.2002C7.96025 25.4996 7.69928 25.8708 7.5284 26.2862C7.35753 26.7017 7.28111 27.1508 7.30482 27.6002C7.26132 28.0906 7.33761 28.5842 7.52698 29.0377C7.71635 29.4911 8.01297 29.8904 8.39068 30.2002C8.98296 30.8002 9.87138 31.2002 10.6611 31.2002C11.4508 31.2002 12.1418 31.0002 12.6354 30.5002L13.4251 30.2002ZM24.3823 34.0002L24.1849 33.6002L24.0862 32.6002V26.3002L23.9875 19.1002L24.7772 18.5002L25.7643 17.9002C26.0605 17.9002 26.7514 18.6002 30.2064 22.6002L32.8717 25.9002V28.4002C32.6743 28.7002 32.082 29.2002 26.3566 32.8002L24.9746 33.6002L24.3823 34.0002ZM22.5068 33.9002C19.6445 32.2774 16.8456 30.5428 14.1161 28.7002V27.7002C14.1161 27.3002 14.1161 26.9002 13.9187 26.5002L13.6225 25.6002L14.0174 25.2002C15.1898 23.9862 16.4082 22.8187 17.6698 21.7002L20.6312 19.1002L21.9145 17.9002L22.5068 18.5002L22.9016 19.1002V26.4002C22.9016 32.8002 22.9016 33.7002 22.7042 33.8002H22.5068V33.9002Z" fill="#0079D6"/>
</g>
</g>
</g>
<defs>
<clipPath id="clip0_0_8302">
<rect width="307" height="48" fill="white"/>
</clipPath>
</defs>
</svg>
