<svg width="315" height="48" viewBox="0 0 315 48" fill="none" xmlns="http://www.w3.org/2000/svg">
<g clip-path="url(#clip0_0_8253)">
<mask id="mask0_0_8253" style="mask-type:luminance" maskUnits="userSpaceOnUse" x="0" y="0" width="315" height="48">
<path d="M314.143 0H0V48H314.143V0Z" fill="white"/>
</mask>
<g mask="url(#mask0_0_8253)">
<path fill-rule="evenodd" clip-rule="evenodd" d="M311.96 19.67C311.76 19.84 311.491 19.96 311.202 19.99L312.398 21.79H311.701L310.564 20.02H309.896V21.8H309.258V17.65H310.823C311.232 17.62 311.581 17.71 311.9 17.95C312.02 18.06 312.139 18.21 312.199 18.35C312.249 18.53 312.279 18.67 312.249 18.85C312.249 19 312.249 19.15 312.189 19.29C312.151 19.4438 312.059 19.5786 311.93 19.67H311.96ZM310.564 19.49H310.963C310.963 19.49 311.202 19.46 311.322 19.4C311.416 19.3578 311.496 19.2881 311.551 19.2C311.611 19.08 311.671 18.94 311.641 18.82C311.641 18.7 311.641 18.59 311.551 18.5C311.521 18.41 311.431 18.35 311.382 18.32C311.262 18.3 311.182 18.24 311.082 18.21H309.886V19.52H310.564V19.49ZM313.874 18.29C314.213 19.1924 314.213 20.1876 313.874 21.09C313.705 21.5262 313.451 21.924 313.126 22.26C312.807 22.58 312.428 22.82 311.99 23.02C311.112 23.34 310.125 23.34 309.258 23.02C308.836 22.8398 308.45 22.5821 308.122 22.26C307.784 21.9255 307.52 21.5244 307.345 21.082C307.17 20.6396 307.088 20.1656 307.105 19.69C307.105 19.23 307.185 18.73 307.364 18.29C307.533 17.8636 307.789 17.4772 308.115 17.1553C308.441 16.8333 308.831 16.5829 309.258 16.42C310.135 16.0704 311.112 16.0704 311.99 16.42C312.838 16.7796 313.516 17.4527 313.884 18.3L313.874 18.29ZM313.295 20.89C313.445 20.51 313.525 20.1 313.495 19.69C313.495 19.29 313.445 18.91 313.295 18.5C313.148 18.1572 312.942 17.8426 312.687 17.57C312.412 17.304 312.096 17.0845 311.75 16.92C311.393 16.7722 311.011 16.6941 310.624 16.69C310.236 16.6952 309.854 16.777 309.498 16.9305C309.142 17.0841 308.819 17.3066 308.549 17.5852C308.279 17.8638 308.066 18.193 307.922 18.5542C307.779 18.9153 307.708 19.3013 307.713 19.69C307.717 20.4939 308.019 21.2676 308.56 21.86C308.82 22.12 309.139 22.36 309.488 22.5C309.836 22.64 310.215 22.73 310.624 22.76C311.408 22.7437 312.156 22.4291 312.717 21.88C312.976 21.59 313.176 21.28 313.325 20.89H313.295ZM17.1655 3.82C20.8837 7.82 21.2924 10.01 22.5983 13.89L24.8411 21.21C24.8411 21.21 22.6282 20.81 20.8538 20.51C18.7604 20.19 17.8633 19.9 15.2117 18.82C12.5402 17.74 10.1777 15.06 7.85507 12.08C5.50253 9.1 0.0299072 4.46 0.0299072 4.46C1.1663 4.56 2.32263 4.73 3.42912 5.02C6.4894 5.89 9.45 7.06 12.271 8.55C13.1184 8.95 13.5869 9.28 14.3943 9.78C15.7899 10.71 17.0758 11.78 18.2421 13.04C19.7174 14.56 21.0332 15.79 22.1297 17.13C20.9535 14.88 17.8135 6.8 11.663 0.119997C11.1147 -0.530003 15.9494 2.48 17.1954 3.82H17.1655ZM165.624 14.71C174.317 14.71 181.793 22.29 181.793 31.08C181.793 40.56 174.616 47.94 165.096 47.94C156.463 47.94 148.947 41.81 148.947 31.95V2.95H153.961V19.52L154.539 18.91C156.722 16.72 159.833 14.71 165.624 14.71ZM165.126 43.36C172.203 43.36 176.699 38.26 176.699 31.54C176.699 25.39 172.463 19.49 165.235 19.49C158.028 19.49 153.523 24.98 153.523 31.69C153.523 33.21 153.782 34.72 154.36 36.15C154.925 37.5781 155.78 38.8723 156.872 39.95C157.952 41.0363 159.235 41.897 160.648 42.4823C162.062 43.0676 163.577 43.366 165.106 43.36H165.126ZM43.8309 14.71C52.5332 14.71 60.0394 22.29 60.0394 31.08C60.0394 40.56 52.8522 47.94 43.3424 47.94C34.6998 47.94 27.1937 41.81 27.1937 31.95V-0.0500031H32.1978V19.52L32.7859 18.91C34.959 16.72 38.0691 14.71 43.8608 14.71H43.8309ZM43.3324 43.36C50.4399 43.36 54.9157 38.26 54.9157 31.54C54.9157 25.39 50.6692 19.49 43.4321 19.49C36.1851 19.49 31.7293 24.98 31.7293 31.69C31.6957 34.0007 32.358 36.2677 33.6297 38.1946C34.9013 40.1216 36.7231 41.6186 38.8567 42.49C40.2821 43.07 41.7674 43.36 43.3125 43.36H43.3424H43.3324ZM303.636 25.04C303.607 27.0253 302.902 28.941 301.639 30.469C300.375 31.997 298.628 33.0454 296.688 33.44L306.138 46.45H301.513L292.472 33.82H288.454V46.45H284.826V16.17H293.498C300.965 16.17 303.666 20.89 303.666 25.07L303.636 25.04ZM288.454 30.4H293.897C297.884 30.4 299.858 27.95 299.858 25.04C299.858 21.48 297.735 19.52 293.897 19.52H288.454V30.4ZM275.575 29.06V16.14H279.204V46.42H275.575V32.45H259.606V46.42H255.967V16.14H259.606V29.06H275.575ZM235.901 15.03C245.291 15.03 252.01 22.03 252.01 31.19C252.01 40.35 245.202 47.5 235.901 47.5C226.591 47.5 219.812 40.41 219.812 31.2C219.812 21.97 226.85 15.03 235.901 15.03ZM235.901 42.93C242.271 42.93 246.836 37.85 246.836 31.19C246.836 24.54 242.5 19.52 235.901 19.52C229.292 19.52 224.986 24.48 224.986 31.19C224.986 37.9 230.139 42.95 235.901 42.95V42.92V42.93ZM200.583 15.03C209.924 15.03 216.672 22 216.672 31.19C216.672 40.39 209.864 47.5 200.583 47.5C191.313 47.5 184.474 40.38 184.474 31.2C184.438 29.0673 184.83 26.9491 185.626 24.9714C186.423 22.9937 187.608 21.197 189.111 19.6883C190.614 18.1796 192.404 16.9897 194.375 16.1894C196.346 15.3891 198.457 14.9948 200.583 15.03ZM200.583 42.93C206.923 42.93 211.489 37.82 211.489 31.16C211.489 24.51 207.162 19.49 200.583 19.49C194.004 19.49 189.648 24.45 189.648 31.16C189.648 37.87 194.792 42.92 200.583 42.92V42.93ZM133.945 15.03C140.753 15.03 145.468 19.78 145.468 28.71V46.42H140.484V28.36C140.484 23.66 138.371 19.52 133.277 19.52C129.09 19.52 125.103 22.56 125.103 29.56V46.42H120.099V28.36C120.099 23.37 117.397 19.52 112.922 19.52C107.917 19.52 104.688 23.2 104.688 29.53V46.43H99.7035V16.04H104.688V19.86H104.797C106.811 17.12 109.891 15.05 113.769 15.05C118.474 15.05 122.312 17.76 123.588 21.32C124.585 19.42 126.06 17.85 127.874 16.74C129.703 15.6196 131.812 15.0439 133.955 15.08V15.02L133.945 15.03ZM90.2036 20.43V16.05H95.1779V46.42H90.1937V42.37H90.084C88.7484 44.0055 87.057 45.3122 85.1397 46.19C83.2457 47.09 81.1524 47.53 79.059 47.53C70.885 47.53 63.6081 41.14 63.6081 31.23C63.6081 21.83 70.3866 15.06 79.378 15.06C84.8506 15.06 88.0505 17.95 90.1139 20.46H90.2036V20.43ZM79.7468 43.07C85.4188 43.07 90.6223 38.25 90.6223 31.4C90.6223 24.16 85.7677 19.4 79.8565 19.4C72.3304 19.4 68.7218 25.39 68.7218 31.22C68.7218 37.06 72.3304 43.07 79.7468 43.07Z" fill="#76C043"/>
</g>
</g>
<defs>
<clipPath id="clip0_0_8253">
<rect width="315" height="48" fill="white"/>
</clipPath>
</defs>
</svg>
