<svg width="210" height="48" viewBox="0 0 210 48" fill="none" xmlns="http://www.w3.org/2000/svg">
<g clip-path="url(#clip0_0_8114)">
<path d="M63.6224 0.511475C63.6303 0.516482 63.6369 0.520716 63.642 0.52417L63.6449 0.531006L63.6674 0.567139C63.6804 0.587759 63.6879 0.611257 63.6898 0.635498V25.1619C63.055 24.53 62.3206 24.0017 61.5131 23.6003C60.2853 22.9903 58.9264 22.6914 57.556 22.7302L57.0697 22.7439V22.7908C52.0174 23.0195 47.8705 26.7074 47.8705 32.28C47.8705 38.0313 52.2287 41.7556 57.5238 41.7585V41.7595L57.5267 41.7585L57.5297 41.7595V41.7585C59.7483 41.7839 61.8987 41.0657 63.6498 39.7371V47.4636C63.6496 47.4768 63.6457 47.4897 63.6439 47.5027V47.5037L63.642 47.5056L63.6342 47.5085C63.6329 47.5086 63.6314 47.5095 63.6302 47.5095H0.562866C0.557394 47.507 0.549494 47.5025 0.537476 47.4958C0.525944 47.4895 0.513797 47.4826 0.498413 47.4734L0.497437 47.4695C0.50508 47.4586 0.515629 47.4442 0.529663 47.4265C0.540826 47.4125 0.551728 47.3991 0.560913 47.3884L23.1097 30.5759V40.5798C23.1097 40.6057 23.1058 40.7099 23.141 40.8318C23.1608 40.9356 23.2043 41.0147 23.2367 41.0632C23.2796 41.1276 23.3271 41.1742 23.3363 41.1833L23.3646 41.2117L23.3959 41.2341L23.5062 41.3142L23.5394 41.3386L23.5765 41.3572C23.6489 41.3933 23.7166 41.4072 23.7465 41.4128C23.7839 41.4199 23.8184 41.4235 23.8431 41.4255C23.869 41.4277 23.8925 41.4289 23.9086 41.4294C23.9166 41.4297 23.9238 41.4294 23.9291 41.4294C23.9316 41.4295 23.9341 41.4304 23.9359 41.4304H32.8597C34.6049 41.4304 35.9854 40.8694 36.9291 39.9031C37.8695 38.94 38.3304 37.6215 38.3304 36.1902H38.3295C38.3563 35.2584 38.1116 34.3387 37.6244 33.5437C37.2058 32.8609 36.6236 32.2969 35.934 31.8982C36.5428 31.5207 37.0564 31.0052 37.4281 30.3884L37.434 30.3787C37.8645 29.628 38.079 28.7926 38.0394 27.9304H38.0404C38.0404 26.6531 37.5874 25.4084 36.6654 24.4822C35.8566 23.6697 34.7151 23.1299 33.2738 23.0066L63.5287 0.52124L63.5306 0.519287C63.5387 0.513287 63.5489 0.509898 63.559 0.509521L63.5863 0.508545L63.6117 0.504639C63.6154 0.506953 63.6188 0.509189 63.6224 0.511475ZM41.4916 23.0554C41.438 23.0732 41.2385 23.1357 41.1136 23.323L41.0853 23.366L41.0804 23.3757C41.0702 23.3897 41.0573 23.4059 41.0463 23.4246C41.0138 23.4796 40.9701 23.5746 40.9701 23.7V40.7302C40.9702 40.9065 41.0523 41.0316 41.0853 41.0779C41.1246 41.1329 41.1676 41.1748 41.1761 41.1833L41.2338 41.241L41.2924 41.2703L41.3246 41.2917C41.3448 41.3044 41.3833 41.3267 41.432 41.3464C41.4493 41.3535 41.4702 41.3593 41.4935 41.366C41.5154 41.3739 41.5327 41.3822 41.5453 41.3855C41.5944 41.3983 41.6388 41.4029 41.6615 41.405C41.6883 41.4076 41.7122 41.4084 41.7279 41.4089C41.7361 41.4092 41.7431 41.4098 41.7484 41.4099H44.8051L44.849 41.4021L44.9525 41.3826C44.9956 41.3768 45.0372 41.3683 45.0765 41.3542C45.1158 41.3402 45.1483 41.3234 45.1732 41.3093L45.3119 41.2751L45.4183 41.0974L45.4789 40.9968L45.4886 40.9812L45.4974 40.9636C45.5519 40.8547 45.5619 40.7434 45.5648 40.7146C45.5673 40.6895 45.5691 40.6676 45.5697 40.6521V23.8201C45.5697 23.807 45.5705 23.7526 45.5629 23.6951C45.5552 23.6374 45.5354 23.547 45.4779 23.4529H45.4789L45.4183 23.3523L45.3607 23.2566L45.267 23.1941L45.1478 23.114L45.0219 23.03H41.5687L41.4916 23.0554ZM45.224 41.2791L45.222 41.28C45.2267 41.2769 45.2302 41.2746 45.2308 41.2742C45.2345 41.2717 45.2305 41.275 45.224 41.2791Z" fill="#18181B" stroke="#18181B"/>
<mask id="path-2-inside-1_0_8114" fill="white">
<path d="M27.64 30.4H31.87C33.09 30.4 33.87 29.68 33.87 28.58C33.87 27.48 33.09 26.77 31.87 26.77H27.47C27.47 26.77 27.37 26.79 27.35 26.82C27.33 26.86 27.29 26.9 27.29 26.94V30.09C27.29 30.09 27.33 30.24 27.41 30.32C27.46 30.38 27.56 30.4 27.64 30.4ZM27.64 37.68H32.04C33.4 37.68 34.23 36.93 34.23 35.69C34.23 34.59 33.43 33.7 32.04 33.7H27.64C27.64 33.7 27.54 33.7 27.5 33.72L27.39 33.8C27.37 33.84 27.33 33.86 27.33 33.92C27.31 33.95 27.31 33.99 27.31 34.05V37.34C27.31 37.34 27.35 37.53 27.43 37.59C27.48 37.64 27.58 37.69 27.66 37.7L27.64 37.68ZM61.45 28.5C60.9985 27.8909 60.4091 27.3974 59.73 27.06C59.0651 26.7046 58.3239 26.5159 57.57 26.51C54.42 26.51 52.16 28.95 52.16 32.23C52.16 35.52 54.42 37.95 57.56 37.95C58.84 37.95 60.08 37.51 61.08 36.72C61.14 36.66 61.18 36.56 61.18 36.48V34.78C61.18 34.78 61.14 34.65 61.1 34.59C61.0748 34.5626 61.0437 34.5412 61.0091 34.5274C60.9745 34.5135 60.9372 34.5076 60.9 34.51H57.04C57.04 34.51 56.94 34.51 56.91 34.49L56.79 34.42C56.77 34.38 56.74 34.34 56.74 34.3C56.72 34.26 56.72 34.2 56.72 34.17V31.69C56.72 31.69 56.72 31.59 56.74 31.54C56.74 31.5 56.77 31.46 56.79 31.42C56.83 31.38 56.87 31.36 56.91 31.34L57.04 31.33H64.24V27.38L61.91 28.66C61.91 28.66 61.74 28.68 61.64 28.66C61.5539 28.632 61.4799 28.5756 61.43 28.5H61.45ZM66.88 32.21C66.88 26.86 70.68 23.23 75.55 23.23C76.85 23.19 78.15 23.5 79.26 24.16C80.439 24.8184 81.4013 25.805 82.03 27V27.11C82.03 27.15 81.99 27.19 81.97 27.23C81.95 27.27 81.91 27.29 81.85 27.29L79.9 28.35L79.8 28.39H79.69C79.67 28.39 79.63 28.37 79.61 28.33C79.187 27.6204 78.5908 27.0298 77.8772 26.6135C77.1636 26.1972 76.356 25.9689 75.53 25.95C72.27 25.95 69.83 28.56 69.83 32.23C69.83 35.9 72.27 38.53 75.53 38.53C76.3382 38.5096 77.1286 38.2887 77.8303 37.8873C78.532 37.4858 79.1229 36.9163 79.55 36.23C79.55 36.21 79.59 36.18 79.61 36.16C79.632 36.1388 79.6599 36.1249 79.69 36.12H79.8C79.84 36.12 79.86 36.14 79.9 36.16L81.85 37.18C81.85 37.18 81.93 37.22 81.97 37.26C81.99 37.28 82.03 37.32 82.03 37.37V37.51C82.03 37.55 82.03 37.59 81.99 37.62C80.71 39.62 78.69 41.3 75.53 41.3C70.67 41.26 66.86 37.59 66.86 32.25L66.88 32.21ZM83.7 32.23C83.7 27.89 86.14 24.51 89.8 23.54C96.03 21.86 101.73 27.81 100.38 34.42C99.55 38.49 96.36 41.28 92.15 41.28C87.18 41.24 83.71 37.43 83.71 32.25V32.23H83.7ZM97.6 32.23C97.6 28.64 95.42 25.93 92.11 25.93C88.81 25.93 86.62 28.64 86.62 32.23C86.62 35.83 88.75 38.51 92.12 38.51C95.47 38.51 97.6 35.77 97.6 32.23ZM118.33 40.7V27.44L113.15 40.79C113.15 40.79 113.07 40.87 113.02 40.87H111.93C111.93 40.87 111.8 40.83 111.8 40.79L106.58 27.44V40.8C106.58 40.81 106.56 40.85 106.54 40.85L106.47 40.91C106.45 40.93 106.41 40.91 106.39 40.91H103.68C103.66 40.91 103.63 40.89 103.63 40.85C103.61 40.85 103.59 40.81 103.57 40.79V23.6C103.57 23.58 103.59 23.54 103.63 23.52L103.68 23.48C103.7 23.48 103.74 23.46 103.76 23.48H107.51C107.51 23.48 107.67 23.5 107.74 23.54C107.82 23.6 107.88 23.66 107.9 23.74L112.46 35.69L117 23.73C117 23.73 117.07 23.58 117.15 23.52C117.22 23.4802 117.299 23.4595 117.38 23.46H121.23C121.25 23.46 121.29 23.48 121.29 23.5L121.34 23.58V40.78C121.34 40.79 121.32 40.83 121.29 40.83C121.29 40.85 121.25 40.87 121.23 40.89C121.21 40.91 121.17 40.89 121.13 40.89H118.53C118.53 40.89 118.43 40.85 118.39 40.81L118.33 40.66V40.7ZM147.95 40.6V23.67C147.97 23.64 147.99 23.62 148.01 23.56C148.04 23.54 148.06 23.52 148.12 23.5H159.46L159.56 23.56C159.58 23.6 159.62 23.62 159.62 23.67L159.64 23.79V25.82C159.64 25.82 159.64 25.9 159.62 25.94L159.56 26.05C159.552 26.0692 159.538 26.0853 159.52 26.0961C159.502 26.1069 159.481 26.1117 159.46 26.11L159.35 26.13H151.12C151.08 26.13 151.04 26.17 151 26.19C150.96 26.21 150.94 26.24 150.94 26.3C150.94 26.34 150.92 26.38 150.94 26.42V30.38C150.94 30.42 150.98 30.46 151 30.5C151.02 30.53 151.06 30.55 151.12 30.55L151.23 30.57H159.29C159.33 30.57 159.37 30.61 159.41 30.63C159.44 30.65 159.46 30.69 159.46 30.75C159.46 30.78 159.48 30.82 159.46 30.86V33.01C159.46 33.05 159.43 33.08 159.41 33.12C159.39 33.16 159.35 33.18 159.29 33.18H151.23C151.23 33.18 151.16 33.18 151.12 33.2C151.08 33.2 151.04 33.24 151 33.26C150.96 33.28 150.94 33.32 150.94 33.37C150.94 33.41 150.92 33.45 150.94 33.49V37.82C150.94 37.86 150.98 37.88 151 37.93L151.12 37.99H159.35C159.35 37.99 159.43 37.99 159.46 38.01C159.48 38.01 159.52 38.05 159.56 38.07C159.579 38.0783 159.595 38.0924 159.606 38.1104C159.617 38.1283 159.622 38.1492 159.62 38.17L159.64 38.28V40.33C159.64 40.33 159.64 40.41 159.62 40.45L159.56 40.55C159.55 40.5673 159.535 40.5814 159.518 40.5903C159.5 40.5992 159.48 40.6026 159.46 40.6L159.35 40.62H148.24C148.06 40.75 147.93 40.62 147.93 40.45L147.95 40.6ZM173.6 40.74L170 34.54L169.88 34.42C169.84 34.38 169.78 34.38 169.72 34.4H167.08C167.06 34.4 167.02 34.44 166.98 34.46C166.96 34.48 166.92 34.51 166.92 34.57L166.9 34.69V40.69C166.9 40.72 166.86 40.76 166.84 40.79C166.82 40.81 166.79 40.85 166.73 40.85L166.61 40.87H164.27C164.27 40.87 164.2 40.87 164.16 40.85C164.12 40.85 164.1 40.81 164.06 40.79C164.041 40.7817 164.025 40.7676 164.014 40.7497C164.003 40.7317 163.998 40.7109 164 40.69L163.99 40.59V23.76L164 23.65C164 23.61 164.02 23.59 164.06 23.53L164.16 23.47H171.5C174.9 23.47 177.12 25.67 177.12 28.92C177.12 31.82 175.38 33.44 173.45 33.92C173.39 33.92 173.35 33.96 173.32 33.98C173.281 34.015 173.247 34.0554 173.22 34.1C173.2 34.16 173.18 34.21 173.2 34.25C173.2 34.31 173.2 34.35 173.24 34.41C173.94 35.55 176.1 39.11 176.94 40.4L177.01 40.55C177.01 40.61 177.01 40.67 176.97 40.73C176.95 40.76 176.91 40.83 176.85 40.84C176.802 40.8598 176.752 40.8732 176.7 40.88H173.95C173.95 40.88 173.84 40.88 173.78 40.84C173.72 40.8 173.66 40.76 173.65 40.69L173.61 40.73L173.6 40.74ZM174 28.91C174 27.21 172.78 26.17 171.07 26.17H167.13L167.03 26.23C167 26.25 166.98 26.28 166.98 26.34L166.96 26.46V31.36C166.96 31.36 166.96 31.44 166.98 31.48C166.98 31.52 167.02 31.56 167.04 31.6C167.048 31.6192 167.062 31.6353 167.08 31.6461C167.098 31.6569 167.119 31.6617 167.14 31.66L167.25 31.67H171.09C172.79 31.67 173.99 30.61 173.99 28.87V28.91H174ZM197.39 40.6V23.8C197.39 23.8 197.39 23.71 197.41 23.67C197.41 23.64 197.45 23.62 197.47 23.56C197.5 23.5356 197.534 23.5154 197.57 23.5H208.94L209.06 23.56C209.08 23.6 209.12 23.62 209.12 23.67V26C209.12 26.02 209.08 26.06 209.06 26.1C209.04 26.12 209 26.16 208.94 26.16L208.83 26.18H200.58C200.543 26.1975 200.509 26.2211 200.48 26.25C200.461 26.2583 200.445 26.2724 200.434 26.2904C200.423 26.3083 200.418 26.3292 200.42 26.35L200.4 26.47V30.37C200.4 30.37 200.4 30.45 200.42 30.49C200.42 30.52 200.44 30.56 200.48 30.6C200.5 30.62 200.54 30.66 200.58 30.66H208.63C208.63 30.66 208.71 30.66 208.75 30.68C208.77 30.68 208.81 30.72 208.85 30.74C208.87 30.76 208.91 30.79 208.91 30.85L208.93 30.97V33.06C208.93 33.06 208.93 33.13 208.91 33.17C208.91 33.21 208.87 33.25 208.85 33.29C208.842 33.3092 208.828 33.3253 208.81 33.3361C208.792 33.3469 208.771 33.3517 208.75 33.35H200.71L200.6 33.36C200.56 33.36 200.52 33.4 200.48 33.42C200.44 33.44 200.42 33.48 200.42 33.54V38C200.42 38.04 200.46 38.08 200.48 38.12C200.5 38.16 200.54 38.17 200.6 38.17C200.64 38.17 200.68 38.19 200.71 38.17H208.85C208.85 38.17 208.93 38.17 208.96 38.19L209.06 38.25C209.1 38.27 209.12 38.31 209.12 38.37C209.14 38.41 209.14 38.45 209.14 38.48V40.58C209.14 40.58 209.14 40.65 209.12 40.68C209.12 40.73 209.1 40.76 209.06 40.8C209.04 40.82 209 40.86 208.96 40.86C208.93 40.86 208.89 40.88 208.85 40.86H197.7C197.7 40.86 197.54 40.78 197.49 40.71C197.43 40.6419 197.388 40.5591 197.37 40.47L197.39 40.59V40.6ZM179.27 32.12C179.27 26.75 183.05 23.12 187.94 23.12C189.242 23.0987 190.526 23.4235 191.661 24.0613C192.796 24.6992 193.741 25.627 194.4 26.75C194.41 26.79 194.43 26.82 194.43 26.86V26.98C194.43 27.02 194.41 27.04 194.38 27.08C194.34 27.11 194.32 27.13 194.26 27.13L192.31 28.2C192.31 28.2 192.25 28.23 192.21 28.23H192.1L192 28.2C191.579 27.4867 190.984 26.8921 190.271 26.4722C189.557 26.0523 188.748 25.821 187.92 25.8C184.66 25.8 182.2 28.43 182.2 32.1C182.2 35.77 184.66 38.38 187.92 38.38C188.72 38.38 189.51 38.15 190.22 37.74C190.949 37.3176 191.561 36.7194 192 36L192.1 35.96H192.21C192.23 35.96 192.27 35.96 192.31 36L194.26 37L194.38 37.08L194.43 37.2C194.43 37.24 194.45 37.28 194.43 37.32C194.43 37.37 194.43 37.42 194.4 37.45C193.741 38.5756 192.797 39.5075 191.662 40.1518C190.528 40.7961 189.244 41.1301 187.94 41.12C183.07 41.08 179.27 37.45 179.27 32.08V32.12ZM140.55 40.7V27.44L135.37 40.79C135.37 40.79 135.27 40.87 135.24 40.87H134.15C134.15 40.87 134.02 40.83 134.02 40.79L128.8 27.44V40.8C128.8 40.81 128.78 40.85 128.74 40.85C128.74 40.87 128.71 40.89 128.69 40.91H125.9C125.88 40.91 125.85 40.89 125.83 40.85L125.79 40.79V23.6L125.83 23.52L125.9 23.48C125.92 23.48 125.96 23.46 125.98 23.48H129.73C129.73 23.48 129.9 23.5 129.96 23.54C130.02 23.6 130.08 23.66 130.12 23.74L134.68 35.69L139.2 23.73C139.2 23.73 139.27 23.58 139.35 23.52C139.42 23.4802 139.499 23.4595 139.58 23.46H143.41L143.49 23.5L143.52 23.58V40.78L143.49 40.83L143.41 40.89C143.39 40.91 143.35 40.89 143.33 40.89H140.73C140.73 40.89 140.66 40.89 140.65 40.87C140.63 40.87 140.61 40.85 140.59 40.81L140.57 40.75V40.68L140.55 40.7Z"/>
</mask>
<path d="M27.64 30.4H31.87C33.09 30.4 33.87 29.68 33.87 28.58C33.87 27.48 33.09 26.77 31.87 26.77H27.47C27.47 26.77 27.37 26.79 27.35 26.82C27.33 26.86 27.29 26.9 27.29 26.94V30.09C27.29 30.09 27.33 30.24 27.41 30.32C27.46 30.38 27.56 30.4 27.64 30.4ZM27.64 37.68H32.04C33.4 37.68 34.23 36.93 34.23 35.69C34.23 34.59 33.43 33.7 32.04 33.7H27.64C27.64 33.7 27.54 33.7 27.5 33.72L27.39 33.8C27.37 33.84 27.33 33.86 27.33 33.92C27.31 33.95 27.31 33.99 27.31 34.05V37.34C27.31 37.34 27.35 37.53 27.43 37.59C27.48 37.64 27.58 37.69 27.66 37.7L27.64 37.68ZM61.45 28.5C60.9985 27.8909 60.4091 27.3974 59.73 27.06C59.0651 26.7046 58.3239 26.5159 57.57 26.51C54.42 26.51 52.16 28.95 52.16 32.23C52.16 35.52 54.42 37.95 57.56 37.95C58.84 37.95 60.08 37.51 61.08 36.72C61.14 36.66 61.18 36.56 61.18 36.48V34.78C61.18 34.78 61.14 34.65 61.1 34.59C61.0748 34.5626 61.0437 34.5412 61.0091 34.5274C60.9745 34.5135 60.9372 34.5076 60.9 34.51H57.04C57.04 34.51 56.94 34.51 56.91 34.49L56.79 34.42C56.77 34.38 56.74 34.34 56.74 34.3C56.72 34.26 56.72 34.2 56.72 34.17V31.69C56.72 31.69 56.72 31.59 56.74 31.54C56.74 31.5 56.77 31.46 56.79 31.42C56.83 31.38 56.87 31.36 56.91 31.34L57.04 31.33H64.24V27.38L61.91 28.66C61.91 28.66 61.74 28.68 61.64 28.66C61.5539 28.632 61.4799 28.5756 61.43 28.5H61.45ZM66.88 32.21C66.88 26.86 70.68 23.23 75.55 23.23C76.85 23.19 78.15 23.5 79.26 24.16C80.439 24.8184 81.4013 25.805 82.03 27V27.11C82.03 27.15 81.99 27.19 81.97 27.23C81.95 27.27 81.91 27.29 81.85 27.29L79.9 28.35L79.8 28.39H79.69C79.67 28.39 79.63 28.37 79.61 28.33C79.187 27.6204 78.5908 27.0298 77.8772 26.6135C77.1636 26.1972 76.356 25.9689 75.53 25.95C72.27 25.95 69.83 28.56 69.83 32.23C69.83 35.9 72.27 38.53 75.53 38.53C76.3382 38.5096 77.1286 38.2887 77.8303 37.8873C78.532 37.4858 79.1229 36.9163 79.55 36.23C79.55 36.21 79.59 36.18 79.61 36.16C79.632 36.1388 79.6599 36.1249 79.69 36.12H79.8C79.84 36.12 79.86 36.14 79.9 36.16L81.85 37.18C81.85 37.18 81.93 37.22 81.97 37.26C81.99 37.28 82.03 37.32 82.03 37.37V37.51C82.03 37.55 82.03 37.59 81.99 37.62C80.71 39.62 78.69 41.3 75.53 41.3C70.67 41.26 66.86 37.59 66.86 32.25L66.88 32.21ZM83.7 32.23C83.7 27.89 86.14 24.51 89.8 23.54C96.03 21.86 101.73 27.81 100.38 34.42C99.55 38.49 96.36 41.28 92.15 41.28C87.18 41.24 83.71 37.43 83.71 32.25V32.23H83.7ZM97.6 32.23C97.6 28.64 95.42 25.93 92.11 25.93C88.81 25.93 86.62 28.64 86.62 32.23C86.62 35.83 88.75 38.51 92.12 38.51C95.47 38.51 97.6 35.77 97.6 32.23ZM118.33 40.7V27.44L113.15 40.79C113.15 40.79 113.07 40.87 113.02 40.87H111.93C111.93 40.87 111.8 40.83 111.8 40.79L106.58 27.44V40.8C106.58 40.81 106.56 40.85 106.54 40.85L106.47 40.91C106.45 40.93 106.41 40.91 106.39 40.91H103.68C103.66 40.91 103.63 40.89 103.63 40.85C103.61 40.85 103.59 40.81 103.57 40.79V23.6C103.57 23.58 103.59 23.54 103.63 23.52L103.68 23.48C103.7 23.48 103.74 23.46 103.76 23.48H107.51C107.51 23.48 107.67 23.5 107.74 23.54C107.82 23.6 107.88 23.66 107.9 23.74L112.46 35.69L117 23.73C117 23.73 117.07 23.58 117.15 23.52C117.22 23.4802 117.299 23.4595 117.38 23.46H121.23C121.25 23.46 121.29 23.48 121.29 23.5L121.34 23.58V40.78C121.34 40.79 121.32 40.83 121.29 40.83C121.29 40.85 121.25 40.87 121.23 40.89C121.21 40.91 121.17 40.89 121.13 40.89H118.53C118.53 40.89 118.43 40.85 118.39 40.81L118.33 40.66V40.7ZM147.95 40.6V23.67C147.97 23.64 147.99 23.62 148.01 23.56C148.04 23.54 148.06 23.52 148.12 23.5H159.46L159.56 23.56C159.58 23.6 159.62 23.62 159.62 23.67L159.64 23.79V25.82C159.64 25.82 159.64 25.9 159.62 25.94L159.56 26.05C159.552 26.0692 159.538 26.0853 159.52 26.0961C159.502 26.1069 159.481 26.1117 159.46 26.11L159.35 26.13H151.12C151.08 26.13 151.04 26.17 151 26.19C150.96 26.21 150.94 26.24 150.94 26.3C150.94 26.34 150.92 26.38 150.94 26.42V30.38C150.94 30.42 150.98 30.46 151 30.5C151.02 30.53 151.06 30.55 151.12 30.55L151.23 30.57H159.29C159.33 30.57 159.37 30.61 159.41 30.63C159.44 30.65 159.46 30.69 159.46 30.75C159.46 30.78 159.48 30.82 159.46 30.86V33.01C159.46 33.05 159.43 33.08 159.41 33.12C159.39 33.16 159.35 33.18 159.29 33.18H151.23C151.23 33.18 151.16 33.18 151.12 33.2C151.08 33.2 151.04 33.24 151 33.26C150.96 33.28 150.94 33.32 150.94 33.37C150.94 33.41 150.92 33.45 150.94 33.49V37.82C150.94 37.86 150.98 37.88 151 37.93L151.12 37.99H159.35C159.35 37.99 159.43 37.99 159.46 38.01C159.48 38.01 159.52 38.05 159.56 38.07C159.579 38.0783 159.595 38.0924 159.606 38.1104C159.617 38.1283 159.622 38.1492 159.62 38.17L159.64 38.28V40.33C159.64 40.33 159.64 40.41 159.62 40.45L159.56 40.55C159.55 40.5673 159.535 40.5814 159.518 40.5903C159.5 40.5992 159.48 40.6026 159.46 40.6L159.35 40.62H148.24C148.06 40.75 147.93 40.62 147.93 40.45L147.95 40.6ZM173.6 40.74L170 34.54L169.88 34.42C169.84 34.38 169.78 34.38 169.72 34.4H167.08C167.06 34.4 167.02 34.44 166.98 34.46C166.96 34.48 166.92 34.51 166.92 34.57L166.9 34.69V40.69C166.9 40.72 166.86 40.76 166.84 40.79C166.82 40.81 166.79 40.85 166.73 40.85L166.61 40.87H164.27C164.27 40.87 164.2 40.87 164.16 40.85C164.12 40.85 164.1 40.81 164.06 40.79C164.041 40.7817 164.025 40.7676 164.014 40.7497C164.003 40.7317 163.998 40.7109 164 40.69L163.99 40.59V23.76L164 23.65C164 23.61 164.02 23.59 164.06 23.53L164.16 23.47H171.5C174.9 23.47 177.12 25.67 177.12 28.92C177.12 31.82 175.38 33.44 173.45 33.92C173.39 33.92 173.35 33.96 173.32 33.98C173.281 34.015 173.247 34.0554 173.22 34.1C173.2 34.16 173.18 34.21 173.2 34.25C173.2 34.31 173.2 34.35 173.24 34.41C173.94 35.55 176.1 39.11 176.94 40.4L177.01 40.55C177.01 40.61 177.01 40.67 176.97 40.73C176.95 40.76 176.91 40.83 176.85 40.84C176.802 40.8598 176.752 40.8732 176.7 40.88H173.95C173.95 40.88 173.84 40.88 173.78 40.84C173.72 40.8 173.66 40.76 173.65 40.69L173.61 40.73L173.6 40.74ZM174 28.91C174 27.21 172.78 26.17 171.07 26.17H167.13L167.03 26.23C167 26.25 166.98 26.28 166.98 26.34L166.96 26.46V31.36C166.96 31.36 166.96 31.44 166.98 31.48C166.98 31.52 167.02 31.56 167.04 31.6C167.048 31.6192 167.062 31.6353 167.08 31.6461C167.098 31.6569 167.119 31.6617 167.14 31.66L167.25 31.67H171.09C172.79 31.67 173.99 30.61 173.99 28.87V28.91H174ZM197.39 40.6V23.8C197.39 23.8 197.39 23.71 197.41 23.67C197.41 23.64 197.45 23.62 197.47 23.56C197.5 23.5356 197.534 23.5154 197.57 23.5H208.94L209.06 23.56C209.08 23.6 209.12 23.62 209.12 23.67V26C209.12 26.02 209.08 26.06 209.06 26.1C209.04 26.12 209 26.16 208.94 26.16L208.83 26.18H200.58C200.543 26.1975 200.509 26.2211 200.48 26.25C200.461 26.2583 200.445 26.2724 200.434 26.2904C200.423 26.3083 200.418 26.3292 200.42 26.35L200.4 26.47V30.37C200.4 30.37 200.4 30.45 200.42 30.49C200.42 30.52 200.44 30.56 200.48 30.6C200.5 30.62 200.54 30.66 200.58 30.66H208.63C208.63 30.66 208.71 30.66 208.75 30.68C208.77 30.68 208.81 30.72 208.85 30.74C208.87 30.76 208.91 30.79 208.91 30.85L208.93 30.97V33.06C208.93 33.06 208.93 33.13 208.91 33.17C208.91 33.21 208.87 33.25 208.85 33.29C208.842 33.3092 208.828 33.3253 208.81 33.3361C208.792 33.3469 208.771 33.3517 208.75 33.35H200.71L200.6 33.36C200.56 33.36 200.52 33.4 200.48 33.42C200.44 33.44 200.42 33.48 200.42 33.54V38C200.42 38.04 200.46 38.08 200.48 38.12C200.5 38.16 200.54 38.17 200.6 38.17C200.64 38.17 200.68 38.19 200.71 38.17H208.85C208.85 38.17 208.93 38.17 208.96 38.19L209.06 38.25C209.1 38.27 209.12 38.31 209.12 38.37C209.14 38.41 209.14 38.45 209.14 38.48V40.58C209.14 40.58 209.14 40.65 209.12 40.68C209.12 40.73 209.1 40.76 209.06 40.8C209.04 40.82 209 40.86 208.96 40.86C208.93 40.86 208.89 40.88 208.85 40.86H197.7C197.7 40.86 197.54 40.78 197.49 40.71C197.43 40.6419 197.388 40.5591 197.37 40.47L197.39 40.59V40.6ZM179.27 32.12C179.27 26.75 183.05 23.12 187.94 23.12C189.242 23.0987 190.526 23.4235 191.661 24.0613C192.796 24.6992 193.741 25.627 194.4 26.75C194.41 26.79 194.43 26.82 194.43 26.86V26.98C194.43 27.02 194.41 27.04 194.38 27.08C194.34 27.11 194.32 27.13 194.26 27.13L192.31 28.2C192.31 28.2 192.25 28.23 192.21 28.23H192.1L192 28.2C191.579 27.4867 190.984 26.8921 190.271 26.4722C189.557 26.0523 188.748 25.821 187.92 25.8C184.66 25.8 182.2 28.43 182.2 32.1C182.2 35.77 184.66 38.38 187.92 38.38C188.72 38.38 189.51 38.15 190.22 37.74C190.949 37.3176 191.561 36.7194 192 36L192.1 35.96H192.21C192.23 35.96 192.27 35.96 192.31 36L194.26 37L194.38 37.08L194.43 37.2C194.43 37.24 194.45 37.28 194.43 37.32C194.43 37.37 194.43 37.42 194.4 37.45C193.741 38.5756 192.797 39.5075 191.662 40.1518C190.528 40.7961 189.244 41.1301 187.94 41.12C183.07 41.08 179.27 37.45 179.27 32.08V32.12ZM140.55 40.7V27.44L135.37 40.79C135.37 40.79 135.27 40.87 135.24 40.87H134.15C134.15 40.87 134.02 40.83 134.02 40.79L128.8 27.44V40.8C128.8 40.81 128.78 40.85 128.74 40.85C128.74 40.87 128.71 40.89 128.69 40.91H125.9C125.88 40.91 125.85 40.89 125.83 40.85L125.79 40.79V23.6L125.83 23.52L125.9 23.48C125.92 23.48 125.96 23.46 125.98 23.48H129.73C129.73 23.48 129.9 23.5 129.96 23.54C130.02 23.6 130.08 23.66 130.12 23.74L134.68 35.69L139.2 23.73C139.2 23.73 139.27 23.58 139.35 23.52C139.42 23.4802 139.499 23.4595 139.58 23.46H143.41L143.49 23.5L143.52 23.58V40.78L143.49 40.83L143.41 40.89C143.39 40.91 143.35 40.89 143.33 40.89H140.73C140.73 40.89 140.66 40.89 140.65 40.87C140.63 40.87 140.61 40.85 140.59 40.81L140.57 40.75V40.68L140.55 40.7Z" fill="#18181B" stroke="#18181B" stroke-width="2" mask="url(#path-2-inside-1_0_8114)"/>
</g>
<defs>
<clipPath id="clip0_0_8114">
<rect width="210" height="48" fill="white"/>
</clipPath>
</defs>
</svg>
