<svg width="125" height="37" viewBox="0 0 125 37" fill="none" xmlns="http://www.w3.org/2000/svg">
<g clip-path="url(#clip0_328_3280)">
<mask id="mask0_328_3280" style="mask-type:luminance" maskUnits="userSpaceOnUse" x="0" y="0" width="125" height="37">
<path d="M124.19 0.129883H0.0898438V36.0799H124.19V0.129883Z" fill="white"/>
</mask>
<g mask="url(#mask0_328_3280)">
<path d="M21.3408 17.7299C23.2874 18.1096 25.0291 19.1848 26.2408 20.7549C27.4605 22.298 28.1135 24.213 28.0908 26.1799C28.1472 27.5004 27.8992 28.8162 27.366 30.0256C26.8328 31.2351 26.0287 32.3057 25.0158 33.1549C22.9658 34.8715 20.1075 35.7299 16.4408 35.7299H0.0908203V0.629855H15.8908C19.4575 0.629855 22.2492 1.44652 24.2658 3.07985C25.2557 3.87386 26.0452 4.88935 26.5706 6.04444C27.0961 7.19954 27.3428 8.46193 27.2908 9.72985C27.3598 11.5826 26.7856 13.4022 25.6658 14.8799C24.5603 16.2617 23.0467 17.2591 21.3408 17.7299ZM8.64082 14.8299H14.2408C15.3906 14.9057 16.531 14.5786 17.4658 13.9049C17.8504 13.5678 18.1519 13.1466 18.3471 12.6739C18.5422 12.2013 18.6256 11.69 18.5908 11.1799C18.6237 10.6662 18.5395 10.1518 18.3446 9.67546C18.1497 9.19909 17.8493 8.77319 17.4658 8.42985C16.5378 7.74008 15.3945 7.4033 14.2408 7.47985H8.64082V14.8299ZM14.9408 28.8299C16.1293 28.9054 17.3064 28.5603 18.2658 27.8549C18.665 27.5055 18.9786 27.069 19.1823 26.5792C19.3861 26.0894 19.4745 25.5593 19.4408 25.0299C19.4684 24.4854 19.3726 23.9417 19.1605 23.4395C18.9483 22.9374 18.6254 22.4896 18.2158 22.1299C17.2553 21.3823 16.0559 21.0091 14.8408 21.0799H8.64082V28.8299H14.9408ZM41.5908 29.1299H52.7908V35.7299H33.0408V0.629855H41.5908V29.1299ZM73.4908 36.0799C70.3177 36.1121 67.1906 35.3196 64.4158 33.7799C61.6908 32.2711 59.4268 30.0503 57.8658 27.3549C56.2319 24.5401 55.3937 21.3342 55.4408 18.0799C55.3915 14.8332 56.23 11.6347 57.8658 8.82985C59.4326 6.14529 61.6957 3.93402 64.4158 2.42985C67.1906 0.890118 70.3177 0.0975708 73.4908 0.129855C76.664 0.0975708 79.7911 0.890118 82.5658 2.42985C85.2786 3.92652 87.5273 6.14064 89.0658 8.82985C90.6707 11.6452 91.4908 14.8396 91.4408 18.0799C91.4884 21.331 90.6594 24.5349 89.0408 27.3549C87.4987 30.0477 85.2514 32.2691 82.5408 33.7799C79.7759 35.3214 76.6563 36.1142 73.4908 36.0799ZM73.4908 28.2799C74.7483 28.3328 76.002 28.1095 77.1639 27.6257C78.3257 27.142 79.3675 26.4095 80.2158 25.4799C81.9671 23.4236 82.8699 20.7777 82.7408 18.0799C82.8784 15.3732 81.975 12.7165 80.2158 10.6549C79.3636 9.73173 78.3206 9.0053 77.1592 8.52607C75.9978 8.04685 74.746 7.82633 73.4908 7.87985C72.23 7.8225 70.9717 8.03857 69.8023 8.51325C68.6329 8.98793 67.58 9.70998 66.7158 10.6299C64.9489 12.6969 64.0447 15.3644 64.1908 18.0799C64.0532 20.7865 64.9567 23.4432 66.7158 25.5049C67.5761 26.4313 68.6277 27.1595 69.7976 27.6387C70.9676 28.1179 72.2278 28.3367 73.4908 28.2799ZM117.44 17.7299C119.386 18.1096 121.128 19.1848 122.34 20.7549C123.56 22.2979 124.213 24.2129 124.191 26.1799C124.247 27.5004 123.999 28.8162 123.466 30.0256C122.933 31.2351 122.129 32.3057 121.116 33.1549C119.065 34.8715 116.206 35.7299 112.54 35.7299H96.1908V0.629855H111.991C115.557 0.629855 118.349 1.44652 120.366 3.07985C121.356 3.87386 122.145 4.88935 122.671 6.04444C123.196 7.19954 123.443 8.46193 123.391 9.72985C123.46 11.5826 122.886 13.4022 121.766 14.8799C120.66 16.2619 119.146 17.2593 117.44 17.7299ZM104.74 14.8299H110.34C111.49 14.9057 112.63 14.5786 113.565 13.9049C113.95 13.5679 114.251 13.1467 114.447 12.6741C114.642 12.2014 114.725 11.6901 114.691 11.1799C114.724 10.6662 114.639 10.1518 114.445 9.67546C114.25 9.19909 113.949 8.77319 113.566 8.42985C112.638 7.74008 111.495 7.4033 110.341 7.47985H104.741L104.74 14.8299ZM111.04 28.8299C112.228 28.9054 113.405 28.5603 114.365 27.8549C114.764 27.5055 115.078 27.069 115.281 26.5792C115.485 26.0894 115.574 25.5593 115.54 25.0299C115.567 24.4854 115.472 23.9417 115.259 23.4395C115.047 22.9374 114.724 22.4896 114.315 22.1299C113.354 21.3823 112.155 21.0091 110.94 21.0799H104.74V28.8299H111.04Z" fill="#1A1818"/>
</g>
</g>
<defs>
<clipPath id="clip0_328_3280">
<rect width="124.1" height="35.95" fill="white" transform="translate(0.0898438 0.129883)"/>
</clipPath>
</defs>
</svg>
