<svg width="89" height="48" viewBox="0 0 89 48" fill="none" xmlns="http://www.w3.org/2000/svg">
<path d="M87.1211 42.66C88.199 44.21 87.9617 46.22 86.6662 47.3C85.1334 48.39 82.9084 48.15 81.8404 46.84L74.1864 36.85L66.6808 46.61C65.6128 48.15 63.3878 48.15 61.855 47.07C60.3321 45.99 60.0948 43.97 61.1628 42.43L69.9738 30.89L61.2518 19.28C60.7497 18.5241 60.5425 17.6068 60.6704 16.7055C60.7982 15.8041 61.252 14.9827 61.944 14.4C62.6907 13.8951 63.5956 13.6873 64.4846 13.8165C65.3737 13.9457 66.1841 14.4029 66.7599 15.1L74.2656 25.08L81.9196 15.56C82.9876 14.01 84.9851 13.78 86.7453 14.86C88.2682 15.95 88.2682 18.19 87.2002 19.74L78.6266 31.04L87.131 42.66H87.1211ZM47.2392 41.26C41.5037 41.26 36.9053 36.86 36.9053 31.05C36.9053 25.47 41.4938 20.83 47.2392 20.83C52.9748 20.83 57.5731 25.47 57.5731 31.05C57.2666 36.85 52.6682 41.26 47.2392 41.26ZM16.9199 41.26C11.1843 41.26 6.586 36.86 6.586 31.05C6.586 25.47 11.1744 20.83 16.9199 20.83C22.6554 20.83 27.2538 25.47 27.2538 31.05C27.2538 36.85 22.5862 41.26 16.9199 41.26ZM47.2392 14.25C44.1892 14.2405 41.193 15.062 38.5655 16.6281C35.9379 18.1942 33.776 20.4471 32.307 23.15C30.8171 20.4146 28.619 18.141 25.9483 16.5731C23.2776 15.0051 20.2351 14.2021 17.1473 14.25C13.172 14.25 9.64167 15.56 6.81344 17.57V3.33C6.79575 2.45244 6.44314 1.61579 5.82937 0.995131C5.21561 0.37447 4.38826 0.0178889 3.52044 0C1.53278 0 0 1.55 0 3.33V31.28C0.098503 35.7434 1.92734 39.989 5.09234 43.1016C8.25733 46.2143 12.505 47.9447 16.9199 47.92C23.5059 47.92 29.2414 44.12 32.0796 38.79C33.8547 42.1822 36.6996 44.8774 40.1625 46.4479C43.6254 48.0183 47.5079 48.3739 51.1935 47.4583C54.8791 46.5426 58.1566 44.4081 60.5056 41.3937C62.8546 38.3793 64.1405 34.6578 64.1591 30.82C64.3074 21.75 56.6534 14.25 47.2392 14.25Z" fill="#0061D5"/>
</svg>
