<svg width="283" height="48" viewBox="0 0 283 48" fill="none" xmlns="http://www.w3.org/2000/svg">
<path d="M0 24.073C0 15.7401 6.33698 9.87611 15.3015 9.87611C21.0202 9.87611 25.5025 12.1908 27.6663 16.6659L20.2474 18.5177C18.8564 16.9746 17.1562 16.3573 15.3015 16.3573C11.2829 16.3573 8.03715 19.2893 8.03715 24.073C8.03715 28.7025 11.1283 31.6344 15.3015 31.6344C17.1562 31.6344 18.8564 30.8629 20.2474 29.474L27.5117 31.1715C25.5025 35.4923 21.0202 38.1156 15.1469 38.1156C6.33698 38.1156 0 32.2517 0 23.9187V24.073ZM59.8149 22.0669V37.6527H51.7777V23.3015C51.7777 18.672 49.7684 16.8203 46.2135 16.8203C42.5041 16.8203 39.722 19.135 39.722 24.2273V37.6527H31.6849V1.85177L39.722 0V12.9624C42.0858 10.8329 45.1973 9.72344 48.3774 9.87611C54.8689 9.87611 59.8149 13.5797 59.8149 21.9126V22.0669ZM94.4364 9.10454V37.6527H86.7084V34.5664C84.8536 36.8811 82.0716 38.1156 78.3621 38.1156C70.6341 38.1156 64.6062 32.5603 64.6062 24.073C64.6062 15.4314 70.4795 9.87611 78.3621 9.87611C81.6079 9.87611 84.5445 10.9563 86.5538 13.271V10.9563L94.4364 9.10454ZM86.7084 24.073C86.7084 19.2893 83.6171 16.3573 79.5986 16.3573C75.7346 16.3573 72.6434 19.2893 72.6434 24.073C72.6434 28.7025 75.7346 31.6344 79.5986 31.6344C83.6171 31.6344 86.7084 28.7025 86.7084 23.9187V24.073ZM118.239 9.87611V17.2832L116.384 17.1289C112.056 17.1289 109.12 19.5979 109.12 24.8446V37.6527H101.237V10.802L108.811 9.10454V13.8883C110.82 11.2649 114.066 9.87611 118.084 9.87611H118.239ZM150.851 9.10454V33.0233C150.851 43.208 145.287 47.9917 135.395 47.9917C130.622 48.119 125.926 46.7717 121.948 44.1339L125.039 38.4243C127.512 40.4303 131.222 41.5105 134.777 41.5105C140.495 41.5105 142.814 39.0415 142.814 34.1035V33.0233C141.696 34.1707 140.345 35.067 138.853 35.6524C137.36 36.2378 135.76 36.4989 134.158 36.4182C126.585 36.4182 120.557 31.1715 120.557 23.1471C120.557 15.1228 126.739 9.87611 134.158 9.87611C138.022 9.87611 141.268 11.2649 143.277 13.8883V10.802L150.851 9.10454ZM142.968 22.9928C142.968 19.135 139.877 16.3573 135.859 16.3573C131.531 16.3573 128.594 19.135 128.594 23.1471C128.594 27.1593 131.685 29.7827 135.859 29.7827C140.032 29.7827 142.968 27.1593 142.968 23.1471V22.9928ZM164.761 28.3938C165.998 30.7085 168.316 31.7887 171.562 31.7887C172.825 31.8127 174.08 31.5787 175.25 31.1011C176.419 30.6234 177.478 29.9122 178.363 29.0111L182.69 33.6405C181.251 35.1631 179.494 36.3527 177.545 37.1258C175.596 37.8988 173.501 38.2367 171.407 38.1156C161.825 38.1156 155.797 32.0974 155.797 24.073C155.753 22.1703 156.1 20.2787 156.819 18.5158C157.538 16.7529 158.611 15.1563 159.974 13.825C161.336 12.4937 162.958 11.4562 164.739 10.7769C166.52 10.0976 168.421 9.79101 170.326 9.87611C178.054 9.87611 184.236 14.9685 184.545 23.3015L164.761 28.5481M163.525 23.9187L176.972 20.6781C176.199 17.9005 173.726 16.0487 170.326 16.0487C166.461 16.0487 163.525 18.5177 163.525 23.7644V23.9187ZM231.377 28.3938C232.613 30.7085 235.086 31.7887 238.178 31.7887C239.467 31.8341 240.751 31.6106 241.949 31.1323C243.146 30.654 244.231 29.9315 245.133 29.0111L249.306 33.6405C247.866 35.1631 246.11 36.3527 244.161 37.1258C242.212 37.8988 240.117 38.2367 238.023 38.1156C228.44 38.1156 222.412 32.0974 222.412 24.073C222.368 22.1703 222.716 20.2787 223.435 18.5158C224.153 16.7529 225.227 15.1563 226.589 13.825C227.952 12.4937 229.573 11.4562 231.354 10.7769C233.135 10.0976 235.037 9.79101 236.941 9.87611C244.669 9.87611 250.851 14.9685 251.161 23.3015L231.377 28.5481M230.14 23.9187L243.587 20.6781C242.814 17.9005 240.341 16.0487 236.941 16.0487C233.077 16.0487 230.14 18.5177 230.14 23.7644V23.9187ZM263.216 28.3938C264.453 30.7085 266.926 31.7887 270.017 31.7887C271.306 31.8341 272.59 31.6106 273.788 31.1323C274.986 30.654 276.07 29.9315 276.972 29.0111L281.145 33.6405C279.706 35.1631 277.949 36.3527 276 37.1258C274.051 37.8988 271.956 38.2367 269.862 38.1156C260.434 38.1156 254.252 32.0974 254.252 24.073C254.252 15.8944 260.434 9.87611 268.935 9.87611C276.508 9.87611 282.845 14.9685 283 23.3015L263.216 28.5481M261.98 23.9187L275.427 20.6781C274.654 17.9005 272.181 16.0487 268.935 16.0487C264.916 16.0487 261.98 18.5177 261.98 23.7644V23.9187ZM219.167 24.073C219.167 32.5603 213.293 37.9613 205.565 37.9613C202.01 37.9613 198.919 36.8811 197.064 34.5664V37.6527H189.336V1.85177L197.374 0V13.271C198.415 12.1515 199.686 11.2688 201.099 10.683C202.513 10.0972 204.036 9.82203 205.565 9.87611C213.293 9.87611 219.321 15.4314 219.321 24.073H219.167ZM211.129 24.073C211.129 19.2893 208.193 16.3573 204.174 16.3573C200.31 16.3573 197.219 19.2893 197.219 24.073C197.219 28.7025 200.31 31.6344 204.174 31.6344C208.193 31.6344 211.129 28.7025 211.129 23.9187V24.073Z" fill="#18181B"/>
</svg>
