<svg width="151" height="48" viewBox="0 0 151 48" fill="none" xmlns="http://www.w3.org/2000/svg">
<path d="M31.42 10.44C23.02 10.44 16.04 14 16.04 24.74C16.04 33.24 20.74 38.59 31.64 38.59C44.46 38.59 45.28 30.15 45.28 30.15H39.06C39.06 30.15 37.73 34.7 31.26 34.7C25.98 34.7 22.18 31.13 22.18 26.13H45.93V23C45.93 18.06 42.79 10.44 31.42 10.44ZM31.2 14.44C36.22 14.44 39.65 17.52 39.65 22.14H22.32C22.32 17.24 26.79 14.44 31.2 14.44Z" fill="#E53238"/>
<path d="M45.92 0.039978V33.2C45.92 35.08 45.79 37.73 45.79 37.73H51.72C51.72 37.73 51.92 35.83 51.92 34.09C51.92 34.09 54.86 38.68 62.82 38.68C71.2 38.68 76.89 32.85 76.89 24.52C76.89 16.76 71.66 10.52 62.83 10.52C54.56 10.52 51.99 14.98 51.99 14.98V0.039978H45.92ZM61.3 14.62C67 14.62 70.61 18.84 70.61 24.52C70.61 30.6 66.43 34.57 61.34 34.57C55.27 34.57 51.99 29.83 51.99 24.57C51.99 19.67 54.93 14.62 61.3 14.62Z" fill="#0064D2"/>
<path d="M91.62 10.44C79 10.44 78.19 17.34 78.19 18.45H84.48C84.48 18.45 84.8 14.42 91.18 14.42C95.34 14.42 98.55 16.32 98.55 19.97V21.27H91.2C81.42 21.27 76.26 24.13 76.26 29.93C76.26 35.64 81.03 38.75 87.48 38.75C96.28 38.75 99.11 33.89 99.11 33.89C99.11 35.82 99.26 37.73 99.26 37.73H104.84C104.84 37.73 104.63 35.37 104.63 33.86V20.8C104.63 12.24 97.73 10.44 91.63 10.44H91.62ZM98.55 25.16V26.9C98.55 29.16 97.15 34.78 88.95 34.78C84.45 34.78 82.53 32.53 82.53 29.93C82.53 25.2 89.02 25.16 98.55 25.16Z" fill="#F5AF02"/>
<path d="M101.23 11.52H108.3L118.44 31.84L128.56 11.52H134.96L116.53 47.69H109.82L115.14 37.61L101.24 11.52H101.23Z" fill="#86B817"/>
</svg>
