<svg width="69" height="34" viewBox="0 0 69 34" fill="none" xmlns="http://www.w3.org/2000/svg">
<g clip-path="url(#clip0_328_3287)">
<mask id="mask0_328_3287" style="mask-type:luminance" maskUnits="userSpaceOnUse" x="0" y="0" width="69" height="34">
<path d="M68.44 0.0148926H0V33.4049H68.44V0.0148926Z" fill="white"/>
</mask>
<g mask="url(#mask0_328_3287)">
<path d="M5.79002 0.0148926L-0.000976562 33.3999H21.711L22.67 27.8779H7.66202L9.22102 18.9329H21.984L22.942 13.5429H10.134L11.534 5.58789H26.468L27.451 0.0148926H5.79002Z" fill="#1A1818"/>
<mask id="mask1_328_3287" style="mask-type:luminance" maskUnits="userSpaceOnUse" x="-1" y="0" width="70" height="34">
<path d="M68.44 0.0148926H-0.000976562V33.4009H68.44V0.0148926Z" fill="white"/>
</mask>
<g mask="url(#mask1_328_3287)">
<path d="M37.3082 5.58789L33.4443 27.8779L36.2343 27.8989C37.6497 27.9464 39.0569 27.6647 40.345 27.0759C41.6331 26.4871 42.767 25.6074 43.6573 24.5059C45.5239 22.2439 46.5956 18.8272 46.8723 14.2559L46.9182 13.5219C47.0915 11.4822 46.584 9.44262 45.4753 7.72189C44.9428 7.04114 44.2575 6.49542 43.4748 6.129C42.6921 5.76258 41.8341 5.58577 40.9703 5.61289L37.3082 5.58789ZM25.7812 33.4009L31.5673 0.0148926L41.1272 0.0358926C43.2389 0.0481615 45.3164 0.571028 47.1822 1.55989C48.9817 2.54194 50.486 3.98716 51.5393 5.74589C52.6679 7.61595 53.3559 9.71841 53.5512 11.8939C53.6749 13.2522 53.6599 14.6196 53.5063 15.9749L53.3453 17.1889C52.8766 21.6698 50.8385 25.8407 47.5912 28.9639C44.4842 31.8997 40.3459 33.4937 36.0723 33.4009H25.7812Z" fill="#1A1818"/>
<path d="M62.6795 33.4009H55.9795L61.7415 0.0148926H68.4415L62.6795 33.4009Z" fill="#1A1818"/>
</g>
</g>
</g>
<defs>
<clipPath id="clip0_328_3287">
<rect width="68.44" height="33.39" fill="white" transform="translate(0 0.0148926)"/>
</clipPath>
</defs>
</svg>
