<svg width="172" height="48" viewBox="0 0 172 48" fill="none" xmlns="http://www.w3.org/2000/svg">
<g clip-path="url(#clip0_0_6232)">
<path d="M171.086 32.9759L165.842 26.2559L170.629 22.4759C170.779 22.37 170.903 22.2302 170.99 22.0679C171.074 21.8999 171.11 21.7319 171.11 21.5519C171.119 21.268 171.015 20.9921 170.821 20.784C170.717 20.6849 170.599 20.6001 170.472 20.532C170.341 20.4801 170.204 20.4438 170.063 20.424H169.979C169.835 20.424 169.679 20.448 169.546 20.496C169.404 20.5431 169.279 20.6307 169.185 20.748L162.305 26.2679V14.16C162.308 14.0066 162.275 13.8546 162.209 13.716C162.115 13.5042 161.959 13.3256 161.762 13.2036C161.564 13.0816 161.335 13.0218 161.103 13.032C160.814 13.032 160.535 13.1389 160.321 13.332C160.216 13.4265 160.131 13.541 160.071 13.6688C160.011 13.7966 159.977 13.935 159.972 14.076V33.6839C159.972 33.9959 160.116 34.2839 160.345 34.4879C160.573 34.6919 160.874 34.8119 161.187 34.7879C161.475 34.7879 161.764 34.6919 161.969 34.4999C162.073 34.4052 162.156 34.2904 162.214 34.1625C162.272 34.0346 162.303 33.8962 162.305 33.7559V28.9559L163.905 27.6959L169.197 34.2959C169.318 34.4519 169.45 34.5719 169.606 34.6679C169.767 34.7643 169.948 34.8218 170.136 34.8359C170.279 34.8418 170.421 34.8194 170.555 34.7699C170.69 34.7205 170.813 34.645 170.917 34.5479C171.021 34.4532 171.105 34.3384 171.163 34.2105C171.221 34.0826 171.252 33.9442 171.254 33.8039V33.7199C171.289 33.5901 171.289 33.4536 171.254 33.3239C171.226 33.1926 171.169 33.0694 171.086 32.9639V32.9759ZM152.418 26.4479C150.662 25.8479 149.243 25.3319 149.243 24.0959C149.243 22.8479 150.843 22.5119 151.721 22.5119C152.306 22.4801 152.892 22.5703 153.441 22.7769C153.99 22.9835 154.49 23.302 154.908 23.7119C155.004 23.8079 155.125 23.8919 155.269 23.9519C155.406 24.0089 155.554 24.0335 155.702 24.0239C155.979 24.0239 156.231 23.9039 156.424 23.7239C156.616 23.5332 156.724 23.2742 156.724 23.0039C156.724 22.7519 156.628 22.4999 156.472 22.2839C155.904 21.6055 155.182 21.0719 154.367 20.7276C153.551 20.3832 152.664 20.238 151.781 20.304C148.81 20.304 146.994 21.8159 146.994 24.0959C146.994 26.9399 149.544 27.7919 151.769 28.5959C153.453 29.1359 154.956 29.6159 154.956 30.8759C154.956 32.1239 153.044 32.8559 151.925 32.8559C151.247 32.8835 150.569 32.7733 149.935 32.532C149.3 32.2906 148.721 31.9232 148.233 31.4519C148.009 31.2429 147.729 31.105 147.427 31.0559C147.162 31.0559 146.91 31.1759 146.717 31.3559C146.525 31.5467 146.417 31.8056 146.416 32.0759C146.416 32.3279 146.513 32.5799 146.657 32.7959C147.337 33.5231 148.166 34.0956 149.087 34.4745C150.009 34.8535 151.001 35.0299 151.997 34.9919C155.341 34.9919 157.326 33.4199 157.326 30.8879C157.326 28.3559 154.644 27.2519 152.418 26.4839V26.4479ZM138.622 22.3439C141.028 22.3439 142.207 23.6879 142.315 26.2679H134.533C134.785 23.7479 136.217 22.3439 138.622 22.3439ZM144.612 26.2679C144.607 24.9202 144.21 23.6029 143.47 22.4759C142.91 21.7292 142.169 21.1361 141.317 20.7521C140.466 20.3681 139.53 20.2056 138.598 20.28C134.545 20.28 132.199 22.9559 132.199 27.5999C132.199 32.2559 134.497 34.9919 138.923 34.9919C140.708 35.0571 142.451 34.4389 143.794 33.2639C143.915 33.1799 144.011 33.0599 144.083 32.9039C144.149 32.7653 144.182 32.6133 144.179 32.4599C144.172 32.1909 144.065 31.9341 143.879 31.7399C143.687 31.5485 143.428 31.4406 143.157 31.4399C142.916 31.4399 142.7 31.5479 142.555 31.7039C141.562 32.5084 140.323 32.9489 139.043 32.9519C136.397 32.9519 134.737 31.2239 134.653 28.4519H143.229C144.576 28.3319 144.576 27.0479 144.576 26.2679H144.612ZM123.443 32.9039C120.749 32.9039 119.402 31.1759 119.402 27.6359C119.402 24.1079 120.749 22.3799 123.455 22.3799C124.252 22.421 125.025 22.6697 125.696 23.1013C126.367 23.5329 126.913 24.1323 127.28 24.8399V28.9439C127.244 31.3919 125.825 32.9279 123.431 32.9279H123.455V32.9039H123.443ZM128.423 12.972C128.279 12.9665 128.135 12.991 128.002 13.044C127.867 13.0886 127.744 13.1623 127.641 13.26C127.536 13.3552 127.451 13.4692 127.388 13.596C127.316 13.74 127.304 13.872 127.28 14.004V21.8039C126.241 20.7845 124.84 20.2153 123.383 20.22C119.245 20.22 117.176 22.6679 117.176 27.5399C117.176 32.4119 119.402 34.9199 123.575 34.9199C127.737 34.9199 129.71 32.6399 129.71 28.8599V14.16C129.673 13.8392 129.524 13.5417 129.289 13.32C129.048 13.08 128.735 12.972 128.411 12.96H128.423V12.972ZM109.021 20.22C108.298 20.1864 107.577 20.3194 106.914 20.6086C106.251 20.8979 105.663 21.3356 105.197 21.8879V14.16C105.197 13.86 105.088 13.56 104.872 13.32C104.654 13.1016 104.362 12.9731 104.054 12.96H103.982C103.75 12.9513 103.521 13.0164 103.329 13.1458C103.136 13.2752 102.99 13.4623 102.911 13.68C102.859 13.8302 102.843 13.9904 102.863 14.148V33.6839C102.863 33.8399 102.875 33.9959 102.923 34.1279C102.983 34.2599 103.068 34.4039 103.164 34.5239C103.272 34.6199 103.404 34.7279 103.537 34.7639C103.681 34.8359 103.825 34.8839 103.982 34.8839C104.295 34.8839 104.595 34.7639 104.824 34.5719C105.04 34.3679 105.185 34.0799 105.185 33.7679V26.3279C105.185 23.6639 106.472 22.3319 109.021 22.3319C111.571 22.3319 112.462 23.4479 112.462 26.1119V33.6839C112.457 33.8377 112.483 33.991 112.538 34.1349C112.592 34.2787 112.676 34.4102 112.782 34.5218C112.888 34.6334 113.015 34.7229 113.157 34.785C113.298 34.8472 113.45 34.8808 113.604 34.8839H113.664C113.826 34.8872 113.986 34.8544 114.133 34.7879C114.278 34.7279 114.398 34.6319 114.518 34.5359C114.627 34.4159 114.711 34.2839 114.759 34.1399C114.809 33.9934 114.825 33.8376 114.807 33.6839V25.7279C114.735 22.0919 112.834 20.208 109.009 20.208H109.034L109.021 20.22ZM95.2254 26.4599C93.4693 25.8479 92.038 25.3319 92.038 24.0959C92.038 22.8479 93.6377 22.5119 94.5278 22.5119C95.1115 22.4818 95.6951 22.5728 96.2417 22.7794C96.7883 22.986 97.286 23.3035 97.7032 23.7119C97.9077 23.9039 98.1843 24.0119 98.473 24.0119C98.6884 24.0093 98.8987 23.9459 99.0796 23.8291C99.2605 23.7124 99.4046 23.5469 99.4953 23.3519C99.5502 23.2107 99.5708 23.0586 99.5555 22.9079C99.5555 22.6559 99.4593 22.3919 99.3149 22.1879C98.7454 21.5085 98.0216 20.9745 97.2037 20.6301C96.3857 20.2857 95.4972 20.141 94.612 20.208C91.6411 20.208 89.8249 21.7199 89.8249 23.9879C89.8249 26.8439 92.3748 27.6959 94.612 28.4879C96.2959 29.0399 97.7874 29.5079 97.7874 30.7679C97.7874 32.0279 95.887 32.7479 94.7563 32.7479C94.0779 32.7821 93.3998 32.6761 92.7643 32.4366C92.1289 32.197 91.55 31.8291 91.0637 31.3559C90.8423 31.1534 90.5664 31.0199 90.2699 30.9719C89.9933 30.9719 89.7407 31.0919 89.5482 31.2719C89.3563 31.4627 89.2482 31.7216 89.2475 31.9919C89.2475 32.2319 89.3437 32.4959 89.5001 32.7119C90.1473 33.4682 90.9542 34.0723 91.8629 34.481C92.7716 34.8897 93.7597 35.0928 94.7563 35.0759C98.1242 35.0759 100.085 33.5039 100.085 30.9719C100.085 28.4399 97.4145 27.2639 95.1893 26.5079H95.2254V26.4479V26.4599ZM81.4895 22.3439C83.8951 22.3439 85.0738 23.6879 85.1821 26.2679H77.3639C77.6165 23.7479 79.0478 22.3439 81.4534 22.3439H81.4895ZM87.3832 26.2679C87.3832 24.9239 86.9863 23.6279 86.2285 22.4759C85.6686 21.7292 84.9281 21.1361 84.0763 20.7521C83.2244 20.3681 82.289 20.2056 81.3572 20.28C77.3158 20.28 74.9703 22.9559 74.9703 27.5999C74.9703 32.2559 77.2556 35.0279 81.6579 35.0279C83.4391 35.09 85.1769 34.472 86.5172 33.2999C86.6319 33.2126 86.7262 33.1015 86.7938 32.9744C86.8613 32.8472 86.9005 32.7069 86.9085 32.5632C86.9165 32.4195 86.8932 32.2758 86.8401 32.142C86.7871 32.0081 86.7057 31.8873 86.6014 31.7879C86.4109 31.601 86.1585 31.49 85.8917 31.4759C85.6512 31.4759 85.4347 31.5839 85.2903 31.7279C84.2987 32.5367 83.0589 32.9815 81.7781 32.9879C79.132 32.9879 77.4721 31.2599 77.3879 28.4879H86C87.3351 28.3079 87.3351 27.0479 87.3351 26.2439L87.3711 26.2679H87.3832ZM73.2142 20.28C72.4469 20.2369 71.6809 20.3855 70.9857 20.7124C70.2905 21.0393 69.6881 21.5341 69.233 22.1519V21.54C69.233 21.3864 69.201 21.2345 69.1388 21.094C69.0767 20.9535 68.9859 20.8274 68.8721 20.724C68.6481 20.5023 68.3457 20.3773 68.0302 20.376C67.7054 20.376 67.4167 20.496 67.1882 20.724C67.0773 20.8296 66.9883 20.9561 66.9264 21.0961C66.8644 21.2361 66.8308 21.387 66.8274 21.54V33.6959C66.8209 34.0026 66.936 34.2994 67.1477 34.5219C67.3595 34.7444 67.6507 34.8745 67.958 34.8839H68.0302C68.3309 34.8959 68.6316 34.7999 68.8481 34.6079C69.0646 34.4039 69.2089 34.1279 69.233 33.8399V26.9999C69.233 24.1559 70.7725 22.5119 73.2142 22.5119C73.5029 22.5119 73.8036 22.4039 74.0081 22.2239C74.1123 22.127 74.1959 22.0101 74.2538 21.8802C74.3116 21.7503 74.3426 21.6101 74.3449 21.4679V21.384C74.3418 21.2395 74.3099 21.0971 74.2513 20.965C74.1926 20.8329 74.1083 20.7137 74.0031 20.6144C73.8979 20.5151 73.7741 20.4375 73.6386 20.3863C73.5032 20.3351 73.359 20.3112 73.2142 20.316V20.304V20.28ZM64.073 13.752C60.1037 13.752 58.6363 16.524 58.6363 19.128V20.7H57.8665C57.7078 20.6676 57.5442 20.6676 57.3854 20.7C57.2185 20.7424 57.0626 20.8202 56.9284 20.928C56.796 21.024 56.6878 21.168 56.6277 21.312C56.524 21.538 56.4973 21.7917 56.5516 22.0344C56.6059 22.277 56.7382 22.4953 56.9284 22.6559C57.0574 22.7617 57.2093 22.8363 57.3721 22.8737C57.5348 22.9112 57.7041 22.9106 57.8665 22.8719H58.6724V33.7559C58.6676 33.9088 58.693 34.0611 58.7473 34.2041C58.8015 34.3472 58.8834 34.4782 58.9884 34.5897C59.0934 34.7011 59.2194 34.7908 59.3592 34.8536C59.499 34.9165 59.6498 34.9512 59.803 34.9559H59.8752C60.0316 34.9559 60.1879 34.9559 60.3202 34.8959C60.4526 34.8479 60.5969 34.7759 60.6931 34.6799C60.8134 34.5719 60.8976 34.4519 60.9698 34.3319C61.0299 34.2119 61.066 34.0679 61.09 33.9119V22.7519H63.64C63.9286 22.8119 64.2414 22.7519 64.4819 22.5719C64.6062 22.4884 64.7119 22.3804 64.7926 22.2545C64.8733 22.1286 64.9272 21.9875 64.951 21.8399C64.9768 21.694 64.9732 21.5445 64.9405 21.4C64.9077 21.2555 64.8464 21.1189 64.7602 20.9983C64.674 20.8776 64.5646 20.7753 64.4383 20.6973C64.3121 20.6193 64.1715 20.5672 64.0249 20.544H61.066V18.972C61.066 17.556 61.6072 15.828 64.1692 15.828C64.3015 15.828 64.4579 15.828 64.5902 15.78C64.7225 15.732 64.8428 15.66 64.951 15.576C65.0472 15.468 65.1314 15.372 65.2036 15.24C65.2594 15.1107 65.292 14.9726 65.2998 14.832C65.2885 14.5275 65.1591 14.2392 64.939 14.028C64.7085 13.8192 64.4083 13.7037 64.097 13.704H64.0609L64.085 13.752H64.073Z" fill="#18181B"/>
<path fill-rule="evenodd" clip-rule="evenodd" d="M42.4948 8.34429e-06H24.2363L24.2483 0.0120085C10.8371 0.156008 0.0119629 10.8359 0.0119629 24.0959C0.0119629 27.2399 0.649445 30.3358 1.8763 33.2398C3.73006 37.6323 6.84663 41.3785 10.8326 44.0054C14.8186 46.6324 19.4953 48.0223 24.2724 47.9997H24.4047C30.7977 48.0285 36.9408 45.5248 41.4849 41.0384C46.0291 36.5521 48.6029 30.4499 48.6411 24.0719V5.95197C48.6341 5.16007 48.4688 4.37751 48.1549 3.65014C47.841 2.92277 47.3847 2.26521 46.8128 1.716C45.6478 0.611857 44.1016 -0.00261169 42.4948 8.34429e-06ZM16.358 13.9199C18.4532 11.8474 21.2858 10.6868 24.2363 10.6919V10.7159C30.551 10.7159 35.5185 15.6359 35.3622 21.8399V29.1598C35.3526 29.9835 35.0647 30.7798 34.5452 31.42C34.0258 32.0603 33.305 32.5069 32.4995 32.6878V32.9518C32.49 34.1157 32.0191 35.2284 31.1897 36.0469C30.3602 36.8654 29.2398 37.323 28.0732 37.3198H24.6573C24.5045 37.3176 24.3583 37.2576 24.2483 37.1518C24.1905 37.1034 24.1443 37.0427 24.1131 36.9742C24.0819 36.9057 24.0664 36.8311 24.0679 36.7558C24.0679 36.4918 24.3686 36.3478 24.6453 36.3478H28.0492C28.9491 36.3344 29.8098 35.9781 30.4548 35.3518C31.0922 34.7278 31.4651 33.8758 31.4651 32.9758V32.8318H28.6265V24.2639H32.9325V21.8639C32.8092 20.2383 32.2293 18.6803 31.2593 17.3684C30.2893 16.0566 28.9685 15.0439 27.4481 14.4464C25.9278 13.849 24.2695 13.691 22.6633 13.9905C21.0571 14.29 19.568 15.0349 18.3666 16.1399C16.7638 17.6309 15.7988 19.6811 15.6724 21.8639V24.2639H19.9303V32.8318H16.779C15.8109 32.8011 14.889 32.4118 14.1929 31.7398C13.5035 31.0599 13.1066 30.1388 13.0864 29.1718V21.6959C13.0878 20.2481 13.3778 18.8151 13.9394 17.4801C14.5011 16.1452 15.3232 14.935 16.358 13.9199Z" fill="#3FB870"/>
<path d="M24.2364 10.6919C21.2775 10.6919 18.4509 11.8559 16.358 13.9319C15.3242 14.9451 14.5025 16.1533 13.9409 17.4861C13.3792 18.819 13.0888 20.25 13.0864 21.6958V29.1718C13.1021 30.1418 13.4969 31.0672 14.1867 31.751C14.8765 32.4347 15.8067 32.8225 16.779 32.8318H19.9303V24.2638H15.6724V21.8638C15.7927 19.7038 16.755 17.6399 18.3667 16.1519C19.5676 15.0509 21.0547 14.309 22.6581 14.011C24.2615 13.713 25.9166 13.8708 27.4343 14.4665C28.9521 15.0622 30.2713 16.0717 31.2414 17.3797C32.2115 18.6878 32.7934 20.2416 32.9206 21.8638V24.2638H28.6266V32.8318H31.4652V32.9758C31.4652 33.8758 31.1043 34.7278 30.4428 35.3517C29.7999 35.9812 28.9379 36.3381 28.0372 36.3477H24.6573C24.3807 36.3477 24.08 36.4917 24.08 36.7557C24.08 36.9117 24.1401 37.0437 24.2604 37.1517C24.3704 37.2575 24.5166 37.3176 24.6694 37.3197H28.0973C29.2618 37.3198 30.3792 36.8607 31.206 36.0426C32.0328 35.2245 32.5021 34.1135 32.5116 32.9518V32.6878C33.3171 32.5069 34.0378 32.0602 34.5573 31.42C35.0768 30.7798 35.3646 29.9834 35.3743 29.1598V21.8398C35.5306 15.6359 30.5631 10.7159 24.2484 10.7159V10.6919H24.2364Z" fill="white"/>
</g>
<defs>
<clipPath id="clip0_0_6232">
<rect width="172" height="48" fill="white"/>
</clipPath>
</defs>
</svg>
