<svg width="91" height="127" viewBox="0 0 91 127" fill="none" xmlns="http://www.w3.org/2000/svg">
<g clip-path="url(#clip0_328_3302)">
<mask id="mask0_328_3302" style="mask-type:luminance" maskUnits="userSpaceOnUse" x="0" y="0" width="91" height="127">
<path d="M90.04 0H0V126.21H90.04V0Z" fill="white"/>
</mask>
<g mask="url(#mask0_328_3302)">
<path d="M22.8521 91.1302L22.859 97.9802L8.55795 97.9945L8.56535 105.395L19.2654 105.384L19.272 112.034L8.572 112.045L8.5862 126.245L0.0312011 126.253L-0.00389893 91.1531L22.8521 91.1302ZM52.6031 91.1005L52.6099 97.9505L43.31 97.9598L43.3382 126.21L34.7882 126.218L34.76 97.9683L25.46 97.9776L25.4531 91.1276L52.6031 91.1005ZM83.6654 102.369C83.689 104.317 83.2087 106.238 82.271 107.946C81.2697 109.697 79.7758 111.116 77.9751 112.025C75.7403 113.129 73.2677 113.664 70.7766 113.582L65.4766 113.588L65.4892 126.188L56.9392 126.196L56.9041 91.0962L70.7531 91.0823C73.2002 91.0053 75.6316 91.4993 77.8546 92.5252C79.6765 93.3863 81.1946 94.7794 82.2086 96.5209C83.1999 98.3084 83.7024 100.326 83.6654 102.369ZM70.1188 106.783C71.4387 106.887 72.7472 106.473 73.7677 105.629C74.1823 105.2 74.5028 104.69 74.7089 104.13C74.915 103.57 75.002 102.973 74.9644 102.378C75.0008 101.783 74.9126 101.186 74.7054 100.627C74.4982 100.067 74.1766 99.5574 73.7612 99.1293C72.739 98.2878 71.4297 97.8767 70.11 97.983L65.46 97.9876L65.4688 106.788L70.1188 106.783Z" fill="#1A1818"/>
<path d="M62.1904 44.5539C61.8998 44.5537 61.6174 44.4576 61.387 44.2805L53.8921 38.5456L46.6779 44.278C46.4006 44.4804 46.0558 44.5678 45.7156 44.5218C45.3754 44.4759 45.0661 44.3002 44.8525 44.0315C44.6388 43.7628 44.5373 43.4219 44.5692 43.0801C44.6012 42.7383 44.764 42.422 45.0237 42.1975L53.0483 35.8213C53.2794 35.636 53.5658 35.5335 53.862 35.5299C54.1581 35.5264 54.4469 35.622 54.6823 35.8017L62.9989 42.1658C63.2194 42.3347 63.3814 42.5684 63.4624 42.834C63.5434 43.0997 63.5391 43.384 63.4503 43.6472C63.3615 43.9103 63.1925 44.139 62.9671 44.3013C62.7417 44.4635 62.4711 44.5511 62.1934 44.5518" fill="#050605"/>
<path d="M54.0395 72.1577C53.8648 72.1579 53.6918 72.1238 53.5303 72.0571C53.3688 71.9904 53.222 71.8925 53.0984 71.7691C52.9747 71.6456 52.8767 71.499 52.8097 71.3376C52.7428 71.1762 52.7084 71.0032 52.7084 70.8284L52.6864 38.9101C52.6862 38.5573 52.8261 38.2189 53.0754 37.9693C53.3246 37.7196 53.6629 37.5792 54.0157 37.579C54.3684 37.5787 54.7069 37.7186 54.9565 37.9679C55.2062 38.2172 55.3466 38.5554 55.3468 38.9082L55.3718 70.8265C55.3719 71.0012 55.3376 71.1742 55.2709 71.3356C55.2042 71.4971 55.1063 71.6438 54.9829 71.7674C54.8594 71.891 54.7129 71.9891 54.5515 72.056C54.3902 72.123 54.2172 72.1575 54.0425 72.1576" fill="#050605"/>
<path d="M22.9278 63.1506C23.2201 63.1497 23.5045 63.2459 23.7362 63.424L31.2311 69.1589L38.4454 63.4265C38.7227 63.2241 39.0675 63.1367 39.4077 63.1826C39.7479 63.2286 40.0572 63.4043 40.2708 63.673C40.4845 63.9417 40.5859 64.2826 40.554 64.6244C40.5221 64.9662 40.3593 65.2824 40.0996 65.5069L32.0749 71.8831C31.8439 72.0684 31.5575 72.171 31.2613 72.1745C30.9652 72.1781 30.6764 72.0824 30.4409 71.9028L22.1244 65.5396C21.9035 65.3709 21.7411 65.1371 21.6599 64.8713C21.5786 64.6054 21.5828 64.3208 21.6716 64.0574C21.7605 63.7941 21.9297 63.5651 22.1554 63.4028C22.381 63.2406 22.6519 63.153 22.9299 63.1526" fill="#050605"/>
<path d="M31.0791 35.5478C31.2538 35.5476 31.4268 35.5819 31.5882 35.6486C31.7496 35.7154 31.8963 35.8132 32.0199 35.9367C32.1436 36.0601 32.2417 36.2067 32.3086 36.368C32.3756 36.5293 32.4101 36.7023 32.4102 36.877L32.4352 68.7953C32.4354 69.1481 32.2955 69.4865 32.0463 69.7361C31.797 69.9858 31.4587 70.1262 31.106 70.1264C30.7532 70.1267 30.4147 69.9868 30.1651 69.7375C29.9155 69.4882 29.7751 69.15 29.7748 68.7972L29.7498 36.8789C29.7497 36.7042 29.784 36.5312 29.8507 36.3698C29.9174 36.2083 30.0153 36.0616 30.1387 35.938C30.2622 35.8144 30.4088 35.7163 30.5701 35.6494C30.7314 35.5824 30.9044 35.5479 31.0791 35.5478Z" fill="#050605"/>
<path d="M65.8606 57.5186L59.9928 57.523C59.8154 57.5276 59.6389 57.4966 59.4737 57.4319C59.3084 57.3672 59.1578 57.2701 59.0306 57.1462C58.9035 57.0224 58.8024 56.8744 58.7334 56.7109C58.6643 56.5474 58.6287 56.3718 58.6286 56.1943C58.6284 56.0169 58.6638 55.8412 58.7326 55.6776C58.8015 55.514 58.9023 55.3658 59.0293 55.2418C59.1562 55.1178 59.3067 55.0205 59.4719 54.9556C59.637 54.8906 59.8135 54.8594 59.9909 54.8637L65.8587 54.8583C72.3446 54.8535 77.819 49.0709 77.8089 42.2321C77.807 40.0795 77.2457 37.9644 76.18 36.0941C75.1143 34.2238 73.5809 32.6626 71.7301 31.5635C71.5122 31.4388 71.3339 31.2551 71.2157 31.0336C71.0975 30.8121 71.0442 30.5617 71.062 30.3113C71.1052 29.7457 71.1465 29.0261 71.1486 28.451C71.1647 22.2921 68.93 16.3396 64.8648 11.713C60.7996 7.08628 55.1841 4.10429 49.0744 3.32781C42.9646 2.55134 36.7817 4.03389 31.6885 7.49663C26.5952 10.9594 22.9426 16.1637 21.4176 22.1308C21.3369 22.4241 21.1605 22.682 20.9164 22.8636C20.6723 23.0451 20.3746 23.14 20.0705 23.1331C19.8819 23.1217 19.6942 23.0986 19.5086 23.0638L19.4516 23.0645C10.9584 23.0664 3.98785 30.3591 3.99523 38.9752C3.99885 47.6114 11.0133 54.9023 19.3054 54.8938L25.3913 54.8888C25.5659 54.8887 25.7389 54.923 25.9004 54.9897C26.0618 55.0564 26.2085 55.1543 26.3321 55.2777C26.4557 55.4012 26.5538 55.5477 26.6208 55.7091C26.6877 55.8704 26.7223 56.0434 26.7224 56.218C26.7225 56.3927 26.6882 56.5657 26.6215 56.7271C26.5548 56.8886 26.4569 57.0353 26.3335 57.1589C26.21 57.2825 26.0635 57.3806 25.9021 57.4476C25.7408 57.5145 25.5679 57.5491 25.3932 57.5492L19.3074 57.5542C9.57404 57.561 1.34278 49.0535 1.33486 38.9752C1.32751 28.9448 9.46884 20.4569 19.1432 20.3708C21.067 13.9426 25.2416 8.42221 30.9028 4.82023C36.564 1.21826 43.3331 -0.22437 49.971 0.756425C56.6089 1.73722 62.6715 5.07582 67.0491 10.1611C71.4267 15.2464 73.8264 21.7382 73.809 28.4481C73.8135 28.8281 73.7918 29.2674 73.7689 29.6937C75.8243 31.0774 77.5096 32.9433 78.6776 35.1284C79.8456 37.3135 80.4608 39.7515 80.4693 42.2292C80.4767 50.5103 73.7857 57.5115 65.8566 57.5177" fill="#050605"/>
</g>
</g>
<defs>
<clipPath id="clip0_328_3302">
<rect width="90.04" height="126.21" fill="white"/>
</clipPath>
</defs>
</svg>
