<svg width="191" height="48" viewBox="0 0 191 48" fill="none" xmlns="http://www.w3.org/2000/svg">
<g clip-path="url(#clip0_0_6004)">
<path d="M114.962 36.4841H114.904C114.929 36.4841 114.946 36.5123 114.973 36.5152H114.99L114.962 36.4869V36.4841ZM114.973 36.5152C114.705 36.518 114.032 36.6592 113.322 36.6592C111.077 36.6592 110.3 35.6257 110.3 34.2761V25.2874H114.876C115.135 25.2874 115.336 25.0587 115.336 24.7425V19.8621C115.336 19.6037 115.105 19.3736 114.876 19.3736H110.299V13.3172C110.299 13.087 110.156 12.943 109.897 12.943H103.682C103.423 12.943 103.28 13.087 103.28 13.3172V19.5458C103.28 19.5458 100.143 20.3223 99.9409 20.3505C99.8327 20.3776 99.7368 20.4405 99.669 20.529C99.6011 20.6175 99.5653 20.7262 99.5674 20.8376V24.7425C99.5674 25.0587 99.798 25.2874 100.057 25.2874H103.25V34.7039C103.25 41.709 108.141 42.4262 111.479 42.4262C113.004 42.4262 114.846 41.9391 115.133 41.7951C115.306 41.7387 115.392 41.5368 115.392 41.3363V37.0304C115.396 36.9081 115.356 36.7882 115.279 36.6931C115.202 36.5979 115.093 36.5337 114.972 36.5123L114.973 36.5152ZM183.148 30.1975C183.148 25.0009 181.047 24.3105 178.831 24.542C177.105 24.655 175.724 25.5176 175.724 25.5176V35.6229C175.724 35.6229 177.135 36.5984 179.234 36.6563C182.198 36.741 183.148 35.6794 183.148 30.1975ZM190.138 29.7373C190.138 39.5843 186.945 42.3979 181.364 42.3979C176.645 42.3979 174.113 40.0149 174.113 40.0149C174.113 40.0149 173.998 41.3349 173.854 41.5071C173.767 41.6808 173.624 41.7372 173.452 41.7372H169.193C168.906 41.7372 168.647 41.5071 168.647 41.2488L168.704 9.35435C168.704 9.096 168.934 8.8673 169.193 8.8673H175.322C175.581 8.8673 175.81 9.096 175.81 9.35435V20.1783C175.81 20.1783 178.17 18.6564 181.622 18.6564L181.594 18.6C185.046 18.6 190.138 19.8903 190.138 29.7387V29.7373ZM165.051 19.375H159.009C158.693 19.375 158.52 19.6037 158.52 19.9199V35.5368C158.52 35.5368 156.937 36.6563 154.779 36.6563C152.622 36.6563 151.989 35.6794 151.989 33.5265V19.8917C151.985 19.7636 151.932 19.642 151.841 19.5515C151.75 19.4611 151.628 19.4085 151.5 19.4047H145.342C145.214 19.4086 145.092 19.4611 145.002 19.5516C144.911 19.6421 144.858 19.7638 144.854 19.8917V34.5627C144.854 40.8775 148.393 42.4572 153.255 42.4572C157.254 42.4572 160.505 40.2464 160.505 40.2464C160.505 40.2464 160.649 41.366 160.736 41.5382C160.792 41.6822 160.994 41.7965 161.195 41.7965H165.051C165.368 41.7965 165.54 41.5664 165.54 41.3081L165.597 19.8635C165.597 19.6051 165.368 19.375 165.051 19.375ZM96.8651 19.3454H90.7376C90.4787 19.3454 90.248 19.6037 90.248 19.9199V40.9904C90.248 41.565 90.6216 41.7669 91.1111 41.7669H96.6345C97.2104 41.7669 97.3547 41.5071 97.3547 40.9904V19.8352C97.3511 19.7068 97.2984 19.5846 97.2073 19.4938C97.1163 19.4029 96.9938 19.3503 96.8651 19.3468V19.3454ZM93.8445 9.64235C93.3221 9.6386 92.8042 9.7385 92.3208 9.93625C91.8375 10.134 91.3983 10.4256 91.0289 10.7942C90.6595 11.1628 90.3672 11.601 90.1691 12.0834C89.9709 12.5657 89.8708 13.0825 89.8745 13.6037C89.8708 14.125 89.9709 14.6418 90.1691 15.1241C90.3672 15.6064 90.6595 16.0446 91.0289 16.4132C91.3983 16.7818 91.8375 17.0735 92.3208 17.2712C92.8042 17.469 93.3221 17.5689 93.8445 17.5651C96.0021 17.5651 97.7565 15.8146 97.7565 13.6037C97.7565 11.3929 96.0021 9.64235 93.8445 9.64235ZM141.286 8.92377H135.217C135.088 8.92733 134.965 8.97993 134.874 9.07078C134.783 9.16162 134.731 9.28381 134.727 9.41224V21.1538H125.204V9.41224C125.2 9.28381 125.148 9.16162 125.057 9.07078C124.966 8.97993 124.843 8.92733 124.714 8.92377H118.587C118.458 8.92733 118.336 8.97993 118.245 9.07078C118.154 9.16162 118.101 9.28381 118.097 9.41224V41.3067C118.097 41.565 118.356 41.7951 118.587 41.7951H124.714C124.843 41.7916 124.966 41.739 125.057 41.6481C125.148 41.5573 125.2 41.4351 125.204 41.3067V27.6705H134.726L134.669 41.3081C134.669 41.565 134.9 41.7951 135.159 41.7951H141.286C141.415 41.7912 141.537 41.7385 141.628 41.6477C141.719 41.557 141.772 41.435 141.776 41.3067V9.41224C141.772 9.28392 141.719 9.16193 141.628 9.07115C141.537 8.98038 141.415 8.92766 141.286 8.92377ZM86.9968 23.0484V39.5264C86.9968 39.6422 86.9685 39.8427 86.8242 39.9005C86.8242 39.9005 83.2277 42.4558 77.3025 42.4558C70.1379 42.4558 61.6504 40.2154 61.6504 25.4597C61.6504 10.704 69.0725 7.66166 76.322 7.68989C82.5953 7.68989 85.1264 9.096 85.5296 9.35577C85.6442 9.49835 85.7022 9.61271 85.7022 9.7567L84.494 14.8673C84.494 15.1256 84.2351 15.4404 83.9182 15.3543C82.8825 15.0395 81.3291 14.4084 77.6746 14.4084C73.4457 14.4084 68.8999 15.6127 68.8999 25.1152C68.8999 34.6178 73.2151 35.7373 76.3234 35.7373C78.9691 35.7373 79.9199 35.421 79.9199 35.421V28.8183H75.6896C75.3741 28.8183 75.1435 28.5895 75.1435 28.3312V23.0484C75.1435 22.79 75.3741 22.5599 75.6896 22.5599H86.4507C86.7662 22.5599 86.9968 22.79 86.9968 23.0484Z" fill="#18181B"/>
<path fill-rule="evenodd" clip-rule="evenodd" d="M24.6602 0C11.0356 0 0 11.0117 0 24.6069C0 35.4958 7.05993 44.692 16.8618 47.9532C18.0941 48.1677 18.5567 47.4308 18.5567 46.7842C18.5567 46.1998 18.5256 44.2614 18.5256 42.2002C12.3301 43.3395 10.7271 40.6939 10.2348 39.309C9.95605 38.6031 8.75487 36.4177 7.7065 35.8332C6.84346 35.373 5.60974 34.2337 7.67537 34.2041C9.61791 34.173 11.0044 35.9871 11.4671 36.7255C13.6869 40.4483 17.231 39.4021 18.6487 38.7556C18.8651 37.156 19.5117 36.0803 20.2219 35.4648C14.7339 34.8492 9.00105 32.7259 9.00105 23.3152C9.00105 20.6385 9.95605 18.4248 11.5293 16.7025C11.2817 16.087 10.4187 13.5642 11.7755 10.1802C11.7755 10.1802 13.8411 9.53501 18.5567 12.703C20.5645 12.1475 22.6389 11.8682 24.7225 11.8729C26.8178 11.8729 28.9146 12.1496 30.8868 12.703C35.6038 9.50395 37.668 10.1816 37.668 10.1816C39.0248 13.5642 38.1618 16.087 37.9156 16.7025C39.4861 18.4248 40.4425 20.6088 40.4425 23.3152C40.4425 32.7584 34.6785 34.8492 29.1919 35.4648C30.086 36.2342 30.8557 37.7094 30.8557 40.0177C30.8557 43.3071 30.826 45.9541 30.826 46.7842C30.826 47.4294 31.2872 48.1988 32.5209 47.9532C37.4165 46.304 41.6705 43.1645 44.6841 38.9765C47.6978 34.7884 49.3193 29.7628 49.3204 24.6069C49.3204 11.0117 38.2849 0 24.6602 0Z" fill="#18181B"/>
</g>
<defs>
<clipPath id="clip0_0_6004">
<rect width="191" height="48" fill="white"/>
</clipPath>
</defs>
</svg>
