<svg width="141" height="48" viewBox="0 0 141 48" fill="none" xmlns="http://www.w3.org/2000/svg">
<g clip-path="url(#clip0_0_5867)">
<mask id="mask0_0_5867" style="mask-type:luminance" maskUnits="userSpaceOnUse" x="0" y="0" width="141" height="48">
<path d="M140.171 0H0V48H140.171V0Z" fill="white"/>
</mask>
<g mask="url(#mask0_0_5867)">
<path d="M57.4699 28.951L60.2259 36.485H54.6419L57.3859 28.951H57.4699ZM53.9319 38.476H60.9779L62.6079 42.988H64.9879L58.6669 26.319H56.2159L49.9219 42.988H52.3029L53.9319 38.476ZM66.0469 42.987H68.2059V36.665C68.1917 35.7715 68.4978 34.9024 69.0689 34.215C69.3189 33.88 69.6389 33.615 70.0159 33.421C70.3946 33.2431 70.8085 33.1525 71.2269 33.156C73.0649 33.156 73.9979 34.089 74.0539 35.956V42.973H76.2129V35.802C76.2129 34.34 75.8229 33.184 75.0569 32.39C74.2909 31.597 73.2319 31.193 71.8269 31.193C71.0826 31.1901 70.3512 31.387 69.7089 31.763C69.089 32.0863 68.5693 32.5728 68.2059 33.17H68.1219V31.583H66.0469V42.987ZM81.0579 37.946C81.6967 37.4994 82.4665 37.2791 83.2449 37.32C84.4419 37.32 85.3889 37.584 86.0719 38.114C86.0719 38.559 85.9739 39.004 85.7929 39.408C85.5979 39.826 85.3329 40.188 84.9849 40.481C84.3459 41.1085 83.4854 41.4588 82.5899 41.456C81.9871 41.4727 81.3972 41.2805 80.9199 40.912C80.7007 40.753 80.5236 40.5429 80.4039 40.3C80.2774 40.0544 80.2106 39.7823 80.2089 39.506C80.2089 39.2 80.2929 38.893 80.4459 38.629C80.5989 38.35 80.8219 38.114 81.0729 37.96L81.0579 37.946ZM78.3569 33.449L80.2509 34.632C80.5521 34.1542 80.9748 33.7649 81.4759 33.504C81.9792 33.2429 82.5389 33.109 83.1059 33.114C83.8717 33.1125 84.6108 33.3955 85.1799 33.908C85.4589 34.131 85.6959 34.423 85.8489 34.744C86.0019 35.064 86.0849 35.426 86.0849 35.788V36.261C85.1076 35.7793 84.0269 35.5451 82.9379 35.579C81.4339 35.579 80.2369 35.941 79.3459 36.637C78.9139 36.957 78.5519 37.389 78.3289 37.863C78.0929 38.3479 77.9828 38.8844 78.0089 39.423C78.0089 39.952 78.1059 40.467 78.3149 40.954C78.5379 41.441 78.8579 41.874 79.2619 42.208C80.1426 42.9653 81.2761 43.363 82.4369 43.322C83.9129 43.322 85.1109 42.681 86.0019 41.372H86.0849V42.959H88.1319V35.955C88.1319 34.479 87.6729 33.309 86.7539 32.474C85.8489 31.624 84.5949 31.207 83.0219 31.207C80.9749 31.207 79.4289 31.959 78.3989 33.449H78.3569ZM90.4579 26.32V42.988H92.6159V26.319L90.4579 26.32ZM102.963 31.582L99.6349 39.77H99.5929L96.1809 31.582H93.8559L98.5899 42.263L95.9169 48H98.1169L105.302 31.568H102.963V31.582ZM113.031 43.03L112.376 41.121C112.223 41.1823 112.065 41.2292 111.903 41.261C111.736 41.302 111.569 41.302 111.387 41.302C111.012 41.302 110.663 41.163 110.385 40.912C110.078 40.648 109.939 40.119 109.939 39.367V33.67H112.752V31.721H109.953V28.24H107.809V31.721H105.79V33.671H107.809V40.048C107.795 40.494 107.864 40.925 108.031 41.343C108.199 41.761 108.449 42.137 108.756 42.443C109.387 43.0156 110.215 43.3204 111.067 43.293C111.735 43.293 112.39 43.209 113.017 43L113.031 43.028V43.03ZM117.013 26.736C116.88 26.5928 116.719 26.479 116.54 26.402C116.358 26.3305 116.164 26.2928 115.969 26.291C115.774 26.291 115.579 26.318 115.384 26.401C115.204 26.48 115.039 26.5885 114.896 26.722C114.757 26.862 114.632 27.042 114.562 27.223C114.479 27.404 114.451 27.613 114.451 27.794C114.451 27.989 114.479 28.198 114.562 28.379C114.646 28.56 114.757 28.741 114.896 28.867C115.035 29.0107 115.202 29.1243 115.386 29.2008C115.571 29.2774 115.769 29.3152 115.969 29.312C116.164 29.3102 116.358 29.2726 116.54 29.201C116.721 29.131 116.888 29.02 117.013 28.881C117.152 28.741 117.278 28.588 117.361 28.393C117.445 28.213 117.473 28.003 117.473 27.808C117.473 27.613 117.445 27.418 117.361 27.223C117.282 27.041 117.163 26.8792 117.013 26.75V26.736ZM114.883 31.736V43.126H117.027V31.736H114.883ZM127.568 42.486C128.461 41.9047 129.148 41.0569 129.532 40.063L127.61 39.255C127.373 39.798 127.025 40.285 126.552 40.647C126.089 41.0192 125.537 41.264 124.95 41.357C124.366 41.4534 123.768 41.4011 123.21 41.205C122.647 41.012 122.146 40.6699 121.762 40.215C121.068 39.3939 120.688 38.3532 120.689 37.278C120.689 36.206 121.065 35.161 121.762 34.326C122.071 33.951 122.461 33.6508 122.903 33.448C123.346 33.2497 123.825 33.1455 124.31 33.142C125.842 33.142 126.9 33.852 127.499 35.286L129.462 34.465C129.056 33.4879 128.374 32.6504 127.499 32.055C126.596 31.4563 125.532 31.15 124.449 31.178C123.663 31.1616 122.881 31.3037 122.151 31.596C121.425 31.8988 120.767 32.3442 120.216 32.906C119.667 33.4852 119.237 34.1659 118.949 34.91C118.665 35.6565 118.533 36.4519 118.559 37.25C118.536 38.0475 118.671 38.8415 118.955 39.5869C119.239 40.3323 119.668 41.0143 120.216 41.594C121.171 42.5388 122.418 43.1326 123.753 43.279C125.082 43.4343 126.425 43.1404 127.568 42.444V42.486ZM136.745 36.414L135.032 35.968C133.793 35.676 133.194 35.216 133.194 34.562C133.198 34.3485 133.262 34.1404 133.377 33.9608C133.493 33.7813 133.656 33.6373 133.849 33.545C134.309 33.2617 134.841 33.1166 135.381 33.127C135.951 33.127 136.508 33.267 137.01 33.545C137.483 33.782 137.873 34.185 138.096 34.659L140.018 33.866C139.676 33.0493 139.074 32.3686 138.305 31.93C137.371 31.4204 136.318 31.1704 135.255 31.206C134.194 31.2451 133.164 31.5725 132.275 32.153C131.875 32.4316 131.549 32.8046 131.328 33.239C131.098 33.6714 130.988 34.157 131.008 34.646C131.008 36.233 132.122 37.291 134.364 37.876L136.327 38.349C137.455 38.684 138.026 39.227 138.026 39.951C138.026 40.174 137.943 40.383 137.817 40.578C137.692 40.758 137.525 40.898 137.316 40.995C136.801 41.315 136.202 41.455 135.603 41.441C134.972 41.444 134.357 41.2438 133.849 40.87C133.292 40.468 132.858 39.9184 132.596 39.283L130.674 40.09C131.032 41.0554 131.685 41.8836 132.54 42.457C133.49 43.0539 134.593 43.3636 135.715 43.349C136.836 43.3369 137.928 42.9874 138.848 42.346C139.266 42.054 139.586 41.678 139.823 41.246C140.059 40.814 140.185 40.326 140.185 39.826C140.185 38.113 139.057 36.971 136.773 36.414H136.745ZM76.1699 6.88003C75.3517 6.86931 74.539 7.01562 73.7759 7.31103C73.0155 7.61657 72.3239 8.07116 71.7419 8.64803C71.1676 9.22909 70.7094 9.91433 70.3919 10.667C70.0838 11.4224 69.9321 12.2324 69.9459 13.048C69.9459 14.691 70.6009 16.265 71.7699 17.421C72.9371 18.5878 74.5195 19.2438 76.1699 19.245C77.8156 19.2437 79.394 18.5913 80.5603 17.4302C81.7266 16.2691 82.3862 14.6937 82.3949 13.048C82.3949 12.227 82.2559 11.418 81.9499 10.667C81.6424 9.9084 81.1826 9.22089 80.5989 8.64703C80.0134 8.07518 79.3231 7.62156 78.5659 7.31103C77.8022 7.01634 76.9894 6.86973 76.1709 6.87903L76.1699 6.88003ZM76.1699 16.794C74.3049 16.794 72.6619 15.234 72.6619 13.048C72.6619 10.862 74.2909 9.30203 76.1709 9.30203C78.0509 9.30203 79.6659 10.82 79.6659 13.034C79.6659 15.248 78.0499 16.794 76.1699 16.794ZM89.5949 6.88003C88.7759 6.8679 87.9623 7.01426 87.1989 7.31103C86.4388 7.61669 85.7476 8.07127 85.1659 8.64803C84.5916 9.22907 84.1334 9.91431 83.8159 10.667C83.4946 11.4184 83.3423 12.2313 83.3699 13.048C83.3691 13.8614 83.5299 14.6669 83.8431 15.4176C84.1562 16.1683 84.6153 16.8493 85.1939 17.421C85.7712 17.9999 86.4572 18.4591 87.2124 18.7721C87.9677 19.0851 88.7773 19.2458 89.5949 19.245C91.2452 19.2438 92.8277 18.5878 93.9949 17.421C94.5753 16.85 95.0366 16.1694 95.3521 15.4187C95.6677 14.6681 95.8311 13.8623 95.8329 13.048C95.8329 12.227 95.6939 11.418 95.3869 10.667C95.0796 9.90855 94.6201 9.22108 94.0369 8.64703C93.4562 8.06916 92.7647 7.61472 92.0039 7.31103C91.2409 7.01399 90.4276 6.8673 89.6089 6.87903L89.5949 6.88003ZM89.5949 16.794C87.7289 16.794 86.0849 15.234 86.0849 13.048C86.0849 10.862 87.7149 9.30203 89.5949 9.30203C91.4739 9.30203 93.0899 10.82 93.0899 13.034C93.0899 15.248 91.4739 16.794 89.5949 16.794ZM106.11 8.24403H106.012C105.597 7.8014 105.094 7.45053 104.536 7.21403C103.974 6.97213 103.365 6.85772 102.754 6.87903C99.6349 6.87903 96.8079 9.58103 96.8079 13.076C96.8079 16.571 99.6629 19.231 102.754 19.231C103.365 19.2351 103.971 19.1168 104.536 18.883C105.103 18.6484 105.608 18.2864 106.012 17.825H106.11V18.702C106.11 21.069 104.843 22.322 102.796 22.322C101.125 22.322 100.094 21.139 99.6769 20.122L97.3089 21.111C97.7623 22.1883 98.5225 23.1085 99.4949 23.757C100.469 24.4141 101.621 24.7587 102.796 24.745C105.999 24.745 108.686 22.893 108.686 18.325V7.24203H106.096V8.24503L106.11 8.24403ZM102.991 16.794C101.125 16.794 99.5369 15.234 99.5369 13.062C99.5369 10.89 101.097 9.30203 102.991 9.30203C104.885 9.30203 106.305 10.89 106.305 13.062C106.305 15.235 104.843 16.794 102.991 16.794ZM112.961 0.752033H110.301V18.855H112.961V0.752033ZM120.258 16.794C119.63 16.8141 119.01 16.6493 118.475 16.32C117.936 15.9956 117.509 15.515 117.25 14.942L125.549 11.53L125.271 10.82C124.756 9.44103 123.182 6.89303 119.965 6.89303C116.749 6.89303 114.103 9.40003 114.103 13.062C114.089 13.884 114.242 14.692 114.548 15.429C114.846 16.1814 115.296 16.864 115.871 17.434C116.447 18.012 117.134 18.4668 117.891 18.771C118.642 19.078 119.45 19.231 120.258 19.217C121.282 19.2237 122.292 18.9749 123.196 18.493C124.1 18.0171 124.871 17.3227 125.438 16.473L123.321 15.067C122.611 16.097 121.65 16.78 120.258 16.78V16.794ZM120.049 9.26003C121.135 9.26003 122.04 9.80303 122.347 10.57L116.804 12.853C116.775 12.4054 116.832 11.9564 116.971 11.53C117.125 11.113 117.361 10.709 117.654 10.374C117.96 10.0403 118.329 9.77071 118.74 9.58103C119.145 9.38534 119.586 9.27634 120.035 9.26103L120.049 9.26003ZM59.8779 8.82903V11.446H66.1719C65.9769 12.881 65.4899 13.939 64.7379 14.677C63.8329 15.61 62.3979 16.599 59.8639 16.599C58.951 16.5985 58.0472 16.4184 57.2039 16.069C56.3594 15.7172 55.593 15.2016 54.9489 14.552C54.3025 13.905 53.7954 13.1325 53.4589 12.282C53.1121 11.4388 52.9413 10.5336 52.9569 9.62203C52.9425 8.71054 53.1133 7.8056 53.4589 6.96203C53.7957 6.11618 54.3029 5.34862 54.9489 4.70703C55.5895 4.05252 56.3573 3.53594 57.2049 3.18903C58.0455 2.82927 58.9505 2.64451 59.8649 2.64603C61.6469 2.63203 63.3449 3.28603 64.6129 4.51203L66.4789 2.64603C65.6031 1.79488 64.5661 1.12716 63.4289 0.682033C62.2948 0.23419 61.0829 0.0166272 59.8639 0.0420333C54.5589 0.0420333 50.0889 4.34503 50.0889 9.62203C50.0889 14.9 54.5589 19.217 59.8639 19.217C62.7189 19.217 64.8909 18.284 66.5899 16.529C68.2749 14.775 68.8599 12.366 68.8599 10.389C68.8599 9.85903 68.8179 9.32903 68.7199 8.81503H59.8499L59.8779 8.82903Z" fill="#71717A"/>
<path d="M35.2168 0C33.7341 0.026769 32.3204 0.631357 31.2768 1.685C30.2228 2.72841 29.6179 4.14213 29.5908 5.625V40.954C29.5908 44.908 32.3208 47.109 35.2308 47.109C37.9178 47.109 40.8708 45.243 40.8708 40.954V5.904C40.8708 2.284 38.1688 0.014 35.2028 0.014L35.2168 0Z" fill="#F6AB1B"/>
<path d="M20.428 17.9219C18.937 17.9483 17.5145 18.5524 16.46 19.6069C15.4036 20.6543 14.7989 22.0734 14.775 23.5609V40.9539C14.775 44.9089 17.518 47.1089 20.415 47.1089C23.102 47.1089 26.068 45.2429 26.068 40.9539V23.8119C26.068 20.1919 23.366 17.9219 20.414 17.9219H20.428ZM5.64 47.0949C6.37985 47.0962 7.1127 46.9517 7.79666 46.6696C8.48061 46.3875 9.10226 45.9733 9.62606 45.4508C10.1499 44.9283 10.5655 44.3077 10.8493 43.6245C11.1331 42.9412 11.2795 42.2087 11.28 41.4689C11.28 38.3639 8.759 35.8569 5.64 35.8569C2.52 35.8569 0 38.3769 0 41.4689C0 44.5609 2.52 47.0949 5.64 47.0949Z" fill="#E37525"/>
</g>
</g>
<defs>
<clipPath id="clip0_0_5867">
<rect width="141" height="48" fill="white"/>
</clipPath>
</defs>
</svg>
