<svg width="102" height="48" viewBox="0 0 102 48" fill="none" xmlns="http://www.w3.org/2000/svg">
<g clip-path="url(#clip0_0_5710)">
<mask id="mask0_0_5710" style="mask-type:luminance" maskUnits="userSpaceOnUse" x="0" y="0" width="102" height="48">
<path d="M0.574219 0.0283203H101.584V47.3523H0.574219V0.0283203Z" fill="white"/>
</mask>
<g mask="url(#mask0_0_5710)">
<mask id="mask1_0_5710" style="mask-type:luminance" maskUnits="userSpaceOnUse" x="0" y="0" width="102" height="48">
<path d="M101.584 0.0283203H0.574219V47.3523H101.584V0.0283203Z" fill="white"/>
</mask>
<g mask="url(#mask1_0_5710)">
<path d="M17.6765 27.3967H19.7463L15.6068 42.708H13.5866L10.2989 32.6024H10.2098L6.86257 42.708H4.83247L0.574219 27.3967H2.63402L5.89208 39.4249H5.98121L9.30859 29.4474H11.1604L14.4977 39.4249H14.5967L17.6666 27.3967H17.6765ZM19.5284 37.4629C19.5284 35.8559 20.0334 34.5249 21.0633 33.4798C21.5695 32.9607 22.1787 32.5523 22.8522 32.2807C23.5257 32.0091 24.2487 31.8803 24.975 31.9024C26.5595 31.9024 27.8468 32.4249 28.847 33.4798C29.3573 34.0079 29.756 34.6325 30.0197 35.3166C30.2833 36.0008 30.4065 36.7306 30.382 37.4629C30.382 39.0897 29.8769 40.4404 28.847 41.4855C28.3488 42.0013 27.748 42.408 27.083 42.6796C26.418 42.9512 25.7034 43.0818 24.9849 43.0629C24.2484 43.0833 23.5156 42.951 22.8331 42.6746C22.1507 42.3981 21.5333 41.9835 21.0203 41.457C20.5073 40.9305 20.1097 40.3035 19.8529 39.616C19.5961 38.9284 19.4856 38.1952 19.5284 37.4629ZM21.509 37.4629C21.509 38.5967 21.8457 39.5136 22.5191 40.2235C22.8322 40.5591 23.2126 40.8255 23.6356 41.0055C24.0587 41.1855 24.515 41.2751 24.975 41.2686C25.9455 41.2686 26.7575 40.9136 27.4408 40.2136C28.1142 39.5235 28.4311 38.5967 28.4113 37.4531C28.4113 36.3488 28.0845 35.4418 27.4408 34.7418C27.127 34.4045 26.745 34.137 26.3201 33.9569C25.8951 33.7768 25.4368 33.6881 24.975 33.6967C24.0144 33.6967 23.1925 34.0418 22.5191 34.7418C22.1761 35.1053 21.9093 35.5331 21.7342 36.0002C21.5591 36.4674 21.4792 36.9647 21.4991 37.4629H21.509ZM33.7688 42.708H31.7882V32.208H33.6797V33.9531H33.7787C33.9767 33.3714 34.4026 32.8883 35.0463 32.5136C35.6899 32.1291 36.3039 31.9221 36.8981 31.9024C37.4527 31.9024 37.9379 31.9911 38.3439 32.1587L37.7299 34.0911C37.3598 33.9873 36.9752 33.944 36.5911 33.9629C35.8286 33.9629 35.1651 34.2587 34.6105 34.8305C34.056 35.4221 33.7688 36.1122 33.7688 36.9305V42.708ZM48.5439 42.708H46.1276L42.8795 37.7686L41.2455 39.3855V42.708H39.2649V27.3967H41.2455V36.8418L45.8206 32.208H48.3261V32.2967L44.2362 36.3686L48.5439 42.6291V42.708Z" fill="#71717A"/>
<path d="M57.1198 39.8192C57.1198 40.7263 56.7236 41.4953 55.9314 42.146C55.1392 42.7868 54.1192 43.0925 52.8615 43.0629C51.8971 43.0857 50.949 42.8121 50.1463 42.2793C49.3436 41.7466 48.7253 40.9805 48.3755 40.0854L50.1283 39.346C50.3957 39.9573 50.7621 40.4305 51.2275 40.7854C51.7029 41.1305 52.2673 41.3178 52.8615 41.308C53.4169 41.3319 53.9673 41.1949 54.446 40.9136C54.8421 40.6573 55.0699 40.3319 55.0996 39.9573C55.0996 39.2868 54.5846 38.784 53.5646 38.4685L51.7128 38.0249C49.6629 37.5023 48.6429 36.5066 48.6429 35.0474C48.6429 34.0911 49.039 33.3122 49.8312 32.7305C50.6235 32.1488 51.6137 31.853 52.812 31.853C53.7528 31.853 54.5945 32.0896 55.3669 32.553C56.1295 33.0263 56.6543 33.608 56.9514 34.308L55.1887 35.0474C54.9906 34.6037 54.6539 34.2389 54.2182 34.0023C53.7463 33.7531 53.2172 33.6307 52.6833 33.6474C52.1881 33.6277 51.693 33.746 51.277 34.0023C50.8611 34.2685 50.6631 34.5939 50.6631 34.9685C50.6631 35.5798 51.2275 36.0037 52.3763 36.2305L53.9607 36.6742C56.0701 37.1671 57.1297 38.222 57.1297 39.8291M63.9825 43.0629C63.251 43.0691 62.5284 42.9036 61.8732 42.5798C61.2639 42.2985 60.7533 41.8417 60.4075 41.2685H60.3184L60.4174 42.708V47.3516H58.4368V32.208H60.3184V33.6868H60.4174C60.7343 33.1446 61.2097 32.7009 61.8633 32.3854C62.8025 31.9262 63.8678 31.7885 64.8937 31.9935C65.9197 32.1985 66.849 32.7348 67.5376 33.5192C68.5276 34.5924 69.0601 36.0063 69.0231 37.4629C69.0231 39.0404 68.5279 40.3615 67.5376 41.446C67.1074 41.9566 66.5692 42.3663 65.9615 42.6458C65.3537 42.9253 64.6915 43.0677 64.0221 43.0629M63.6656 41.2685C64.6361 41.2685 65.4481 40.9136 66.0819 40.2136C66.7256 39.5234 67.0524 38.5967 67.0524 37.453C67.0524 36.3784 66.7256 35.4812 66.0819 34.7418C65.7875 34.3937 65.4161 34.1183 64.9969 33.9369C64.5777 33.7556 64.122 33.6734 63.6656 33.6967C62.6951 33.6967 61.8831 34.0418 61.2493 34.7418C60.6206 35.5074 60.2932 36.4746 60.3283 37.4629C60.3283 38.5967 60.6254 39.5136 61.2493 40.2235C61.5524 40.561 61.9253 40.8292 62.3424 41.0096C62.7595 41.19 63.2109 41.2784 63.6656 41.2685ZM74.44 31.9023C75.9056 31.9023 77.0642 32.277 77.906 33.0361C78.3418 33.4427 78.6829 33.9394 78.9054 34.4912C79.1278 35.0431 79.2261 35.6368 79.1934 36.2305V42.708H77.3019V41.2685H77.2029C76.8565 41.8243 76.3719 42.2815 75.7958 42.5959C75.2198 42.9102 74.572 43.0711 73.9151 43.0629C72.8569 43.0923 71.8246 42.7345 71.0135 42.0573C70.631 41.7452 70.3251 41.3502 70.1192 40.9026C69.9132 40.4549 69.8127 39.9664 69.8252 39.4742C69.8252 38.3896 70.2312 37.5319 71.0532 36.8911C72.0238 36.2024 73.2003 35.8618 74.3904 35.9249C75.5689 35.9249 76.5394 36.1319 77.3019 36.5361V36.1023C77.3019 35.4023 77.0147 34.8206 76.4601 34.3474C75.9394 33.895 75.2696 33.6493 74.5786 33.6573C73.4596 33.6573 72.5782 34.1206 71.9345 35.0474L70.1718 33.9629C70.6466 33.2862 71.2867 32.741 72.0317 32.3788C72.7767 32.0166 73.6021 31.8492 74.4301 31.8925M71.885 39.5136C71.885 40.046 72.1128 40.4601 72.5485 40.7953C72.9941 41.1108 73.5388 41.2882 74.0834 41.308C74.9054 41.308 75.6382 41.0122 76.2819 40.3911C76.9355 39.7798 77.2722 39.0601 77.3019 38.2516C76.678 37.7587 75.8165 37.5023 74.7073 37.5023C73.9151 37.5023 73.2417 37.6995 72.6772 38.0742C72.1227 38.4488 71.8553 38.9319 71.885 39.5136ZM85.9174 43.0629C84.333 43.0629 83.0258 42.5404 82.0058 41.4854C80.9757 40.4014 80.42 38.9546 80.4609 37.4629C80.4609 35.8558 80.9759 34.5249 82.0058 33.4798C82.5119 32.9607 83.1211 32.5523 83.7946 32.2807C84.4681 32.0091 85.1911 31.8802 85.9174 31.9023C86.9133 31.8776 87.8934 32.1525 88.7299 32.6911C89.5221 33.2136 90.1163 33.953 90.5322 34.9192L88.7299 35.6685C88.5177 35.0688 88.1169 34.553 87.5872 34.1979C87.0574 33.8427 86.4267 33.6669 85.7887 33.6967C84.8776 33.6967 84.0854 34.0615 83.412 34.7812C82.7597 35.5209 82.413 36.479 82.4415 37.4629C82.4415 38.508 82.7683 39.415 83.412 40.1742C83.7062 40.5148 84.0709 40.7882 84.4811 40.9754C84.8914 41.1625 85.3374 41.2592 85.7887 41.2587C87.2246 41.2587 88.2347 40.608 88.819 39.2967L90.6213 40.046C90.2497 40.9734 89.5969 41.7623 88.7538 42.303C87.9107 42.8438 86.9192 43.1094 85.9174 43.0629ZM96.5631 43.0629C95.8483 43.0862 95.1368 42.9576 94.476 42.6856C93.8151 42.4136 93.2201 42.0044 92.7306 41.4854C91.7212 40.3926 91.1872 38.9464 91.2452 37.4629C91.2452 35.8854 91.7205 34.5544 92.691 33.4798C93.1534 32.9534 93.7295 32.5381 94.3761 32.2649C95.0226 31.9917 95.7229 31.8678 96.4244 31.9023C98.0089 31.9023 99.2567 32.3953 100.168 33.3812C101.069 34.377 101.544 35.7967 101.574 37.6305V37.8573H93.2555C93.251 38.7902 93.6177 39.6871 94.2755 40.3516C94.9192 40.9925 95.7114 41.2981 96.6522 41.2685C97.9099 41.2685 98.9001 40.6375 99.633 39.3854L101.396 40.2629C100.934 41.1349 100.234 41.8598 99.3781 42.355C98.5218 42.8501 97.5429 43.0954 96.5532 43.0629M93.3842 36.1911H99.4646C99.4429 35.8481 99.3529 35.5128 99.1999 35.2048C99.0469 34.8968 98.8339 34.6221 98.5733 34.3967C97.9562 33.9014 97.1762 33.652 96.3848 33.6967C95.652 33.6967 95.0182 33.9136 94.4933 34.3474C93.9586 34.7911 93.6021 35.4023 93.3941 36.1911H93.3842Z" fill="#71717A"/>
<path d="M21.6574 11.879V9.11846H30.8374C30.9364 9.68043 30.9958 10.2523 30.9859 10.8241C30.9859 12.8354 30.4314 15.3889 28.6092 17.1537C26.8564 19.0072 24.6283 19.9635 21.6079 19.9635C18.944 19.9638 16.3869 18.9205 14.4894 17.059C12.5919 15.1976 11.5063 12.6675 11.4673 10.0156C11.4673 4.54381 16.1118 0.0283203 21.6079 0.0283203C24.6778 0.0283203 26.8564 1.23114 28.5201 2.78888L26.5395 4.70156C25.5155 3.72465 24.2232 3.07253 22.8264 2.82788C21.4296 2.58324 19.9913 2.7571 18.6939 3.32742C17.3965 3.89774 16.2984 4.83882 15.539 6.03131C14.7796 7.2238 14.393 8.61397 14.4283 10.0255C14.4283 14.0382 17.6071 17.2523 21.598 17.2523C22.5403 17.2882 23.4798 17.1279 24.3563 16.7816C25.2328 16.4353 26.027 15.9105 26.6881 15.241C27.5377 14.3132 28.0533 13.1305 28.1537 11.879H21.6475H21.6574Z" fill="#4285F4"/>
<path d="M44.9592 13.536C44.9686 14.3869 44.8064 15.2311 44.4821 16.0184C44.1579 16.8058 43.6782 17.5204 43.0714 18.1198C42.4647 18.7193 41.7433 19.1914 40.95 19.5082C40.1567 19.825 39.3076 19.98 38.453 19.9641C37.6006 19.9802 36.7538 19.8249 35.9631 19.5076C35.1725 19.1902 34.4542 18.7173 33.8514 18.1172C33.2486 17.517 32.7736 16.802 32.4549 16.0148C32.1361 15.2276 31.9801 14.3845 31.9963 13.536C31.9856 12.6889 32.1454 11.8482 32.4661 11.0635C32.7868 10.2789 33.262 9.566 33.8637 8.96697C34.4654 8.36793 35.1814 7.89483 35.9695 7.57554C36.7577 7.25624 37.6021 7.09721 38.453 7.1078C39.3065 7.09598 40.1538 7.25381 40.9453 7.57205C41.7368 7.89029 42.4565 8.36255 43.0624 8.96117C43.6683 9.55979 44.1481 10.2727 44.4738 11.0583C44.7995 11.8438 44.9645 12.6862 44.9592 13.536ZM42.0873 13.536C42.0873 11.2289 40.4236 9.67118 38.453 9.67118C36.4922 9.67118 34.8186 11.2289 34.8186 13.536C34.8186 15.843 36.5417 17.4501 38.453 17.4501C40.3741 17.4501 42.0873 15.843 42.0873 13.536Z" fill="#EA4335"/>
<path d="M59.0807 13.536C59.0902 14.3869 58.928 15.2311 58.6037 16.0184C58.2794 16.8058 57.7997 17.5204 57.193 18.1198C56.5863 18.7193 55.8649 19.1914 55.0716 19.5082C54.2783 19.825 53.4292 19.98 52.5745 19.9641C51.7222 19.9802 50.8754 19.8249 50.0847 19.5076C49.294 19.1902 48.5758 18.7173 47.973 18.1172C47.3702 17.517 46.8952 16.802 46.5764 16.0148C46.2577 15.2276 46.1017 14.3845 46.1178 13.536C46.1072 12.6889 46.2669 11.8482 46.5877 11.0635C46.9084 10.2789 47.3836 9.566 47.9853 8.96697C48.5869 8.36793 49.303 7.89483 50.0911 7.57554C50.8793 7.25624 51.7237 7.09721 52.5745 7.1078C53.4281 7.09598 54.2754 7.25381 55.0668 7.57205C55.8583 7.89029 56.5781 8.36255 57.184 8.96117C57.7899 9.55979 58.2697 10.2727 58.5954 11.0583C58.9211 11.8438 59.0861 12.6862 59.0807 13.536ZM56.2089 13.536C56.2089 11.2289 54.5452 9.67118 52.5745 9.67118C50.6138 9.67118 48.9501 11.2289 48.9501 13.536C48.9501 15.843 50.6633 17.4501 52.5745 17.4501C54.4957 17.4501 56.2089 15.843 56.2089 13.536Z" fill="#FBBC04"/>
<path d="M72.6079 7.5114V19.0565C72.6079 23.779 69.7756 25.7311 66.4482 25.7311C65.2251 25.7333 64.0292 25.3712 63.0145 24.6912C61.9997 24.0113 61.2125 23.0446 60.7541 21.9156L63.2298 20.9199C63.6754 21.9748 64.735 23.2269 66.4482 23.2269C68.6269 23.2269 69.9341 21.8663 69.9341 19.4607V18.5044H69.835C69.4054 18.9844 68.8747 19.3641 68.2807 19.6163C67.6867 19.8685 67.0441 19.9871 66.3987 19.9635C63.2298 19.9635 60.249 17.1537 60.249 13.5846C60.249 9.96633 63.2199 7.10718 66.3987 7.10718C67.9634 7.10718 69.1715 7.80718 69.8251 8.56633H69.9242V7.5114H72.598H72.6079ZM70.1321 13.5846C70.1321 11.317 68.617 9.67056 66.6562 9.67056C64.735 9.67056 63.0714 11.3269 63.0714 13.5846C63.0714 15.7931 64.735 17.4494 66.6562 17.4494C68.617 17.4494 70.1321 15.7931 70.1321 13.5846Z" fill="#4285F4"/>
<path d="M74.5688 0.7771H77.4011V19.6081H74.5688V0.7771Z" fill="#34A853"/>
<path d="M88.334 15.6452L90.5621 17.1537C89.9605 18.0242 89.1543 18.7353 88.2136 19.225C87.273 19.7147 86.2265 19.9682 85.1651 19.9635C84.3153 19.9784 83.4714 19.822 82.684 19.5036C81.8966 19.1852 81.1821 18.7114 80.5835 18.1108C79.9848 17.5102 79.5145 16.7953 79.2008 16.0089C78.887 15.2226 78.7364 14.3812 78.7579 13.5353C78.7579 9.71985 81.5307 7.10718 84.8581 7.10718C88.1954 7.10718 89.859 9.76915 90.3641 11.2283L90.6612 11.9283L82.0456 15.4973C82.3058 16.099 82.7434 16.6077 83.3004 16.9563C83.8575 17.3049 84.5077 17.4769 85.1651 17.4494C86.6307 17.4494 87.5814 16.7494 88.334 15.6452ZM81.5802 13.3382L87.3338 10.972C87.0367 10.1734 86.0761 9.62126 84.9571 9.62126C84.4883 9.63736 84.0275 9.74725 83.6022 9.94437C83.1769 10.1415 82.7958 10.4218 82.4817 10.7686C82.1675 11.1155 81.9266 11.5217 81.7735 11.9632C81.6203 12.4046 81.5579 12.8722 81.5901 13.3382H81.5802Z" fill="#EA4335"/>
</g>
</g>
</g>
<defs>
<clipPath id="clip0_0_5710">
<rect width="102" height="48" fill="white"/>
</clipPath>
</defs>
</svg>
