<svg width="139" height="48" viewBox="0 0 139 48" fill="none" xmlns="http://www.w3.org/2000/svg">
<g clip-path="url(#clip0_0_5675)">
<mask id="mask0_0_5675" style="mask-type:luminance" maskUnits="userSpaceOnUse" x="0" y="0" width="139" height="48">
<path d="M0.564941 0.0410156H138.586V47.0614H0.564941V0.0410156Z" fill="white"/>
</mask>
<g mask="url(#mask0_0_5675)">
<mask id="mask1_0_5675" style="mask-type:luminance" maskUnits="userSpaceOnUse" x="0" y="0" width="139" height="48">
<path d="M138.586 0.0410156H0.564941V47.0614H138.586V0.0410156Z" fill="white"/>
</mask>
<g mask="url(#mask1_0_5675)">
<path d="M12.6235 45.3256L1.03071 25.2851C0.726242 24.7588 0.565918 24.1614 0.565918 23.5532C0.565918 22.945 0.726242 22.3476 1.03071 21.8213L12.6245 1.77196C12.9303 1.24427 13.3696 0.806472 13.8982 0.502615C14.4267 0.198758 15.0259 0.0395566 15.6355 0.0410257H38.8397C39.445 0.0438157 40.039 0.205047 40.5628 0.508702C41.0865 0.812357 41.5218 1.24787 41.8253 1.77196L53.4318 21.8223C53.7363 22.3486 53.8967 22.946 53.8967 23.5542C53.8967 24.1624 53.7363 24.7598 53.4318 25.2861L41.8125 45.3266C41.5067 45.8543 41.0674 46.2921 40.5389 46.5959C40.0103 46.8998 39.4111 47.059 38.8015 47.0575H15.6022C14.9957 47.0551 14.4003 46.894 13.8752 46.5902C13.3501 46.2864 12.9135 45.8504 12.6088 45.3256H12.6235Z" fill="#4386FA"/>
<path opacity="0.1" d="M34.4622 17.0728C34.4622 17.0728 37.6876 24.791 33.2924 29.1668C28.8973 33.5436 20.895 30.741 20.895 30.741L37.1737 47.0532H38.825C39.4339 47.0506 40.0317 46.8897 40.5597 46.5862C41.0878 46.2828 41.5279 45.8472 41.837 45.3222L49.5134 32.0527L34.4622 17.0728Z" fill="black"/>
<path d="M38.2707 32.8814L34.7076 29.3412C34.6707 29.3015 34.6282 29.2675 34.5814 29.2403C36.0914 27.2963 36.802 24.8484 36.5678 22.3973C36.3336 19.9462 35.1723 17.6774 33.3216 16.055C31.4687 14.4292 29.067 13.57 26.6041 13.6518C24.1412 13.7337 21.8017 14.7505 20.0608 16.4958C18.3224 18.2379 17.3147 20.5787 17.2438 23.0396C17.1728 25.5005 18.0439 27.8955 19.679 29.735C21.3176 31.5766 23.595 32.7253 26.0489 32.9482C28.5029 33.171 30.9497 32.4513 32.8928 30.935C32.9183 30.9801 32.9506 31.0222 32.9868 31.0594L36.5499 34.6163C36.6017 34.668 36.6632 34.7089 36.7309 34.7367C36.7986 34.7644 36.8712 34.7785 36.9444 34.7779C37.0912 34.7779 37.2331 34.7192 37.3379 34.6163L38.2835 33.6739C38.3352 33.6223 38.3761 33.5609 38.4038 33.4933C38.4315 33.4257 38.4455 33.3532 38.445 33.2801C38.445 33.1332 38.3862 32.9921 38.2835 32.8873L38.2707 32.8814ZM26.9129 30.5823C25.4725 30.5818 24.0645 30.1547 22.8662 29.3549C21.6691 28.5561 20.7356 27.4199 20.1841 26.0899C19.6328 24.761 19.4887 23.298 19.7702 21.8869C20.0517 20.4758 20.746 19.1803 21.765 18.165C22.7854 17.1481 24.0835 16.4558 25.496 16.1751C26.9085 15.8945 28.3724 16.0381 29.7036 16.5879C31.034 17.1377 32.1717 18.0697 32.9731 19.2661C33.9095 20.6648 34.3311 22.3457 34.1657 24.0211C34.0004 25.6965 33.2584 27.2624 32.0666 28.4508C30.6983 29.8159 28.845 30.5824 26.9129 30.5823ZM22.2613 22.918V25.9244C22.7261 26.7423 23.398 27.4234 24.2092 27.8992V22.918H22.2613ZM25.8997 20.425V28.5546C26.5438 28.6721 27.2036 28.6721 27.8477 28.5546V20.4132L25.8997 20.425ZM31.5361 25.9244V24.1455H29.5881V27.8953C30.3985 27.4201 31.0702 26.7405 31.5361 25.9244Z" fill="white"/>
<path d="M81.6068 10.4608H72.8117V13.0685H79.0628C78.7515 16.7322 75.7003 18.2917 72.8244 18.2917C70.9993 18.3048 69.2438 17.592 67.9437 16.31C67.3016 15.6755 66.791 14.9204 66.4412 14.088C66.0915 13.2555 65.9095 12.3621 65.9057 11.4591V11.3415C65.89 10.4274 66.0571 9.51935 66.3971 8.67081C66.7372 7.82226 67.2434 7.05034 67.886 6.40044C68.5291 5.74905 69.2955 5.23249 70.1404 4.88096C70.9853 4.52942 71.8918 4.34997 72.8068 4.3531C74.5658 4.3531 76.2573 5.03587 77.522 6.25742L79.3535 4.37856C77.5758 2.66559 75.192 1.72785 72.7246 1.77089C71.4401 1.74258 70.1629 1.9718 68.9683 2.44505C67.7737 2.91829 66.6858 3.626 65.7687 4.52648C64.8536 5.42639 64.1284 6.50102 63.636 7.68665C63.1437 8.87229 62.8943 10.1448 62.9025 11.4287C62.9115 12.7128 63.1785 13.982 63.6877 15.1607C64.1969 16.3394 64.9379 17.4035 65.8666 18.2897C66.7959 19.178 67.8937 19.8708 69.0952 20.3271C70.2967 20.7834 71.5774 20.994 72.8616 20.9464C74.0327 21.0057 75.2034 20.8218 76.3001 20.4065C77.3967 19.9911 78.3957 19.3531 79.2341 18.5327C80.0703 17.713 80.7274 16.7286 81.164 15.6417C81.6005 14.5548 81.807 13.3891 81.7703 12.2182C81.7815 11.6367 81.7277 11.0558 81.6098 10.4863L81.6078 10.4608H81.6068ZM88.8437 8.58199C88.0411 8.56563 87.2431 8.70765 86.4954 8.99994C85.7476 9.29224 85.0647 9.72907 84.4857 10.2855C83.9081 10.8414 83.446 11.506 83.1258 12.2411C82.8056 12.9762 82.6337 13.7674 82.62 14.5693V14.6946C82.6321 16.3241 83.2864 17.8829 84.4407 19.0323C85.5961 20.1836 87.1576 20.834 88.7881 20.8432C90.4186 20.8523 91.9873 20.2195 93.1556 19.0813C94.3223 17.9454 94.9941 16.3948 95.0252 14.7662C95.0479 13.9494 94.904 13.1365 94.6022 12.3772C94.3005 11.618 93.8472 10.9282 93.2701 10.3502C92.6926 9.77072 92.0036 9.31469 91.2447 9.00974C90.4858 8.70479 89.673 8.55727 88.8554 8.57612L88.8437 8.58199ZM88.8769 11.0114C89.3544 11.0214 89.8249 11.128 90.2601 11.3248C90.6954 11.5216 91.0863 11.8045 91.4093 12.1565C91.7314 12.5081 91.9789 12.9214 92.1367 13.3715C92.2945 13.8216 92.3594 14.2991 92.3275 14.775C92.3591 15.2511 92.2931 15.7286 92.1335 16.1782C91.9739 16.6278 91.7241 17.04 91.3995 17.3895C91.0744 17.7396 90.6814 18.0197 90.2445 18.2127C89.8076 18.4058 89.3359 18.5076 88.8583 18.5121C88.3767 18.5069 87.9011 18.4041 87.4603 18.2098C87.0195 18.0155 86.6226 17.7338 86.2937 17.3817C85.9652 17.0298 85.7118 16.6147 85.5487 16.1617C85.3856 15.7087 85.3164 15.2272 85.3452 14.7466C85.3146 14.2673 85.383 13.7869 85.546 13.3353C85.709 12.8836 85.9632 12.4704 86.2927 12.1213C86.6227 11.7711 87.021 11.4924 87.463 11.3025C87.905 11.1126 88.3813 11.0155 88.8623 11.0173L88.8769 11.0124V11.0114ZM102.323 8.57807C100.705 8.55058 99.1428 9.16559 97.9775 10.2884C97.4017 10.8439 96.941 11.5076 96.6219 12.2415C96.3027 12.9754 96.1314 13.7651 96.1177 14.5653V14.6907C96.1298 16.3202 96.7841 17.879 97.9384 19.0284C99.094 20.1796 100.656 20.8301 102.286 20.8394C103.917 20.8488 105.486 20.2163 106.654 19.0783C107.821 17.9421 108.493 16.3912 108.524 14.7622C108.544 13.9442 108.397 13.1307 108.092 12.3714C107.787 11.6121 107.33 10.923 106.75 10.3462C106.17 9.76794 105.478 9.31363 104.717 9.01087C103.956 8.70811 103.141 8.5632 102.323 8.58493V8.57807ZM102.361 11.0084C103.08 11.0245 103.776 11.2593 104.358 11.6816C104.94 12.1039 105.379 12.6936 105.618 13.3722C105.774 13.8218 105.839 14.2989 105.807 14.775C105.854 15.4926 105.679 16.2075 105.307 16.8225C104.934 17.4374 104.381 17.9227 103.724 18.2124C103.286 18.4053 102.814 18.5072 102.336 18.5121C101.855 18.5068 101.379 18.4039 100.938 18.2097C100.498 18.0154 100.101 17.7337 99.7718 17.3817C99.4437 17.0296 99.1904 16.6145 99.0274 16.1615C98.8643 15.7086 98.7949 15.2272 98.8233 14.7466C98.7934 14.2674 98.8621 13.7872 99.0251 13.3356C99.1881 12.8841 99.4419 12.4708 99.7708 12.1213C100.101 11.7715 100.499 11.493 100.941 11.3032C101.383 11.1133 101.859 11.016 102.339 11.0173L102.361 11.0084ZM115.56 8.57905C113.972 8.6453 112.471 9.31973 111.367 10.4628C110.264 11.6046 109.645 13.1279 109.637 14.7154C109.629 16.3029 110.233 17.8324 111.323 18.9853C112.416 20.1399 113.911 20.8298 115.497 20.9121C116.14 20.9462 116.782 20.8279 117.371 20.5668C117.96 20.3057 118.479 19.9091 118.885 19.4094V20.628C118.954 21.2981 118.803 21.9724 118.453 22.5482C118.104 23.124 117.576 23.5697 116.95 23.8176C116.535 23.9841 116.089 24.0576 115.642 24.0351C114.958 24.0248 114.291 23.8103 113.729 23.4191C113.167 23.0278 112.734 22.4776 112.486 21.8388L110.127 22.8184C110.581 23.9096 111.35 24.8401 112.336 25.4902C113.322 26.1403 114.48 26.4803 115.661 26.4664C118.961 26.4664 121.483 24.3906 121.483 20.0403V8.95522H118.885V9.99163C118.464 9.53169 117.948 9.16753 117.374 8.92369C116.8 8.67985 116.181 8.562 115.557 8.57807H115.56V8.57905ZM115.802 10.983C116.504 11.0208 117.178 11.269 117.737 11.6953C118.296 12.1215 118.714 12.7061 118.936 13.3732C119.082 13.816 119.139 14.2842 119.102 14.7485C119.138 15.2143 119.079 15.6825 118.929 16.1248C118.779 16.5672 118.541 16.9743 118.228 17.3217C117.916 17.669 117.537 17.9492 117.113 18.1452C116.689 18.3413 116.23 18.4491 115.764 18.4622C115.293 18.4531 114.828 18.3488 114.398 18.1556C113.969 17.9623 113.582 17.6841 113.263 17.3376C112.944 16.9913 112.698 16.5838 112.542 16.1397C112.385 15.6956 112.32 15.2243 112.351 14.7544C112.322 14.2784 112.388 13.8013 112.548 13.3518C112.707 12.9023 112.955 12.4897 113.278 12.1389C113.601 11.7874 113.992 11.5045 114.426 11.3071C114.861 11.1097 115.331 11.0018 115.808 10.9898L115.802 10.983ZM132.991 8.57807C132.203 8.58799 131.426 8.75711 130.705 9.07527C129.985 9.39343 129.336 9.85406 128.797 10.4295C128.26 11.0037 127.844 11.6815 127.576 12.4214C127.309 13.1614 127.194 13.9482 127.24 14.7338C127.211 15.542 127.346 16.3477 127.639 17.1017C127.931 17.8556 128.375 18.5418 128.941 19.1185C129.508 19.6966 130.187 20.1535 130.936 20.4613C131.684 20.7691 132.488 20.9215 133.297 20.9092C134.316 20.9138 135.321 20.6698 136.225 20.1984C137.128 19.7269 137.904 19.0422 138.483 18.2035L136.35 16.791C136.042 17.3136 135.601 17.7455 135.072 18.0431C134.544 18.3407 133.946 18.4933 133.339 18.4857C132.705 18.5118 132.077 18.3467 131.537 18.0117C130.998 17.6767 130.571 17.1873 130.313 16.6068L138.594 13.1802L138.176 12.1791C137.777 11.1338 137.074 10.2325 136.157 9.59195C135.24 8.9503 134.151 8.59884 133.031 8.58297L132.991 8.57807ZM133.1 10.933C133.567 10.9137 134.03 11.0273 134.435 11.2605C134.84 11.4937 135.17 11.837 135.388 12.2506L129.846 14.5683C129.818 14.1169 129.88 13.6644 130.028 13.2373C130.176 12.8101 130.408 12.4167 130.71 12.0801C131.012 11.743 131.378 11.469 131.786 11.274C132.194 11.0789 132.637 10.9667 133.089 10.9438L133.1 10.934V10.933ZM123.277 20.5457H125.996V2.37432H123.277V20.5457ZM63.4262 41.463V29.5551H67.745C68.6481 29.5361 69.5222 29.8744 70.1775 30.4964C70.5085 30.7829 70.7722 31.1388 70.9498 31.5389C71.1275 31.9391 71.2147 32.3735 71.2053 32.8112C71.2331 33.3428 71.0914 33.8694 70.8008 34.3151C70.5101 34.7609 70.0856 35.1028 69.5882 35.2915V35.3582C70.1746 35.5404 70.6875 35.9048 71.0536 36.3975C71.4197 36.8844 71.6135 37.479 71.6047 38.0883C71.6157 38.5447 71.5279 38.9981 71.3475 39.4174C71.167 39.8367 70.8982 40.212 70.5593 40.5177C69.8621 41.1497 68.9477 41.4874 68.0074 41.46H63.4429L63.4262 41.463ZM64.9572 31.0225V34.6764H67.7421C67.9954 34.6834 68.2474 34.6383 68.4824 34.5438C68.7175 34.4492 68.9307 34.3073 69.1086 34.1268C69.4487 33.8029 69.6464 33.3571 69.6582 32.8874C69.6699 32.4177 69.4948 31.9625 69.1712 31.622L69.1243 31.573C68.9556 31.3943 68.7514 31.253 68.5248 31.1582C68.2982 31.0634 68.0542 31.0171 67.8087 31.0225H64.9572ZM64.9572 36.1017V40.0102H68.0436C68.5643 40.0151 69.0665 39.8133 69.4385 39.4489C69.8104 39.0855 70.0229 38.5888 70.0287 38.0677C70.0296 37.8123 69.978 37.5595 69.8771 37.3249C69.7763 37.0904 69.6283 36.8791 69.4424 36.7041C69.2506 36.5122 69.0218 36.3613 68.7699 36.2607C68.5179 36.1602 68.2482 36.1121 67.977 36.1193H64.9582L64.9572 36.1017ZM75.0494 30.5062C75.0484 30.7564 74.9606 30.9984 74.8009 31.1908C74.6413 31.3833 74.4198 31.5142 74.1743 31.5613C73.929 31.609 73.6747 31.5704 73.4546 31.452C73.2345 31.3337 73.062 31.1428 72.9663 30.9118C72.871 30.6807 72.859 30.4236 72.9324 30.1846C73.0058 29.9456 73.1601 29.7397 73.3687 29.6021C73.5772 29.4638 73.8272 29.402 74.0761 29.4272C74.325 29.4524 74.5575 29.563 74.7342 29.7402C74.8365 29.8398 74.9174 29.9593 74.9718 30.0914C75.0262 30.2235 75.0529 30.3654 75.0504 30.5082L75.0494 30.5062ZM74.7322 33.3304V41.4708H73.2003V33.3304H74.7322ZM80.2531 45.3324C79.8193 45.3368 79.3873 45.2774 78.9707 45.156C78.5856 45.0525 78.2174 44.8942 77.8773 44.6858C77.5563 44.4752 77.2697 44.2161 77.0277 43.9178C76.7972 43.6368 76.6171 43.3179 76.4952 42.9755L77.9596 42.375C78.1172 42.8413 78.4216 43.2439 78.8278 43.5231C79.2429 43.8111 79.7382 43.9619 80.2433 43.956C80.6034 43.9767 80.9639 43.9205 81.3006 43.7909C81.6373 43.6614 81.9426 43.4615 82.1961 43.2047C82.6893 42.6353 82.9414 41.896 82.899 41.1436V40.3394H82.8314C82.5361 40.7768 82.131 41.1288 81.6568 41.3601C81.1588 41.6105 80.6087 41.7394 80.0514 41.7363C79.5294 41.7379 79.0133 41.6268 78.5382 41.4104C78.0631 41.1939 77.6404 40.8774 77.2988 40.4824C76.5453 39.6332 76.1392 38.5311 76.1614 37.3957C76.1324 36.2626 76.5364 35.1612 77.291 34.3159C77.6301 33.9172 78.0521 33.5974 78.5276 33.379C79.003 33.1605 79.5204 33.0487 80.0436 33.0512C80.6015 33.047 81.1524 33.1756 81.6509 33.4264C82.1257 33.6576 82.5309 34.0102 82.8255 34.4471H82.8921V33.3128H84.3575V41.1162C84.3894 41.6781 84.3069 42.2406 84.1151 42.7697C83.9232 43.2988 83.6261 43.7833 83.2416 44.1941C82.8454 44.5701 82.378 44.863 81.8669 45.0555C81.3558 45.248 80.8114 45.3361 80.2658 45.3147L80.2531 45.3324ZM80.3059 40.3384C80.655 40.3475 81.0018 40.2792 81.3213 40.1382C81.6408 39.9973 81.9252 39.7873 82.154 39.5234C82.6369 38.9233 82.9002 38.176 82.9002 37.4055C82.9002 36.635 82.6369 35.8877 82.154 35.2876C81.9275 35.0197 81.644 34.8059 81.3242 34.6618C81.0045 34.5177 80.6565 34.4471 80.3059 34.455C79.9558 34.4503 79.6089 34.5225 79.2897 34.6663C78.9704 34.8102 78.6865 35.0222 78.4578 35.2876C77.9724 35.8864 77.7075 36.634 77.7075 37.405C77.7075 38.176 77.9724 38.9236 78.4578 39.5224C78.6872 39.7865 78.9714 39.9973 79.2906 40.1401C79.6098 40.2829 79.9563 40.3543 80.3059 40.3492V40.3384ZM100.273 41.4649L99.066 42.2457L98.2467 41.031C97.3564 41.4759 96.3757 41.7095 95.3806 41.7137C94.568 41.7295 93.7609 41.5773 93.0098 41.2669C92.2586 40.9564 91.5795 40.4943 91.0148 39.9093C89.88 38.7155 89.2471 37.1308 89.2471 35.4831C89.2471 33.8353 89.88 32.2506 91.0148 31.0568C91.5876 30.4816 92.2684 30.0253 93.0179 29.7141C93.7675 29.403 94.5711 29.243 95.3825 29.2435C96.194 29.2435 96.9975 29.4036 97.7471 29.7145C98.4967 30.0255 99.1778 30.4813 99.7512 31.0558C100.33 31.6318 100.785 32.3198 101.089 33.0777C101.393 33.8356 101.539 34.6475 101.519 35.464C101.525 36.3545 101.344 37.2365 100.989 38.0528C100.633 38.8692 100.11 39.6017 99.4537 40.2032L100.273 41.4669V41.4649ZM95.3884 40.2502C96.0863 40.2502 96.7735 40.0886 97.3971 39.78L96.0119 37.6964L97.2189 36.8824L98.5991 38.9611C99.4683 38.0323 99.9561 36.81 99.9655 35.5376C99.975 34.2651 99.5053 33.0358 98.65 32.0942C98.2327 31.6552 97.728 31.3088 97.1686 31.0773C96.6091 30.8457 96.0073 30.7343 95.4021 30.7502C94.7949 30.7362 94.1914 30.8485 93.6298 31.08C93.0682 31.3115 92.5607 31.6572 92.1395 32.0951C91.3037 33.0329 90.8418 34.2456 90.8418 35.5022C90.8418 36.7587 91.3037 37.9714 92.1395 38.9092C92.5617 39.3516 93.0718 39.7007 93.6369 39.934C94.202 40.1674 94.8096 40.2798 95.4207 40.264L95.3884 40.2502ZM110.239 41.4561H108.772V40.3266H108.705C108.445 40.7528 108.073 41.0995 107.629 41.3288C107.17 41.5884 106.651 41.726 106.124 41.7284C105.7 41.7557 105.276 41.6934 104.878 41.5458C104.48 41.3981 104.117 41.1683 103.814 40.8713C103.239 40.1949 102.951 39.32 103.013 38.4341V33.3128H104.544V38.3224C104.493 38.732 104.585 39.1465 104.804 39.4962C105.023 39.846 105.355 40.1095 105.746 40.2424C106.004 40.3306 106.28 40.36 106.551 40.3266C106.846 40.3272 107.136 40.2607 107.401 40.132C107.665 40.0033 107.897 39.8159 108.079 39.5841C108.492 39.0867 108.712 38.4561 108.697 37.8091V33.3128H110.228V41.4532L110.239 41.4561ZM115.689 41.7245C115.136 41.7403 114.586 41.6386 114.074 41.4262C113.563 41.2138 113.103 40.8955 112.723 40.4922C111.94 39.6498 111.521 38.5312 111.559 37.381C111.525 36.239 111.933 35.128 112.699 34.2806C113.074 33.8935 113.521 33.5847 114.016 33.372C114.511 33.1593 115.043 33.0469 115.582 33.0414C116.12 33.0351 116.655 33.1354 117.154 33.3366C117.654 33.5379 118.109 33.8361 118.493 34.214C119.266 35.1303 119.652 36.312 119.569 37.5084V37.6739H113.151C113.148 38.0328 113.217 38.3887 113.354 38.7202C113.492 39.0517 113.695 39.3519 113.952 39.6027C114.395 40.0369 114.98 40.2971 115.599 40.3357C116.218 40.3744 116.831 40.189 117.325 39.8133C117.652 39.5655 117.915 39.2432 118.092 38.8729L119.46 39.5361C119.111 40.2051 118.584 40.7645 117.937 41.1524C117.265 41.5427 116.498 41.741 115.722 41.7255L115.689 41.7245ZM113.239 36.4053H117.919C117.904 36.1352 117.835 35.8709 117.715 35.6281C117.596 35.3853 117.429 35.1689 117.225 34.9918C116.753 34.6088 116.158 34.4116 115.551 34.4373C115.006 34.4255 114.476 34.6144 114.061 34.9683C113.635 35.3405 113.345 35.845 113.235 36.4004L113.239 36.4053ZM122.494 41.46H120.963V33.3196H122.429V34.6499H122.495C122.679 34.1875 123.011 33.7986 123.439 33.544C123.856 33.256 124.347 33.0933 124.854 33.0737C125.24 33.0659 125.625 33.1345 125.984 33.2775L125.513 34.7606C125.224 34.6625 124.918 34.6225 124.614 34.6431C124.327 34.6449 124.044 34.7085 123.784 34.8295C123.525 34.9506 123.294 35.1262 123.108 35.3444C122.693 35.7841 122.463 36.3674 122.467 36.9725V41.4688L122.494 41.46ZM134.481 33.3196L129.374 45.0924H127.794L129.676 40.984L126.33 33.3275H127.999L130.433 39.1864H130.466L132.825 33.3275H134.482L134.481 33.3196Z" fill="#767677"/>
</g>
</g>
</g>
<defs>
<clipPath id="clip0_0_5675">
<rect width="139" height="48" fill="white"/>
</clipPath>
</defs>
</svg>
