<svg width="213" height="48" viewBox="0 0 213 48" fill="none" xmlns="http://www.w3.org/2000/svg">
<mask id="mask0_0_5564" style="mask-type:luminance" maskUnits="userSpaceOnUse" x="0" y="0" width="213" height="47">
<path d="M212.601 0.0546875H0.0415039V46.7574H212.601V0.0546875Z" fill="white"/>
</mask>
<g mask="url(#mask0_0_5564)">
<path d="M18.0105 17.0535C18.0105 19.0929 17.1247 20.8968 15.688 22.3076C14.094 23.877 11.7715 24.2691 11.7715 25.6021C11.7715 27.4254 14.724 26.8572 17.5778 29.6604C19.4668 31.5032 20.628 33.9346 20.628 36.7582C20.628 42.346 16.062 46.7769 10.3348 46.7769C4.6075 46.7769 0.0415039 42.347 0.0415039 36.7777C0.0415039 33.9551 1.20278 31.5236 3.07215 29.6604C5.92602 26.8767 8.87853 27.4254 8.87853 25.6215C8.87853 24.2691 6.55598 23.877 4.9425 22.328C3.5058 20.8968 2.61995 19.1124 2.61995 16.9952C2.61995 12.9165 6.0442 9.62295 10.1971 9.62295C11.0038 9.62295 11.7129 9.73971 12.3223 9.73971C13.4055 9.73971 13.9563 9.2503 13.9563 8.52446C13.9563 8.09344 13.759 7.54468 13.759 6.95603C13.759 5.62306 14.9213 4.52457 16.3179 4.52457C17.7146 4.52457 18.8573 5.68241 18.8573 7.0543C18.8573 8.50501 17.695 9.17149 16.8102 9.46533C16.1011 9.70079 15.5307 10.0345 15.5307 10.7205C15.5307 12.0534 18.0115 13.3475 18.0115 17.0934V17.0545L18.0105 17.0535ZM17.2038 36.7582C17.2038 32.876 14.2903 29.7197 10.3348 29.7197C6.3792 29.7197 3.44622 32.8566 3.44622 36.7582C3.44622 40.6598 6.3792 43.7772 10.3348 43.7772C14.2903 43.7772 17.2038 40.6014 17.2038 36.7582ZM14.8422 16.9553C14.8422 14.4849 12.795 12.4455 10.3152 12.4455C7.83446 12.4455 5.78831 14.4849 5.78831 16.9553C5.78831 19.4266 7.8159 21.4845 10.3152 21.4845C12.8155 21.4845 14.8422 19.4461 14.8422 16.9553ZM32.4371 9.99463C33.7166 9.99463 34.661 10.9365 34.661 12.1128C34.661 13.2891 33.7556 14.23 32.4566 14.23C31.1576 14.23 30.43 13.4059 29.1115 13.4059C27.793 13.4059 26.828 14.3088 26.828 15.8383V28.2097C26.828 29.1505 26.0603 29.8958 25.0964 29.8958C24.8732 29.8991 24.6516 29.8577 24.4448 29.7741C24.2379 29.6906 24.05 29.5665 23.8922 29.4093C23.7343 29.252 23.6098 29.0648 23.5259 28.8588C23.442 28.6527 23.4005 28.432 23.4038 28.2097V11.5631C23.4038 10.6222 24.1705 9.87787 25.0964 9.87787C26.828 9.87787 26.493 11.4852 28.2256 11.4852C29.8587 11.4852 30.4691 9.99463 32.4371 9.99463ZM36.1573 19.8577C36.1573 13.9361 40.3101 9.66187 46.0569 9.66187C51.292 9.66187 55.4644 13.4273 55.4644 18.5636C55.4644 19.7798 54.6772 20.603 53.4963 20.603H40.4859C39.9156 20.603 39.7183 20.7975 39.7183 21.2295C39.7183 22.2103 40.525 24.0337 41.7254 25.1895C42.9267 26.3668 44.5597 27.0722 46.8822 27.0722C48.5944 27.0722 50.1297 26.4447 51.291 25.6215C51.6651 25.3472 52.0587 25.1905 52.4523 25.1905C53.2785 25.1905 53.9681 25.9553 53.9681 26.7395C53.9681 27.2094 53.8099 27.6025 53.3967 27.9557C51.7041 29.3276 49.3425 30.0719 46.7846 30.0719C40.5651 30.0719 36.1163 25.6799 36.1163 19.8577H36.1553H36.1573ZM50.3475 14.2105C49.2253 13.113 47.7886 12.5633 46.0569 12.5633C44.3243 12.5633 42.7304 13.2298 41.5691 14.3672C40.6442 15.2691 40.0142 16.4464 40.0142 17.2501C40.0142 17.6422 40.2506 17.7988 40.7819 17.7988H51.1933C51.6856 17.7988 51.9219 17.6422 51.9219 17.2501C51.9219 16.2888 51.1543 15.0152 50.367 14.23L50.3475 14.2105ZM58.9081 19.8577C58.9081 13.9361 63.061 9.66187 68.8088 9.66187C74.0438 9.66187 78.2162 13.4273 78.2162 18.5636C78.2162 19.7798 77.429 20.603 76.2482 20.603H63.2388C62.6674 20.603 62.4711 20.7975 62.4711 21.2295C62.4711 22.2103 63.2778 24.0337 64.4782 25.1895C65.6795 26.3668 67.3125 27.0722 69.635 27.0722C71.3472 27.0722 72.8825 26.4447 74.0438 25.6215C74.4179 25.3472 74.8115 25.1905 75.2051 25.1905C76.0313 25.1905 76.7199 25.9553 76.7199 26.7395C76.7199 27.2094 76.5636 27.6025 76.1495 27.9557C74.4569 29.3276 72.1158 30.0719 69.5374 30.0719C63.3179 30.0719 58.8691 25.6799 58.8691 19.8577H58.9081ZM73.0993 14.2105C71.9771 13.113 70.5404 12.5633 68.8088 12.5633C67.0761 12.5633 65.4822 13.2298 64.3209 14.3672C63.4155 15.2691 62.766 16.4464 62.766 17.2501C62.766 17.6422 63.0024 17.7988 63.5337 17.7988H73.9452C74.4374 17.7988 74.6738 17.6422 74.6738 17.2501C74.6738 16.2888 73.9061 15.0152 73.1189 14.23L73.0993 14.2105ZM98.2714 29.8764C97.3064 29.8764 96.5397 29.1311 96.5397 28.1902V17.504C96.5397 14.7213 94.3158 12.5827 91.4219 12.5827C88.529 12.5827 86.266 14.7398 86.266 17.505V28.1902C86.266 29.1311 85.4983 29.8764 84.5334 29.8764C84.3102 29.8796 84.0886 29.8383 83.8818 29.7547C83.6749 29.6711 83.487 29.547 83.3292 29.3898C83.1714 29.2326 83.0468 29.0454 82.9629 28.8393C82.879 28.6333 82.8375 28.4125 82.8408 28.1902V11.5047C82.8408 10.6027 83.6085 9.85841 84.4943 9.85841C86.1674 9.85841 86.0882 11.348 86.9741 11.348C87.86 11.348 89.0603 9.66187 92.1896 9.66187C96.5397 9.66187 99.964 13.2307 99.964 17.504V28.1902C99.964 29.1311 99.1963 29.8764 98.2714 29.8764ZM121.26 29.8764C120.295 29.8764 119.527 29.1311 119.527 28.1902V17.504C119.527 14.7204 117.303 12.5827 114.41 12.5827C111.517 12.5827 109.254 14.7398 109.254 17.504V28.1902C109.254 29.1311 108.487 29.8764 107.522 29.8764C107.298 29.8796 107.077 29.8383 106.87 29.7547C106.663 29.6711 106.475 29.547 106.317 29.3898C106.16 29.2326 106.035 29.0454 105.951 28.8393C105.867 28.6333 105.826 28.4125 105.829 28.1902V1.7409C105.827 1.519 105.87 1.29898 105.954 1.09364C106.039 0.88831 106.163 0.701759 106.321 0.544848C106.478 0.387937 106.666 0.263799 106.872 0.179658C107.078 0.0955165 107.299 0.0530521 107.522 0.0547357C108.446 0.0547357 109.254 0.79906 109.254 1.7409V10.4062C109.254 10.8771 109.451 11.1515 109.962 11.1515C110.848 11.1515 112.048 9.66187 115.178 9.66187C119.528 9.66187 122.952 13.2298 122.952 17.504V28.1902C122.952 29.1311 122.185 29.8764 121.26 29.8764ZM127.617 19.8577C127.617 14.1716 132.261 9.66187 138.106 9.66187C143.952 9.66187 148.597 14.1716 148.597 19.8577C148.597 25.5427 143.952 30.0719 138.106 30.0719C132.261 30.0719 127.617 25.5632 127.617 19.8577ZM145.192 19.8577C145.192 15.8967 142.18 12.6421 138.106 12.6421C134.033 12.6421 131.061 15.8967 131.061 19.8577C131.061 23.8177 134.072 27.0917 138.106 27.0917C142.141 27.0917 145.192 23.8371 145.192 19.8577ZM154.974 9.85841C155.938 9.85841 156.705 10.6027 156.705 11.5436V22.2298C156.705 25.0134 158.929 27.1511 161.822 27.1511C164.716 27.1511 166.999 24.994 166.999 22.2298V11.5436C166.999 10.6027 167.766 9.85841 168.711 9.85841C168.933 9.85673 169.154 9.89916 169.36 9.98324C169.566 10.0673 169.754 10.1914 169.911 10.3482C170.068 10.505 170.193 10.6914 170.278 10.8966C170.362 11.1019 170.405 11.3218 170.403 11.5436V28.2301C170.403 29.1311 169.637 29.8764 168.77 29.8764C167.078 29.8764 167.156 28.3867 166.271 28.3867C165.385 28.3867 164.185 30.0719 161.056 30.0719C156.705 30.0719 153.301 26.504 153.301 22.2298V11.5436C153.301 10.6027 154.068 9.85841 154.974 9.85841ZM176.446 28.6212C175.678 28.1503 175.167 27.6804 175.167 26.7784C175.167 25.8765 175.836 25.2489 176.682 25.2489C177.686 25.2489 178.119 25.8375 178.965 26.2686C180.008 26.8572 181.209 27.1705 182.685 27.1705C185.421 27.1705 186.778 25.9543 186.778 24.4657C186.778 22.3475 184.771 21.9554 182.036 21.249C178.69 20.386 175.423 19.4062 175.423 15.6028C175.423 12.2111 178.06 9.68133 182.764 9.68133C184.595 9.68133 186.326 10.1513 187.684 10.9754C188.176 11.2692 188.649 11.8384 188.649 12.5244C188.649 13.3864 187.94 14.1317 187.015 14.1317C186.425 14.1317 185.933 13.7396 185.342 13.3475C184.732 12.9554 183.846 12.6032 182.646 12.6032C179.949 12.6032 178.808 13.7406 178.808 15.2691C178.808 17.289 180.776 17.7599 183.571 18.406C186.858 19.1902 190.085 20.2099 190.085 24.092C190.085 27.4653 187.527 30.0914 182.606 30.0914C180.205 30.0914 178.06 29.6214 176.446 28.6417V28.6212ZM193.293 19.8577C193.293 13.9361 197.465 9.66187 203.193 9.66187C208.429 9.66187 212.601 13.4273 212.601 18.5636C212.601 19.7798 211.794 20.603 210.633 20.603H197.604C197.033 20.603 196.836 20.7975 196.836 21.2295C196.836 22.2103 197.643 24.0337 198.843 25.1895C200.044 26.3668 201.678 27.0722 204 27.0722C205.732 27.0722 207.248 26.4447 208.409 25.6215C208.782 25.3472 209.176 25.1905 209.569 25.1905C210.397 25.1905 211.085 25.9553 211.085 26.7395C211.085 27.2094 210.928 27.6025 210.515 27.9557C208.822 29.3276 206.48 30.0719 203.902 30.0719C197.682 30.0719 193.234 25.6799 193.234 19.8577H193.293ZM207.483 14.2105C206.381 13.113 204.925 12.5633 203.193 12.5633C201.461 12.5633 199.867 13.2298 198.706 14.3672C197.781 15.2691 197.151 16.4464 197.151 17.2501C197.151 17.6422 197.387 17.7988 197.918 17.7988H208.33C208.803 17.7988 209.038 17.6422 209.038 17.2501C209.038 16.2888 208.27 15.0152 207.483 14.23V14.2105Z" fill="#24A580"/>
</g>
</svg>
