<svg width="193" height="62" viewBox="0 0 193 62" fill="none" xmlns="http://www.w3.org/2000/svg">
<g clip-path="url(#clip0_328_3316)">
<mask id="mask0_328_3316" style="mask-type:luminance" maskUnits="userSpaceOnUse" x="0" y="0" width="193" height="62">
<path d="M192.09 0.705078H0.0400391V61.5051H192.09V0.705078Z" fill="white"/>
</mask>
<g mask="url(#mask0_328_3316)">
<path d="M17.19 20.0051C18.6269 19.9449 20.0596 20.1977 21.3892 20.7459C22.7187 21.2941 23.9132 22.1247 24.89 23.1801C26.8234 25.2967 27.79 28.2051 27.79 31.9051V48.2051H19.29V33.0551C19.3884 31.472 18.8685 29.9125 17.84 28.7051C17.3378 28.184 16.73 27.7762 16.0574 27.5089C15.3849 27.2416 14.663 27.121 13.94 27.1551C13.2171 27.121 12.4952 27.2416 11.8226 27.5089C11.1501 27.7762 10.5423 28.184 10.04 28.7051C9.01153 29.9125 8.49171 31.472 8.59004 33.0551V48.2051H0.0400391V11.2051H8.59004V24.0551C9.50147 22.7842 10.7238 21.7685 12.14 21.1051C13.7163 20.3548 15.4445 19.9784 17.19 20.0051ZM49.29 40.9551V48.2051H44.94C41.84 48.2051 39.4234 47.4467 37.69 45.9301C35.9567 44.4134 35.09 41.9384 35.09 38.5051V27.4051H31.69V20.3051H35.09V13.5051H43.64V20.3051H49.24V27.4051H43.64V38.6051C43.609 38.9304 43.6464 39.2585 43.7497 39.5685C43.853 39.8785 44.02 40.1635 44.24 40.4051C44.8173 40.8262 45.5286 41.0218 46.24 40.9551H49.29ZM69.59 40.9551V48.2051H65.24C62.14 48.2051 59.7234 47.4467 57.99 45.9301C56.2567 44.4134 55.39 41.9384 55.39 38.5051V27.4051H51.99V20.3051H55.39V13.5051H63.94V20.3051H69.54V27.4051H63.94V38.6051C63.909 38.9304 63.9464 39.2585 64.0497 39.5685C64.153 39.8785 64.32 40.1635 64.54 40.4051C65.1173 40.8262 65.8286 41.0218 66.54 40.9551H69.59ZM82.89 24.2551C83.7527 22.9281 84.9403 21.8438 86.34 21.1051C87.9276 20.2761 89.6995 19.8632 91.49 19.9051C93.6978 19.8792 95.8668 20.4865 97.74 21.6551C99.6541 22.8746 101.187 24.607 102.165 26.6551C103.29 29.0099 103.847 31.5959 103.79 34.2051C103.845 36.8221 103.288 39.4158 102.165 41.7801C101.188 43.8422 99.656 45.5911 97.74 46.8301C95.8723 48.0138 93.7012 48.6304 91.49 48.6051C89.7081 48.6411 87.9457 48.2285 86.365 47.4051C84.965 46.6796 83.77 45.6135 82.89 44.3051V61.5051H74.34V20.3051H82.89V24.2551ZM95.09 34.2051C95.1421 33.2916 95.012 32.377 94.7073 31.5143C94.4025 30.6516 93.9293 29.8582 93.315 29.1801C92.7531 28.588 92.0736 28.1199 91.3202 27.8056C90.5669 27.4914 89.7562 27.3379 88.94 27.3551C88.1296 27.3422 87.3256 27.5003 86.5803 27.8191C85.8351 28.1378 85.1655 28.6101 84.615 29.2051C84.0019 29.8889 83.5296 30.6869 83.225 31.5534C82.9204 32.4199 82.7896 33.338 82.84 34.2551C82.7896 35.1722 82.9204 36.0902 83.225 36.9567C83.5296 37.8232 84.0019 38.6212 84.615 39.3051C85.1655 39.9001 85.8351 40.3723 86.5803 40.6911C87.3256 41.0099 88.1296 41.168 88.94 41.1551C89.7561 41.1656 90.5653 41.0041 91.3148 40.681C92.0643 40.358 92.7373 39.8806 93.29 39.2801C93.9093 38.5942 94.387 37.7929 94.6959 36.922C95.0048 36.0511 95.1387 35.1278 95.09 34.2051ZM119.64 48.6051C117.41 48.645 115.196 48.2192 113.14 47.3551C111.369 46.6211 109.819 45.4411 108.64 43.9301C107.556 42.523 106.913 40.8269 106.79 39.0551H115.24C115.283 39.5209 115.425 39.972 115.658 40.3776C115.891 40.7832 116.209 41.1337 116.59 41.4051C117.447 42.023 118.484 42.3395 119.54 42.3051C120.41 42.3579 121.275 42.1395 122.015 41.6801C122.286 41.5049 122.508 41.2641 122.661 40.98C122.814 40.6959 122.893 40.3777 122.89 40.0551C122.892 39.6661 122.772 39.2863 122.548 38.9683C122.324 38.6502 122.007 38.4097 121.64 38.2801C120.328 37.7421 118.973 37.3156 117.59 37.0051C115.892 36.6284 114.221 36.1356 112.59 35.5301C111.255 35.012 110.069 34.1701 109.14 33.0801C108.118 31.8006 107.602 30.1902 107.69 28.5551C107.678 26.9961 108.14 25.4702 109.015 24.1801C109.991 22.7881 111.344 21.7039 112.915 21.0551C114.853 20.2453 116.94 19.8534 119.04 19.9051C122.54 19.9051 125.298 20.7717 127.315 22.5051C129.341 24.2548 130.59 26.736 130.79 29.4051H122.89C122.841 28.9563 122.703 28.5217 122.484 28.1268C122.265 27.7319 121.97 27.3846 121.615 27.1051C120.798 26.5067 119.801 26.2067 118.79 26.2551C117.982 26.2038 117.179 26.4048 116.49 26.8301C116.235 27.0042 116.028 27.2397 115.888 27.515C115.748 27.7903 115.68 28.0965 115.69 28.4051C115.692 28.7997 115.816 29.1841 116.044 29.5061C116.272 29.8281 116.594 30.0721 116.965 30.2051C118.246 30.7391 119.578 31.1412 120.94 31.4051C122.654 31.8271 124.34 32.3531 125.99 32.9801C127.32 33.5186 128.497 34.3774 129.415 35.4801C130.455 36.7927 130.995 38.4315 130.94 40.1051C130.961 41.6728 130.479 43.206 129.565 44.4801C128.555 45.836 127.187 46.8835 125.615 47.5051C123.718 48.2726 121.686 48.6468 119.64 48.6051ZM140.19 48.6051C138.839 48.6598 137.52 48.1843 136.515 47.2801C136.056 46.8685 135.692 46.3629 135.446 45.7978C135.2 45.2327 135.079 44.6213 135.09 44.0051C135.077 43.3776 135.197 42.7544 135.442 42.1769C135.688 41.5993 136.054 41.0806 136.515 40.6551C137.513 39.7366 138.835 39.2511 140.19 39.3051C141.529 39.2571 142.833 39.7426 143.815 40.6551C144.276 41.0806 144.642 41.5993 144.888 42.1769C145.133 42.7544 145.253 43.3776 145.24 44.0051C145.252 44.6213 145.13 45.2327 144.884 45.7978C144.638 46.3629 144.274 46.8685 143.815 47.2801C142.826 48.1783 141.525 48.6538 140.19 48.6051ZM140.19 28.2551C138.839 28.3098 137.52 27.8343 136.515 26.9301C136.056 26.5185 135.692 26.0129 135.446 25.4478C135.2 24.8827 135.079 24.2713 135.09 23.6551C135.077 23.0276 135.197 22.4044 135.442 21.8269C135.688 21.2493 136.054 20.7306 136.515 20.3051C137.513 19.3866 138.835 18.9011 140.19 18.9551C141.529 18.9071 142.833 19.3926 143.815 20.3051C144.276 20.7306 144.642 21.2493 144.888 21.8269C145.133 22.4044 145.253 23.0276 145.24 23.6551C145.252 24.2713 145.13 24.8827 144.884 25.4478C144.638 26.0129 144.274 26.5185 143.815 26.9301C142.826 27.8283 141.525 28.3038 140.19 28.2551ZM169.44 0.705078L156.04 57.5551H147.79L161.19 0.705078H169.44ZM192.09 0.705078L178.69 57.5551H170.44L183.84 0.705078H192.09Z" fill="#1A1818"/>
</g>
</g>
<defs>
<clipPath id="clip0_328_3316">
<rect width="192.05" height="60.8" fill="white" transform="translate(0.0400391 0.705078)"/>
</clipPath>
</defs>
</svg>
