<svg width="165" height="48" viewBox="0 0 165 48" fill="none" xmlns="http://www.w3.org/2000/svg">
<path d="M17.8157 8.48926V21.8042H5.73447V8.48926H0V40.2735H5.73447V27.3907H17.8157V40.2735H23.5501V8.48926H17.8142H17.8157ZM41.9042 29.9986C41.9042 31.2724 41.4043 32.4939 40.5146 33.3946C39.6248 34.2953 38.418 34.8013 37.1597 34.8013C35.9014 34.8013 34.6946 34.2953 33.8049 33.3946C32.9151 32.4939 32.4153 31.2724 32.4153 29.9986V16.3848H26.9746V29.9986C26.9746 32.7303 28.0466 35.3501 29.9548 37.2817C31.863 39.2132 34.451 40.2984 37.1496 40.2984C39.8482 40.2984 42.4362 39.2132 44.3444 37.2817C46.2526 35.3501 47.3246 32.7303 47.3246 29.9986V16.3848H41.9042V29.9986ZM82.2105 17.7883C82.2105 14.9973 84.0342 14.1138 86.033 14.1138C87.6425 14.1138 89.7701 15.3533 91.161 16.858L94.7245 12.6092C92.9442 10.1741 89.3374 8.49072 86.3847 8.49072C80.4838 8.49072 76.2155 11.988 76.2155 17.7883C76.2155 28.5482 89.2085 25.1359 89.2085 31.1575C89.2085 33.0138 87.4268 34.6548 85.3875 34.6548C82.17 34.6548 81.1264 33.0622 79.6487 31.3788L75.6945 35.5397C78.2245 38.6838 81.3436 40.2794 85.0807 40.2794C90.6863 40.2794 95.1963 36.7382 95.1963 31.203C95.1963 19.2564 82.2033 22.969 82.2033 17.7883M162.593 35.1954C159.378 35.1954 158.465 33.7889 158.465 31.6308V22.0885H163.461V17.2536H158.465V10.873L152.949 13.3784V32.8175C152.949 37.7901 156.337 40.2955 160.985 40.2955C161.714 40.3091 162.443 40.2502 163.16 40.1197L164.506 35.1046C163.899 35.1485 163.202 35.1895 162.593 35.1895M62.6132 16.5459C59.9182 16.5459 58.038 17.3371 56.2201 19.1421V8.68119H50.7708V28.0691C50.7708 35.3287 55.9553 40.2999 61.7809 40.2999C68.2434 40.2999 73.9272 35.2408 73.9272 28.4251C73.9272 21.6958 68.6964 16.5474 62.6117 16.5474V16.5445L62.6132 16.5459ZM62.5784 34.7529C61.7666 34.7529 60.9628 34.5911 60.2128 34.2766C59.4628 33.9621 58.7813 33.5012 58.2073 32.9201C57.6333 32.3391 57.1779 31.6493 56.8673 30.8901C56.5566 30.1309 56.3967 29.3172 56.3967 28.4954C56.3967 27.6737 56.5566 26.86 56.8673 26.1008C57.1779 25.3416 57.6333 24.6518 58.2073 24.0707C58.7813 23.4896 59.4628 23.0287 60.2128 22.7142C60.9628 22.3998 61.7666 22.2379 62.5784 22.2379C64.2179 22.2379 65.7903 22.8972 66.9495 24.0707C68.1088 25.2442 68.7601 26.8358 68.7601 28.4954C68.7601 30.155 68.1088 31.7466 66.9495 32.9201C65.7903 34.0937 64.2179 34.7529 62.5784 34.7529ZM121.773 28.135C121.773 21.3076 116.099 16.2602 109.625 16.2602C103.799 16.2602 98.6164 21.2314 98.6164 28.491V47.8921H104.064V37.4165C105.879 39.2186 107.762 40.0142 110.454 40.0142C116.538 40.0142 121.77 34.8687 121.77 28.135H121.773ZM116.613 28.0676C116.613 29.7274 115.962 31.3192 114.802 32.4929C113.643 33.6665 112.07 34.3258 110.431 34.3258C108.791 34.3258 107.218 33.6665 106.059 32.4929C104.9 31.3192 104.248 29.7274 104.248 28.0676C104.248 26.4078 104.9 24.816 106.059 23.6424C107.218 22.4687 108.791 21.8094 110.431 21.8094C112.07 21.8094 113.643 22.4687 114.802 23.6424C115.962 24.816 116.613 26.4078 116.613 28.0676Z" fill="#52525B"/>
<path d="M139.319 16.1723V10.6883C140.035 10.35 140.642 9.81249 141.068 9.13855C141.494 8.46461 141.721 7.68199 141.725 6.88195V6.75449C141.722 5.63623 141.282 4.56455 140.501 3.77382C139.72 2.98309 138.661 2.53766 137.556 2.53495H137.43C136.326 2.53805 135.268 2.98364 134.487 3.77433C133.706 4.56502 133.266 5.63648 133.263 6.75449V6.88195C133.267 7.68195 133.495 8.4645 133.921 9.13841C134.346 9.81232 134.953 10.3498 135.669 10.6883V16.1723C133.61 16.4907 131.672 17.3539 130.049 18.6747L115.173 6.95814C115.278 6.57281 115.336 6.1743 115.342 5.77139C115.343 4.83027 115.068 3.91003 114.552 3.12702C114.037 2.344 113.303 1.73338 112.444 1.37236C111.586 1.01134 110.641 0.916134 109.729 1.09878C108.817 1.28142 107.979 1.73372 107.32 2.39847C106.662 3.06322 106.214 3.91059 106.031 4.83342C105.849 5.75625 105.941 6.7131 106.296 7.583C106.651 8.45289 107.252 9.19676 108.025 9.72056C108.797 10.2443 109.705 10.5245 110.635 10.5257C111.452 10.5227 112.254 10.3018 112.96 9.88544L127.585 21.4115C126.268 23.4233 125.581 25.7904 125.613 28.2037C125.646 30.617 126.397 32.9643 127.768 34.9389L123.316 39.4442C122.958 39.3291 122.586 39.2679 122.211 39.2625C121.447 39.2622 120.7 39.4914 120.064 39.921C119.428 40.3507 118.933 40.9616 118.64 41.6763C118.347 42.3911 118.27 43.1777 118.419 43.9366C118.568 44.6955 118.936 45.3927 119.477 45.9399C120.017 46.4872 120.706 46.8599 121.455 47.0109C122.205 47.162 122.982 47.0846 123.688 46.7886C124.395 46.4925 124.998 45.9911 125.423 45.3478C125.848 44.7045 126.074 43.9481 126.074 43.1743C126.069 42.7943 126.009 42.4171 125.895 42.055L130.298 37.5981C131.735 38.7104 133.404 39.4754 135.178 39.8349C136.952 40.1943 138.784 40.1386 140.533 39.672C142.283 39.2054 143.904 38.3402 145.273 37.1426C146.641 35.945 147.722 34.4466 148.431 32.7619C149.14 31.0771 149.46 29.2506 149.365 27.4217C149.27 25.5929 148.764 23.8101 147.885 22.2095C147.006 20.609 145.777 19.233 144.292 18.1867C142.807 17.1403 141.106 16.4513 139.318 16.1723H139.319ZM137.495 34.2108C136.688 34.2234 135.885 34.0732 135.135 33.769C134.386 33.4648 133.703 33.0126 133.127 32.4388C132.552 31.865 132.094 31.181 131.782 30.4266C131.47 29.6723 131.31 28.8626 131.31 28.0448C131.31 27.227 131.47 26.4174 131.782 25.663C132.094 24.9086 132.552 24.2247 133.127 23.6509C133.703 23.077 134.386 22.6249 135.135 22.3207C135.885 22.0164 136.688 21.8663 137.495 21.8789C139.095 21.9038 140.62 22.5644 141.742 23.7181C142.865 24.8717 143.494 26.4258 143.494 28.0448C143.494 29.6639 142.865 31.218 141.742 32.3716C140.62 33.5252 139.095 34.1858 137.495 34.2108Z" fill="#FF7A59"/>
<path d="M139.319 16.1723V10.6883C140.035 10.35 140.642 9.81249 141.068 9.13855C141.494 8.46461 141.721 7.68199 141.725 6.88195V6.75449C141.722 5.63623 141.282 4.56455 140.501 3.77382C139.72 2.98309 138.661 2.53766 137.556 2.53495H137.43C136.326 2.53805 135.268 2.98364 134.487 3.77433C133.706 4.56502 133.266 5.63648 133.263 6.75449V6.88195C133.267 7.68195 133.495 8.4645 133.921 9.13841C134.346 9.81232 134.953 10.3498 135.669 10.6883V16.1723C133.61 16.4907 131.672 17.3539 130.049 18.6747L115.173 6.95814C115.278 6.57281 115.336 6.1743 115.342 5.77139C115.343 4.83027 115.068 3.91003 114.552 3.12702C114.037 2.344 113.303 1.73338 112.444 1.37236C111.586 1.01134 110.641 0.916134 109.729 1.09878C108.817 1.28142 107.979 1.73372 107.32 2.39847C106.662 3.06322 106.214 3.91059 106.031 4.83342C105.849 5.75625 105.941 6.7131 106.296 7.583C106.651 8.45289 107.252 9.19676 108.025 9.72056C108.797 10.2443 109.705 10.5245 110.635 10.5257C111.452 10.5227 112.254 10.3018 112.96 9.88544L127.585 21.4115C126.268 23.4233 125.581 25.7904 125.613 28.2037C125.646 30.617 126.397 32.9643 127.768 34.9389L123.316 39.4442C122.958 39.3291 122.586 39.2679 122.211 39.2625C121.447 39.2622 120.7 39.4914 120.064 39.921C119.428 40.3507 118.933 40.9616 118.64 41.6763C118.347 42.3911 118.27 43.1777 118.419 43.9366C118.568 44.6955 118.936 45.3927 119.477 45.9399C120.017 46.4872 120.706 46.8599 121.455 47.0109C122.205 47.162 122.982 47.0846 123.688 46.7886C124.395 46.4925 124.998 45.9911 125.423 45.3478C125.848 44.7045 126.074 43.9481 126.074 43.1743C126.069 42.7943 126.009 42.4171 125.895 42.055L130.298 37.5981C131.735 38.7104 133.404 39.4754 135.178 39.8349C136.952 40.1943 138.784 40.1386 140.533 39.672C142.283 39.2054 143.904 38.3402 145.273 37.1426C146.641 35.945 147.722 34.4466 148.431 32.7619C149.14 31.0771 149.46 29.2506 149.365 27.4217C149.27 25.5929 148.764 23.8101 147.885 22.2095C147.006 20.609 145.777 19.233 144.292 18.1867C142.807 17.1403 141.106 16.4513 139.318 16.1723H139.319ZM137.495 34.2108C136.688 34.2234 135.885 34.0732 135.135 33.769C134.386 33.4648 133.703 33.0126 133.127 32.4388C132.552 31.865 132.094 31.181 131.782 30.4266C131.47 29.6723 131.31 28.8626 131.31 28.0448C131.31 27.227 131.47 26.4174 131.782 25.663C132.094 24.9086 132.552 24.2247 133.127 23.6509C133.703 23.077 134.386 22.6249 135.135 22.3207C135.885 22.0164 136.688 21.8663 137.495 21.8789C139.095 21.9038 140.62 22.5644 141.742 23.7181C142.865 24.8717 143.494 26.4258 143.494 28.0448C143.494 29.6639 142.865 31.218 141.742 32.3716C140.62 33.5252 139.095 34.1858 137.495 34.2108Z" fill="#FF7A59"/>
</svg>
