<svg width="357" height="48" viewBox="0 0 357 48" fill="none" xmlns="http://www.w3.org/2000/svg">
<g clip-path="url(#clip0_0_5038)">
<mask id="mask0_0_5038" style="mask-type:luminance" maskUnits="userSpaceOnUse" x="0" y="0" width="357" height="48">
<path d="M0.577148 0H356.615V48H0.577148V0Z" fill="white"/>
</mask>
<g mask="url(#mask0_0_5038)">
<mask id="mask1_0_5038" style="mask-type:luminance" maskUnits="userSpaceOnUse" x="0" y="0" width="357" height="48">
<path d="M356.615 0H0.577148V48H356.615V0Z" fill="white"/>
</mask>
<g mask="url(#mask1_0_5038)">
<path d="M67.1659 5.69999H71.9772V31.2C71.9772 37.9 69.1866 42.6 62.547 42.6C60.6225 42.6 58.698 42.3 56.7734 41.6V36.7C58.3131 37.4 60.0451 37.7 61.7772 37.7C65.8187 37.7 67.2621 35.2 67.2621 31.5V5.69999H67.1659ZM80.83 3.69999C81.2708 3.65303 81.7161 3.7087 82.1336 3.86296C82.5511 4.01722 82.9303 4.26619 83.2436 4.59179C83.5569 4.91739 83.7965 5.31143 83.9449 5.74529C84.0934 6.17915 84.1469 6.64192 84.1017 7.09999C84.1017 7.98846 83.7621 8.84055 83.1576 9.4688C82.553 10.097 81.7331 10.45 80.8782 10.45C80.0232 10.45 79.2033 10.097 78.5987 9.4688C77.9942 8.84055 77.6546 7.98846 77.6546 7.09999C77.6115 6.65102 77.6633 6.1977 77.8062 5.77168C77.9492 5.34565 78.1799 4.95719 78.4823 4.63343C78.7847 4.30967 79.1515 4.0584 79.557 3.89717C79.9625 3.73595 80.3969 3.66865 80.83 3.69999ZM78.5206 14.5H83.1395V42.3H78.5206V14.5ZM90.0678 14.4H94.5904V19.4C96.13 16.1 98.8244 13.7 104.117 14.1V18.7C98.1508 18.1 94.4942 20 94.4942 25.9V42.3H90.0678V14.4ZM125.672 37.3C124.036 41 120.86 42.9 116.626 42.9C109.506 42.9 105.945 36.6 105.945 28.4C105.945 20.5 109.698 13.9 117.204 13.9C121.053 13.9 124.132 15.7 125.768 19.3V14.4H130.387V42.4H125.768V37.4L125.672 37.3ZM117.877 38.4C122.015 38.4 125.672 35.7 125.672 29.5V27.2C125.672 21.1 122.304 18.3 118.358 18.3C113.162 18.3 110.468 21.9 110.468 28.3C110.468 35.1 113.066 38.4 117.877 38.4ZM157.619 42.9C150.883 42.9 147.707 41.5 144.917 40V35C148.189 36.7 153.289 38 157.907 38C163.2 38 165.221 35.8 165.221 32.6C165.221 29.3 163.296 27.6 156.56 25.9C148.67 23.9 145.109 21.1 145.109 15.1C145.109 9.39999 149.247 5.09999 157.522 5.09999C162.622 5.09999 165.894 6.39999 168.3 7.79999V12.8C164.932 10.9 161.179 9.89999 157.33 9.99999C152.711 9.99999 149.921 11.7 149.921 15C149.921 18 152.23 19.6 158.485 21.2C165.894 23.2 170.032 25.6 170.032 32.2C170.032 38.6 166.375 42.9 157.619 42.9ZM174.17 28.3C174.17 20 178.885 13.9 186.872 13.9C194.955 13.9 199.573 19.9 199.573 28.3C199.573 36.7 194.955 43 186.872 43C178.885 43 174.17 36.8 174.17 28.4V28.3ZM178.692 28.3C178.692 33.6 181.194 38.4 186.872 38.4C192.645 38.4 195.051 33.6 195.051 28.4C195.051 23 192.645 18.4 186.872 18.4C181.194 18.4 178.692 23 178.692 28.4V28.3ZM211.313 14.4H218.241V19H211.313V42.4H206.887V19H202.556V14.5H206.887V11.5C206.887 6.29999 209.773 2.79999 215.451 2.79999C216.413 2.79999 217.568 2.89999 218.53 3.19999V7.69999L215.643 7.39999C212.756 7.39999 211.409 9.09999 211.409 11.6V14.6L211.313 14.4ZM233.83 37.6C234.792 37.6 235.755 37.5 236.717 37.2V42C235.755 42.3 234.792 42.4 233.638 42.4C227.864 42.4 225.17 38.9 225.17 33.7V19H220.743V14.6H225.073V8.59999H229.596V14.6H236.717V19H229.596V33.6C229.596 36.1 231.039 37.7 233.926 37.7L233.83 37.6ZM238.064 14.4H243.164L250.862 38.1L258.753 14.4H263.179L270.973 38.1L278.672 14.4H283.772L273.956 42.4H267.99L263.372 28.8L260.966 20.2L258.56 28.8L253.845 42.3H247.975L238.064 14.4ZM304.941 37.3C303.209 41 299.938 42.9 295.8 42.9C288.679 42.9 285.119 36.6 285.119 28.4C285.119 20.5 288.872 13.9 296.377 13.9C300.226 13.9 303.306 15.7 304.941 19.3V14.4H309.56V42.4H304.941V37.4V37.3ZM297.051 38.4C301.189 38.4 304.941 35.7 304.941 29.5V27.2C304.941 21.1 301.477 18.3 297.628 18.3C292.432 18.3 289.738 21.9 289.738 28.3C289.738 35.1 292.239 38.4 297.051 38.4ZM316.585 14.4H321.011V19.4C322.551 16.1 325.245 13.7 330.538 14.1V18.7C324.572 18.1 320.915 20 320.915 25.9V42.3H316.585V14.4ZM346.8 42.9C336.696 42.9 332.366 36.9 332.366 28.3C332.366 19.9 336.792 13.9 344.972 13.9C353.247 13.9 356.519 19.9 356.519 28.3V30.5H336.985C337.658 35.2 340.641 38.3 346.896 38.3C349.783 38.3 352.477 37.8 355.075 36.8V41.2C352.473 42.3989 349.646 42.9796 346.8 42.9ZM336.985 26.4H351.9C351.611 21.2 349.398 18.3 344.779 18.3C339.968 18.3 337.466 21.5 336.985 26.3V26.4Z" fill="#253858"/>
<path d="M44.7452 22.7L24.8263 2L22.9018 0L7.89047 15.5L1.15462 22.7C0.836643 23.0522 0.659668 23.517 0.659668 24C0.659668 24.483 0.836643 24.9478 1.15462 25.3L14.7225 39.5L22.9018 48L37.9131 32.5L38.1056 32.2L44.7452 25.3C45.0632 24.9478 45.2401 24.483 45.2401 24C45.2401 23.517 45.0632 23.0522 44.7452 22.7ZM22.9018 31L16.0697 24L22.9018 16.9L29.7339 24L22.9018 31.1V31Z" fill="#2684FF"/>
<path d="M22.9019 16.9C20.7862 14.6568 19.6011 11.641 19.6011 8.49997C19.6011 5.35894 20.7862 2.34312 22.9019 0.0999756L7.89062 15.6L16.0699 24L22.9019 16.9Z" fill="url(#paint0_linear_0_5038)"/>
<path d="M29.8302 24L22.8057 31C24.9505 33.2475 26.1539 36.2847 26.1539 39.45C26.1539 42.6154 24.9505 45.6525 22.8057 47.9L37.817 32.3L29.6377 23.9L29.8302 24Z" fill="url(#paint1_linear_0_5038)"/>
</g>
</g>
</g>
<defs>
<linearGradient id="paint0_linear_0_5038" x1="21.651" y1="9.69997" x2="10.067" y2="14.4772" gradientUnits="userSpaceOnUse">
<stop offset="0.2" stop-color="#0052CC"/>
<stop offset="1" stop-color="#2684FF"/>
</linearGradient>
<linearGradient id="paint1_linear_0_5038" x1="24.2491" y1="38.2" x2="35.8287" y2="33.5182" gradientUnits="userSpaceOnUse">
<stop offset="0.2" stop-color="#0052CC"/>
<stop offset="1" stop-color="#2684FF"/>
</linearGradient>
<clipPath id="clip0_0_5038">
<rect width="357" height="48" fill="white"/>
</clipPath>
</defs>
</svg>
