<svg width="163" height="48" viewBox="0 0 163 48" fill="none" xmlns="http://www.w3.org/2000/svg">
<g clip-path="url(#clip0_0_4870)">
<mask id="mask0_0_4870" style="mask-type:luminance" maskUnits="userSpaceOnUse" x="0" y="0" width="163" height="48">
<path d="M0 0H162.14V48H0V0Z" fill="white"/>
</mask>
<g mask="url(#mask0_0_4870)">
<mask id="mask1_0_4870" style="mask-type:luminance" maskUnits="userSpaceOnUse" x="0" y="0" width="163" height="48">
<path d="M162.14 0H0V48H162.14V0Z" fill="white"/>
</mask>
<g mask="url(#mask1_0_4870)">
<mask id="path-3-inside-1_0_4870" fill="white">
<path d="M92.0402 9.47001C92.8984 9.4704 93.7229 9.13648 94.339 8.53908C94.9551 7.94167 95.3142 7.12777 95.3402 6.27C95.3297 5.40254 94.9791 4.57386 94.3638 3.9623C93.7485 3.35074 92.9177 3.00518 92.0502 3C91.1924 3.02079 90.3764 3.3749 89.7753 3.98722C89.1741 4.59955 88.8352 5.42194 88.8302 6.28C88.8302 6.70192 88.9136 7.11968 89.0757 7.50923C89.2378 7.89878 89.4753 8.25244 89.7745 8.54985C90.0738 8.84726 90.4289 9.08255 90.8195 9.24218C91.21 9.40182 91.6283 9.48264 92.0502 9.48L92.0402 9.47001ZM114.53 12.54H122.51V13.17C122.07 13.24 121.64 13.39 121.24 13.6C120.52 13.94 119.06 15.58 117.94 18.34C116.04 23.12 114.04 28.78 111.95 35.26L111.17 37.71C110.83 38.82 110.54 39.55 110.39 39.98C110.25 40.42 110.05 41.09 109.71 41.91C109.51 42.53 109.27 43.13 108.97 43.71C108.58 44.43 107.85 45.91 107.27 46.36C106.736 46.8628 106.108 47.2543 105.421 47.5119C104.734 47.7694 104.003 47.8877 103.27 47.86C99.9702 47.86 97.4802 45.4 97.4402 42.5C97.4402 40.52 98.7002 39.2 100.6 39.2C101.96 39.2 103.18 39.95 103.18 41.48C103.18 42.59 102.06 43.75 102.06 44.33C102.06 45.83 102.93 46.54 104.64 46.54C106 46.54 107.11 45.67 107.94 43.94C109.07 41.95 109.16 39.78 108.24 37.36L101.24 18.95C99.6302 14.7 98.4102 13.3 96.9002 13.15V12.52H107.95V13.15C106.63 13.29 105.95 14.07 105.95 15.47C105.95 16.48 106.35 18.03 107.07 20.01L108.39 23.59C109.89 27.45 111.11 30.84 111.74 32.96C112.983 29.0496 114.317 25.1686 115.74 21.32C116.66 18.8 117.1 17.02 117.1 15.95C117.1 14.07 116.08 13.2 114.52 13.2L114.53 12.54ZM37.6902 36.08C36.2802 35.83 35.0602 34.58 35.0602 31.92V-0.119995L27.0302 1.62V2.3C28.3902 2.15 29.7502 3.36 29.7502 5.92V31.92C29.7502 34.43 28.3902 35.88 27.0302 36.08C26.9002 36.1 26.7702 36.12 26.6502 36.12C25.9552 36.1695 25.2585 36.0494 24.6202 35.77C23.4625 35.2325 22.5038 34.3437 21.8802 33.23L18.1602 27.33C17.3761 26.087 16.2129 25.1291 14.8425 24.5979C13.4722 24.0667 11.9673 23.9903 10.5502 24.38L14.7302 19.78C17.8902 16.31 20.8202 14.08 23.5902 13.17V12.54H14.3902V13.17C16.7702 14.09 16.6202 16.12 13.8902 19.31L7.99021 26.12V-0.119995L-0.0197852 1.62V2.3C1.33021 2.3 2.69021 3.65 2.69021 6V31.91C2.69021 34.76 1.38021 35.87 -0.0297852 36.07V36.7H10.6402V36.07C8.88021 35.83 8.00021 34.48 8.00021 31.92V27.14L10.2802 24.63L15.8202 33.66C17.1302 35.84 18.3502 36.71 20.3002 36.71H38.8302V36.21C38.8302 36.21 38.3002 36.18 37.6802 36.08H37.6902ZM59.7902 33.02V22.22C59.6902 15.14 56.7002 11.92 49.8702 11.92C47.6902 11.91 45.5702 12.62 43.8402 13.95C42.0402 15.31 41.1602 16.85 41.1602 18.65C41.1602 20.38 42.1302 21.69 43.7402 21.69C45.4402 21.69 46.6602 20.72 46.6602 19.37C46.6602 18.35 45.9802 16.95 45.9802 15.99C45.9802 14.24 47.2902 12.75 49.5802 12.75C52.5002 12.75 54.5902 14.92 54.5902 19.75V22.65L52.1602 23.23C49.9985 23.6304 47.8792 24.2331 45.8302 25.03C43.3002 26 41.9402 26.92 40.7702 28.66C40.1966 29.4997 39.8899 30.4931 39.8902 31.51C39.8902 35.51 42.7202 37.36 46.6602 37.36C49.7702 37.36 53.0902 35.71 54.5902 32.62C54.6102 33.6 54.8502 34.56 55.2902 35.43C56.9302 38.75 62.3902 36.79 62.3902 36.79V36.16C60.0002 36.53 59.8102 33.7 59.7902 33.02ZM54.5902 29.67C54.5902 31.27 54.0102 32.57 52.8502 33.49C51.8853 34.3551 50.6455 34.8511 49.3502 34.89C46.9502 34.89 45.4002 33.35 45.4002 30.49C45.4002 29.14 46.1402 27.89 46.7602 27.16C47.2602 26.66 47.8302 26.26 48.4602 25.96C49.2902 25.52 49.7002 25.29 50.2602 25.03L52.5002 24.21C53.6102 23.78 54.3002 23.54 54.5902 23.39V29.67ZM162.11 12.54H143.18V-0.119995H162.11L158.14 6.21L162.11 12.54ZM123.64 33.63C121.291 31.2274 119.992 27.99 120.03 24.63C120.003 22.972 120.308 21.3254 120.926 19.7868C121.544 18.2481 122.464 16.8485 123.63 15.67C124.745 14.4796 126.093 13.5306 127.589 12.8819C129.085 12.2331 130.699 11.8984 132.33 11.8984C133.961 11.8984 135.575 12.2331 137.071 12.8819C138.568 13.5306 139.915 14.4796 141.03 15.67C142.214 16.8391 143.148 18.2356 143.777 19.7755C144.406 21.3154 144.717 22.9668 144.69 24.63C144.713 26.2978 144.402 27.9533 143.775 29.499C143.148 31.0447 142.218 32.4492 141.04 33.63C139.93 34.8186 138.586 35.7638 137.092 36.4058C135.598 37.0479 133.986 37.3728 132.36 37.36C130.727 37.3802 129.108 37.0588 127.606 36.4165C126.104 35.7741 124.754 34.825 123.64 33.63ZM136.74 16.07C135.79 14.2 134.52 13.11 133.04 12.81C130.03 12.21 127.37 15.28 126.37 20.17C125.95 22.37 125.85 24.6 126.07 26.82C126.29 29.05 126.91 31.22 127.9 33.22C128.87 35.08 130.13 36.18 131.62 36.47C134.62 37.07 137.36 33.87 138.36 28.93C139.19 24.81 138.77 19.79 136.74 16.07Z"/>
</mask>
<path d="M92.0402 9.47001C92.8984 9.4704 93.7229 9.13648 94.339 8.53908C94.9551 7.94167 95.3142 7.12777 95.3402 6.27C95.3297 5.40254 94.9791 4.57386 94.3638 3.9623C93.7485 3.35074 92.9177 3.00518 92.0502 3C91.1924 3.02079 90.3764 3.3749 89.7753 3.98722C89.1741 4.59955 88.8352 5.42194 88.8302 6.28C88.8302 6.70192 88.9136 7.11968 89.0757 7.50923C89.2378 7.89878 89.4753 8.25244 89.7745 8.54985C90.0738 8.84726 90.4289 9.08255 90.8195 9.24218C91.21 9.40182 91.6283 9.48264 92.0502 9.48L92.0402 9.47001ZM114.53 12.54H122.51V13.17C122.07 13.24 121.64 13.39 121.24 13.6C120.52 13.94 119.06 15.58 117.94 18.34C116.04 23.12 114.04 28.78 111.95 35.26L111.17 37.71C110.83 38.82 110.54 39.55 110.39 39.98C110.25 40.42 110.05 41.09 109.71 41.91C109.51 42.53 109.27 43.13 108.97 43.71C108.58 44.43 107.85 45.91 107.27 46.36C106.736 46.8628 106.108 47.2543 105.421 47.5119C104.734 47.7694 104.003 47.8877 103.27 47.86C99.9702 47.86 97.4802 45.4 97.4402 42.5C97.4402 40.52 98.7002 39.2 100.6 39.2C101.96 39.2 103.18 39.95 103.18 41.48C103.18 42.59 102.06 43.75 102.06 44.33C102.06 45.83 102.93 46.54 104.64 46.54C106 46.54 107.11 45.67 107.94 43.94C109.07 41.95 109.16 39.78 108.24 37.36L101.24 18.95C99.6302 14.7 98.4102 13.3 96.9002 13.15V12.52H107.95V13.15C106.63 13.29 105.95 14.07 105.95 15.47C105.95 16.48 106.35 18.03 107.07 20.01L108.39 23.59C109.89 27.45 111.11 30.84 111.74 32.96C112.983 29.0496 114.317 25.1686 115.74 21.32C116.66 18.8 117.1 17.02 117.1 15.95C117.1 14.07 116.08 13.2 114.52 13.2L114.53 12.54ZM37.6902 36.08C36.2802 35.83 35.0602 34.58 35.0602 31.92V-0.119995L27.0302 1.62V2.3C28.3902 2.15 29.7502 3.36 29.7502 5.92V31.92C29.7502 34.43 28.3902 35.88 27.0302 36.08C26.9002 36.1 26.7702 36.12 26.6502 36.12C25.9552 36.1695 25.2585 36.0494 24.6202 35.77C23.4625 35.2325 22.5038 34.3437 21.8802 33.23L18.1602 27.33C17.3761 26.087 16.2129 25.1291 14.8425 24.5979C13.4722 24.0667 11.9673 23.9903 10.5502 24.38L14.7302 19.78C17.8902 16.31 20.8202 14.08 23.5902 13.17V12.54H14.3902V13.17C16.7702 14.09 16.6202 16.12 13.8902 19.31L7.99021 26.12V-0.119995L-0.0197852 1.62V2.3C1.33021 2.3 2.69021 3.65 2.69021 6V31.91C2.69021 34.76 1.38021 35.87 -0.0297852 36.07V36.7H10.6402V36.07C8.88021 35.83 8.00021 34.48 8.00021 31.92V27.14L10.2802 24.63L15.8202 33.66C17.1302 35.84 18.3502 36.71 20.3002 36.71H38.8302V36.21C38.8302 36.21 38.3002 36.18 37.6802 36.08H37.6902ZM59.7902 33.02V22.22C59.6902 15.14 56.7002 11.92 49.8702 11.92C47.6902 11.91 45.5702 12.62 43.8402 13.95C42.0402 15.31 41.1602 16.85 41.1602 18.65C41.1602 20.38 42.1302 21.69 43.7402 21.69C45.4402 21.69 46.6602 20.72 46.6602 19.37C46.6602 18.35 45.9802 16.95 45.9802 15.99C45.9802 14.24 47.2902 12.75 49.5802 12.75C52.5002 12.75 54.5902 14.92 54.5902 19.75V22.65L52.1602 23.23C49.9985 23.6304 47.8792 24.2331 45.8302 25.03C43.3002 26 41.9402 26.92 40.7702 28.66C40.1966 29.4997 39.8899 30.4931 39.8902 31.51C39.8902 35.51 42.7202 37.36 46.6602 37.36C49.7702 37.36 53.0902 35.71 54.5902 32.62C54.6102 33.6 54.8502 34.56 55.2902 35.43C56.9302 38.75 62.3902 36.79 62.3902 36.79V36.16C60.0002 36.53 59.8102 33.7 59.7902 33.02ZM54.5902 29.67C54.5902 31.27 54.0102 32.57 52.8502 33.49C51.8853 34.3551 50.6455 34.8511 49.3502 34.89C46.9502 34.89 45.4002 33.35 45.4002 30.49C45.4002 29.14 46.1402 27.89 46.7602 27.16C47.2602 26.66 47.8302 26.26 48.4602 25.96C49.2902 25.52 49.7002 25.29 50.2602 25.03L52.5002 24.21C53.6102 23.78 54.3002 23.54 54.5902 23.39V29.67ZM162.11 12.54H143.18V-0.119995H162.11L158.14 6.21L162.11 12.54ZM123.64 33.63C121.291 31.2274 119.992 27.99 120.03 24.63C120.003 22.972 120.308 21.3254 120.926 19.7868C121.544 18.2481 122.464 16.8485 123.63 15.67C124.745 14.4796 126.093 13.5306 127.589 12.8819C129.085 12.2331 130.699 11.8984 132.33 11.8984C133.961 11.8984 135.575 12.2331 137.071 12.8819C138.568 13.5306 139.915 14.4796 141.03 15.67C142.214 16.8391 143.148 18.2356 143.777 19.7755C144.406 21.3154 144.717 22.9668 144.69 24.63C144.713 26.2978 144.402 27.9533 143.775 29.499C143.148 31.0447 142.218 32.4492 141.04 33.63C139.93 34.8186 138.586 35.7638 137.092 36.4058C135.598 37.0479 133.986 37.3728 132.36 37.36C130.727 37.3802 129.108 37.0588 127.606 36.4165C126.104 35.7741 124.754 34.825 123.64 33.63ZM136.74 16.07C135.79 14.2 134.52 13.11 133.04 12.81C130.03 12.21 127.37 15.28 126.37 20.17C125.95 22.37 125.85 24.6 126.07 26.82C126.29 29.05 126.91 31.22 127.9 33.22C128.87 35.08 130.13 36.18 131.62 36.47C134.62 37.07 137.36 33.87 138.36 28.93C139.19 24.81 138.77 19.79 136.74 16.07Z" fill="#18181B" stroke="#18181B" stroke-width="2" mask="url(#path-3-inside-1_0_4870)"/>
<path d="M94.3599 13.04V31.9199C94.3599 33.342 94.6664 34.4413 95.2085 35.2255C95.5071 35.6575 95.8711 35.9831 96.2749 36.2099H87.9751C88.3845 35.9843 88.7621 35.6616 89.0767 35.2343C89.6532 34.4512 90.0005 33.3491 90.0005 31.9199V15.7099C90.0005 14.978 89.8077 14.396 89.4937 13.9443C89.1932 13.5122 88.8003 13.228 88.4214 13.04H94.3599ZM69.8452 13.04C69.7522 13.0906 69.6622 13.1455 69.5776 13.2079C69.1494 13.5243 68.8755 13.9673 68.7456 14.5204C68.498 15.5748 68.7653 17.0703 69.4243 19.0732V19.0742C69.7583 20.1065 70.604 22.3911 71.8608 25.8124V25.8134C73.1245 29.2262 73.9001 31.94 74.2417 33.0654L74.728 34.6689L75.1997 33.0605C75.534 31.9199 75.1883 32.5856 80.5386 18.1347C81.0868 16.6689 81.1103 15.3846 80.5923 14.3935C80.2777 13.7919 79.7858 13.3435 79.1724 13.04H84.7935C84.1809 13.302 83.6285 13.6867 83.1714 14.1718C82.1196 15.2561 81.2924 16.5372 80.7358 17.9413C80.4027 18.6651 79.0386 22.4785 77.6255 26.4951C76.2906 30.2893 74.8978 34.3107 74.2446 36.2099H71.2612C70.4373 33.6992 68.3618 27.5358 66.5649 22.9863L64.8667 18.5898C64.248 16.8779 63.5579 15.5131 62.7905 14.5234C62.2837 13.8698 61.7304 13.3662 61.1304 13.04H69.8452Z" fill="#18181B" stroke="#18181B"/>
</g>
</g>
</g>
<defs>
<clipPath id="clip0_0_4870">
<rect width="163" height="48" fill="white"/>
</clipPath>
</defs>
</svg>
