<svg width="151" height="48" viewBox="0 0 151 48" fill="none" xmlns="http://www.w3.org/2000/svg">
<g clip-path="url(#clip0_0_4557)">
<path d="M23.511 47.0069C17.2755 47.0069 11.2954 44.5307 6.8862 40.1229C2.47704 35.7151 0 29.737 0 23.5034C0 17.2699 2.47704 11.2918 6.8862 6.884C11.2954 2.47625 17.2755 0 23.511 0C29.7465 0 35.7266 2.47625 40.1357 6.884C44.5449 11.2918 47.0219 17.2699 47.0219 23.5034C47.0219 29.737 44.5449 35.7151 40.1357 40.1229C35.7266 44.5307 29.7465 47.0069 23.511 47.0069ZM23.511 10.5103C20.0419 10.5103 16.715 11.888 14.262 14.3402C11.809 16.7924 10.4309 20.1183 10.4309 23.5862C10.4309 27.0541 11.809 30.38 14.262 32.8322C16.715 35.2844 20.0419 36.6621 23.511 36.6621C26.98 36.6621 30.307 35.2844 32.76 32.8322C35.2129 30.38 36.591 27.0541 36.591 23.5862C36.591 20.1183 35.2129 16.7924 32.76 14.3402C30.307 11.888 26.98 10.5103 23.511 10.5103Z" fill="#2B33FF"/>
<path d="M141.148 17.9624C144.529 17.9624 146.837 19.2063 148.305 21.1372C149.695 22.9665 150.371 25.4643 150.417 28.2358V28.8003C150.417 31.7131 149.748 34.4289 148.271 36.4038C146.811 38.3571 144.522 39.6382 141.148 39.6382C137.648 39.6381 135.42 38.3778 134.036 36.2261L133.115 34.7944V47.5005H126.747V18.6245H133.115V22.6714L134.031 21.2983C135.415 19.224 137.646 17.9625 141.148 17.9624ZM85.1855 17.9624C89.5883 17.9624 92.5052 19.3312 94.3262 21.3267C96.1555 23.3315 96.9385 26.0334 96.9385 28.8003C96.9384 31.5671 96.1554 34.2682 94.3262 36.2729C92.5053 38.2685 89.5885 39.6382 85.1855 39.6382C80.7379 39.6381 77.8232 38.2871 76.0146 36.3042C74.1978 34.3121 73.4336 31.6126 73.4336 28.8003C73.4336 26.0335 74.2157 23.3314 76.0449 21.3267C77.8658 19.3312 80.7828 17.9625 85.1855 17.9624ZM111.512 17.9624C115.915 17.9624 118.831 19.3311 120.652 21.3267C122.482 23.3315 123.264 26.0334 123.264 28.8003C123.264 31.567 122.481 34.2682 120.652 36.2729C118.831 38.2685 115.915 39.6382 111.512 39.6382C107.064 39.6382 104.148 38.2872 102.34 36.3042C100.523 34.3122 99.7598 31.6125 99.7598 28.8003C99.7598 26.0334 100.542 23.3315 102.371 21.3267C104.192 19.3312 107.109 17.9624 111.512 17.9624ZM69.7021 10.1001V38.9761H63.334V10.1001H69.7021ZM85.1855 22.6724C83.404 22.6724 82.0007 23.0078 81.0693 24.0366C80.152 25.0502 79.8018 26.6213 79.8018 28.8003C79.8018 30.9406 80.1531 32.5075 81.0674 33.5298C81.9962 34.5683 83.3969 34.9272 85.1855 34.9272C86.9674 34.9272 88.3713 34.5921 89.3027 33.563C90.22 32.5494 90.5703 30.9791 90.5703 28.8003C90.5703 26.6598 90.219 25.0921 89.3047 24.0698C88.3758 23.0314 86.9743 22.6724 85.1855 22.6724ZM111.512 22.6724C109.73 22.6724 108.326 23.0075 107.395 24.0366C106.477 25.0502 106.127 26.6213 106.127 28.8003C106.127 30.9348 106.456 32.5039 107.359 33.5278C108.28 34.5704 109.685 34.9272 111.512 34.9272C113.294 34.9272 114.697 34.592 115.628 33.563C116.545 32.5494 116.895 30.9792 116.896 28.8003C116.896 26.6598 116.544 25.0921 115.63 24.0698C114.701 23.0316 113.3 22.6724 111.512 22.6724ZM138.748 22.6724C136.774 22.6724 135.335 23.1445 134.413 24.2358C133.509 25.3064 133.198 26.8652 133.198 28.8003C133.198 30.7413 133.532 32.2981 134.446 33.3667C135.377 34.4539 136.812 34.9272 138.748 34.9272C140.595 34.9272 141.993 34.4985 142.905 33.4282C143.8 32.3784 144.132 30.8191 144.132 28.8003C144.132 26.7873 143.823 25.2259 142.938 24.1743C142.034 23.0999 140.633 22.6724 138.748 22.6724Z" fill="#18181B" stroke="#18181B"/>
</g>
<defs>
<clipPath id="clip0_0_4557">
<rect width="151" height="48" fill="white"/>
</clipPath>
</defs>
</svg>
