<svg width="213" height="48" viewBox="0 0 213 48" fill="none" xmlns="http://www.w3.org/2000/svg">
<g clip-path="url(#clip0_0_4509)">
<mask id="mask0_0_4509" style="mask-type:luminance" maskUnits="userSpaceOnUse" x="0" y="0" width="213" height="49">
<path d="M0 0.000366211H213V48.0004H0V0.000366211Z" fill="white"/>
</mask>
<g mask="url(#mask0_0_4509)">
<mask id="mask1_0_4509" style="mask-type:luminance" maskUnits="userSpaceOnUse" x="0" y="0" width="213" height="49">
<path d="M213 0.000366211H0V48.0004H213V0.000366211Z" fill="white"/>
</mask>
<g mask="url(#mask1_0_4509)">
<mask id="path-3-inside-1_0_4509" fill="white">
<path d="M12.7 31.7304C12.7283 31.7608 12.7464 31.7994 12.7517 31.8406C12.7571 31.8818 12.7495 31.9237 12.73 31.9604C12.6304 32.1217 12.4878 32.2521 12.3182 32.3368C12.1487 32.4216 11.9588 32.4575 11.77 32.4404C11.4314 32.4074 11.1184 32.246 10.8952 31.9893C10.672 31.7327 10.5556 31.4002 10.57 31.0604C10.57 30.6104 10.66 30.1504 10.83 29.7204C10.9185 29.5063 10.9458 29.2719 10.9089 29.0433C10.872 28.8146 10.7722 28.6007 10.6208 28.4254C10.4694 28.2502 10.2722 28.1204 10.0514 28.0507C9.83051 27.9809 9.59461 27.9739 9.36999 28.0304C9.20589 28.0653 9.05048 28.1328 8.91304 28.229C8.7756 28.3252 8.65893 28.4481 8.56999 28.5904C8.44999 28.8004 8.34999 29.0404 8.27999 29.2804L8.24999 29.3804C8.13999 29.6804 7.95999 29.7604 7.84999 29.7504C7.78999 29.7404 7.70999 29.7004 7.64999 29.5704C7.58635 29.1706 7.61548 28.7616 7.73513 28.375C7.85477 27.9883 8.06172 27.6343 8.33999 27.3404C8.57744 27.0827 8.87481 26.8875 9.20572 26.7723C9.53664 26.657 9.89088 26.6252 10.237 26.6796C10.5832 26.7339 10.9106 26.8729 11.1902 27.0841C11.4698 27.2953 11.693 27.5723 11.84 27.8904C11.9968 28.2889 12.0595 28.7182 12.0231 29.145C11.9866 29.5717 11.8521 29.9842 11.63 30.3504L11.55 30.5204C11.4715 30.664 11.4287 30.8243 11.4252 30.9879C11.4217 31.1515 11.4577 31.3136 11.53 31.4604C11.5918 31.5478 11.6745 31.6183 11.7706 31.6655C11.8667 31.7126 11.973 31.7349 12.08 31.7304C12.18 31.7304 12.28 31.7204 12.38 31.6904C12.5 31.6604 12.63 31.6304 12.71 31.7304M43.83 32.5104C43.7608 33.9565 43.4568 35.3818 42.93 36.7304C40.28 43.0804 33.97 46.6204 26.46 46.3904C19.46 46.1904 13.48 42.4804 10.86 36.4404C9.21232 36.3908 7.63701 35.7522 6.41999 34.6404C5.16059 33.5684 4.35031 32.062 4.14999 30.4204C4.01803 29.2878 4.15507 28.14 4.54999 27.0704L3.09999 25.8204C-3.63001 20.1404 17.39 -3.27963 24.1 2.60037L26.39 4.85037L27.64 4.32037C33.54 1.87037 38.32 3.05037 38.33 6.96037C38.33 8.99037 37.04 11.3604 34.97 13.5104C35.7983 14.3495 36.3855 15.3961 36.67 16.5404C36.9 17.3404 37.02 18.1604 37.03 18.9904C37.07 19.8204 37.11 21.7504 37.11 21.7804L37.94 22.0104C39.1432 22.2745 40.2629 22.8308 41.2 23.6304C41.7 24.1104 42.02 24.7404 42.13 25.4304C42.25 26.3104 42.03 27.2104 41.51 27.9404C41.65 28.2504 41.77 28.5704 41.87 28.8904L42.19 29.9904C42.83 29.9904 43.83 30.7304 43.83 32.5104ZM14.13 29.0204C13.68 26.0604 11.68 25.0204 10.33 24.9404C9.97999 24.9204 9.62999 24.9404 9.29999 25.0104C6.87999 25.5104 5.50999 27.5704 5.77999 30.2504C5.97537 31.4566 6.57259 32.5613 7.47476 33.3854C8.37692 34.2096 9.53109 34.7046 10.75 34.7904C10.98 34.7904 11.21 34.7804 11.45 34.7404C13.9 34.3204 14.55 31.6404 14.14 29.0204H14.13ZM18.28 10.2004C20.3309 8.51494 22.5184 7.00306 24.82 5.68037C24.82 5.68037 23 3.55037 22.44 3.40037C19.04 2.48037 11.71 7.55037 7.01999 14.2604C5.11999 16.9604 2.40999 21.7704 3.70999 24.2404C4.16999 24.8004 4.68999 25.3004 5.25999 25.7404C6.12456 24.5185 7.42943 23.6796 8.89999 23.4004C10.7455 18.2201 13.9885 13.6515 18.27 10.2004H18.28ZM25.66 33.6604C25.7487 34.0567 25.9435 34.4215 26.2236 34.7157C26.5037 35.0098 26.8585 35.2223 27.25 35.3304C27.65 35.4804 28.07 35.5904 28.5 35.6704C33.87 36.5904 38.9 33.5104 40.03 32.7404C40.12 32.6804 40.17 32.7404 40.1 32.8404L40 33.0004C38.6 34.7904 34.89 36.8604 30.04 36.8604C27.94 36.8604 25.82 36.1104 25.04 34.9604C23.84 33.1904 24.99 30.5904 26.99 30.8604L27.87 30.9604C30.98 31.2604 34.12 30.7604 36.99 29.5004C39.72 28.2304 40.75 26.8304 40.59 25.7004C40.542 25.3485 40.3805 25.022 40.13 24.7704C39.3809 24.1536 38.4913 23.7312 37.54 23.5404C37.11 23.4204 36.81 23.3404 36.5 23.2404C35.93 23.0504 35.65 22.9004 35.59 21.8404L35.45 19.0804C35.4 17.9104 35.26 16.3104 34.27 15.6404C34.0166 15.4745 33.7226 15.3811 33.42 15.3704C33.2517 15.3606 33.083 15.3775 32.92 15.4204C32.42 15.5404 31.95 15.8004 31.59 16.1704C31.1252 16.5895 30.5789 16.908 29.9852 17.1059C29.3915 17.3038 28.7633 17.3768 28.14 17.3204C27.45 17.2904 26.71 17.1804 25.87 17.1204L25.37 17.1004C24.2864 17.1327 23.2501 17.5518 22.4486 18.2818C21.6471 19.0118 21.1332 20.0045 21 21.0804C20.52 24.4104 22.93 26.1404 23.62 27.1504C23.7323 27.2756 23.8023 27.4331 23.82 27.6004C23.8012 27.7865 23.7117 27.9583 23.57 28.0804C22.4961 29.2818 21.7837 30.7623 21.5148 32.3511C21.2458 33.94 21.4314 35.5724 22.05 37.0604C23.8 41.1804 29.25 43.0904 34.58 41.3604C35.28 41.1204 35.95 40.8404 36.6 40.4904C37.7666 39.9133 38.8174 39.127 39.7 38.1704C41.0712 36.7933 41.9739 35.0194 42.28 33.1004C42.44 32.0404 42.2 31.6304 41.88 31.4304C41.6541 31.3076 41.3942 31.2619 41.14 31.3004C41 30.4704 40.76 29.6504 40.43 28.8804C38.91 30.0204 37.19 30.8804 35.36 31.4104C33.16 32.0304 30.86 32.2804 28.58 32.1404C27.11 32.0204 26.13 31.5904 25.77 32.7804C27.99 33.5304 30.35 33.7704 32.68 33.4804C32.7042 33.4784 32.7285 33.4832 32.75 33.4942C32.7716 33.5053 32.7897 33.5222 32.8022 33.543C32.8147 33.5639 32.8211 33.5878 32.8207 33.612C32.8203 33.6363 32.8131 33.66 32.8 33.6804C32.7856 33.7028 32.7646 33.7202 32.74 33.7304C32.74 33.7304 30.01 35.0104 25.67 33.6604H25.66ZM17.66 14.3404C19.584 12.9895 21.768 12.0537 24.0732 11.5923C26.3783 11.1309 28.7543 11.1541 31.05 11.6604C31.14 11.6804 31.19 11.5304 31.11 11.4904C29.8396 10.8221 28.4346 10.4495 27 10.4004C26.9877 10.3933 26.9776 10.3831 26.9705 10.3708C26.9635 10.3585 26.9599 10.3445 26.96 10.3304L26.98 10.3004C27.2076 9.99145 27.4768 9.7155 27.78 9.48037C27.7835 9.46745 27.7837 9.45386 27.7806 9.44084C27.7775 9.42781 27.7712 9.41577 27.7623 9.40582C27.7533 9.39587 27.742 9.38832 27.7294 9.38388C27.7167 9.37943 27.7032 9.37823 27.69 9.38037C25.935 9.55407 24.2492 10.1549 22.78 11.1304C22.7648 11.1296 22.7501 11.1244 22.7377 11.1156C22.7253 11.1067 22.7157 11.0945 22.71 11.0804V11.0304C22.826 10.5762 23.0008 10.1392 23.23 9.73037C23.2295 9.71884 23.2261 9.70762 23.2202 9.6977C23.2143 9.68779 23.206 9.6795 23.1961 9.67356C23.1862 9.66762 23.175 9.66422 23.1634 9.66366C23.1519 9.66311 23.1404 9.66541 23.13 9.67037C21.0034 10.8482 19.1118 12.4075 17.55 14.2704C17.5515 14.2836 17.5563 14.2963 17.5639 14.3072C17.5715 14.3181 17.5818 14.327 17.5937 14.3329C17.6056 14.3389 17.6189 14.3418 17.6322 14.3413C17.6455 14.3409 17.6585 14.3371 17.67 14.3304L17.66 14.3404ZM31.81 25.6504C31.9559 25.7456 32.132 25.783 32.304 25.7552C32.476 25.7275 32.6314 25.6366 32.74 25.5004C32.88 25.2304 32.68 24.8804 32.31 24.7004C32.1621 24.6033 31.9829 24.5659 31.8085 24.5956C31.6341 24.6253 31.4775 24.7199 31.37 24.8604C31.24 25.1204 31.44 25.4704 31.82 25.6504H31.81ZM32.98 21.4004C33.07 21.8704 33.26 22.3204 33.55 22.7004C33.85 22.6704 34.15 22.6704 34.45 22.7004C34.62 22.1804 34.63 21.6304 34.49 21.1004C34.28 20.1304 33.99 19.5404 33.39 19.6304C32.79 19.7304 32.76 20.4304 32.98 21.4004ZM34.25 23.6404C34.0993 23.5964 33.9386 23.6009 33.7905 23.6531C33.6425 23.7053 33.5146 23.8027 33.4248 23.9315C33.335 24.0603 33.2879 24.214 33.2901 24.3709C33.2923 24.5279 33.3437 24.6802 33.4371 24.8064C33.5305 24.9326 33.6611 25.0264 33.8105 25.0744C33.96 25.1224 34.1207 25.1224 34.2701 25.0742C34.4195 25.0261 34.5501 24.9322 34.6433 24.806C34.7366 24.6797 34.7879 24.5273 34.79 24.3704C34.8105 24.2027 34.7659 24.0336 34.6655 23.8978C34.565 23.7619 34.4163 23.6698 34.25 23.6404Z"/>
</mask>
<path d="M12.7 31.7304C12.7283 31.7608 12.7464 31.7994 12.7517 31.8406C12.7571 31.8818 12.7495 31.9237 12.73 31.9604C12.6304 32.1217 12.4878 32.2521 12.3182 32.3368C12.1487 32.4216 11.9588 32.4575 11.77 32.4404C11.4314 32.4074 11.1184 32.246 10.8952 31.9893C10.672 31.7327 10.5556 31.4002 10.57 31.0604C10.57 30.6104 10.66 30.1504 10.83 29.7204C10.9185 29.5063 10.9458 29.2719 10.9089 29.0433C10.872 28.8146 10.7722 28.6007 10.6208 28.4254C10.4694 28.2502 10.2722 28.1204 10.0514 28.0507C9.83051 27.9809 9.59461 27.9739 9.36999 28.0304C9.20589 28.0653 9.05048 28.1328 8.91304 28.229C8.7756 28.3252 8.65893 28.4481 8.56999 28.5904C8.44999 28.8004 8.34999 29.0404 8.27999 29.2804L8.24999 29.3804C8.13999 29.6804 7.95999 29.7604 7.84999 29.7504C7.78999 29.7404 7.70999 29.7004 7.64999 29.5704C7.58635 29.1706 7.61548 28.7616 7.73513 28.375C7.85477 27.9883 8.06172 27.6343 8.33999 27.3404C8.57744 27.0827 8.87481 26.8875 9.20572 26.7723C9.53664 26.657 9.89088 26.6252 10.237 26.6796C10.5832 26.7339 10.9106 26.8729 11.1902 27.0841C11.4698 27.2953 11.693 27.5723 11.84 27.8904C11.9968 28.2889 12.0595 28.7182 12.0231 29.145C11.9866 29.5717 11.8521 29.9842 11.63 30.3504L11.55 30.5204C11.4715 30.664 11.4287 30.8243 11.4252 30.9879C11.4217 31.1515 11.4577 31.3136 11.53 31.4604C11.5918 31.5478 11.6745 31.6183 11.7706 31.6655C11.8667 31.7126 11.973 31.7349 12.08 31.7304C12.18 31.7304 12.28 31.7204 12.38 31.6904C12.5 31.6604 12.63 31.6304 12.71 31.7304M43.83 32.5104C43.7608 33.9565 43.4568 35.3818 42.93 36.7304C40.28 43.0804 33.97 46.6204 26.46 46.3904C19.46 46.1904 13.48 42.4804 10.86 36.4404C9.21232 36.3908 7.63701 35.7522 6.41999 34.6404C5.16059 33.5684 4.35031 32.062 4.14999 30.4204C4.01803 29.2878 4.15507 28.14 4.54999 27.0704L3.09999 25.8204C-3.63001 20.1404 17.39 -3.27963 24.1 2.60037L26.39 4.85037L27.64 4.32037C33.54 1.87037 38.32 3.05037 38.33 6.96037C38.33 8.99037 37.04 11.3604 34.97 13.5104C35.7983 14.3495 36.3855 15.3961 36.67 16.5404C36.9 17.3404 37.02 18.1604 37.03 18.9904C37.07 19.8204 37.11 21.7504 37.11 21.7804L37.94 22.0104C39.1432 22.2745 40.2629 22.8308 41.2 23.6304C41.7 24.1104 42.02 24.7404 42.13 25.4304C42.25 26.3104 42.03 27.2104 41.51 27.9404C41.65 28.2504 41.77 28.5704 41.87 28.8904L42.19 29.9904C42.83 29.9904 43.83 30.7304 43.83 32.5104ZM14.13 29.0204C13.68 26.0604 11.68 25.0204 10.33 24.9404C9.97999 24.9204 9.62999 24.9404 9.29999 25.0104C6.87999 25.5104 5.50999 27.5704 5.77999 30.2504C5.97537 31.4566 6.57259 32.5613 7.47476 33.3854C8.37692 34.2096 9.53109 34.7046 10.75 34.7904C10.98 34.7904 11.21 34.7804 11.45 34.7404C13.9 34.3204 14.55 31.6404 14.14 29.0204H14.13ZM18.28 10.2004C20.3309 8.51494 22.5184 7.00306 24.82 5.68037C24.82 5.68037 23 3.55037 22.44 3.40037C19.04 2.48037 11.71 7.55037 7.01999 14.2604C5.11999 16.9604 2.40999 21.7704 3.70999 24.2404C4.16999 24.8004 4.68999 25.3004 5.25999 25.7404C6.12456 24.5185 7.42943 23.6796 8.89999 23.4004C10.7455 18.2201 13.9885 13.6515 18.27 10.2004H18.28ZM25.66 33.6604C25.7487 34.0567 25.9435 34.4215 26.2236 34.7157C26.5037 35.0098 26.8585 35.2223 27.25 35.3304C27.65 35.4804 28.07 35.5904 28.5 35.6704C33.87 36.5904 38.9 33.5104 40.03 32.7404C40.12 32.6804 40.17 32.7404 40.1 32.8404L40 33.0004C38.6 34.7904 34.89 36.8604 30.04 36.8604C27.94 36.8604 25.82 36.1104 25.04 34.9604C23.84 33.1904 24.99 30.5904 26.99 30.8604L27.87 30.9604C30.98 31.2604 34.12 30.7604 36.99 29.5004C39.72 28.2304 40.75 26.8304 40.59 25.7004C40.542 25.3485 40.3805 25.022 40.13 24.7704C39.3809 24.1536 38.4913 23.7312 37.54 23.5404C37.11 23.4204 36.81 23.3404 36.5 23.2404C35.93 23.0504 35.65 22.9004 35.59 21.8404L35.45 19.0804C35.4 17.9104 35.26 16.3104 34.27 15.6404C34.0166 15.4745 33.7226 15.3811 33.42 15.3704C33.2517 15.3606 33.083 15.3775 32.92 15.4204C32.42 15.5404 31.95 15.8004 31.59 16.1704C31.1252 16.5895 30.5789 16.908 29.9852 17.1059C29.3915 17.3038 28.7633 17.3768 28.14 17.3204C27.45 17.2904 26.71 17.1804 25.87 17.1204L25.37 17.1004C24.2864 17.1327 23.2501 17.5518 22.4486 18.2818C21.6471 19.0118 21.1332 20.0045 21 21.0804C20.52 24.4104 22.93 26.1404 23.62 27.1504C23.7323 27.2756 23.8023 27.4331 23.82 27.6004C23.8012 27.7865 23.7117 27.9583 23.57 28.0804C22.4961 29.2818 21.7837 30.7623 21.5148 32.3511C21.2458 33.94 21.4314 35.5724 22.05 37.0604C23.8 41.1804 29.25 43.0904 34.58 41.3604C35.28 41.1204 35.95 40.8404 36.6 40.4904C37.7666 39.9133 38.8174 39.127 39.7 38.1704C41.0712 36.7933 41.9739 35.0194 42.28 33.1004C42.44 32.0404 42.2 31.6304 41.88 31.4304C41.6541 31.3076 41.3942 31.2619 41.14 31.3004C41 30.4704 40.76 29.6504 40.43 28.8804C38.91 30.0204 37.19 30.8804 35.36 31.4104C33.16 32.0304 30.86 32.2804 28.58 32.1404C27.11 32.0204 26.13 31.5904 25.77 32.7804C27.99 33.5304 30.35 33.7704 32.68 33.4804C32.7042 33.4784 32.7285 33.4832 32.75 33.4942C32.7716 33.5053 32.7897 33.5222 32.8022 33.543C32.8147 33.5639 32.8211 33.5878 32.8207 33.612C32.8203 33.6363 32.8131 33.66 32.8 33.6804C32.7856 33.7028 32.7646 33.7202 32.74 33.7304C32.74 33.7304 30.01 35.0104 25.67 33.6604H25.66ZM17.66 14.3404C19.584 12.9895 21.768 12.0537 24.0732 11.5923C26.3783 11.1309 28.7543 11.1541 31.05 11.6604C31.14 11.6804 31.19 11.5304 31.11 11.4904C29.8396 10.8221 28.4346 10.4495 27 10.4004C26.9877 10.3933 26.9776 10.3831 26.9705 10.3708C26.9635 10.3585 26.9599 10.3445 26.96 10.3304L26.98 10.3004C27.2076 9.99145 27.4768 9.7155 27.78 9.48037C27.7835 9.46745 27.7837 9.45386 27.7806 9.44084C27.7775 9.42781 27.7712 9.41577 27.7623 9.40582C27.7533 9.39587 27.742 9.38832 27.7294 9.38388C27.7167 9.37943 27.7032 9.37823 27.69 9.38037C25.935 9.55407 24.2492 10.1549 22.78 11.1304C22.7648 11.1296 22.7501 11.1244 22.7377 11.1156C22.7253 11.1067 22.7157 11.0945 22.71 11.0804V11.0304C22.826 10.5762 23.0008 10.1392 23.23 9.73037C23.2295 9.71884 23.2261 9.70762 23.2202 9.6977C23.2143 9.68779 23.206 9.6795 23.1961 9.67356C23.1862 9.66762 23.175 9.66422 23.1634 9.66366C23.1519 9.66311 23.1404 9.66541 23.13 9.67037C21.0034 10.8482 19.1118 12.4075 17.55 14.2704C17.5515 14.2836 17.5563 14.2963 17.5639 14.3072C17.5715 14.3181 17.5818 14.327 17.5937 14.3329C17.6056 14.3389 17.6189 14.3418 17.6322 14.3413C17.6455 14.3409 17.6585 14.3371 17.67 14.3304L17.66 14.3404ZM31.81 25.6504C31.9559 25.7456 32.132 25.783 32.304 25.7552C32.476 25.7275 32.6314 25.6366 32.74 25.5004C32.88 25.2304 32.68 24.8804 32.31 24.7004C32.1621 24.6033 31.9829 24.5659 31.8085 24.5956C31.6341 24.6253 31.4775 24.7199 31.37 24.8604C31.24 25.1204 31.44 25.4704 31.82 25.6504H31.81ZM32.98 21.4004C33.07 21.8704 33.26 22.3204 33.55 22.7004C33.85 22.6704 34.15 22.6704 34.45 22.7004C34.62 22.1804 34.63 21.6304 34.49 21.1004C34.28 20.1304 33.99 19.5404 33.39 19.6304C32.79 19.7304 32.76 20.4304 32.98 21.4004ZM34.25 23.6404C34.0993 23.5964 33.9386 23.6009 33.7905 23.6531C33.6425 23.7053 33.5146 23.8027 33.4248 23.9315C33.335 24.0603 33.2879 24.214 33.2901 24.3709C33.2923 24.5279 33.3437 24.6802 33.4371 24.8064C33.5305 24.9326 33.6611 25.0264 33.8105 25.0744C33.96 25.1224 34.1207 25.1224 34.2701 25.0742C34.4195 25.0261 34.5501 24.9322 34.6433 24.806C34.7366 24.6797 34.7879 24.5273 34.79 24.3704C34.8105 24.2027 34.7659 24.0336 34.6655 23.8978C34.565 23.7619 34.4163 23.6698 34.25 23.6404Z" fill="#18181B"/>
<path d="M12.73 31.9604L13.5809 32.4857L13.5978 32.4584L13.6129 32.43L12.73 31.9604ZM11.77 32.4404L11.6731 33.4357L11.6797 33.4363L11.77 32.4404ZM10.57 31.0604L11.5691 31.1027L11.57 31.0815V31.0604H10.57ZM10.83 29.7204L9.90591 29.3382L9.90291 29.3454L9.90003 29.3527L10.83 29.7204ZM9.36999 28.0304L9.57789 29.0085L9.59598 29.0047L9.61391 29.0002L9.36999 28.0304ZM8.56999 28.5904L7.72208 28.0602L7.71158 28.077L7.70175 28.0942L8.56999 28.5904ZM8.27999 29.2804L9.23784 29.5677L9.23999 29.5604L8.27999 29.2804ZM8.24999 29.3804L9.18886 29.7246L9.19919 29.6965L9.20781 29.6677L8.24999 29.3804ZM7.84999 29.7504L7.68559 30.7368L7.72234 30.7429L7.75945 30.7463L7.84999 29.7504ZM7.64999 29.5704L6.66242 29.7276L6.68414 29.864L6.74203 29.9894L7.64999 29.5704ZM8.33999 27.3404L9.06626 28.0279L9.07539 28.018L8.33999 27.3404ZM11.84 27.8904L12.7705 27.5241L12.7599 27.4972L12.7478 27.471L11.84 27.8904ZM11.63 30.3504L10.775 29.8317L10.7476 29.8768L10.7252 29.9246L11.63 30.3504ZM11.55 30.5204L12.4274 31L12.4419 30.9735L12.4548 30.9462L11.55 30.5204ZM11.53 31.4604L10.6329 31.9023L10.6678 31.9731L10.7134 32.0376L11.53 31.4604ZM12.08 31.7304V30.7304H12.0586L12.0372 30.7313L12.08 31.7304ZM12.38 31.6904L12.1375 30.7202L12.1149 30.7259L12.0926 30.7325L12.38 31.6904ZM43.83 32.5104L44.8288 32.5582L44.83 32.5343V32.5104H43.83ZM42.93 36.7304L43.8529 37.1155L43.8573 37.1049L43.8614 37.0943L42.93 36.7304ZM26.46 46.3904L26.4906 45.3908L26.4885 45.3908L26.46 46.3904ZM10.86 36.4404L11.7774 36.0424L11.5247 35.4599L10.89 35.4408L10.86 36.4404ZM6.41999 34.6404L7.09446 33.9021L7.08152 33.8902L7.06816 33.8789L6.41999 34.6404ZM4.14999 30.4204L3.15669 30.5361L3.15735 30.5415L4.14999 30.4204ZM4.54999 27.0704L5.4881 27.4167L5.72836 26.7659L5.20293 26.313L4.54999 27.0704ZM3.09999 25.8204L3.75296 25.0629L3.74496 25.0562L3.09999 25.8204ZM24.1 2.60037L24.8008 1.88706L24.7805 1.86707L24.759 1.84828L24.1 2.60037ZM26.39 4.85037L25.6891 5.56368L26.1655 6.03173L26.7803 5.77103L26.39 4.85037ZM27.64 4.32037L27.2565 3.39681L27.2496 3.39971L27.64 4.32037ZM38.33 6.96037H39.33L39.33 6.95781L38.33 6.96037ZM34.97 13.5104L34.2496 12.8168L33.5735 13.5191L34.2583 14.2129L34.97 13.5104ZM36.67 16.5404L35.6995 16.7817L35.7039 16.7993L35.7089 16.8167L36.67 16.5404ZM37.03 18.9904L36.0301 19.0024L36.0303 19.0205L36.0311 19.0385L37.03 18.9904ZM37.11 21.7804H36.11V22.5409L36.8429 22.7441L37.11 21.7804ZM37.94 22.0104L37.6729 22.9741L37.6991 22.9813L37.7256 22.9871L37.94 22.0104ZM41.2 23.6304L41.8925 22.909L41.8714 22.8887L41.849 22.8696L41.2 23.6304ZM42.13 25.4304L43.1208 25.2953L43.1193 25.2841L43.1175 25.2729L42.13 25.4304ZM41.51 27.9404L40.6955 27.3602L40.3621 27.8282L40.5986 28.352L41.51 27.9404ZM41.87 28.8904L42.8302 28.611L42.8274 28.6015L42.8245 28.5921L41.87 28.8904ZM42.19 29.9904L41.2298 30.2697L41.4394 30.9904H42.19V29.9904ZM14.13 29.0204L13.1413 29.1707L13.2705 30.0204H14.13V29.0204ZM10.33 24.9404L10.3891 23.9421L10.387 23.942L10.33 24.9404ZM9.29999 25.0104L9.50233 25.9897L9.50749 25.9886L9.29999 25.0104ZM5.77999 30.2504L4.78503 30.3506L4.78804 30.3806L4.79286 30.4103L5.77999 30.2504ZM10.75 34.7904L10.6798 35.7879L10.7149 35.7904H10.75V34.7904ZM11.45 34.7404L11.6144 35.7268L11.619 35.726L11.45 34.7404ZM14.14 29.0204L15.128 28.8658L14.9957 28.0204H14.14V29.0204ZM18.28 10.2004V11.2004H18.6382L18.9149 10.973L18.28 10.2004ZM24.82 5.68037L25.3183 6.54739L25.4333 6.48129L25.5271 6.38748L24.82 5.68037ZM22.44 3.40037L22.1788 4.36566L22.1813 4.36632L22.44 3.40037ZM7.01999 14.2604L7.8378 14.8359L7.83962 14.8333L7.01999 14.2604ZM3.70999 24.2404L2.82507 24.7061L2.87255 24.7963L2.93726 24.8751L3.70999 24.2404ZM5.25999 25.7404L4.64894 26.532L5.47417 27.169L6.07631 26.318L5.25999 25.7404ZM8.89999 23.4004L9.08655 24.3828L9.64964 24.2759L9.84199 23.736L8.89999 23.4004ZM18.27 10.2004V9.20037H17.9171L17.6424 9.42181L18.27 10.2004ZM25.66 33.6604V32.6604H24.4114L24.6841 33.8788L25.66 33.6604ZM27.25 35.3304L27.6011 34.394L27.5592 34.3783L27.516 34.3664L27.25 35.3304ZM28.5 35.6704L28.3171 36.6535L28.3241 36.6548L28.3311 36.656L28.5 35.6704ZM40.03 32.7404L39.4753 31.9083L39.4669 31.914L40.03 32.7404ZM40.1 32.8404L39.2808 32.2669L39.2658 32.2883L39.252 32.3104L40.1 32.8404ZM40 33.0004L40.7877 33.6164L40.8201 33.575L40.848 33.5304L40 33.0004ZM25.04 34.9604L24.2123 35.5215L24.2124 35.5217L25.04 34.9604ZM26.99 30.8604L26.8562 31.8514L26.8666 31.8528L26.8771 31.854L26.99 30.8604ZM27.87 30.9604L27.7571 31.954L27.7655 31.9549L27.774 31.9557L27.87 30.9604ZM36.99 29.5004L37.392 30.416L37.4019 30.4116L37.4118 30.4071L36.99 29.5004ZM40.59 25.7004L39.5991 25.8354L39.5999 25.8406L40.59 25.7004ZM40.13 24.7704L40.8386 24.0648L40.8038 24.0298L40.7656 23.9984L40.13 24.7704ZM37.54 23.5404L37.2712 24.5036L37.3069 24.5135L37.3434 24.5208L37.54 23.5404ZM36.5 23.2404L36.1837 24.1891L36.193 24.1921L36.5 23.2404ZM35.59 21.8404L34.5913 21.891L34.5916 21.8969L35.59 21.8404ZM35.45 19.0804L34.4509 19.1231L34.4513 19.131L35.45 19.0804ZM34.27 15.6404L34.8305 14.8122L34.8241 14.8079L34.8176 14.8037L34.27 15.6404ZM33.42 15.3704L33.362 16.3687L33.3732 16.3693L33.3844 16.3697L33.42 15.3704ZM32.92 15.4204L33.1534 16.3928L33.164 16.3902L33.1745 16.3874L32.92 15.4204ZM31.59 16.1704L32.2597 16.913L32.2839 16.8911L32.3067 16.8677L31.59 16.1704ZM28.14 17.3204L28.2302 16.3244L28.2068 16.3223L28.1834 16.3213L28.14 17.3204ZM25.87 17.1204L25.9412 16.1229L25.9256 16.1218L25.91 16.1212L25.87 17.1204ZM25.37 17.1004L25.41 16.1012L25.375 16.0998L25.3401 16.1008L25.37 17.1004ZM21 21.0804L21.9898 21.223L21.9912 21.2132L21.9924 21.2033L21 21.0804ZM23.62 27.1504L22.7943 27.7145L22.8315 27.7689L22.8755 27.818L23.62 27.1504ZM23.82 27.6004L24.8149 27.7006L24.8253 27.5979L24.8144 27.4952L23.82 27.6004ZM23.57 28.0804L22.9175 27.3226L22.868 27.3652L22.8244 27.414L23.57 28.0804ZM22.05 37.0604L21.1266 37.4443L21.1296 37.4513L22.05 37.0604ZM34.58 41.3604L34.8887 42.3115L34.8965 42.309L34.9043 42.3063L34.58 41.3604ZM36.6 40.4904L36.1566 39.594L36.1411 39.6017L36.1259 39.6099L36.6 40.4904ZM39.7 38.1704L38.9914 37.4648L38.9779 37.4783L38.965 37.4923L39.7 38.1704ZM42.28 33.1004L43.2675 33.2579L43.2688 33.2496L42.28 33.1004ZM41.88 31.4304L42.41 30.5824L42.3842 30.5663L42.3576 30.5518L41.88 31.4304ZM41.14 31.3004L40.1539 31.4667L40.3174 32.4361L41.2895 32.2891L41.14 31.3004ZM40.43 28.8804L41.3491 28.4865L40.8479 27.3169L39.83 28.0804L40.43 28.8804ZM35.36 31.4104L35.6312 32.3729L35.6382 32.3709L35.36 31.4104ZM28.58 32.1404L28.4986 33.1371L28.5087 33.1379L28.5187 33.1385L28.58 32.1404ZM25.77 32.7804L24.8128 32.4908L24.5324 33.4178L25.4499 33.7278L25.77 32.7804ZM32.68 33.4804L32.5974 32.4838L32.5769 32.4855L32.5565 32.488L32.68 33.4804ZM32.8 33.6804L31.9595 33.1385L31.9586 33.1399L32.8 33.6804ZM32.74 33.7304L32.0329 34.4375L32.5038 34.9084L33.1198 34.6554L32.74 33.7304ZM25.67 33.6604L25.967 32.7055L25.8219 32.6604H25.67V33.6604ZM17.66 14.3404L16.9529 13.6333L18.2346 15.1588L17.66 14.3404ZM31.05 11.6604L31.2669 10.6842L31.2653 10.6838L31.05 11.6604ZM31.11 11.4904L30.6445 12.3754L30.6536 12.3802L30.6628 12.3848L31.11 11.4904ZM27 10.4004L26.5 11.2664L26.7162 11.3912L26.9657 11.3998L27 10.4004ZM26.96 10.3304L26.1279 9.77566L25.9627 10.0235L25.96 10.3214L26.96 10.3304ZM26.98 10.3004L26.1749 9.70726L26.161 9.72614L26.1479 9.74566L26.98 10.3004ZM27.78 9.48037L28.3928 10.2706L28.6569 10.0658L28.7448 9.74328L27.78 9.48037ZM27.69 9.38037L27.7885 10.3755L27.8195 10.3724L27.8502 10.3675L27.69 9.38037ZM22.78 11.1304L22.7274 12.129L23.0576 12.1464L23.3331 11.9635L22.78 11.1304ZM22.71 11.0804H21.71V11.2742L21.7824 11.454L22.71 11.0804ZM22.71 11.0304L21.7411 10.783L21.71 10.9047V11.0304H22.71ZM23.23 9.73037L24.1022 10.2194L24.242 9.97007L24.2289 9.6845L23.23 9.73037ZM23.13 9.67037L22.7004 8.76736L22.6725 8.78062L22.6455 8.79557L23.13 9.67037ZM17.55 14.2704L16.7837 13.6279L16.5081 13.9565L16.5563 14.3827L17.55 14.2704ZM17.67 14.3304L18.3771 15.0375L17.1637 13.468L17.67 14.3304ZM31.81 25.6504V24.6504H28.4477L31.2635 26.4878L31.81 25.6504ZM32.74 25.5004L33.5221 26.1235L33.5828 26.0473L33.6277 25.9607L32.74 25.5004ZM32.31 24.7004L31.7614 25.5365L31.815 25.5716L31.8725 25.5996L32.31 24.7004ZM31.37 24.8604L30.5757 24.2528L30.518 24.3282L30.4756 24.4132L31.37 24.8604ZM31.82 25.6504V26.6504L32.2481 24.7466L31.82 25.6504ZM32.98 21.4004L33.9621 21.2123L33.959 21.1957L33.9552 21.1792L32.98 21.4004ZM33.55 22.7004L32.755 23.307L33.0938 23.751L33.6495 23.6954L33.55 22.7004ZM34.45 22.7004L34.3505 23.6954L35.1506 23.7754L35.4005 23.0111L34.45 22.7004ZM34.49 21.1004L33.5126 21.312L33.5174 21.334L33.5232 21.3558L34.49 21.1004ZM33.39 19.6304L33.2416 18.6414L33.2336 18.6426L33.2256 18.644L33.39 19.6304ZM34.25 23.6404L33.9701 24.6004L34.0222 24.6156L34.0756 24.625L34.25 23.6404ZM34.79 24.3704L33.7974 24.249L33.7908 24.3028L33.7901 24.3571L34.79 24.3704ZM12.7 31.7304L11.9671 32.4107C11.854 32.2889 11.7816 32.1348 11.7601 31.9699L12.7517 31.8406L13.7433 31.7112C13.7111 31.4639 13.6025 31.2328 13.4329 31.05L12.7 31.7304ZM12.7517 31.8406L11.7601 31.9699C11.7386 31.805 11.769 31.6375 11.8471 31.4907L12.73 31.9604L13.6129 32.43C13.73 32.2098 13.7756 31.9586 13.7433 31.7112L12.7517 31.8406ZM12.73 31.9604L11.8791 31.435C11.8771 31.4382 11.8743 31.4408 11.871 31.4424L12.3182 32.3368L12.7654 33.2313C13.1013 33.0634 13.3836 32.8052 13.5809 32.4857L12.73 31.9604ZM12.3182 32.3368L11.871 31.4424C11.8677 31.4441 11.864 31.4448 11.8603 31.4445L11.77 32.4404L11.6797 33.4363C12.0536 33.4702 12.4296 33.3992 12.7654 33.2313L12.3182 32.3368ZM11.77 32.4404L11.8668 31.4451C11.7828 31.4369 11.7052 31.3968 11.6498 31.3332L10.8952 31.9893L10.1406 32.6455C10.5316 33.0952 11.08 33.378 11.6731 33.4357L11.77 32.4404ZM10.8952 31.9893L11.6498 31.3332C11.5944 31.2695 11.5655 31.187 11.5691 31.1027L10.57 31.0604L9.57088 31.0181C9.54568 31.6134 9.74955 32.1958 10.1406 32.6455L10.8952 31.9893ZM10.57 31.0604H11.57C11.57 30.7413 11.6343 30.4058 11.7599 30.088L10.83 29.7204L9.90003 29.3527C9.68567 29.8949 9.56999 30.4794 9.56999 31.0604H10.57ZM10.83 29.7204L11.7541 30.1026C11.9134 29.7173 11.9626 29.2954 11.8961 28.8838L10.9089 29.0433L9.92169 29.2027C9.92908 29.2485 9.92362 29.2954 9.90591 29.3382L10.83 29.7204ZM10.9089 29.0433L11.8961 28.8838C11.8296 28.4722 11.6501 28.0872 11.3775 27.7717L10.6208 28.4254L9.86407 29.0792C9.89436 29.1142 9.9143 29.157 9.92169 29.2027L10.9089 29.0433ZM10.6208 28.4254L11.3775 27.7717C11.105 27.4562 10.7501 27.2227 10.3526 27.0971L10.0514 28.0507L9.75019 29.0042C9.79436 29.0182 9.83379 29.0441 9.86407 29.0792L10.6208 28.4254ZM10.0514 28.0507L10.3526 27.0971C9.95501 26.9715 9.53038 26.9589 9.12607 27.0606L9.36999 28.0304L9.61391 29.0002C9.65884 28.9889 9.70602 28.9903 9.75019 29.0042L10.0514 28.0507ZM9.36999 28.0304L9.16208 27.0522C8.8667 27.115 8.58697 27.2366 8.33958 27.4098L8.91304 28.229L9.4865 29.0482C9.51399 29.029 9.54507 29.0155 9.57789 29.0085L9.36999 28.0304ZM8.91304 28.229L8.33958 27.4098C8.09219 27.583 7.88218 27.8042 7.72208 28.0602L8.56999 28.5904L9.41789 29.1205C9.43568 29.0921 9.45901 29.0675 9.4865 29.0482L8.91304 28.229ZM8.56999 28.5904L7.70175 28.0942C7.53991 28.3774 7.4103 28.6907 7.31999 29.0004L8.27999 29.2804L9.23999 29.5604C9.28968 29.39 9.36007 29.2233 9.43823 29.0865L8.56999 28.5904ZM8.27999 29.2804L7.32216 28.993L7.29216 29.093L8.24999 29.3804L9.20781 29.6677L9.23781 29.5677L8.27999 29.2804ZM8.24999 29.3804L7.31111 29.0361C7.29843 29.0707 7.44967 28.7099 7.94052 28.7545L7.84999 29.7504L7.75945 30.7463C8.47031 30.8109 8.98155 30.29 9.18886 29.7246L8.24999 29.3804ZM7.84999 29.7504L8.01439 28.764C8.13196 28.7836 8.25724 28.8322 8.36781 28.9191C8.47629 29.0043 8.53262 29.0964 8.55795 29.1513L7.64999 29.5704L6.74203 29.9894C6.93163 30.4002 7.27827 30.6689 7.68559 30.7368L7.84999 29.7504ZM7.64999 29.5704L8.63755 29.4132C8.59802 29.1648 8.61612 28.9108 8.69044 28.6706L7.73513 28.375L6.77981 28.0794C6.61485 28.6125 6.57469 29.1764 6.66242 29.7276L7.64999 29.5704ZM7.73513 28.375L8.69044 28.6706C8.76477 28.4303 8.89333 28.2104 9.06619 28.0279L8.33999 27.3404L7.61379 26.6529C7.23012 27.0582 6.94478 27.5462 6.77981 28.0794L7.73513 28.375ZM8.33999 27.3404L9.07539 28.018C9.20136 27.8813 9.35912 27.7778 9.53467 27.7166L9.20572 26.7723L8.87677 25.8279C8.39049 25.9973 7.95352 26.2841 7.60459 26.6627L8.33999 27.3404ZM9.20572 26.7723L9.53467 27.7166C9.71023 27.6555 9.89816 27.6386 10.0818 27.6674L10.237 26.6796L10.3923 25.6917C9.88359 25.6117 9.36304 25.6585 8.87677 25.8279L9.20572 26.7723ZM10.237 26.6796L10.0818 27.6674C10.2655 27.6963 10.4391 27.77 10.5875 27.8821L11.1902 27.0841L11.793 26.2862C11.3821 25.9758 10.901 25.7716 10.3923 25.6917L10.237 26.6796ZM11.1902 27.0841L10.5875 27.8821C10.7358 27.9941 10.8542 28.141 10.9322 28.3098L11.84 27.8904L12.7478 27.471C12.5318 27.0035 12.2038 26.5966 11.793 26.2862L11.1902 27.0841ZM11.84 27.8904L10.9095 28.2566C11.0099 28.5118 11.05 28.7867 11.0267 29.0599L12.0231 29.145L13.0194 29.23C13.069 28.6498 12.9838 28.066 12.7705 27.5241L11.84 27.8904ZM12.0231 29.145L11.0267 29.0599C11.0034 29.3331 10.9172 29.5973 10.775 29.8317L11.63 30.3504L12.485 30.869C12.787 30.3712 12.9699 29.8102 13.0194 29.23L12.0231 29.145ZM11.63 30.3504L10.7252 29.9246L10.6452 30.0946L11.55 30.5204L12.4548 30.9462L12.5348 30.7762L11.63 30.3504ZM11.55 30.5204L10.6725 30.0407C10.5171 30.3251 10.4323 30.6427 10.4254 30.9667L11.4252 30.9879L12.425 31.0092C12.4251 31.006 12.4259 31.0028 12.4274 31L11.55 30.5204ZM11.4252 30.9879L10.4254 30.9667C10.4186 31.2907 10.4897 31.6116 10.6329 31.9023L11.53 31.4604L12.427 31.0185C12.4256 31.0156 12.4249 31.0124 12.425 31.0092L11.4252 30.9879ZM11.53 31.4604L10.7134 32.0376C10.8717 32.2616 11.0837 32.4423 11.3299 32.5631L11.7706 31.6655L12.2113 30.7678C12.2653 30.7943 12.3118 30.834 12.3466 30.8832L11.53 31.4604ZM11.7706 31.6655L11.3299 32.5631C11.5761 32.684 11.8487 32.7412 12.1228 32.7295L12.08 31.7304L12.0372 30.7313C12.0974 30.7287 12.1572 30.7413 12.2113 30.7678L11.7706 31.6655ZM12.08 31.7304V32.7304C12.2464 32.7304 12.4485 32.7138 12.6673 32.6482L12.38 31.6904L12.0926 30.7325C12.1016 30.7298 12.1068 30.7292 12.106 30.7293C12.1047 30.7295 12.0969 30.7304 12.08 30.7304V31.7304ZM12.38 31.6904L12.6225 32.6605C12.6537 32.6527 12.6548 32.6529 12.6485 32.654C12.6416 32.6552 12.6001 32.6627 12.5383 32.6614C12.4741 32.66 12.3696 32.6488 12.2497 32.5977C12.1228 32.5437 12.0123 32.459 11.9291 32.3551L12.71 31.7304L13.4909 31.1057C13.2173 30.7637 12.8476 30.6676 12.5817 30.6619C12.3677 30.6572 12.1749 30.7109 12.1375 30.7202L12.38 31.6904ZM43.83 32.5104L42.8311 32.4626C42.7671 33.8004 42.4859 35.1189 41.9985 36.3665L42.93 36.7304L43.8614 37.0943C44.4277 35.6447 44.7545 34.1126 44.8288 32.5582L43.83 32.5104ZM42.93 36.7304L42.0071 36.3452C39.5453 42.2444 33.6652 45.6106 26.4906 45.3908L26.46 46.3904L26.4294 47.3899C34.2748 47.6302 41.0147 43.9163 43.8529 37.1155L42.93 36.7304ZM26.46 46.3904L26.4885 45.3908C19.8268 45.2004 14.2241 41.6829 11.7774 36.0424L10.86 36.4404L9.94258 36.8383C12.7359 43.2778 19.0932 47.1803 26.4314 47.39L26.46 46.3904ZM10.86 36.4404L10.89 35.4408C9.48152 35.3985 8.13485 34.8525 7.09446 33.9021L6.41999 34.6404L5.74552 35.3787C7.13918 36.6518 8.94312 37.3832 10.8299 37.4399L10.86 36.4404ZM6.41999 34.6404L7.06816 33.8789C5.99988 32.9696 5.31255 31.6918 5.14263 30.2992L4.14999 30.4204L3.15735 30.5415C3.38808 32.4323 4.32131 34.1672 5.77181 35.4019L6.41999 34.6404ZM4.14999 30.4204L5.14327 30.3046C5.02951 29.3283 5.14765 28.3388 5.4881 27.4167L4.54999 27.0704L3.61188 26.724C3.1625 27.9412 3.00655 29.2473 3.15671 30.5361L4.14999 30.4204ZM4.54999 27.0704L5.20293 26.313L3.75293 25.063L3.09999 25.8204L2.44705 26.5778L3.89705 27.8278L4.54999 27.0704ZM3.09999 25.8204L3.74496 25.0562C2.60426 24.0934 2.42055 22.1848 3.5304 19.3317C4.60144 16.5783 6.72681 13.4041 9.30293 10.5447C11.8786 7.68591 14.8328 5.22175 17.5021 3.83675C20.2614 2.40506 22.2739 2.3298 23.4409 3.35246L24.1 2.60037L24.759 1.84828C22.5711 -0.0690628 19.4398 0.578179 16.581 2.06149C13.6322 3.59149 10.4939 6.23483 7.81704 9.20602C5.14067 12.1767 2.85354 15.5549 1.66646 18.6066C0.518176 21.5585 0.230718 24.7073 2.45501 26.5846L3.09999 25.8204ZM24.1 2.60037L23.3991 3.31368L25.6891 5.56368L26.39 4.85037L27.0908 4.13706L24.8008 1.88706L24.1 2.60037ZM26.39 4.85037L26.7803 5.77103L28.0303 5.24103L27.64 4.32037L27.2496 3.39971L25.9996 3.92971L26.39 4.85037ZM27.64 4.32037L28.0235 5.24391C30.8589 4.06649 33.3005 3.81791 34.954 4.22621C35.7701 4.42773 36.354 4.77755 36.731 5.21046C37.0992 5.63339 37.328 6.20112 37.33 6.96293L38.33 6.96037L39.33 6.95781C39.3269 5.76462 38.9545 4.7186 38.2393 3.89716C37.5328 3.08569 36.5511 2.56051 35.4335 2.28453C33.2195 1.73783 30.3211 2.12425 27.2565 3.39683L27.64 4.32037ZM38.33 6.96037H37.33C37.33 8.6089 36.2488 10.7403 34.2496 12.8168L34.97 13.5104L35.6904 14.2039C37.8312 11.9804 39.33 9.37184 39.33 6.96037H38.33ZM34.97 13.5104L34.2583 14.2129C34.9605 14.9243 35.4583 15.8116 35.6995 16.7817L36.67 16.5404L37.6404 16.2991C37.3126 14.9807 36.6361 13.7748 35.6817 12.8079L34.97 13.5104ZM36.67 16.5404L35.7089 16.8167C35.9141 17.5304 36.0211 18.2615 36.0301 19.0024L37.03 18.9904L38.0299 18.9783C38.0188 18.0592 37.8859 17.1503 37.6311 16.2641L36.67 16.5404ZM37.03 18.9904L36.0311 19.0385C36.0505 19.4405 36.0703 20.1196 36.0853 20.7108C36.1005 21.3094 36.11 21.7817 36.11 21.7804H37.11H38.11C38.11 21.7326 38.0695 19.7864 38.0288 18.9422L37.03 18.9904ZM37.11 21.7804L36.8429 22.7441L37.6729 22.9741L37.94 22.0104L38.207 21.0467L37.377 20.8167L37.11 21.7804ZM37.94 22.0104L37.7256 22.9871C38.7684 23.216 39.7388 23.6982 40.5509 24.3911L41.2 23.6304L41.849 22.8696C40.7869 21.9635 39.518 21.3329 38.1544 21.0336L37.94 22.0104ZM41.2 23.6304L40.5075 24.3518C40.8435 24.6743 41.0652 25.1033 41.1425 25.5878L42.13 25.4304L43.1175 25.2729C42.9748 24.3774 42.5565 23.5464 41.8925 22.909L41.2 23.6304ZM42.13 25.4304L41.1392 25.5655C41.2248 26.1936 41.0677 26.8377 40.6955 27.3602L41.51 27.9404L42.3245 28.5206C42.9923 27.583 43.2752 26.4272 43.1208 25.2953L42.13 25.4304ZM41.51 27.9404L40.5986 28.352C40.7208 28.6225 40.8267 28.9044 40.9155 29.1886L41.87 28.8904L42.8245 28.5921C42.7133 28.2363 42.5792 27.8783 42.4214 27.5288L41.51 27.9404ZM41.87 28.8904L40.9098 29.1697L41.2298 30.2697L42.19 29.9904L43.1502 29.711L42.8302 28.611L41.87 28.8904ZM42.19 29.9904V30.9904C42.091 30.9904 42.83 31.0753 42.83 32.5104H43.83H44.83C44.83 30.3855 43.569 28.9904 42.19 28.9904V29.9904ZM14.13 29.0204L15.1186 28.8701C14.5935 25.4161 12.182 24.0484 10.3891 23.9421L10.33 24.9404L10.2708 25.9386C11.178 25.9924 12.7665 26.7047 13.1413 29.1707L14.13 29.0204ZM10.33 24.9404L10.387 23.942C9.96351 23.9178 9.52308 23.9408 9.09248 24.0321L9.29999 25.0104L9.50749 25.9886C9.7369 25.9399 9.99647 25.9229 10.2729 25.9387L10.33 24.9404ZM9.29999 25.0104L9.09765 24.0311C7.64613 24.331 6.46609 25.1133 5.70042 26.2563C4.93968 27.392 4.63061 28.8179 4.78503 30.3506L5.77999 30.2504L6.77495 30.1501C6.65937 29.0028 6.9003 28.0588 7.36206 27.3694C7.81888 26.6874 8.53385 26.1898 9.50233 25.9897L9.29999 25.0104ZM5.77999 30.2504L4.79286 30.4103C5.02428 31.839 5.7317 33.1476 6.80031 34.1238L7.47476 33.3854L8.1492 32.6471C7.41349 31.9751 6.92645 31.0741 6.76712 30.0905L5.77999 30.2504ZM7.47476 33.3854L6.80031 34.1238C7.86893 35.0999 9.23604 35.6864 10.6798 35.7879L10.75 34.7904L10.8201 33.7928C9.82614 33.7229 8.88492 33.3192 8.1492 32.6471L7.47476 33.3854ZM10.75 34.7904V35.7904C11.0081 35.7904 11.2987 35.7794 11.6144 35.7268L11.45 34.7404L11.2856 33.754C11.1212 33.7814 10.9518 33.7904 10.75 33.7904V34.7904ZM11.45 34.7404L11.619 35.726C13.2465 35.447 14.2743 34.3888 14.7967 33.0749C15.3016 31.8052 15.3501 30.2855 15.128 28.8658L14.14 29.0204L13.152 29.175C13.3398 30.3752 13.2684 31.5056 12.9383 32.3359C12.6257 33.122 12.1035 33.6138 11.281 33.7547L11.45 34.7404ZM14.14 29.0204V28.0204H14.13V29.0204V30.0204H14.14V29.0204ZM18.28 10.2004L18.9149 10.973C20.9229 9.32274 23.0648 7.84244 25.3183 6.54739L24.82 5.68037L24.3217 4.81335C21.9721 6.16367 19.7388 7.70714 17.6451 9.42779L18.28 10.2004ZM24.82 5.68037C25.5803 5.03076 25.5802 5.0307 25.5802 5.03064C25.5801 5.03061 25.5801 5.03055 25.58 5.03048C25.5799 5.03036 25.5798 5.03021 25.5796 5.03002C25.5793 5.02964 25.5789 5.02914 25.5783 5.02851C25.5772 5.02724 25.5757 5.02547 25.5738 5.02321C25.5699 5.01868 25.5643 5.01219 25.5571 5.00385C25.5428 4.98718 25.522 4.96311 25.4956 4.93267C25.4427 4.87183 25.367 4.78532 25.2747 4.68128C25.0905 4.47382 24.8372 4.1937 24.5641 3.90697C24.2937 3.62304 23.9913 3.31938 23.711 3.07117C23.5714 2.94763 23.4235 2.8254 23.2778 2.72309C23.1543 2.63633 22.9459 2.50063 22.6987 2.43442L22.44 3.40037L22.1813 4.36632C22.0741 4.33762 22.0451 4.30129 22.1283 4.35972C22.1893 4.40261 22.2754 4.47139 22.3852 4.56863C22.6036 4.76199 22.8613 5.01895 23.1159 5.28628C23.3678 5.55079 23.6045 5.81254 23.7791 6.00915C23.8661 6.10713 23.937 6.18821 23.9858 6.24443C24.0102 6.27253 24.0291 6.29438 24.0417 6.30898C24.048 6.31627 24.0527 6.32176 24.0557 6.3253C24.0572 6.32707 24.0583 6.32836 24.059 6.32915C24.0593 6.32954 24.0596 6.32981 24.0597 6.32995C24.0598 6.33002 24.0598 6.33006 24.0598 6.33006C24.0598 6.33007 24.0598 6.33005 24.0598 6.33005C24.0598 6.33002 24.0597 6.32999 24.82 5.68037ZM22.44 3.40037L22.7012 2.43508C21.562 2.12683 20.2341 2.34531 18.9138 2.82583C17.57 3.3149 16.1103 4.12058 14.6402 5.14997C11.6992 7.20926 8.61137 10.238 6.20036 13.6875L7.01999 14.2604L7.83962 14.8333C10.1186 11.5727 13.0407 8.71148 15.7873 6.78827C17.161 5.82641 18.4644 5.11772 19.5978 4.70523C20.7547 4.28418 21.618 4.21391 22.1788 4.36566L22.44 3.40037ZM7.01999 14.2604L6.20218 13.6849C5.22815 15.069 4.03022 17.0152 3.23877 18.9596C2.84314 19.9316 2.53397 20.9395 2.41869 21.8994C2.30416 22.8531 2.37126 23.8439 2.82507 24.7061L3.70999 24.2404L4.59491 23.7746C4.39872 23.4019 4.31707 22.8652 4.40442 22.1379C4.49101 21.4169 4.73434 20.5904 5.0912 19.7136C5.80476 17.9606 6.91182 16.1517 7.83779 14.8359L7.01999 14.2604ZM3.70999 24.2404L2.93726 24.8751C3.44681 25.4954 4.02151 26.0476 4.64894 26.532L5.25999 25.7404L5.87104 24.9488C5.35846 24.5531 4.89317 24.1053 4.48271 23.6056L3.70999 24.2404ZM5.25999 25.7404L6.07631 26.318C6.7913 25.3075 7.87042 24.6138 9.08655 24.3828L8.89999 23.4004L8.71343 22.4179C6.98845 22.7455 5.45782 23.7295 4.44367 25.1628L5.25999 25.7404ZM8.89999 23.4004L9.84199 23.736C11.6256 18.7295 14.7598 14.3143 18.8976 10.9789L18.27 10.2004L17.6424 9.42181C13.2173 12.9888 9.86548 17.7107 7.95798 23.0648L8.89999 23.4004ZM18.27 10.2004V11.2004H18.28V10.2004V9.20037H18.27V10.2004ZM25.66 33.6604L24.6841 33.8788C24.8125 34.4521 25.0943 34.9797 25.4994 35.4052L26.2236 34.7157L26.9478 34.0261C26.7928 33.8633 26.685 33.6614 26.6358 33.4419L25.66 33.6604ZM26.2236 34.7157L25.4994 35.4052C25.9045 35.8307 26.4176 36.138 26.984 36.2943L27.25 35.3304L27.516 34.3664C27.2993 34.3066 27.1029 34.189 26.9478 34.0261L26.2236 34.7157ZM27.25 35.3304L26.8989 36.2667C27.3632 36.4408 27.841 36.5649 28.3171 36.6535L28.5 35.6704L28.6829 34.6872C28.299 34.6158 27.9368 34.5199 27.6011 34.394L27.25 35.3304ZM28.5 35.6704L28.3311 36.656C31.2461 37.1554 34.0303 36.5652 36.1961 35.7791C38.3663 34.9915 39.9813 33.9836 40.5931 33.5668L40.03 32.7404L39.4669 31.914C38.9486 32.2671 37.4836 33.1842 35.5138 33.8991C33.5397 34.6156 31.1238 35.1053 28.6688 34.6847L28.5 35.6704ZM40.03 32.7404L40.5847 33.5724C40.5212 33.6148 40.3769 33.6974 40.1654 33.7137C39.9335 33.7315 39.5728 33.6608 39.325 33.3304C39.1015 33.0324 39.1219 32.7216 39.1507 32.578C39.1817 32.4228 39.245 32.318 39.2808 32.2669L40.1 32.8404L40.9192 33.4138C40.99 33.3127 41.0733 33.1629 41.1118 32.9702C41.148 32.7892 41.1635 32.4484 40.925 32.1304C40.6622 31.7799 40.2765 31.6992 40.012 31.7196C39.768 31.7383 39.5838 31.836 39.4753 31.9083L40.03 32.7404ZM40.1 32.8404L39.252 32.3104L39.152 32.4704L40 33.0004L40.848 33.5304L40.948 33.3704L40.1 32.8404ZM40 33.0004L39.2123 32.3843C38.0404 33.8827 34.6509 35.8604 30.04 35.8604V36.8604V37.8604C35.1291 37.8604 39.1596 35.6981 40.7877 33.6164L40 33.0004ZM30.04 36.8604V35.8604C29.1015 35.8604 28.1653 35.6916 27.3938 35.4044C26.5993 35.1087 26.093 34.7313 25.8676 34.399L25.04 34.9604L24.2124 35.5217C24.767 36.3394 25.7107 36.912 26.6962 37.2788C27.7047 37.6542 28.8785 37.8604 30.04 37.8604V36.8604ZM25.04 34.9604L25.8677 34.3992C25.4819 33.8301 25.4689 33.1134 25.7226 32.5653C25.9699 32.0308 26.3867 31.788 26.8562 31.8514L26.99 30.8604L27.1238 29.8694C25.5932 29.6627 24.4351 30.585 23.9074 31.7255C23.386 32.8523 23.3981 34.3206 24.2123 35.5215L25.04 34.9604ZM26.99 30.8604L26.8771 31.854L27.7571 31.954L27.87 30.9604L27.9829 29.9668L27.1029 29.8668L26.99 30.8604ZM27.87 30.9604L27.774 31.9557C31.0537 32.2721 34.3652 31.7448 37.392 30.416L36.99 29.5004L36.588 28.5847C33.8748 29.7759 30.9062 30.2486 27.966 29.965L27.87 30.9604ZM36.99 29.5004L37.4118 30.4071C38.8483 29.7388 39.9194 29.0004 40.6206 28.2129C41.325 27.4217 41.7141 26.5063 41.5801 25.5602L40.59 25.7004L39.5999 25.8406C39.6259 26.0245 39.5799 26.3741 39.1269 26.8829C38.6706 27.3954 37.8617 27.992 36.5682 28.5937L36.99 29.5004ZM40.59 25.7004L41.5808 25.5653C41.5035 24.9977 41.2429 24.4708 40.8386 24.0648L40.13 24.7704L39.4214 25.4759C39.5182 25.5732 39.5806 25.6994 39.5991 25.8354L40.59 25.7004ZM40.13 24.7704L40.7656 23.9984C39.8896 23.2771 38.8492 22.783 37.7366 22.5599L37.54 23.5404L37.3434 24.5208C38.1334 24.6793 38.8723 25.0302 39.4944 25.5424L40.13 24.7704ZM37.54 23.5404L37.8088 22.5772C37.3633 22.4529 37.0922 22.3807 36.807 22.2887L36.5 23.2404L36.193 24.1921C36.5277 24.3001 36.8566 24.3879 37.2712 24.5036L37.54 23.5404ZM36.5 23.2404L36.8162 22.2917C36.6759 22.2449 36.6228 22.2223 36.597 22.2085C36.5869 22.2031 36.617 22.2187 36.6469 22.2577C36.6731 22.2917 36.6635 22.298 36.6446 22.2257C36.6242 22.148 36.6013 22.0123 36.5884 21.7839L35.59 21.8404L34.5916 21.8969C34.6239 22.4677 34.719 23.0307 35.0605 23.4756C35.4167 23.9394 35.9141 24.0992 36.1838 24.1891L36.5 23.2404ZM35.59 21.8404L36.5887 21.7897L36.4487 19.0297L35.45 19.0804L34.4513 19.131L34.5913 21.891L35.59 21.8404ZM35.45 19.0804L36.4491 19.0377C36.4238 18.4456 36.374 17.6608 36.1799 16.9195C35.9888 16.1901 35.6178 15.345 34.8305 14.8122L34.27 15.6404L33.7095 16.4685C33.9122 16.6057 34.1062 16.8957 34.2451 17.4262C34.381 17.9449 34.4262 18.5452 34.4509 19.1231L35.45 19.0804ZM34.27 15.6404L34.8176 14.8037C34.4116 14.5379 33.9406 14.3883 33.4556 14.371L33.42 15.3704L33.3844 16.3697C33.5047 16.374 33.6216 16.4111 33.7224 16.4771L34.27 15.6404ZM33.42 15.3704L33.478 14.3721C33.2045 14.3562 32.9303 14.3836 32.6655 14.4533L32.92 15.4204L33.1745 16.3874C33.2356 16.3714 33.2989 16.365 33.362 16.3687L33.42 15.3704ZM32.92 15.4204L32.6866 14.448C32.0109 14.6102 31.3709 14.9616 30.8733 15.473L31.59 16.1704L32.3067 16.8677C32.5291 16.6392 32.8291 16.4706 33.1534 16.3928L32.92 15.4204ZM31.59 16.1704L30.9203 15.4278C30.5579 15.7546 30.1319 16.0029 29.6689 16.1572L29.9852 17.1059L30.3014 18.0546C31.0259 17.8131 31.6926 17.4244 32.2597 16.913L31.59 16.1704ZM29.9852 17.1059L29.6689 16.1572C29.206 16.3115 28.7162 16.3685 28.2302 16.3244L28.14 17.3204L28.0498 18.3163C28.8103 18.3852 29.5769 18.2961 30.3014 18.0546L29.9852 17.1059ZM28.14 17.3204L28.1834 16.3213C27.8716 16.3078 27.5412 16.2758 27.1637 16.2369C26.7938 16.1988 26.3805 16.1543 25.9412 16.1229L25.87 17.1204L25.7987 18.1178C26.1994 18.1465 26.5762 18.187 26.9588 18.2264C27.3338 18.265 27.7184 18.303 28.0965 18.3194L28.14 17.3204ZM25.87 17.1204L25.91 16.1212L25.41 16.1012L25.37 17.1004L25.33 18.0996L25.83 18.1196L25.87 17.1204ZM25.37 17.1004L25.3401 16.1008C24.0178 16.1403 22.7533 16.6517 21.7752 17.5425L22.4486 18.2818L23.1219 19.0211C23.7469 18.4519 24.5549 18.1252 25.3999 18.0999L25.37 17.1004ZM22.4486 18.2818L21.7752 17.5425C20.7972 18.4332 20.1702 19.6446 20.0076 20.9575L21 21.0804L21.9924 21.2033C22.0963 20.3644 22.497 19.5903 23.1219 19.0211L22.4486 18.2818ZM21 21.0804L20.0102 20.9377C19.4564 24.7801 22.3577 27.0754 22.7943 27.7145L23.62 27.1504L24.4457 26.5863C23.5023 25.2053 21.5836 24.0407 21.9898 21.223L21 21.0804ZM23.62 27.1504L22.8755 27.818C22.8475 27.7867 22.83 27.7474 22.8255 27.7055L23.82 27.6004L24.8144 27.4952C24.7746 27.1188 24.6172 26.7645 24.3644 26.4827L23.62 27.1504ZM23.82 27.6004L22.825 27.5001C22.832 27.4313 22.8651 27.3677 22.9175 27.3226L23.57 28.0804L24.2225 28.8382C24.5584 28.5489 24.7705 28.1417 24.8149 27.7006L23.82 27.6004ZM23.57 28.0804L22.8244 27.414C21.625 28.756 20.8292 30.4096 20.5288 32.1842L21.5148 32.3511L22.5007 32.518C22.7382 31.115 23.3673 29.8077 24.3156 28.7468L23.57 28.0804ZM21.5148 32.3511L20.5288 32.1842C20.2284 33.9589 20.4356 35.7823 21.1266 37.4443L22.05 37.0604L22.9734 36.6765C22.4271 35.3626 22.2633 33.921 22.5007 32.518L21.5148 32.3511ZM22.05 37.0604L21.1296 37.4513C23.1458 42.1982 29.2375 44.1458 34.8887 42.3115L34.58 41.3604L34.2713 40.4092C29.2625 42.035 24.4541 40.1626 22.9704 36.6694L22.05 37.0604ZM34.58 41.3604L34.9043 42.3063C35.6452 42.0523 36.3669 41.7516 37.0741 41.3708L36.6 40.4904L36.1259 39.6099C35.533 39.9291 34.9148 40.1884 34.2557 40.4144L34.58 41.3604ZM36.6 40.4904L37.0433 41.3867C38.3197 40.7554 39.4693 39.8951 40.435 38.8485L39.7 38.1704L38.965 37.4923C38.1655 38.3589 37.2135 39.0713 36.1566 39.594L36.6 40.4904ZM39.7 38.1704L40.4086 38.876C41.9281 37.3501 42.9283 35.3844 43.2675 33.2579L42.28 33.1004L41.2925 32.9429C41.0195 34.6545 40.2144 36.2366 38.9914 37.4648L39.7 38.1704ZM42.28 33.1004L43.2688 33.2496C43.3603 32.6431 43.3572 32.1084 43.2158 31.6488C43.0616 31.1478 42.7638 30.8035 42.41 30.5824L41.88 31.4304L41.35 32.2784C41.345 32.2753 41.3284 32.2633 41.3122 32.2426C41.296 32.2219 41.2971 32.2139 41.3042 32.237C41.3228 32.2973 41.3596 32.4976 41.2912 32.9511L42.28 33.1004ZM41.88 31.4304L42.3576 30.5518C41.9402 30.3249 41.4602 30.2406 40.9905 30.3116L41.14 31.3004L41.2895 32.2891C41.3283 32.2833 41.3679 32.2902 41.4024 32.309L41.88 31.4304ZM41.14 31.3004L42.1261 31.134C41.973 30.2268 41.7108 29.3304 41.3491 28.4865L40.43 28.8804L39.5108 29.2743C39.8092 29.9704 40.0269 30.7139 40.1539 31.4667L41.14 31.3004ZM40.43 28.8804L39.83 28.0804C38.4063 29.1481 36.7952 29.9536 35.0818 30.4498L35.36 31.4104L35.6382 32.3709C37.5847 31.8071 39.4137 30.8926 41.03 29.6804L40.43 28.8804ZM35.36 31.4104L35.0887 30.4479C32.9957 31.0377 30.8081 31.2753 28.6413 31.1423L28.58 32.1404L28.5187 33.1385C30.9119 33.2854 33.3243 33.023 35.6312 32.3729L35.36 31.4104ZM28.58 32.1404L28.6614 31.1437C28.3234 31.1161 28.0248 31.0719 27.6972 31.0304C27.3963 30.9922 27.0419 30.9519 26.7034 30.9706C26.3514 30.9902 25.9307 31.0767 25.551 31.3639C25.1682 31.6534 24.9437 32.0581 24.8128 32.4908L25.77 32.7804L26.7271 33.0699C26.7763 32.9076 26.8093 32.9198 26.7575 32.959C26.7087 32.9959 26.6923 32.9743 26.8141 32.9676C26.9493 32.9601 27.1381 32.9754 27.4455 33.0145C27.7265 33.0501 28.1016 33.1046 28.4986 33.1371L28.58 32.1404ZM25.77 32.7804L25.4499 33.7278C27.8124 34.5259 30.324 34.7813 32.8035 34.4727L32.68 33.4804L32.5565 32.488C30.3759 32.7594 28.1676 32.5348 26.0901 31.833L25.77 32.7804ZM32.68 33.4804L32.7626 34.477C32.6007 34.4904 32.4383 34.4582 32.2938 34.3841L32.75 33.4942L33.2063 32.6044C33.0186 32.5081 32.8076 32.4664 32.5974 32.4838L32.68 33.4804ZM32.75 33.4942L32.2938 34.3841C32.1492 34.3099 32.0283 34.1968 31.9447 34.0575L32.8022 33.543L33.6597 33.0285C33.5512 32.8476 33.3941 32.7007 33.2063 32.6044L32.75 33.4942ZM32.8022 33.543L31.9447 34.0575C31.8611 33.9182 31.8182 33.7583 31.8208 33.5959L32.8207 33.612L33.8206 33.6281C33.824 33.4172 33.7683 33.2095 33.6597 33.0285L32.8022 33.543ZM32.8207 33.612L31.8208 33.5959C31.8235 33.4334 31.8715 33.275 31.9595 33.1385L32.8 33.6804L33.6404 34.2223C33.7548 34.045 33.8172 33.8392 33.8206 33.6281L32.8207 33.612ZM32.8 33.6804L31.9586 33.1399C32.055 32.9899 32.1951 32.8731 32.3601 32.8053L32.74 33.7304L33.1198 34.6554C33.3341 34.5674 33.5162 34.4157 33.6414 34.2208L32.8 33.6804ZM32.74 33.7304C32.3155 32.825 32.3159 32.8247 32.3163 32.8245C32.3165 32.8245 32.3169 32.8243 32.3171 32.8242C32.3177 32.8239 32.3181 32.8237 32.3186 32.8235C32.3195 32.8231 32.3202 32.8228 32.3207 32.8225C32.3218 32.822 32.3223 32.8218 32.3221 32.8219C32.3218 32.822 32.3189 32.8233 32.3135 32.8256C32.3028 32.8302 32.282 32.839 32.2514 32.8509C32.1903 32.8747 32.0902 32.9111 31.9534 32.9529C31.6798 33.0365 31.2597 33.1413 30.71 33.2092C29.6136 33.3445 27.99 33.3348 25.967 32.7055L25.67 33.6604L25.373 34.6152C27.6899 35.336 29.6014 35.3612 30.955 35.1941C31.6302 35.1107 32.1639 34.9799 32.5378 34.8656C32.7247 34.8085 32.8719 34.7555 32.977 34.7146C33.0296 34.6941 33.0717 34.6767 33.103 34.6632C33.1187 34.6565 33.1316 34.6507 33.1419 34.6461C33.147 34.6438 33.1515 34.6418 33.1553 34.6401C33.1571 34.6392 33.1589 34.6384 33.1604 34.6377C33.1612 34.6373 33.1619 34.637 33.1626 34.6367C33.1629 34.6365 33.1634 34.6363 33.1636 34.6362C33.164 34.636 33.1645 34.6358 32.74 33.7304ZM25.67 33.6604V32.6604H25.66V33.6604V34.6604H25.67V33.6604ZM17.66 14.3404L18.2346 15.1588C20.0451 13.8876 22.1003 13.007 24.2694 12.5728L24.0732 11.5923L23.8769 10.6117C21.4357 11.1003 19.1229 12.0914 17.0854 13.5219L17.66 14.3404ZM24.0732 11.5923L24.2694 12.5728C26.4386 12.1387 28.6744 12.1605 30.8346 12.6369L31.05 11.6604L31.2653 10.6838C28.8342 10.1477 26.3181 10.1231 23.8769 10.6117L24.0732 11.5923ZM31.05 11.6604L30.8331 12.6366C31.5774 12.802 31.9879 12.2183 32.0894 11.923C32.1872 11.6384 32.2329 10.9338 31.5572 10.5959L31.11 11.4904L30.6628 12.3848C30.0671 12.0869 30.1277 11.4773 30.1981 11.2728C30.2721 11.0575 30.6125 10.5388 31.2669 10.6842L31.05 11.6604ZM31.11 11.4904L31.5755 10.6053C30.1718 9.86698 28.6194 9.45528 27.0342 9.40096L27 10.4004L26.9657 11.3998C28.2498 11.4438 29.5074 11.7773 30.6445 12.3754L31.11 11.4904ZM27 10.4004L27.4999 9.53432C27.641 9.61576 27.7579 9.73319 27.8388 9.87464L26.9705 10.3708L26.1023 10.8669C26.1972 11.033 26.3344 11.1708 26.5 11.2664L27 10.4004ZM26.9705 10.3708L27.8388 9.87464C27.9196 10.016 27.9614 10.1764 27.9599 10.3393L26.96 10.3304L25.96 10.3214C25.9583 10.5127 26.0074 10.7009 26.1023 10.8669L26.9705 10.3708ZM26.96 10.3304L27.792 10.8851L27.812 10.8551L26.98 10.3004L26.1479 9.74566L26.1279 9.77566L26.96 10.3304ZM26.98 10.3004L27.7851 10.8935C27.958 10.6588 28.1625 10.4492 28.3928 10.2706L27.78 9.48037L27.1672 8.69014C26.7911 8.98179 26.4572 9.32408 26.1749 9.70726L26.98 10.3004ZM27.78 9.48037L28.7448 9.74328C28.7923 9.56887 28.7953 9.38535 28.7535 9.20956L27.7806 9.44084L26.8077 9.67211C26.7721 9.52237 26.7747 9.36604 26.8152 9.21746L27.78 9.48037ZM27.7806 9.44084L28.7535 9.20956C28.7117 9.03371 28.6265 8.87118 28.5056 8.73686L27.7623 9.40582L27.019 10.0748C26.916 9.96036 26.8434 9.82191 26.8077 9.67211L27.7806 9.44084ZM27.7623 9.40582L28.5056 8.73686C28.3847 8.60252 28.232 8.50067 28.0615 8.44064L27.7294 9.38388L27.3972 10.3271C27.252 10.276 27.122 10.1892 27.019 10.0748L27.7623 9.40582ZM27.7294 9.38388L28.0615 8.44064C27.891 8.38061 27.7082 8.36434 27.5298 8.39328L27.69 9.38037L27.8502 10.3675C27.6982 10.3921 27.5425 10.3783 27.3972 10.3271L27.7294 9.38388ZM27.69 9.38037L27.5915 8.38523C25.674 8.57501 23.8321 9.23148 22.2269 10.2973L22.78 11.1304L23.3331 11.9635C24.6663 11.0783 26.196 10.5331 27.7885 10.3755L27.69 9.38037ZM22.78 11.1304L22.8326 10.1318C23.0076 10.141 23.1763 10.2 23.3189 10.3018L22.7377 11.1156L22.1565 11.9293C22.3239 12.0489 22.522 12.1182 22.7274 12.129L22.78 11.1304ZM22.7377 11.1156L23.3189 10.3018C23.4615 10.4037 23.5721 10.5442 23.6376 10.7068L22.71 11.0804L21.7824 11.454C21.8593 11.6448 21.9891 11.8097 22.1565 11.9293L22.7377 11.1156ZM22.71 11.0804H23.71V11.0304H22.71H21.71V11.0804H22.71ZM22.71 11.0304L23.6789 11.2778C23.7733 10.9081 23.9156 10.5523 24.1022 10.2194L23.23 9.73037L22.3577 9.24132C22.0859 9.72614 21.8786 10.2444 21.7411 10.783L22.71 11.0304ZM23.23 9.73037L24.2289 9.6845C24.2208 9.50825 24.1693 9.33671 24.0788 9.18517L23.2202 9.6977L22.3615 10.2102C22.2829 10.0785 22.2381 9.92942 22.231 9.77623L23.23 9.73037ZM23.2202 9.6977L24.0788 9.18517C23.9884 9.03365 23.8619 8.90685 23.7106 8.81606L23.1961 9.67356L22.6816 10.531C22.5501 10.4521 22.4401 10.3419 22.3615 10.2102L23.2202 9.6977ZM23.1961 9.67356L23.7106 8.81606C23.5593 8.72528 23.3878 8.67332 23.2116 8.66482L23.1634 9.66366L23.1153 10.6625C22.9621 10.6551 22.8131 10.61 22.6816 10.531L23.1961 9.67356ZM23.1634 9.66366L23.2116 8.66482C23.0353 8.65633 22.8597 8.69154 22.7004 8.76736L23.13 9.67037L23.5596 10.5734C23.4211 10.6393 23.2685 10.6699 23.1153 10.6625L23.1634 9.66366ZM23.13 9.67037L22.6455 8.79557C20.4115 10.0328 18.4244 11.6709 16.7837 13.6279L17.55 14.2704L18.3163 14.9128C19.7993 13.144 21.5953 11.6635 23.6145 10.5452L23.13 9.67037ZM17.55 14.2704L16.5563 14.3827C16.5765 14.5616 16.6411 14.7325 16.7442 14.88L17.5639 14.3072L18.3836 13.7344C18.4714 13.8601 18.5264 14.0057 18.5437 14.158L17.55 14.2704ZM17.5639 14.3072L16.7442 14.88C16.8472 15.0274 16.9855 15.1469 17.1465 15.2274L17.5937 14.3329L18.0409 13.4385C18.1781 13.5071 18.2958 13.6088 18.3836 13.7344L17.5639 14.3072ZM17.5937 14.3329L17.1465 15.2274C17.3075 15.3079 17.486 15.3468 17.6658 15.3408L17.6322 14.3413L17.5985 13.3419C17.7517 13.3367 17.9038 13.3699 18.0409 13.4385L17.5937 14.3329ZM17.6322 14.3413L17.6658 15.3408C17.8456 15.3347 18.0211 15.2838 18.1763 15.1927L17.67 14.3304L17.1637 13.468C17.2959 13.3904 17.4453 13.3471 17.5985 13.3419L17.6322 14.3413ZM17.67 14.3304L16.9629 13.6233L16.9529 13.6333L17.66 14.3404L18.3671 15.0475L18.3771 15.0375L17.67 14.3304ZM31.81 25.6504L31.2635 26.4878C31.6178 26.719 32.0456 26.8098 32.4632 26.7425L32.304 25.7552L32.1448 24.768C32.2185 24.7561 32.294 24.7721 32.3565 24.8129L31.81 25.6504ZM32.304 25.7552L32.4632 26.7425C32.8809 26.6751 33.2584 26.4544 33.5221 26.1235L32.74 25.5004L31.9579 24.8772C32.0044 24.8188 32.0711 24.7799 32.1448 24.768L32.304 25.7552ZM32.74 25.5004L33.6277 25.9607C33.887 25.4608 33.7907 24.9465 33.5933 24.5862C33.3997 24.2329 33.0882 23.9669 32.7475 23.8011L32.31 24.7004L31.8725 25.5996C31.9018 25.6139 31.8753 25.6129 31.8392 25.5471C31.7993 25.4742 31.733 25.27 31.8522 25.0401L32.74 25.5004ZM32.31 24.7004L32.8586 23.8643C32.4994 23.6286 32.0642 23.5377 31.6407 23.6098L31.8085 24.5956L31.9763 25.5814C31.9016 25.5941 31.8248 25.5781 31.7614 25.5365L32.31 24.7004ZM31.8085 24.5956L31.6407 23.6098C31.2172 23.6818 30.8367 23.9116 30.5757 24.2528L31.37 24.8604L32.1643 25.4679C32.1182 25.5281 32.0511 25.5687 31.9763 25.5814L31.8085 24.5956ZM31.37 24.8604L30.4756 24.4132C30.2222 24.9199 30.3368 25.433 30.535 25.7807C30.7327 26.1273 31.0457 26.3901 31.3919 26.5541L31.82 25.6504L32.2481 24.7466C32.2143 24.7306 32.2373 24.7284 32.2725 24.7901C32.3082 24.8527 32.3878 25.0608 32.2644 25.3076L31.37 24.8604ZM31.82 25.6504V24.6504H31.81V25.6504V26.6504H31.82V25.6504ZM32.98 21.4004L31.9978 21.5884C32.1141 22.1957 32.3623 22.7924 32.755 23.307L33.55 22.7004L34.3449 22.0937C34.1577 21.8484 34.0259 21.545 33.9621 21.2123L32.98 21.4004ZM33.55 22.7004L33.6495 23.6954C33.8833 23.672 34.1167 23.672 34.3505 23.6954L34.45 22.7004L34.5495 21.7053C34.1833 21.6687 33.8167 21.6687 33.4505 21.7053L33.55 22.7004ZM34.45 22.7004L35.4005 23.0111C35.6328 22.3006 35.644 21.5537 35.4568 20.845L34.49 21.1004L33.5232 21.3558C33.6159 21.707 33.6072 22.0602 33.4995 22.3896L34.45 22.7004ZM34.49 21.1004L35.4674 20.8888C35.3588 20.3876 35.2031 19.8352 34.9152 19.4085C34.7616 19.1809 34.5434 18.9477 34.2351 18.7925C33.9155 18.6316 33.5726 18.5918 33.2416 18.6414L33.39 19.6304L33.5383 20.6193C33.5074 20.6239 33.4258 20.6242 33.3358 20.5789C33.2572 20.5393 33.2372 20.4974 33.2573 20.5272C33.2792 20.5597 33.3198 20.6346 33.3692 20.7769C33.4175 20.9159 33.4651 21.0925 33.5126 21.312L34.49 21.1004ZM33.39 19.6304L33.2256 18.644C32.8769 18.7021 32.5457 18.8638 32.2923 19.1508C32.0514 19.4236 31.9417 19.7404 31.893 20.0137C31.801 20.5301 31.8893 21.1124 32.0048 21.6216L32.98 21.4004L33.9552 21.1792C33.9064 20.964 33.8762 20.7837 33.8626 20.6369C33.8488 20.4861 33.8555 20.4008 33.862 20.3645C33.8683 20.3291 33.8649 20.3915 33.7915 20.4746C33.7055 20.5719 33.6031 20.6086 33.5544 20.6168L33.39 19.6304ZM34.25 23.6404L34.5299 22.6803C34.1782 22.5778 33.8033 22.5882 33.4579 22.7101L33.7905 23.6531L34.1232 24.5961C34.0739 24.6136 34.0203 24.615 33.9701 24.6004L34.25 23.6404ZM33.7905 23.6531L33.4579 22.7101C33.1124 22.8319 32.8139 23.0591 32.6045 23.3596L33.4248 23.9315L34.2451 24.5034C34.2152 24.5463 34.1726 24.5787 34.1232 24.5961L33.7905 23.6531ZM33.4248 23.9315L32.6045 23.3596C32.395 23.6601 32.2851 24.0187 32.2902 24.385L33.2901 24.3709L34.29 24.3569C34.2908 24.4092 34.2751 24.4604 34.2451 24.5034L33.4248 23.9315ZM33.2901 24.3709L32.2902 24.385C32.2954 24.7512 32.4153 25.1066 32.6331 25.4011L33.4371 24.8064L34.241 24.2117C34.2722 24.2538 34.2893 24.3046 34.29 24.3569L33.2901 24.3709ZM33.4371 24.8064L32.6331 25.4011C32.851 25.6956 33.1557 25.9143 33.5044 26.0264L33.8105 25.0744L34.1166 24.1224C34.1664 24.1384 34.2099 24.1696 34.241 24.2117L33.4371 24.8064ZM33.8105 25.0744L33.5044 26.0264C33.8532 26.1385 34.2283 26.1384 34.5769 26.026L34.2701 25.0742L33.9634 24.1224C34.0132 24.1064 34.0668 24.1064 34.1166 24.1224L33.8105 25.0744ZM34.2701 25.0742L34.5769 26.026C34.9255 25.9136 35.2301 25.6947 35.4477 25.4001L34.6433 24.806L33.839 24.2119C33.87 24.1698 33.9136 24.1385 33.9634 24.1224L34.2701 25.0742ZM34.6433 24.806L35.4477 25.4001C35.6653 25.1054 35.785 24.7499 35.7899 24.3837L34.79 24.3704L33.7901 24.3571C33.7908 24.3047 33.8079 24.254 33.839 24.2119L34.6433 24.806ZM34.79 24.3704L35.7826 24.4918C35.8342 24.07 35.7221 23.6446 35.4694 23.3031L34.6655 23.8978L33.8615 24.4925C33.8098 24.4225 33.7868 24.3354 33.7974 24.249L34.79 24.3704ZM34.6655 23.8978L35.4694 23.3031C35.2168 22.9615 34.8428 22.7298 34.4244 22.6557L34.25 23.6404L34.0756 24.625C33.9899 24.6099 33.9133 24.5624 33.8615 24.4925L34.6655 23.8978Z" fill="#18181B" mask="url(#path-3-inside-1_0_4509)"/>
<mask id="path-5-inside-2_0_4509" fill="white">
<path d="M24.3201 23.5404C24.2201 23.5404 24.1801 23.4904 24.1701 23.4404C24.1301 23.2704 24.3901 22.9904 24.6701 22.7904C25.0668 22.5026 25.5305 22.3212 26.0171 22.2634C26.5038 22.2057 26.9971 22.2735 27.4501 22.4604C27.8801 22.6304 28.2501 22.9304 28.5001 23.3004C28.6001 23.4604 28.6201 23.5904 28.5601 23.6504C28.4601 23.7504 28.2101 23.6404 27.8001 23.4504C27.3115 23.2141 26.7725 23.1008 26.2301 23.1204C25.5801 23.2204 24.9501 23.3704 24.3201 23.5404ZM28.3701 24.3804C28.1948 24.1944 27.9759 24.0549 27.7333 23.9746C27.4906 23.8943 27.2318 23.8757 26.9801 23.9204C26.613 23.9602 26.2655 24.1062 25.9801 24.3404C25.8459 24.4359 25.7529 24.5789 25.7201 24.7404C25.7192 24.7589 25.7224 24.7775 25.7293 24.7947C25.7362 24.812 25.7467 24.8275 25.7601 24.8404C25.7801 24.8704 25.8101 24.8804 25.8501 24.8804C25.9801 24.8604 26.1101 24.8204 26.2301 24.7704C26.7722 24.5666 27.3574 24.5046 27.9301 24.5904C28.2001 24.6204 28.3301 24.6404 28.3801 24.5504C28.3973 24.5254 28.4065 24.4957 28.4065 24.4654C28.4065 24.435 28.3973 24.4054 28.3801 24.3804H28.3701Z"/>
</mask>
<path d="M24.3201 23.5404C24.2201 23.5404 24.1801 23.4904 24.1701 23.4404C24.1301 23.2704 24.3901 22.9904 24.6701 22.7904C25.0668 22.5026 25.5305 22.3212 26.0171 22.2634C26.5038 22.2057 26.9971 22.2735 27.4501 22.4604C27.8801 22.6304 28.2501 22.9304 28.5001 23.3004C28.6001 23.4604 28.6201 23.5904 28.5601 23.6504C28.4601 23.7504 28.2101 23.6404 27.8001 23.4504C27.3115 23.2141 26.7725 23.1008 26.2301 23.1204C25.5801 23.2204 24.9501 23.3704 24.3201 23.5404ZM28.3701 24.3804C28.1948 24.1944 27.9759 24.0549 27.7333 23.9746C27.4906 23.8943 27.2318 23.8757 26.9801 23.9204C26.613 23.9602 26.2655 24.1062 25.9801 24.3404C25.8459 24.4359 25.7529 24.5789 25.7201 24.7404C25.7192 24.7589 25.7224 24.7775 25.7293 24.7947C25.7362 24.812 25.7467 24.8275 25.7601 24.8404C25.7801 24.8704 25.8101 24.8804 25.8501 24.8804C25.9801 24.8604 26.1101 24.8204 26.2301 24.7704C26.7722 24.5666 27.3574 24.5046 27.9301 24.5904C28.2001 24.6204 28.3301 24.6404 28.3801 24.5504C28.3973 24.5254 28.4065 24.4957 28.4065 24.4654C28.4065 24.435 28.3973 24.4054 28.3801 24.3804H28.3701Z" fill="#18181B"/>
<path d="M24.3201 23.5404V24.5404H24.4527L24.5806 24.5058L24.3201 23.5404ZM24.1701 23.4404L25.1507 23.2443L25.1474 23.2277L25.1435 23.2113L24.1701 23.4404ZM24.6701 22.7904L25.2514 23.6041L25.2573 23.5998L24.6701 22.7904ZM27.4501 22.4604L27.0687 23.3848L27.0755 23.3876L27.0824 23.3903L27.4501 22.4604ZM28.5001 23.3004L29.3481 22.7704L29.3387 22.7553L29.3287 22.7405L28.5001 23.3004ZM27.8001 23.4504L27.3647 24.3506L27.3722 24.3542L27.3796 24.3577L27.8001 23.4504ZM26.2301 23.1204L26.194 22.121L26.1357 22.1231L26.078 22.132L26.2301 23.1204ZM28.3701 24.3804L27.6424 25.0663L27.9385 25.3804H28.3701V24.3804ZM26.9801 23.9204L27.0881 24.9145L27.1217 24.9109L27.155 24.905L26.9801 23.9204ZM25.9801 24.3404L26.56 25.155L26.5879 25.1352L26.6144 25.1135L25.9801 24.3404ZM25.7201 24.7404L24.7402 24.5411L24.7248 24.6167L24.7212 24.6938L25.7201 24.7404ZM25.7601 24.8404L26.5922 24.2857L26.531 24.1939L26.4513 24.1177L25.7601 24.8404ZM25.8501 24.8804V25.8804H25.9266L26.0022 25.8687L25.8501 24.8804ZM26.2301 24.7704L25.8782 23.8343L25.8617 23.8405L25.8455 23.8473L26.2301 24.7704ZM27.9301 24.5904L27.782 25.5793L27.8008 25.5822L27.8197 25.5843L27.9301 24.5904ZM28.3801 24.5504L27.5562 23.9837L27.5291 24.023L27.5059 24.0647L28.3801 24.5504ZM28.3801 24.3804L29.204 23.8137L28.906 23.3804H28.3801V24.3804ZM24.3201 23.5404V22.5404C24.4373 22.5404 24.6378 22.5717 24.831 22.7242C25.0251 22.8775 25.1176 23.0789 25.1507 23.2443L24.1701 23.4404L23.1895 23.6365C23.2326 23.8518 23.3501 24.1033 23.5917 24.294C23.8324 24.484 24.1029 24.5404 24.3201 24.5404V23.5404ZM24.1701 23.4404L25.1435 23.2113C25.2022 23.4607 25.1307 23.644 25.1093 23.6933C25.0834 23.7531 25.0614 23.7753 25.0744 23.7594C25.0989 23.7294 25.1621 23.6678 25.2513 23.6041L24.6701 22.7904L24.0889 21.9766C23.8981 22.1129 23.6913 22.2913 23.5258 22.4938C23.4438 22.5942 23.3468 22.7308 23.2747 22.8971C23.207 23.053 23.118 23.335 23.1967 23.6694L24.1701 23.4404ZM24.6701 22.7904L25.2573 23.5998C25.5158 23.4123 25.8179 23.2941 26.135 23.2564L26.0171 22.2634L25.8993 21.2704C25.2431 21.3483 24.6177 21.5929 24.0829 21.9809L24.6701 22.7904ZM26.0171 22.2634L26.135 23.2564C26.4521 23.2188 26.7735 23.263 27.0687 23.3848L27.4501 22.4604L27.8315 21.536C27.2207 21.2839 26.5555 21.1925 25.8993 21.2704L26.0171 22.2634ZM27.4501 22.4604L27.0824 23.3903C27.3251 23.4863 27.5344 23.6573 27.6715 23.8602L28.5001 23.3004L29.3287 22.7405C28.9658 22.2034 28.4351 21.7745 27.8178 21.5304L27.4501 22.4604ZM28.5001 23.3004L27.6521 23.8304C27.6612 23.8449 27.6228 23.7917 27.6037 23.6773C27.5868 23.5758 27.5615 23.2348 27.853 22.9433L28.5601 23.6504L29.2672 24.3575C29.6187 24.006 29.6134 23.5699 29.5765 23.3485C29.5374 23.1141 29.439 22.9158 29.3481 22.7704L28.5001 23.3004ZM28.5601 23.6504L27.853 22.9433C28.0643 22.7319 28.3103 22.6905 28.439 22.6882C28.549 22.6862 28.6124 22.7101 28.5898 22.7031C28.577 22.6992 28.542 22.6869 28.4721 22.6569C28.4043 22.6278 28.3238 22.5909 28.2206 22.5431L27.8001 23.4504L27.3796 24.3577C27.5641 24.4432 27.7975 24.552 28.0029 24.6151C28.1066 24.6469 28.2768 24.6914 28.4746 24.6879C28.6912 24.684 29.0059 24.6188 29.2672 24.3575L28.5601 23.6504ZM27.8001 23.4504L28.2355 22.5501C27.6001 22.2429 26.8993 22.0955 26.194 22.121L26.2301 23.1204L26.2662 24.1197C26.6457 24.106 27.0228 24.1853 27.3647 24.3506L27.8001 23.4504ZM26.2301 23.1204L26.078 22.132C25.3767 22.2399 24.7071 22.4002 24.0596 22.5749L24.3201 23.5404L24.5806 24.5058C25.1931 24.3406 25.7835 24.2008 26.3822 24.1087L26.2301 23.1204ZM28.3701 24.3804L29.0978 23.6945C28.8087 23.3877 28.4477 23.1577 28.0474 23.0252L27.7333 23.9746L27.4191 24.924C27.5042 24.9521 27.5809 25.001 27.6424 25.0663L28.3701 24.3804ZM27.7333 23.9746L28.0474 23.0252C27.6472 22.8928 27.2203 22.8621 26.8052 22.9358L26.9801 23.9204L27.155 24.905C27.2432 24.8893 27.334 24.8958 27.4191 24.924L27.7333 23.9746ZM26.9801 23.9204L26.8721 22.9262C26.3119 22.9871 25.7815 23.2098 25.3458 23.5673L25.9801 24.3404L26.6144 25.1135C26.7496 25.0025 26.9142 24.9334 27.0881 24.9145L26.9801 23.9204ZM25.9801 24.3404L25.4002 23.5257C25.0594 23.7683 24.8235 24.1312 24.7402 24.5411L25.7201 24.7404L26.7 24.9396C26.6824 25.0266 26.6323 25.1036 26.56 25.155L25.9801 24.3404ZM25.7201 24.7404L24.7212 24.6938C24.7137 24.8551 24.7408 25.0162 24.8008 25.1661L25.7293 24.7947L26.6577 24.4233C26.7039 24.5387 26.7248 24.6627 26.719 24.787L25.7201 24.7404ZM25.7293 24.7947L24.8008 25.1661C24.8608 25.316 24.9522 25.4514 25.0689 25.563L25.7601 24.8404L26.4513 24.1177C26.5412 24.2037 26.6116 24.3079 26.6577 24.4233L25.7293 24.7947ZM25.7601 24.8404L24.9281 25.3951C25.2071 25.8137 25.6348 25.8804 25.8501 25.8804V24.8804V23.8804C25.9055 23.8804 26.0321 23.886 26.1822 23.9485C26.3507 24.0188 26.4934 24.1376 26.5922 24.2857L25.7601 24.8404ZM25.8501 24.8804L26.0022 25.8687C26.2276 25.8341 26.4362 25.7678 26.6147 25.6934L26.2301 24.7704L25.8455 23.8473C25.784 23.8729 25.7326 23.8867 25.698 23.892L25.8501 24.8804ZM26.2301 24.7704L26.582 25.7064C26.9647 25.5625 27.3777 25.5188 27.782 25.5793L27.9301 24.5904L28.0782 23.6014C27.337 23.4904 26.5797 23.5706 25.8782 23.8343L26.2301 24.7704ZM27.9301 24.5904L27.8197 25.5843C27.9052 25.5938 28.106 25.6205 28.2721 25.6148C28.3681 25.6115 28.5409 25.5971 28.7294 25.5141C28.9467 25.4185 29.1326 25.255 29.2543 25.036L28.3801 24.5504L27.5059 24.0647C27.6026 23.8908 27.7535 23.7585 27.9239 23.6835C28.0656 23.6212 28.1796 23.6168 28.2031 23.616C28.2314 23.615 28.2387 23.6173 28.1989 23.6136C28.1604 23.6101 28.1176 23.605 28.0405 23.5965L27.9301 24.5904ZM28.3801 24.5504L29.204 25.117C29.3359 24.9253 29.4065 24.6981 29.4065 24.4654H28.4065H27.4065C27.4065 24.2933 27.4587 24.1254 27.5562 23.9837L28.3801 24.5504ZM28.4065 24.4654H29.4065C29.4065 24.2326 29.3359 24.0054 29.204 23.8137L28.3801 24.3804L27.5562 24.947C27.4587 24.8053 27.4065 24.6374 27.4065 24.4654H28.4065ZM28.3801 24.3804V23.3804H28.3701V24.3804V25.3804H28.3801V24.3804Z" fill="#18181B" mask="url(#path-5-inside-2_0_4509)"/>
<mask id="path-7-inside-3_0_4509" fill="white">
<path d="M27.6198 24.6204C27.7898 24.0204 27.7998 23.3904 27.6498 22.7904C27.4298 21.8204 27.0998 21.2604 26.4998 21.3504C25.8898 21.4504 25.8698 22.2304 26.0698 23.2104C26.1598 23.6504 26.3298 24.0804 26.5798 24.4604C27.0698 25.1304 27.3898 24.9604 27.6198 24.6204ZM73.3898 21.6404C70.4598 21.6404 69.0098 23.9404 68.3498 25.4304C67.9698 26.2604 67.8698 26.9104 67.5698 26.9104C67.1398 26.9104 67.4498 26.3404 67.0998 25.0804C66.8335 24.0411 66.2116 23.1279 65.342 22.4995C64.4724 21.871 63.4102 21.5671 62.3398 21.6404C59.2598 21.6404 57.9398 24.2404 57.3198 25.6604C56.8998 26.6404 56.8998 26.9104 56.5598 26.9104C56.0798 26.9104 56.4798 26.1304 56.6898 25.2304C56.9498 24.1904 56.9898 23.1104 56.7898 22.0604H51.9298V40.3804H58.5898V31.2604C58.5898 29.4604 59.3398 27.1804 60.6298 27.1804C62.1298 27.1804 62.4298 28.3204 62.4298 30.4404V40.3804H69.0998V31.2504C69.0998 29.6504 69.7498 27.1704 71.1598 27.1704C72.6798 27.1704 72.9398 28.7804 72.9398 30.4304V40.3604H79.5098V29.6004C79.5098 24.8204 77.8198 21.6404 73.3998 21.6404H73.3898ZM186.36 21.6404C183.43 21.6404 181.98 23.9404 181.32 25.4304C180.94 26.2604 180.84 26.9104 180.54 26.9104C180.11 26.9104 180.4 26.1804 180.07 25.0804C179.816 24.034 179.197 23.1126 178.325 22.482C177.452 21.8513 176.383 21.5529 175.31 21.6404C172.25 21.6404 170.92 24.2404 170.29 25.6604C169.87 26.6404 169.87 26.9104 169.54 26.9104C169.06 26.9104 169.44 26.1304 169.67 25.2304C169.923 24.1921 169.957 23.1125 169.77 22.0604H164.88V40.3804H171.54V31.2604C171.54 29.4604 172.3 27.1804 173.59 27.1804C175.08 27.1804 175.38 28.3204 175.38 30.4404V40.3804H182.06V31.2504C182.06 29.6504 182.71 27.1704 184.12 27.1704C185.63 27.1704 185.9 28.7804 185.9 30.4304V40.3604H192.46V29.6004C192.46 24.8204 190.78 21.6404 186.36 21.6404ZM90.8598 21.6404C87.8398 21.6204 84.8598 22.2604 82.0998 23.5104V29.0104C82.0998 29.0104 86.1398 26.6904 89.4198 26.6904C92.0398 26.6904 92.3598 28.1004 92.2398 29.2704C91.23 29.0941 90.2041 29.027 89.1798 29.0704C83.7498 29.0704 81.0198 31.5304 81.0198 35.4804C81.0198 39.2304 84.0998 40.8004 86.6798 40.8004C87.9353 40.848 89.1759 40.5155 90.2393 39.8464C91.3027 39.1773 92.1394 38.2028 92.6398 37.0504C92.9898 36.2104 93.0598 35.6504 93.3798 35.6504C93.7298 35.6504 93.6198 36.0504 93.5998 36.8904C93.5398 38.0604 93.6298 39.2304 93.8698 40.3804H98.8798V31.3604C98.8798 25.7204 96.8898 21.6304 90.8498 21.6304H90.8598V21.6404ZM89.2398 36.1004C87.6498 36.4604 86.8198 35.9704 86.8198 34.9204C86.8198 33.4704 88.3198 32.8904 90.4498 32.8904C91.3798 32.8904 92.2698 32.9904 92.2698 32.9904C92.0481 33.7138 91.6564 34.3736 91.1276 34.9146C90.5987 35.4557 89.948 35.8622 89.2298 36.1004H89.2398ZM116.51 16.5004H109.85V40.3804H116.51V16.5004ZM123.84 31.2204C123.84 29.5704 125.38 28.0804 128.19 28.0804C130.34 28.1304 132.44 28.7604 134.27 29.8904V23.5204C134.27 23.5204 132.32 21.6504 127.54 21.6504C122.5 21.6504 118.29 24.6004 118.29 30.9504C118.29 37.2904 122.1 40.8204 127.52 40.8204C129.97 40.8506 132.356 40.0308 134.27 38.5004V32.4504C132.47 33.6604 130.37 34.3504 128.21 34.4404C124.99 34.4404 123.83 32.9604 123.83 31.2404L123.84 31.2204ZM147.74 21.6404C143.88 21.6404 142.42 25.2904 142.12 25.9204C141.82 26.5504 141.69 26.9204 141.44 26.9104C141.03 26.9004 141.31 26.1304 141.47 25.6404C142.12 23.5704 142.44 21.4104 142.44 19.2404C142.499 18.3217 142.408 17.3996 142.17 16.5104H136.43V40.3804H143.08V31.2604C143.08 29.7804 143.68 27.1804 145.35 27.1804C146.74 27.1804 147.17 28.2204 147.17 30.2804V40.3804H153.83V30.6804C153.83 25.9804 153.06 21.6304 147.75 21.6304H147.74V21.6404ZM156 22.0804V40.3804H162.66V22.0804C161.622 22.5614 160.483 22.7844 159.34 22.7304C158.19 22.7849 157.045 22.5619 156 22.0804ZM159.3 21.6404C161.55 21.6404 163.37 20.4404 163.37 18.9704C163.37 17.5004 161.55 16.3104 159.3 16.3104C157.05 16.3104 155.23 17.5104 155.23 18.9704C155.23 20.4404 157.06 21.6404 159.3 21.6404ZM101.05 22.0804V40.3804H107.71V22.0804C106.672 22.5614 105.533 22.7844 104.39 22.7304C103.24 22.7853 102.095 22.5623 101.05 22.0804ZM104.35 21.6404C106.6 21.6404 108.42 20.4404 108.42 18.9704C108.42 17.5004 106.6 16.3104 104.35 16.3104C102.1 16.3104 100.28 17.5104 100.28 18.9704C100.28 20.4404 102.1 21.6404 104.35 21.6404ZM205.69 21.6404C202.27 21.6404 200.7 24.2004 200.02 25.6604C199.57 26.6304 199.59 26.9104 199.26 26.9104C198.78 26.9104 199.17 26.1304 199.39 25.2304C199.65 24.1904 199.69 23.1104 199.49 22.0604H194.61V45.4604H201.27V38.0404C201.706 38.8595 202.353 39.5473 203.144 40.0325C203.936 40.5177 204.842 40.7828 205.77 40.8004C210.58 40.8004 213 36.7304 213 31.2204C213 24.9904 210.1 21.6304 205.68 21.6304L205.69 21.6404ZM203.87 36.4504C202.34 36.4504 201.21 34.5104 201.21 31.8204C201.21 29.1204 202.36 27.1804 203.81 27.1804C205.66 27.1804 206.45 28.8804 206.45 31.8204C206.45 34.7604 205.73 36.4504 203.87 36.4504ZM75.7998 12.6304C75.8033 13.1818 75.918 13.7268 76.137 14.2328C76.356 14.7388 76.6748 15.1955 77.0744 15.5755C77.474 15.9554 77.9461 16.2509 78.4625 16.4442C78.9789 16.6375 79.529 16.7246 80.0798 16.7004C80.6307 16.7246 81.1808 16.6375 81.6972 16.4442C82.2136 16.2509 82.6857 15.9554 83.0852 15.5755C83.4848 15.1955 83.8036 14.7388 84.0226 14.2328C84.2416 13.7268 84.3563 13.1818 84.3598 12.6304V7.20039H82.0398V12.3404C82.0398 12.8629 81.8323 13.3639 81.4628 13.7334C81.0934 14.1028 80.5923 14.3104 80.0698 14.3104C79.5474 14.3104 79.0463 14.1028 78.6768 13.7334C78.3074 13.3639 78.0998 12.8629 78.0998 12.3404V7.20039H75.7698V12.6204H75.7898L75.7998 12.6304ZM90.5698 9.38039H93.3398V16.5004H95.6698V9.38039H98.4398V7.20039H90.5698V9.38039ZM89.0698 7.20039H86.7498V16.5004H89.0698V7.20039ZM66.4198 9.38039H69.1898V16.5004H71.5098V9.38039H74.2798V7.20039H66.4198V9.38039ZM54.2498 7.20039H51.9298V16.5004H54.2498V7.20039ZM65.1998 11.1004C65.1978 10.5464 65.0835 9.99857 64.8639 9.48998C64.6442 8.9814 64.3238 8.52259 63.9219 8.14128C63.52 7.75997 63.0451 7.46405 62.5256 7.2714C62.0062 7.07875 61.4532 6.99336 60.8998 7.02039C60.3481 6.99614 59.7972 7.08359 59.2802 7.27749C58.7631 7.47139 58.2905 7.76775 57.8908 8.14878C57.4911 8.52982 57.1725 8.98767 56.9541 9.49487C56.7357 10.0021 56.622 10.5482 56.6198 11.1004V16.5104H58.9498V11.3804C58.9498 10.8579 59.1574 10.3568 59.5268 9.98739C59.8963 9.61794 60.3974 9.41039 60.9198 9.41039C61.4423 9.41039 61.9434 9.61794 62.3128 9.98739C62.6823 10.3568 62.8898 10.8579 62.8898 11.3804V16.5104H65.2098V11.1104L65.1998 11.1004Z"/>
</mask>
<path d="M27.6198 24.6204C27.7898 24.0204 27.7998 23.3904 27.6498 22.7904C27.4298 21.8204 27.0998 21.2604 26.4998 21.3504C25.8898 21.4504 25.8698 22.2304 26.0698 23.2104C26.1598 23.6504 26.3298 24.0804 26.5798 24.4604C27.0698 25.1304 27.3898 24.9604 27.6198 24.6204ZM73.3898 21.6404C70.4598 21.6404 69.0098 23.9404 68.3498 25.4304C67.9698 26.2604 67.8698 26.9104 67.5698 26.9104C67.1398 26.9104 67.4498 26.3404 67.0998 25.0804C66.8335 24.0411 66.2116 23.1279 65.342 22.4995C64.4724 21.871 63.4102 21.5671 62.3398 21.6404C59.2598 21.6404 57.9398 24.2404 57.3198 25.6604C56.8998 26.6404 56.8998 26.9104 56.5598 26.9104C56.0798 26.9104 56.4798 26.1304 56.6898 25.2304C56.9498 24.1904 56.9898 23.1104 56.7898 22.0604H51.9298V40.3804H58.5898V31.2604C58.5898 29.4604 59.3398 27.1804 60.6298 27.1804C62.1298 27.1804 62.4298 28.3204 62.4298 30.4404V40.3804H69.0998V31.2504C69.0998 29.6504 69.7498 27.1704 71.1598 27.1704C72.6798 27.1704 72.9398 28.7804 72.9398 30.4304V40.3604H79.5098V29.6004C79.5098 24.8204 77.8198 21.6404 73.3998 21.6404H73.3898ZM186.36 21.6404C183.43 21.6404 181.98 23.9404 181.32 25.4304C180.94 26.2604 180.84 26.9104 180.54 26.9104C180.11 26.9104 180.4 26.1804 180.07 25.0804C179.816 24.034 179.197 23.1126 178.325 22.482C177.452 21.8513 176.383 21.5529 175.31 21.6404C172.25 21.6404 170.92 24.2404 170.29 25.6604C169.87 26.6404 169.87 26.9104 169.54 26.9104C169.06 26.9104 169.44 26.1304 169.67 25.2304C169.923 24.1921 169.957 23.1125 169.77 22.0604H164.88V40.3804H171.54V31.2604C171.54 29.4604 172.3 27.1804 173.59 27.1804C175.08 27.1804 175.38 28.3204 175.38 30.4404V40.3804H182.06V31.2504C182.06 29.6504 182.71 27.1704 184.12 27.1704C185.63 27.1704 185.9 28.7804 185.9 30.4304V40.3604H192.46V29.6004C192.46 24.8204 190.78 21.6404 186.36 21.6404ZM90.8598 21.6404C87.8398 21.6204 84.8598 22.2604 82.0998 23.5104V29.0104C82.0998 29.0104 86.1398 26.6904 89.4198 26.6904C92.0398 26.6904 92.3598 28.1004 92.2398 29.2704C91.23 29.0941 90.2041 29.027 89.1798 29.0704C83.7498 29.0704 81.0198 31.5304 81.0198 35.4804C81.0198 39.2304 84.0998 40.8004 86.6798 40.8004C87.9353 40.848 89.1759 40.5155 90.2393 39.8464C91.3027 39.1773 92.1394 38.2028 92.6398 37.0504C92.9898 36.2104 93.0598 35.6504 93.3798 35.6504C93.7298 35.6504 93.6198 36.0504 93.5998 36.8904C93.5398 38.0604 93.6298 39.2304 93.8698 40.3804H98.8798V31.3604C98.8798 25.7204 96.8898 21.6304 90.8498 21.6304H90.8598V21.6404ZM89.2398 36.1004C87.6498 36.4604 86.8198 35.9704 86.8198 34.9204C86.8198 33.4704 88.3198 32.8904 90.4498 32.8904C91.3798 32.8904 92.2698 32.9904 92.2698 32.9904C92.0481 33.7138 91.6564 34.3736 91.1276 34.9146C90.5987 35.4557 89.948 35.8622 89.2298 36.1004H89.2398ZM116.51 16.5004H109.85V40.3804H116.51V16.5004ZM123.84 31.2204C123.84 29.5704 125.38 28.0804 128.19 28.0804C130.34 28.1304 132.44 28.7604 134.27 29.8904V23.5204C134.27 23.5204 132.32 21.6504 127.54 21.6504C122.5 21.6504 118.29 24.6004 118.29 30.9504C118.29 37.2904 122.1 40.8204 127.52 40.8204C129.97 40.8506 132.356 40.0308 134.27 38.5004V32.4504C132.47 33.6604 130.37 34.3504 128.21 34.4404C124.99 34.4404 123.83 32.9604 123.83 31.2404L123.84 31.2204ZM147.74 21.6404C143.88 21.6404 142.42 25.2904 142.12 25.9204C141.82 26.5504 141.69 26.9204 141.44 26.9104C141.03 26.9004 141.31 26.1304 141.47 25.6404C142.12 23.5704 142.44 21.4104 142.44 19.2404C142.499 18.3217 142.408 17.3996 142.17 16.5104H136.43V40.3804H143.08V31.2604C143.08 29.7804 143.68 27.1804 145.35 27.1804C146.74 27.1804 147.17 28.2204 147.17 30.2804V40.3804H153.83V30.6804C153.83 25.9804 153.06 21.6304 147.75 21.6304H147.74V21.6404ZM156 22.0804V40.3804H162.66V22.0804C161.622 22.5614 160.483 22.7844 159.34 22.7304C158.19 22.7849 157.045 22.5619 156 22.0804ZM159.3 21.6404C161.55 21.6404 163.37 20.4404 163.37 18.9704C163.37 17.5004 161.55 16.3104 159.3 16.3104C157.05 16.3104 155.23 17.5104 155.23 18.9704C155.23 20.4404 157.06 21.6404 159.3 21.6404ZM101.05 22.0804V40.3804H107.71V22.0804C106.672 22.5614 105.533 22.7844 104.39 22.7304C103.24 22.7853 102.095 22.5623 101.05 22.0804ZM104.35 21.6404C106.6 21.6404 108.42 20.4404 108.42 18.9704C108.42 17.5004 106.6 16.3104 104.35 16.3104C102.1 16.3104 100.28 17.5104 100.28 18.9704C100.28 20.4404 102.1 21.6404 104.35 21.6404ZM205.69 21.6404C202.27 21.6404 200.7 24.2004 200.02 25.6604C199.57 26.6304 199.59 26.9104 199.26 26.9104C198.78 26.9104 199.17 26.1304 199.39 25.2304C199.65 24.1904 199.69 23.1104 199.49 22.0604H194.61V45.4604H201.27V38.0404C201.706 38.8595 202.353 39.5473 203.144 40.0325C203.936 40.5177 204.842 40.7828 205.77 40.8004C210.58 40.8004 213 36.7304 213 31.2204C213 24.9904 210.1 21.6304 205.68 21.6304L205.69 21.6404ZM203.87 36.4504C202.34 36.4504 201.21 34.5104 201.21 31.8204C201.21 29.1204 202.36 27.1804 203.81 27.1804C205.66 27.1804 206.45 28.8804 206.45 31.8204C206.45 34.7604 205.73 36.4504 203.87 36.4504ZM75.7998 12.6304C75.8033 13.1818 75.918 13.7268 76.137 14.2328C76.356 14.7388 76.6748 15.1955 77.0744 15.5755C77.474 15.9554 77.9461 16.2509 78.4625 16.4442C78.9789 16.6375 79.529 16.7246 80.0798 16.7004C80.6307 16.7246 81.1808 16.6375 81.6972 16.4442C82.2136 16.2509 82.6857 15.9554 83.0852 15.5755C83.4848 15.1955 83.8036 14.7388 84.0226 14.2328C84.2416 13.7268 84.3563 13.1818 84.3598 12.6304V7.20039H82.0398V12.3404C82.0398 12.8629 81.8323 13.3639 81.4628 13.7334C81.0934 14.1028 80.5923 14.3104 80.0698 14.3104C79.5474 14.3104 79.0463 14.1028 78.6768 13.7334C78.3074 13.3639 78.0998 12.8629 78.0998 12.3404V7.20039H75.7698V12.6204H75.7898L75.7998 12.6304ZM90.5698 9.38039H93.3398V16.5004H95.6698V9.38039H98.4398V7.20039H90.5698V9.38039ZM89.0698 7.20039H86.7498V16.5004H89.0698V7.20039ZM66.4198 9.38039H69.1898V16.5004H71.5098V9.38039H74.2798V7.20039H66.4198V9.38039ZM54.2498 7.20039H51.9298V16.5004H54.2498V7.20039ZM65.1998 11.1004C65.1978 10.5464 65.0835 9.99857 64.8639 9.48998C64.6442 8.9814 64.3238 8.52259 63.9219 8.14128C63.52 7.75997 63.0451 7.46405 62.5256 7.2714C62.0062 7.07875 61.4532 6.99336 60.8998 7.02039C60.3481 6.99614 59.7972 7.08359 59.2802 7.27749C58.7631 7.47139 58.2905 7.76775 57.8908 8.14878C57.4911 8.52982 57.1725 8.98767 56.9541 9.49487C56.7357 10.0021 56.622 10.5482 56.6198 11.1004V16.5104H58.9498V11.3804C58.9498 10.8579 59.1574 10.3568 59.5268 9.98739C59.8963 9.61794 60.3974 9.41039 60.9198 9.41039C61.4423 9.41039 61.9434 9.61794 62.3128 9.98739C62.6823 10.3568 62.8898 10.8579 62.8898 11.3804V16.5104H65.2098V11.1104L65.1998 11.1004Z" fill="#18181B" stroke="#18181B" stroke-width="2" mask="url(#path-7-inside-3_0_4509)"/>
</g>
</g>
</g>
<defs>
<clipPath id="clip0_0_4509">
<rect width="213" height="48" fill="white" transform="translate(0 0.000366211)"/>
</clipPath>
</defs>
</svg>
