<svg width="170" height="48" viewBox="0 0 170 48" fill="none" xmlns="http://www.w3.org/2000/svg">
<g clip-path="url(#clip0_0_4427)">
<path d="M43.9802 41.5004L42.9402 44.5004C42.9402 44.5004 42.8902 44.5904 42.8302 44.5904H41.8302C41.8302 44.5904 41.7102 44.5704 41.7402 44.4904L44.9302 35.4304C44.9302 35.4304 44.9802 35.2904 44.9802 35.2304C45.0002 35.0904 45.0302 34.9704 45.0302 34.8304C45.0302 34.7804 45.0502 34.7304 45.1202 34.7304H46.5602C46.5602 34.7304 46.6402 34.7704 46.6402 34.8304L50.0902 44.5304C50.0902 44.5304 50.0902 44.6604 50.0402 44.6604H48.9002C48.9002 44.6604 48.8002 44.6204 48.7802 44.5704L47.7102 41.5404H43.9602L43.9802 41.5004ZM47.3802 40.3504C47.2802 40.1104 47.1702 39.7704 47.0302 39.3604L46.5902 38.0704L46.1502 36.7704C46.0302 36.4504 45.9302 36.1104 45.8302 35.7704H45.8102C45.7428 36.0746 45.6594 36.375 45.5602 36.6704L45.1602 37.8204L44.7302 39.1104C44.5602 39.5704 44.4002 39.9704 44.2802 40.3604H47.3902H47.3702V40.3504H47.3802ZM51.3302 39.0004V38.5704C51.3302 38.4304 51.3302 38.2704 51.3102 38.1304C51.3102 37.9704 51.3102 37.8304 51.2702 37.6904L51.2602 37.3904V37.3604L51.2802 37.3304H52.2302C52.2302 37.3304 52.2802 37.3304 52.3202 37.3504C52.3302 37.3504 52.3702 37.3804 52.3702 37.4104C52.3802 37.5104 52.4202 37.6004 52.4202 37.7104C52.4202 37.8504 52.4402 38.0104 52.4702 38.1404C52.7569 37.8261 53.1083 37.5776 53.5001 37.4119C53.8919 37.2462 54.315 37.1672 54.7402 37.1804C55.0102 37.1804 55.2902 37.2104 55.5602 37.2804C55.8502 37.3804 56.1002 37.5204 56.3202 37.7404C56.5802 37.9704 56.7802 38.2804 56.9202 38.6204C57.0702 39.0804 57.1502 39.5704 57.1402 40.0404V44.5104C57.1402 44.5104 57.1402 44.5404 57.1202 44.5604L57.0702 44.5704H55.9702L55.9302 44.5604L55.9102 44.5104V40.1804C55.9502 39.6804 55.8102 39.2104 55.5602 38.8004C55.4223 38.6305 55.248 38.4938 55.0502 38.4004C54.8474 38.3061 54.6219 38.2714 54.4002 38.3004C54.0472 38.304 53.6996 38.3867 53.3829 38.5425C53.0662 38.6982 52.7885 38.9231 52.5702 39.2004V44.4704C52.5702 44.4704 52.5402 44.5904 52.4702 44.5904H51.4302C51.4302 44.5904 51.3502 44.5704 51.3502 44.4704V39.0304L51.3202 39.0104L51.3302 39.0004ZM63.9502 41.5004L62.9102 44.5004C62.9102 44.5004 62.8602 44.5904 62.8102 44.5904H61.8102C61.7102 44.5904 61.6902 44.5704 61.7102 44.4904L64.9102 35.4304C64.9102 35.4304 64.9302 35.3104 64.9702 35.2304C64.9802 35.1304 64.9802 35.0204 65.0202 34.8304C65.0202 34.7804 65.0402 34.7304 65.1002 34.7304H66.5502C66.5502 34.7304 66.6302 34.7704 66.6302 34.8304L70.0702 44.5304C70.0702 44.5304 70.0702 44.6604 70.0202 44.6604H68.9002C68.9002 44.6604 68.8102 44.6204 68.7802 44.5704L67.7102 41.5404H63.9402L63.9602 41.5004H63.9502ZM67.3602 40.3504C67.2602 40.1104 67.1602 39.7704 67.0202 39.3604L66.5802 38.0704C66.4302 37.6504 66.2602 37.1704 66.1402 36.7704C66.0224 36.4407 65.9157 36.1071 65.8202 35.7704H65.8002C65.7502 36.0004 65.6602 36.3104 65.5402 36.6704L65.1502 37.8204L64.7102 39.1104C64.5602 39.5704 64.4102 39.9704 64.2702 40.3604H67.3702H67.3602V40.3504ZM74.3802 44.7604C73.9102 44.7604 73.4202 44.6704 72.9802 44.5204C72.5497 44.3784 72.1543 44.1466 71.8202 43.8404C71.4638 43.5238 71.201 43.1157 71.0602 42.6604C70.6708 41.6533 70.6708 40.5374 71.0602 39.5304C71.2536 39.0697 71.5386 38.6531 71.8979 38.3059C72.2572 37.9587 72.6832 37.688 73.1502 37.5104C73.8322 37.2388 74.574 37.1525 75.3002 37.2604C75.4502 37.2804 75.5902 37.2804 75.7402 37.3104V33.9104L75.7602 33.8804H76.9002L76.9202 33.9204V43.7104C76.9184 43.8407 76.925 43.9709 76.9402 44.1004C76.9402 44.1504 76.9202 44.1804 76.8502 44.2004C76.4602 44.4004 76.0402 44.5604 75.6102 44.6604C75.1902 44.7104 74.7602 44.7404 74.3602 44.7404L74.3702 44.7604H74.3802ZM75.6902 38.4104C75.5602 38.3604 75.4002 38.3104 75.2502 38.2904C75.0709 38.27 74.8901 38.2667 74.7102 38.2804C74.3102 38.2804 73.9302 38.3304 73.5702 38.4804C73.2509 38.6094 72.9617 38.8031 72.7208 39.0492C72.4799 39.2952 72.2924 39.5884 72.1702 39.9104C71.9038 40.6539 71.9038 41.4668 72.1702 42.2104C72.3002 42.5404 72.5002 42.8204 72.7402 43.0504C72.9802 43.2504 73.2402 43.4004 73.5402 43.4904C73.8402 43.5904 74.1402 43.6204 74.4502 43.6204L75.0802 43.6104C75.2702 43.5704 75.4502 43.5204 75.6402 43.4504V38.4304L75.6902 38.4104ZM81.8502 37.1804C82.3302 37.1804 82.8202 37.2804 83.2502 37.4604C83.65 37.6541 84.0018 37.9341 84.2802 38.2804C84.903 39.0391 85.2266 39.9994 85.1902 40.9804C85.1902 41.5004 85.1102 42.0304 84.9402 42.5404C84.7702 42.9804 84.5402 43.3904 84.2602 43.7404C83.9602 44.0604 83.6002 44.3204 83.2102 44.5104C82.7528 44.6993 82.262 44.794 81.7671 44.7888C81.2723 44.7837 80.7835 44.6788 80.3302 44.4804C79.9202 44.2704 79.5602 43.9804 79.2702 43.6204C79.0012 43.2542 78.7888 42.8497 78.6402 42.4204C78.3559 41.4826 78.3699 40.4798 78.6802 39.5504C78.8302 39.1104 79.0702 38.7004 79.3602 38.3504C79.6402 37.9904 80.0202 37.7204 80.4202 37.5304C80.8702 37.2904 81.3402 37.1804 81.8302 37.1804H81.8502ZM81.8002 38.2804C81.5102 38.2804 81.2202 38.3304 80.9502 38.4804C80.7002 38.6204 80.4802 38.8004 80.2902 39.0204C80.1099 39.2814 79.9621 39.5635 79.8502 39.8604C79.6775 40.5734 79.6775 41.3173 79.8502 42.0304C79.9202 42.3504 80.0702 42.6304 80.2902 42.8804C80.4602 43.1304 80.6902 43.3304 80.9702 43.4504C81.5061 43.6943 82.116 43.7194 82.6702 43.5204C82.9002 43.4204 83.1402 43.2304 83.3102 43.0504C83.5102 42.7904 83.6702 42.5004 83.7802 42.2004C83.9802 41.4804 84.0002 40.7204 83.8402 40.0004C83.7702 39.6904 83.6402 39.4004 83.4402 39.1404C83.2751 38.8835 83.0436 38.6762 82.7702 38.5404C82.4702 38.3804 82.1202 38.3004 81.7702 38.3104L81.8002 38.2804ZM87.8702 33.8704H87.9602C87.9602 33.8704 87.9902 33.9004 87.9902 33.9504V37.4604C88.4939 37.2664 89.0304 37.1713 89.5702 37.1804C90.0502 37.1804 90.5202 37.2804 90.9402 37.4504C91.3502 37.6204 91.7102 37.8504 92.0002 38.1804C92.6152 38.8761 92.9377 39.7825 92.9002 40.7104C92.9002 41.3304 92.8002 41.9304 92.5602 42.5104C92.3578 42.9833 92.0582 43.4085 91.681 43.7582C91.3037 44.1079 90.8571 44.3744 90.3702 44.5404C89.8702 44.7104 89.3702 44.7904 88.8402 44.7904C88.163 44.8149 87.4866 44.7236 86.8402 44.5204C86.7902 44.5204 86.7402 44.4704 86.7402 44.3704V34.0204C86.7402 34.0204 86.7702 33.9304 86.8602 33.9304H87.8702V33.8704ZM91.6602 40.7704C91.6935 40.102 91.4678 39.4466 91.0302 38.9404C90.8239 38.701 90.5647 38.5131 90.273 38.3915C89.9813 38.27 89.6654 38.2183 89.3502 38.2404C89.0802 38.2404 88.8202 38.2404 88.5502 38.2904C88.3502 38.3304 88.1602 38.3904 87.9802 38.4904V43.5204C88.3026 43.5898 88.6306 43.6299 88.9602 43.6404C89.3202 43.6404 89.6602 43.5904 89.9802 43.4704C90.3168 43.3525 90.6237 43.1626 90.8793 42.9139C91.1349 42.6652 91.3332 42.3636 91.4602 42.0304C91.5902 41.6304 91.6602 41.2004 91.6602 40.7704ZM95.2902 41.1104C95.2902 41.4504 95.3402 41.7904 95.4202 42.1104C95.501 42.4146 95.6516 42.6958 95.8598 42.9318C96.0681 43.1679 96.3284 43.3522 96.6202 43.4704C96.9702 43.6104 97.3402 43.6704 97.7002 43.6704C98.0202 43.6704 98.3402 43.6404 98.6602 43.5904C98.9902 43.5404 99.2802 43.4204 99.5502 43.2704C99.6002 43.2504 99.6502 43.2704 99.6502 43.3204V44.1804C99.6502 44.1804 99.6502 44.2304 99.6302 44.2704C99.6102 44.3004 99.6002 44.3204 99.5602 44.3204C98.9876 44.591 98.3656 44.7413 97.7326 44.7619C97.0996 44.7825 96.4692 44.6731 95.8802 44.4404C95.4402 44.2504 95.0802 43.9404 94.8102 43.5704C94.5276 43.2173 94.3231 42.8083 94.2102 42.3704C93.9438 41.437 93.9577 40.4459 94.2502 39.5204C94.3758 39.0824 94.5884 38.6742 94.8754 38.3203C95.1623 37.9663 95.5176 37.6739 95.9202 37.4604C96.3368 37.2572 96.7933 37.1492 97.2568 37.144C97.7203 37.1388 98.1791 37.2366 98.6002 37.4304C98.9402 37.6004 99.2402 37.8504 99.4802 38.1404C99.7202 38.4404 99.8702 38.7704 99.9502 39.1304C100.05 39.4504 100.11 39.7904 100.09 40.1304C100.09 40.3004 100.09 40.4504 100.07 40.6004C100.07 40.7004 100.07 40.8004 100.02 40.9004C100.02 40.9404 99.9902 40.9804 99.9002 40.9804C99.7002 41.0104 99.5102 41.0304 99.3302 41.0304C99.0302 41.0304 98.7302 41.0604 98.3902 41.0604H95.3202L95.2902 41.1104ZM98.0502 40.2004H98.7802C98.7802 40.2004 98.9402 40.2004 99.0002 40.1804C99.0002 40.1404 99.0402 40.1304 99.0402 40.0804V39.9904C99.0402 39.8204 99.0002 39.6704 98.9402 39.4904C98.8902 39.2904 98.7802 39.0804 98.6402 38.9104C98.5102 38.7104 98.3302 38.5304 98.1002 38.4104C97.8465 38.2611 97.5539 38.1914 97.2602 38.2104C96.9802 38.2104 96.7102 38.2604 96.4602 38.3804C96.2402 38.5004 96.0302 38.6504 95.8602 38.8204C95.7002 39.0204 95.5802 39.2204 95.4702 39.4504C95.3902 39.6904 95.3402 39.9504 95.2702 40.1804H98.0202L98.0502 40.2004ZM111.66 44.3204C111.66 44.4204 111.63 44.4504 111.56 44.4504C111.27 44.5704 110.98 44.6504 110.68 44.6904C110.34 44.7304 109.96 44.7404 109.54 44.7404C108.93 44.7404 108.32 44.6404 107.72 44.4504C107.116 44.2722 106.56 43.9603 106.092 43.538C105.625 43.1156 105.258 42.5935 105.02 42.0104C104.718 41.261 104.572 40.4581 104.59 39.6504C104.554 38.9763 104.66 38.3022 104.901 37.6717C105.143 37.0412 105.514 36.4684 105.99 35.9904C106.493 35.5166 107.086 35.1479 107.733 34.9058C108.381 34.6637 109.07 34.5531 109.76 34.5804C110.399 34.5727 111.035 34.6742 111.64 34.8804C111.7 34.9004 111.73 34.9404 111.73 34.9804V35.9804C111.73 35.9804 111.71 36.0804 111.61 36.0804C111.01 35.8004 110.37 35.6804 109.71 35.7204C109.17 35.7204 108.64 35.8204 108.13 36.0004C107.67 36.1704 107.27 36.4504 106.91 36.7804C106.553 37.128 106.28 37.5519 106.11 38.0204C105.692 39.1736 105.728 40.4424 106.21 41.5704C106.421 42.0218 106.728 42.4214 107.109 42.7411C107.491 43.0608 107.939 43.2927 108.42 43.4204C108.82 43.5404 109.25 43.6104 109.68 43.6204C110 43.6204 110.34 43.6204 110.66 43.5704C110.95 43.5404 111.24 43.4704 111.51 43.3504C111.56 43.3504 111.59 43.3504 111.59 43.4004V44.3204H111.66ZM115.97 37.1804C116.45 37.1804 116.92 37.2804 117.37 37.4604C117.75 37.6504 118.13 37.9204 118.4 38.2804C119.02 39.04 119.34 40.0006 119.3 40.9804C119.305 41.5099 119.224 42.0367 119.06 42.5404C118.89 42.9804 118.66 43.3904 118.38 43.7404C118.08 44.0604 117.72 44.3204 117.33 44.5104C116.873 44.6993 116.382 44.794 115.887 44.7888C115.392 44.7837 114.904 44.6788 114.45 44.4804C114.04 44.2704 113.66 43.9804 113.39 43.6204C113.121 43.2541 112.909 42.8496 112.76 42.4204C112.471 41.4844 112.478 40.4822 112.78 39.5504C112.95 39.1104 113.18 38.7004 113.48 38.3504C114.117 37.6519 115.006 37.2347 115.95 37.1904L115.97 37.1804ZM115.92 38.2804C115.62 38.2804 115.32 38.3304 115.07 38.4804C114.82 38.6204 114.6 38.8004 114.41 39.0204C114.24 39.2804 114.09 39.5704 113.97 39.8604C113.797 40.5733 113.797 41.3174 113.97 42.0304C114.04 42.3504 114.19 42.6304 114.41 42.8804C114.58 43.1104 114.81 43.3304 115.09 43.4504C115.355 43.5743 115.641 43.6443 115.933 43.6564C116.225 43.6684 116.516 43.6221 116.79 43.5204C117.04 43.4204 117.26 43.2504 117.45 43.0504C117.65 42.7904 117.8 42.5004 117.92 42.2004C118.135 41.485 118.153 40.7247 117.97 40.0004C117.91 39.6904 117.77 39.4004 117.58 39.1404C117.416 38.8832 117.184 38.6758 116.91 38.5404C116.605 38.3797 116.264 38.3005 115.92 38.3104V38.2804ZM120.96 44.6204C120.96 44.6204 120.86 44.5904 120.86 44.5104V38.9104C120.86 38.6104 120.86 38.3104 120.84 38.0104C120.84 37.8104 120.82 37.6104 120.79 37.4104C120.79 37.3604 120.82 37.3104 120.87 37.3104H121.81C121.81 37.3104 121.89 37.3404 121.93 37.4104C121.96 37.4604 121.94 37.6104 121.98 37.7404C122.01 37.8704 122.03 38.0104 122.01 38.1304C122.291 37.8309 122.63 37.5928 123.007 37.4311C123.384 37.2693 123.79 37.1873 124.2 37.1904C124.595 37.1665 124.989 37.2565 125.335 37.4497C125.68 37.6429 125.963 37.9312 126.15 38.2804C126.45 37.9804 126.81 37.7204 127.19 37.5004C127.874 37.1658 128.657 37.0946 129.39 37.3004C129.69 37.3804 129.94 37.5304 130.16 37.7404C130.39 37.9704 130.6 38.2804 130.73 38.6004C130.89 39.0404 130.97 39.5204 130.95 40.0004V44.4704C130.95 44.4704 130.92 44.5704 130.83 44.5704H129.77L129.73 44.5604L129.72 44.5204V40.1104C129.73 39.6504 129.62 39.1904 129.36 38.8204C129.23 38.6413 129.058 38.4967 128.86 38.3991C128.661 38.3015 128.441 38.2539 128.22 38.2604C127.875 38.2648 127.535 38.345 127.223 38.4953C126.912 38.6457 126.638 38.8624 126.42 39.1304L126.47 39.5204L126.49 40.0604V44.5104L126.47 44.5404C126.47 44.5404 126.46 44.5604 126.44 44.5604H125.32C125.32 44.5604 125.3 44.5604 125.29 44.5404L125.27 44.5104V40.0304C125.3 39.5504 125.17 39.0904 124.91 38.7004C124.78 38.5504 124.61 38.4304 124.42 38.3504C124.226 38.275 124.018 38.241 123.81 38.2504C123.489 38.2413 123.17 38.3099 122.88 38.4504C122.56 38.6204 122.28 38.8204 122.03 39.0804V44.5004H121V44.6004L120.95 44.6104L120.96 44.6204ZM135.86 37.1804C136.35 37.1804 136.84 37.2604 137.3 37.4304C137.7 37.6004 138.08 37.8504 138.37 38.1804C138.986 38.872 139.312 39.7746 139.28 40.7004C139.298 41.2746 139.189 41.8457 138.961 42.373C138.733 42.9003 138.391 43.3706 137.96 43.7504C137.137 44.4 136.119 44.7524 135.07 44.7504H134.63C134.518 44.7473 134.406 44.7271 134.3 44.6904V47.6804C134.3 47.6804 134.26 47.7604 134.2 47.8004C134.14 47.8304 133.99 47.8104 133.89 47.8104C133.77 47.8104 133.65 47.8504 133.55 47.8504L133.26 47.8604C133.21 47.8604 133.16 47.8604 133.13 47.9004C133.07 47.9004 133.04 47.8604 133.04 47.8004V38.1804C133.04 38.0604 133.04 37.9404 133.02 37.8404C133.02 37.8004 133.02 37.7904 133.04 37.7904C133.29 37.7004 133.67 37.5504 134.14 37.4104C134.701 37.2574 135.279 37.18 135.86 37.1804ZM135.72 38.2804C135.48 38.2804 135.22 38.3004 134.99 38.3304C134.77 38.3504 134.55 38.4104 134.35 38.5004V43.5504C134.639 43.6159 134.934 43.656 135.23 43.6704C135.946 43.6795 136.642 43.4391 137.2 42.9904C137.49 42.7604 137.7 42.4504 137.86 42.1104C138.03 41.7104 138.11 41.2604 138.1 40.8104C138.128 40.4768 138.086 40.1412 137.977 39.8246C137.869 39.508 137.696 39.2171 137.47 38.9704C137.243 38.7352 136.966 38.5531 136.66 38.4373C136.354 38.3215 136.026 38.2747 135.7 38.3004L135.72 38.2804ZM145.88 43.3204V43.6904C145.88 43.8104 145.88 43.9304 145.9 44.0504C145.9 44.0604 145.9 44.1004 145.88 44.1004C145.02 44.5174 144.076 44.7328 143.12 44.7304C142.74 44.7304 142.39 44.6804 142.02 44.5704C141.69 44.4704 141.39 44.3404 141.13 44.1304C140.891 43.9375 140.697 43.6953 140.56 43.4204C140.423 43.0911 140.355 42.7371 140.36 42.3804C140.36 42.0304 140.44 41.6504 140.61 41.3504C140.78 41.0604 141.03 40.8104 141.32 40.6404C142.019 40.1862 142.849 39.9753 143.68 40.0404H144.32C144.46 40.0404 144.56 40.0404 144.7 40.0804V39.7204C144.7 39.5704 144.66 39.4304 144.65 39.2804C144.613 39.1 144.538 38.9296 144.43 38.7804C144.29 38.6204 144.1 38.4804 143.92 38.4004C143.643 38.2679 143.337 38.2093 143.03 38.2304C142.384 38.2242 141.745 38.3752 141.17 38.6704C141.12 38.6904 141.07 38.6704 141.07 38.5804V37.6704C141.07 37.6704 141.08 37.5804 141.15 37.5504C141.45 37.4004 141.78 37.2904 142.12 37.2304C142.49 37.1604 142.86 37.1304 143.25 37.1104C143.66 37.1104 144.09 37.1804 144.45 37.3504C144.78 37.4804 145.07 37.6804 145.29 37.9404C145.49 38.2104 145.65 38.5204 145.77 38.8404C145.87 39.1904 145.92 39.5504 145.9 39.9204V43.3304L145.88 43.3204ZM144.7 41.1504C144.58 41.1104 144.44 41.1104 144.3 41.0904L143.73 41.0804C143.181 41.031 142.63 41.1496 142.15 41.4204C141.986 41.518 141.856 41.665 141.78 41.8404C141.68 42.0104 141.64 42.2004 141.64 42.3804C141.64 42.5504 141.66 42.7204 141.73 42.8804C141.783 43.0539 141.888 43.2073 142.03 43.3204C142.2 43.4504 142.37 43.5604 142.58 43.6104C143.289 43.7858 144.035 43.7297 144.71 43.4504V41.1504H144.7ZM147.95 39.0004V38.5704C147.95 38.4304 147.95 38.2704 147.92 38.1304C147.92 37.9704 147.92 37.8304 147.9 37.6904C147.9 37.5904 147.9 37.4904 147.87 37.3904V37.3304H148.84C148.84 37.3304 148.89 37.3304 148.92 37.3504C148.94 37.3504 148.97 37.3804 148.97 37.4104C148.99 37.4604 148.99 37.5804 149.02 37.7104C149.02 37.8504 149.04 38.0104 149.07 38.1404C149.356 37.828 149.706 37.5806 150.096 37.415C150.486 37.2494 150.907 37.1693 151.33 37.1804C151.62 37.1804 151.87 37.2104 152.14 37.2804C152.44 37.3804 152.69 37.5204 152.91 37.7404C153.16 37.9704 153.37 38.2804 153.51 38.6204C153.67 39.0804 153.74 39.5704 153.74 40.0404V44.5204C153.74 44.5204 153.74 44.5604 153.72 44.5704L153.69 44.5904H152.59L152.55 44.5704L152.54 44.5204V40.2004C152.57 39.7004 152.44 39.2304 152.18 38.8204C152.042 38.6505 151.868 38.5138 151.67 38.4204C151.47 38.3204 151.23 38.2804 151.01 38.3204C150.659 38.324 150.313 38.4069 149.997 38.5627C149.682 38.7185 149.406 38.9433 149.19 39.2204V44.4904C149.19 44.4904 149.16 44.6104 149.09 44.6104H148.06C148.06 44.6104 147.97 44.5904 147.97 44.4904V39.0404L147.95 39.0104V39.0004ZM155.98 37.3404C155.98 37.3404 156.07 37.3604 156.1 37.4304C156.566 38.7039 157.022 39.9806 157.47 41.2604L157.87 42.4204C157.95 42.7404 158.03 42.9604 158.08 43.1304L158.9 40.7604L160.05 37.4804C160.09 37.4304 160.1 37.3804 160.17 37.3804H161.21C161.21 37.3804 161.31 37.4104 161.26 37.5004C160.96 38.3104 160.7 39.1404 160.37 40.0304L159.39 42.6704L158.34 45.2904C158.02 46.1304 157.64 46.9904 157.27 47.7904C157.25 47.8504 157.18 47.8904 157.1 47.9204L156 48.0004C156 48.0004 155.91 47.9704 155.95 47.8804C156.17 47.4404 156.39 46.9104 156.65 46.3404C156.91 45.7604 157.15 45.1804 157.4 44.5904C157.42 44.5604 157.42 44.5204 157.42 44.4904L157.41 44.3904L157.17 43.7204C157.03 43.3899 156.896 43.0565 156.77 42.7204C156.62 42.3504 156.46 41.9404 156.3 41.4804C156.13 41.0304 155.95 40.6004 155.76 40.1404L155.22 38.8004L154.74 37.5504C154.72 37.5004 154.74 37.4604 154.83 37.4604H155.96V37.3804L155.98 37.3404Z" fill="#71717A"/>
<path d="M21.92 0.000366211V37.0004L31.22 29.4504V5.15037L21.92 0.000366211ZM17.6 28.9304L10.04 32.2704V3.20037L17.59 5.47037V28.9604V28.9404L17.6 28.9304ZM0 28.0804L5.7 26.5504V8.00037L0 7.08037V28.0804Z" fill="#564093"/>
<path d="M61.9102 5.14036L54.0002 18.3804L45.9502 5.14036H41.7002V29.4604H45.6802V11.6904L53.8802 25.0604L62.0802 11.5904V29.4404H66.0602V5.12036H61.9002V5.14036H61.9102ZM79.4702 29.4404V27.2704C78.8801 28.1083 78.0896 28.7852 77.1709 29.2393C76.2521 29.6935 75.2343 29.9104 74.2102 29.8704C71.1602 29.8704 69.0402 27.8604 69.0402 24.9604C69.0402 21.8004 71.0202 19.9004 74.9802 19.3104L79.3202 18.6104V18.3204C79.3202 16.5404 78.0202 15.5104 75.7102 15.5104C73.4002 15.5104 71.6402 16.4604 70.0202 17.9304V14.0304C71.7231 12.6915 73.8343 11.9784 76.0002 12.0104C80.6802 12.0104 83.2402 14.4604 83.2402 18.5104V29.4204H79.4702V29.4404ZM75.1802 26.5904C77.6402 26.5904 79.3802 24.9604 79.3802 22.6304V21.6804L75.6402 22.3104C73.8202 22.6304 72.8902 23.4104 72.8902 24.6404C72.8902 25.8604 73.8202 26.5904 75.1902 26.5904H75.1802ZM96.3602 16.2704C96.0365 16.1419 95.6857 16.0972 95.3402 16.1404C92.4202 16.1404 90.6602 18.4304 90.6602 21.9404V29.4404H86.7202V12.4204H90.6202V15.3504C91.0316 14.3682 91.7278 13.5318 92.619 12.949C93.5102 12.3661 94.5555 12.0636 95.6202 12.0804C96.0702 12.0804 96.3102 12.1004 96.3902 12.2004V16.2704H96.3602ZM98.9002 5.14036V29.4604H102.84V22.7204L103.7 21.9104L109.71 29.4604H114.56L106.71 19.8604L114.01 12.4404H109.15L102.84 18.8704V5.14036H98.9002Z" fill="#18181B"/>
<path d="M129.44 28.0804C127.503 29.2857 125.261 29.9104 122.98 29.8804C117.45 29.8804 113.93 26.0604 113.93 20.9404C113.93 15.8104 117.45 12.0304 122.35 12.0304C127.25 12.0304 130.41 15.7804 130.41 20.8204C130.41 21.2804 130.39 21.7304 130.29 22.1904H117.85C118.16 24.5504 120.09 26.4304 123.22 26.4304C125.34 26.4304 127.39 25.6504 129.41 24.1304V28.0604H129.43L129.44 28.0804ZM126.54 19.2104C126.478 18.1231 125.998 17.1019 125.2 16.3604C124.408 15.626 123.36 15.2311 122.28 15.2604C121.195 15.2864 120.155 15.6984 119.347 16.4224C118.539 17.1464 118.015 18.1349 117.87 19.2104H126.54ZM140.4 26.1804C141.054 26.2023 141.698 26.0168 142.24 25.6504V29.2304C141.303 29.6915 140.264 29.9082 139.22 29.8604C135.82 29.8604 133.85 27.7804 133.85 24.2004V15.8304H130.9L137.82 6.89038V12.4204H142.27V15.8304H137.82V23.4704C137.81 25.3804 138.62 26.1504 140.4 26.1504M161.32 20.9504C161.343 22.1303 161.128 23.3027 160.687 24.3973C160.245 25.4918 159.588 26.486 158.753 27.32C157.918 28.154 156.923 28.8107 155.828 29.2507C154.733 29.6907 153.56 29.9049 152.38 29.8804C151.2 29.9049 150.028 29.6907 148.933 29.2507C147.838 28.8107 146.843 28.154 146.008 27.32C145.173 26.486 144.515 25.4918 144.074 24.3973C143.633 23.3027 143.417 22.1303 143.44 20.9504C143.418 19.7713 143.635 18.6 144.077 17.5066C144.519 16.4132 145.177 15.4203 146.011 14.5873C146.846 13.7544 147.841 13.0986 148.935 12.6592C150.029 12.2198 151.201 12.0059 152.38 12.0304C157.54 12.0304 161.32 15.9304 161.32 20.9504ZM147.38 20.9504C147.382 21.9469 147.684 22.9198 148.247 23.7422C148.81 24.5646 149.607 25.1984 150.535 25.561C151.463 25.9237 152.479 25.9983 153.451 25.7752C154.422 25.5522 155.303 25.0417 155.98 24.3104C156.48 23.763 156.858 23.1154 157.088 22.4107C157.318 21.706 157.396 20.9603 157.316 20.2233C157.235 19.4863 156.999 18.7749 156.622 18.1364C156.245 17.4979 155.737 16.947 155.13 16.5204C154.445 16.0534 153.651 15.7697 152.825 15.6961C151.999 15.6226 151.167 15.7618 150.41 16.1004C149.486 16.5227 148.705 17.2056 148.163 18.0654C147.621 18.9251 147.342 19.9243 147.36 20.9404L147.38 20.9504Z" fill="#18181B"/>
<path d="M161.44 9.00037H164.48V9.67037H163.33V13.2304H162.6V9.67037H161.46V9.01037H161.44V9.00037ZM166.07 10.1804V13.2804H165.37V9.03037H166.09L167.5 11.1804L168.88 9.03037H169.6V13.2804H168.93V10.1804L167.69 12.1004H167.35L166.05 10.1804H166.07Z" fill="#18181B"/>
</g>
<defs>
<clipPath id="clip0_0_4427">
<rect width="170" height="48" fill="white" transform="translate(0 0.000366211)"/>
</clipPath>
</defs>
</svg>
