<svg width="218" height="48" viewBox="0 0 218 48" fill="none" xmlns="http://www.w3.org/2000/svg">
<path d="M90.8314 10.2491V37.7518H86.0418V16.1698H85.9779L77.4206 37.7518H74.2275L65.4786 16.1698H65.4147V37.7518H61.0083V10.2491H67.9053L75.824 30.6214H75.9518L84.3175 10.2491H90.8314ZM94.7908 12.35C94.7908 11.586 95.0462 10.9494 95.6209 10.44C96.1957 9.93074 96.8343 9.67608 97.6006 9.67608C98.4308 9.67608 99.1333 9.93074 99.6442 10.44C100.155 10.9494 100.474 11.586 100.474 12.35C100.474 13.1139 100.219 13.7506 99.6442 14.2599C99.0694 14.7692 98.4308 15.0238 97.6006 15.0238C96.7704 15.0238 96.1318 14.7692 95.6209 14.2599C95.1138 13.7495 94.8175 13.0678 94.7908 12.35ZM99.9635 18.016V37.7518H95.3016V18.016H99.9635ZM114.077 34.3776C114.779 34.3776 115.546 34.2503 116.376 33.8683C117.206 33.55 117.972 33.1043 118.675 32.595V36.9241C117.908 37.3698 117.078 37.6881 116.12 37.8791C115.162 38.0701 114.141 38.1974 112.991 38.1974C111.688 38.2605 110.387 38.0522 109.169 37.5859C107.951 37.1195 106.845 36.4053 105.919 35.4889C104.994 34.5724 104.271 33.4738 103.795 32.2631C103.319 31.0523 103.102 29.756 103.157 28.4569C103.157 25.2737 104.114 22.6635 105.966 20.6262C107.818 18.589 110.437 17.5704 113.885 17.5704C115.519 17.5997 117.128 17.9683 118.611 18.6527V23.1091C117.347 22.077 115.774 21.4945 114.141 21.4539C112.289 21.4539 110.82 22.0268 109.67 23.2364C108.495 24.5661 107.898 26.3064 108.01 28.0749C108.01 30.0485 108.585 31.64 109.67 32.7223C110.756 33.8046 112.225 34.3776 114.077 34.3776ZM131.894 17.6977C132.5 17.676 133.106 17.7623 133.682 17.9524V22.6635C133.427 22.4725 133.107 22.2815 132.596 22.1542C132.086 22.0268 131.575 21.8995 130.872 21.8995C129.723 21.8995 128.765 22.4088 127.998 23.3638C127.232 24.3187 126.785 25.783 126.785 27.8202V37.7518H122.123V18.016H126.785V21.1355H126.849C127.296 20.0533 127.935 19.2256 128.765 18.589C129.659 18.016 130.681 17.6977 131.894 17.6977ZM133.938 28.2022C133.938 24.9554 134.895 22.3452 136.684 20.4352C137.694 19.457 138.896 18.6975 140.215 18.2045C141.534 17.7115 142.94 17.4956 144.347 17.5704C147.412 17.5704 149.839 18.4617 151.563 20.3079C153.287 22.1542 154.181 24.637 154.181 27.7566C154.181 30.9397 153.224 33.4863 151.435 35.3962C149.583 37.3061 147.093 38.2611 143.9 38.2611C140.834 38.2611 138.408 37.3698 136.62 35.5872C135.705 34.5944 134.996 33.4305 134.536 32.1628C134.075 30.8951 133.872 29.5489 133.938 28.2022ZM138.791 28.0112C138.791 30.0485 139.238 31.64 140.196 32.7223C140.703 33.2765 141.326 33.7123 142.022 33.9984C142.717 34.2846 143.468 34.414 144.219 34.3776C145.88 34.3776 147.221 33.8683 148.115 32.7223C149.009 31.64 149.456 30.0485 149.456 27.8839C149.568 26.1665 149.096 24.4616 148.115 23.0455C147.643 22.4991 147.053 22.0663 146.389 21.7796C145.726 21.4929 145.006 21.3598 144.283 21.3902C142.559 21.3902 141.282 21.9632 140.324 23.1091C139.238 24.3187 138.791 25.9103 138.791 28.0112ZM161.142 23.2364C161.142 23.8731 161.334 24.4461 161.781 24.828C162.228 25.21 163.122 25.6557 164.591 26.2286C166.443 26.9926 167.784 27.8202 168.486 28.7115C169.259 29.6643 169.667 30.8605 169.636 32.0857C169.636 33.9319 168.933 35.3962 167.465 36.5422C165.779 37.7497 163.724 38.3349 161.653 38.1974C159.835 38.157 158.04 37.7903 156.353 37.1151V32.5313C157.183 33.1043 158.141 33.6136 159.099 33.9319C160.057 34.2503 160.951 34.4412 161.781 34.4412C162.803 34.4412 163.633 34.3139 164.08 33.9956C164.591 33.6773 164.846 33.2316 164.846 32.5313C164.846 31.8947 164.591 31.3854 164.08 30.8761C163.569 30.4304 162.547 29.9211 161.142 29.3482C159.744 28.8596 158.492 28.0275 157.502 26.9289C156.757 25.9403 156.374 24.727 156.417 23.4911C156.417 21.7085 157.119 20.2443 158.524 19.0983C159.929 17.9524 161.781 17.3794 164.016 17.3794C164.718 17.3794 165.485 17.4431 166.315 17.634L168.486 18.207V22.7271C167.848 22.3452 167.145 21.9632 166.315 21.6449C165.485 21.3265 164.655 21.1992 163.888 21.1992C162.994 21.1992 162.292 21.3902 161.845 21.7085C161.398 22.1542 161.142 22.5998 161.142 23.2364ZM171.615 28.2022C171.615 24.9554 172.573 22.3452 174.362 20.4352C175.372 19.457 176.574 18.6975 177.893 18.2045C179.212 17.7115 180.618 17.4956 182.025 17.5704C185.09 17.5704 187.517 18.4617 189.241 20.3079C190.965 22.1542 191.859 24.637 191.859 27.7566C191.859 30.9397 190.901 33.4863 189.113 35.3962C187.261 37.3061 184.771 38.2611 181.578 38.2611C178.512 38.2611 176.086 37.3698 174.298 35.5872C172.479 33.5639 171.518 30.917 171.615 28.2022ZM176.469 28.0112C176.469 30.0485 176.916 31.64 177.874 32.7223C178.381 33.2765 179.004 33.7123 179.7 33.9984C180.395 34.2846 181.146 34.414 181.897 34.3776C183.557 34.3776 184.899 33.8683 185.793 32.7223C186.687 31.64 187.134 30.0485 187.134 27.8839C187.246 26.1665 186.774 24.4616 185.793 23.0455C185.321 22.4991 184.731 22.0663 184.067 21.7796C183.404 21.4929 182.684 21.3598 181.961 21.3902C180.237 21.3902 178.959 21.9632 178.002 23.1091C176.914 24.5051 176.369 26.2463 176.469 28.0112ZM207.378 21.8358H200.417V37.7518H195.691V21.8358H192.37V18.016H195.691V15.2785C195.67 14.3361 195.841 13.3993 196.192 12.5242C196.543 11.649 197.068 10.8535 197.735 10.1854C198.418 9.52413 199.228 9.0082 200.118 8.66893C201.007 8.32966 201.956 8.17414 202.907 8.21182L204.44 8.27548C204.887 8.27548 205.27 8.40281 205.59 8.53014V12.5409L204.759 12.2226C204.376 12.0953 203.929 12.0316 203.418 12.0316C202.46 12.0316 201.694 12.35 201.183 12.9229C200.672 13.4959 200.417 14.4509 200.417 15.5968V17.9524H207.378V13.4959L212.039 12.0953V17.9524H216.765V21.7722H212.039V31.0034C212.039 32.213 212.295 33.0406 212.678 33.55C213.125 34.0593 213.828 34.3139 214.785 34.3139C215.113 34.2996 215.436 34.2352 215.743 34.1229C216.127 33.9956 216.446 33.8683 216.701 33.6773V37.4971C216.241 37.729 215.744 37.8798 215.233 37.9428C214.53 38.0701 213.891 38.1337 213.189 38.1337C211.209 38.1337 209.74 37.6244 208.783 36.6058C207.825 35.5872 207.314 33.9956 207.314 31.8947L207.378 21.8358Z" fill="#71717A"/>
<path d="M1.1709 1.08179H23.0113V22.8548H1.1709V1.08179Z" fill="#F25022"/>
<path d="M25.3101 1.08179H47.1505V22.8548H25.3101V1.08179Z" fill="#7FBA00"/>
<path d="M1.1709 25.1465H23.0113V46.9195H1.1709V25.1465Z" fill="#00A4EF"/>
<path d="M25.3101 25.1465H47.1505V46.9195H25.3101V25.1465Z" fill="#FFB900"/>
</svg>
