<svg width="70" height="48" viewBox="0 0 70 48" fill="none" xmlns="http://www.w3.org/2000/svg">
<g clip-path="url(#clip0_0_3549)">
<mask id="mask0_0_3549" style="mask-type:luminance" maskUnits="userSpaceOnUse" x="0" y="0" width="70" height="49">
<path d="M0 0.000488281H69.98V48.0005H0V0.000488281Z" fill="white"/>
</mask>
<g mask="url(#mask0_0_3549)">
<path d="M16.79 43.7606H14.09C13.99 39.2006 13.74 34.9106 13.3 30.9006H13.28L9.18 43.7606H7.13L3.05 30.9006H3.03C2.73 34.7606 2.53 39.0506 2.46 43.7606H0C0.16 38.0306 0.56 32.6506 1.2 27.6206H4.53L8.4 39.4806H8.42L12.33 27.6206H15.53C16.2011 32.9779 16.6182 38.3639 16.78 43.7606H16.79ZM28.48 31.8606C27.38 37.8306 25.93 42.1606 24.13 44.8606C22.73 46.9606 21.2 47.9906 19.53 47.9906C19.09 47.9906 18.53 47.8606 17.89 47.5906V46.1506C18.21 46.2006 18.58 46.2306 19 46.2306C19.78 46.2306 20.41 46.0106 20.89 45.5806C21.46 45.0506 21.75 44.4706 21.75 43.8206C21.75 43.3706 21.52 42.4506 21.09 41.0606L18.13 31.8606H20.78L22.9 38.7506C23.38 40.3006 23.57 41.4106 23.5 42.0206C24.66 38.9206 25.47 35.5206 25.94 31.8606H28.48Z" fill="#00758F"/>
<path d="M40.2802 39.2997C40.2802 40.6697 39.7802 41.7897 38.7802 42.6697C37.7702 43.5497 36.4302 43.9797 34.7402 43.9797C33.0967 43.9559 31.4993 43.4328 30.1602 42.4797L30.8602 41.0897C31.9245 41.671 33.1084 41.9995 34.3202 42.0497C35.2902 42.0497 36.0502 41.8297 36.6002 41.4097C36.8789 41.2007 37.104 40.9286 37.257 40.6157C37.41 40.3027 37.4864 39.9579 37.4802 39.6097C37.4802 38.6497 36.8202 37.8297 35.5902 37.1497C34.4602 36.5197 32.2102 35.2197 32.2102 35.2197C30.9802 34.3297 30.3702 33.3697 30.3702 31.7797C30.3702 30.4797 30.8302 29.4197 31.7402 28.6197C32.6502 27.8097 33.8402 27.4097 35.2802 27.4097C36.7802 27.4097 38.1302 27.8097 39.3602 28.6097L38.7302 29.9897C37.7532 29.5577 36.6983 29.3298 35.6302 29.3197C34.8102 29.3197 34.1702 29.5197 33.7302 29.9197C33.5039 30.1057 33.3212 30.3391 33.195 30.6035C33.0689 30.8679 33.0024 31.1567 33.0002 31.4497C33.0002 32.4097 33.6902 33.2397 34.9402 33.9397C36.0802 34.5597 38.3902 35.8797 38.3902 35.8797C39.6602 36.7797 40.2802 37.7297 40.2802 39.2997Z" fill="#F29111"/>
<path fill-rule="evenodd" clip-rule="evenodd" d="M45.1001 40.5401C44.4401 39.4901 44.1201 37.8001 44.1201 35.4701C44.1201 31.4101 45.3501 29.3701 47.8201 29.3701C49.1101 29.3701 50.0601 29.8701 50.6601 30.8301C51.3101 31.8801 51.6301 33.5501 51.6301 35.8501C51.6301 39.9401 50.4001 42.0001 47.9301 42.0001C46.6501 42.0001 45.7001 41.5001 45.1001 40.5401ZM54.6801 44.1601L51.7201 42.6901C51.9801 42.4801 52.2401 42.2501 52.4501 41.9801C53.7101 40.4901 54.3401 38.3001 54.3401 35.4001C54.3401 30.0601 52.2401 27.3901 48.0701 27.3901C46.0201 27.3901 44.4201 28.0601 43.2701 29.4301C42.0201 30.9101 41.3901 33.0901 41.3901 35.9801C41.3901 38.8201 41.9501 40.9001 43.0501 42.2301C44.0701 43.4301 45.6001 44.0301 47.6501 44.0301C48.4201 44.0301 49.1301 43.9301 49.7501 43.7401L53.6201 46.0001L54.6901 44.1701L54.6801 44.1601Z" fill="#F29111"/>
<path d="M64.3402 43.7606H56.6802V27.6206H59.2602V41.7806H64.3402V43.7606ZM66.1802 43.7606H66.6102V42.1206H67.1702V41.7906H65.6002V42.1206H66.1802V43.7606ZM69.4302 43.7606H69.8302V41.8006H69.2302L68.7302 43.1506L68.1902 41.8006H67.6102V43.7706H68.0002V42.2706H68.0202L68.5802 43.7706H68.8702L69.4302 42.2706V43.7706V43.7606Z" fill="#F29111"/>
<path fill-rule="evenodd" clip-rule="evenodd" d="M67.57 22.2201C66.2883 22.126 65.0015 22.3137 63.8 22.7701C63.51 22.8801 63.04 22.8801 63 23.2501C63.16 23.4101 63.18 23.6601 63.31 23.8801C63.54 24.2801 63.96 24.7901 64.33 25.0601C64.73 25.3701 65.15 25.6901 65.57 25.9601C66.33 26.4201 67.19 26.6901 67.92 27.1601C68.35 27.4301 68.78 27.7801 69.21 28.0801C69.43 28.2301 69.56 28.4801 69.83 28.5801V28.5201C69.7 28.3501 69.65 28.1001 69.52 27.9001L68.94 27.3401C68.371 26.5815 67.6899 25.9139 66.92 25.3601C66.3 24.9401 64.92 24.3501 64.68 23.6301L64.64 23.5901C65.06 23.5501 65.57 23.3901 65.99 23.2801C66.65 23.1001 67.25 23.1401 67.93 22.9601C68.24 22.8801 68.56 22.7901 68.87 22.6901V22.5201C68.51 22.1601 68.27 21.7001 67.89 21.3601C66.89 20.5001 65.81 19.6701 64.68 18.9601C64.08 18.5601 63.3 18.3201 62.66 17.9901C62.43 17.8701 62.04 17.8101 61.9 17.6101C61.55 17.1901 61.35 16.6101 61.1 16.1101C60.5285 14.9967 59.9982 13.8626 59.51 12.7101C59.16 11.9501 58.95 11.1901 58.51 10.4901C56.51 7.17014 54.33 5.17014 50.99 3.19014C50.28 2.79014 49.42 2.61014 48.51 2.39014C48.01 2.37014 47.53 2.33014 47.04 2.32014C46.74 2.18014 46.42 1.81014 46.15 1.63014C45.05 0.930144 42.18 -0.589856 41.37 1.42014C40.84 2.68014 42.14 3.93014 42.59 4.57014C42.92 5.02014 43.34 5.53014 43.59 6.04014C43.72 6.37014 43.76 6.72014 43.89 7.08014C44.2 7.94014 44.49 8.90014 44.91 9.70014C45.13 10.1001 45.36 10.5401 45.62 10.9001C45.78 11.1201 46.05 11.2101 46.12 11.5701C45.84 11.9701 45.82 12.5401 45.67 13.0301C44.97 15.2301 45.24 17.9701 46.23 19.5901C46.53 20.0801 47.27 21.1501 48.27 20.7401C49.14 20.3901 48.95 19.2801 49.2 18.3001C49.26 18.0601 49.22 17.9001 49.33 17.7501V17.7901C49.6 18.3301 49.88 18.8601 50.13 19.4101C50.73 20.3701 51.79 21.3601 52.66 22.0101C53.13 22.3701 53.5 22.9701 54.08 23.1901V23.1301H54.04C53.92 22.9501 53.74 22.8801 53.59 22.7501C53.2227 22.3842 52.885 21.9896 52.58 21.5701C51.76 20.4801 51.04 19.2701 50.4 18.0201C50.1 17.4201 49.82 16.7501 49.56 16.1501C49.45 15.9201 49.45 15.5701 49.26 15.4501C48.96 15.8701 48.54 16.2501 48.32 16.7601C47.95 17.6001 47.92 18.6301 47.77 19.7101C47.7 19.7301 47.73 19.7101 47.7 19.7501C47.08 19.6001 46.86 18.9501 46.63 18.4101C46.0253 16.7388 45.9623 14.9193 46.45 13.2101C46.59 12.8101 47.18 11.5101 46.94 11.1101C46.83 10.7501 46.44 10.5401 46.23 10.2401C45.9587 9.84595 45.7243 9.4275 45.53 8.99014C45.06 7.89014 44.83 6.69014 44.33 5.59014C44.09 5.09014 43.69 4.55014 43.36 4.09014C42.98 3.56014 42.58 3.19014 42.29 2.57014C42.19 2.35014 42.06 2.00014 42.2 1.77014C42.25 1.61014 42.32 1.55014 42.47 1.52014C42.72 1.30014 43.45 1.58014 43.7 1.70014C44.42 1.99014 45.02 2.27014 45.62 2.67014C45.89 2.87014 46.18 3.23014 46.54 3.34014H46.95C47.57 3.47014 48.28 3.38014 48.85 3.56014C49.88 3.89014 50.83 4.38014 51.65 4.91014C54.2321 6.55525 56.3304 8.85719 57.73 11.5801C57.97 12.0201 58.06 12.4401 58.28 12.9101C58.68 13.8601 59.18 14.8401 59.6 15.7701C60 16.6901 60.4 17.6201 60.98 18.3901C61.28 18.7901 62.44 19.0201 62.96 19.2301C63.34 19.4101 63.96 19.5701 64.31 19.7701C64.9784 20.1859 65.629 20.6296 66.26 21.1001C66.55 21.3401 67.52 21.8301 67.57 22.2201Z" fill="#00758F"/>
<path fill-rule="evenodd" clip-rule="evenodd" d="M47.7399 5.27002C47.4099 5.27002 47.1799 5.31002 46.9399 5.37002V5.40002H46.9799C47.1399 5.72002 47.4099 5.93002 47.5999 6.20002L48.0499 7.14002L48.0899 7.10002C48.3599 6.90002 48.5099 6.59002 48.5099 6.12002C48.3899 5.99002 48.3699 5.85002 48.2699 5.72002C48.1399 5.52002 47.8899 5.42002 47.7399 5.27002Z" fill="#00758F"/>
</g>
</g>
<defs>
<clipPath id="clip0_0_3549">
<rect width="70" height="48" fill="white" transform="translate(0 0.000488281)"/>
</clipPath>
</defs>
</svg>
