<?xml version="1.0" encoding="UTF-8"?>
<svg xmlns="http://www.w3.org/2000/svg" version="1.1" viewBox="0 0 200 72.6">
  <!-- Generator: Adobe Illustrator 28.6.0, SVG Export Plug-In . SVG Version: 1.2.0 Build 709)  -->
  <g>
    <g id="Layer_2">
      <g id="Layer_1-2">
        <g>
          <path d="M126.1,14.9c-2.6,0-4.9-1.8-5.6-4.2h14.6l2-3.1h-16.7c.7-2.4,2.9-4.2,5.6-4.2h10.1l2-3.1h-12.3c-4.9,0-8.9,4-8.9,8.9s4,8.9,8.9,8.9h10.6l2-3.1h-12.4,0ZM84.2,18h10.6l2-3.1h-12.3c-3.2,0-5.8-2.6-5.8-5.8s2.6-5.8,5.8-5.8h10.1l2-3.2h-12.3c-4.9,0-8.9,4-8.9,8.9s4,8.9,8.9,8.9M19.1,14.9h-9.9c-3.2,0-5.8-2.6-5.8-5.8s2.6-5.8,5.8-5.8h9.9c3.2,0,5.8,2.6,5.8,5.8s-2.6,5.8-5.8,5.8M8.9,18h10.4c4.9,0,8.9-4,8.9-8.9S24.2.2,19.3.2h-10.4C4,.2,0,4.2,0,9.1s4,8.9,8.9,8.9h0ZM45,12.2c3.3,0,6-2.7,6-6S48.4.2,45,.2h-15v17.8h3.4V3.3h11.3c1.6,0,2.9,1.3,2.9,2.9s-1.3,2.9-2.9,2.9h-9.7l10.2,8.9h5l-6.9-5.8h1.6M101.8,14.9V.2h-3.4v16.1c0,.4.2.9.5,1.2.3.3.8.5,1.2.5h15.6l2-3.1h-16ZM59.8,11.7h9.1l-4.8-7.8-8.9,14.1h-4L62,1.1c.5-.7,1.3-1.1,2.1-1.1s1.6.4,2.1,1.1l10.8,16.9h-4l-1.9-3.1h-9.3l-2-3.1h0Z"/>
          <g>
            <polygon points="25.3 62.6 5.2 32.8 5.1 32.6 0 32.6 0 72 5.5 72 5.5 42 25.6 71.8 25.7 72 30.8 72 30.8 32.6 25.3 32.6 25.3 62.6"/>
            <path d="M77.1,67.4c-.4,0-.8,0-1.2,0-2.5,0-3.7-1.4-3.7-4.3v-15.1h6v-4.5h-6v-7.7h-3.4l-1.9,7.6-4.8,1.6v3h4.8v15.1c0,3.1.7,5.3,2,6.8,1.4,1.5,3.5,2.2,6.3,2.2s1.1,0,1.6,0c.5,0,1.1-.1,1.6-.2h.2v-4.8h-.3c-.4,0-.8.1-1.2.2h0Z"/>
            <path d="M133.1,61.9c-.7,1.8-1.8,3.3-3.2,4.5-1.4,1.1-2.9,1.7-4.5,1.7s-3.3-.6-4.3-1.8c-1-1.2-1.5-3-1.5-5.3v-17.4h-5.4v17.5c0,3.7.9,6.5,2.6,8.5,1.8,2,4.2,3,7.4,3s4-.5,5.7-1.4c1.6-.8,2.9-2,4-3.5l.8,4.3h3.8v-28.4h-5.4v18.4h0Z"/>
            <polygon points="143.7 46 146.5 47.8 146.5 72 151.9 72 151.9 43.6 143.7 43.6 143.7 46"/>
            <rect x="145.4" y="34.3" width="6.4" height="4.9"/>
            <path d="M171,67.4c-.4,0-.8,0-1.2,0-2.5,0-3.6-1.4-3.6-4.3v-15.1h6v-4.5h-6v-7.7h-3.4l-1.9,7.6-4.9,1.6v3h4.8v15.1c0,3.1.7,5.3,2,6.8,1.4,1.5,3.5,2.2,6.3,2.2s1.1,0,1.6,0c.5,0,1.1-.1,1.6-.2h.2v-4.8h-.3c-.4,0-.8.1-1.2.2h0Z"/>
            <path d="M200,56.1c0-8.7-4-13.1-11.9-13.1s-7.3,1.2-9.5,3.7c-2.2,2.5-3.3,6-3.3,10.8s1.1,8.7,3.4,11.2c2.3,2.5,5.8,3.8,10.2,3.8s3.8-.2,5.4-.5c1.7-.4,3.1-.9,4.1-1.5h.1v-4.8l-.4.2c-1.5.7-2.9,1.2-4.3,1.5s-2.9.5-4.5.5c-2.8,0-4.9-.7-6.3-2.1-1.4-1.3-2.2-3.5-2.4-6.4h19.2v-3.4h0ZM180.8,55.1c.2-2.4.9-4.3,2-5.6,1.2-1.3,3-2,5.3-2h0c2.4,0,4.1.6,5.1,1.8,1,1.2,1.5,3.1,1.6,5.8h-14Z"/>
            <path d="M48.2,43c-4.1,0-7.3,1.2-9.5,3.7-2.2,2.5-3.3,6-3.3,10.8s1.2,8.7,3.4,11.2c2.3,2.5,5.8,3.8,10.2,3.8s3.8-.2,5.5-.5c1.7-.4,3.1-.9,4.1-1.5h.1v-4.8l-.4.2c-1.5.7-2.9,1.2-4.3,1.5s-2.9.5-4.5.5c-2.8,0-4.9-.7-6.3-2.1-1.3-1.3-2.2-3.5-2.4-6.4h19.2v-3.4c0-8.7-4-13.1-11.9-13.1h0ZM40.9,55.1c.2-2.4.9-4.3,2-5.6,1.2-1.3,3-2,5.3-2h0c2.4,0,4.1.6,5.1,1.8,1,1.2,1.5,3.1,1.6,5.8h-14Z"/>
            <path d="M107.8,54.9c-1.5-1.8-4.1-3.4-7.7-4.8l-4.1-1.6c-2.6-1-4.3-2-5.3-2.9-1-.9-1.4-1.9-1.4-3.1,0-3.8,2.8-5.6,8.4-5.6s6.3.8,9.9,2.3l.4.2v-5h-.2c-1.3-.8-2.9-1.4-4.8-1.8-1.9-.4-3.7-.7-5.4-.7-4.2,0-7.6,1-10.1,2.8-2.5,1.9-3.7,4.5-3.7,7.8s.8,4.3,2.3,6.1c1.6,1.7,4.1,3.2,7.6,4.5l4.1,1.6c2.7,1,4.5,2,5.5,3,1,.9,1.5,2.1,1.5,3.6s-.8,3.5-2.4,4.6c-1.6,1.1-3.9,1.7-6.8,1.7s-7.2-.8-11.1-2.4l-.4-.2v5h.2c.9.5,2,.9,3.3,1.3,1.3.4,2.7.7,4.1.9,1.5.2,2.9.3,4.3.3,4.5,0,8-1,10.5-2.9,2.6-2,3.8-4.8,3.8-8.4s-.8-4.6-2.4-6.4h0Z"/>
          </g>
        </g>
      </g>
    </g>
  </g>
</svg>