<svg width="142" height="48" viewBox="0 0 142 48" fill="none" xmlns="http://www.w3.org/2000/svg">
<g clip-path="url(#clip0_0_3314)">
<path d="M71.6318 12.872C77.527 12.8722 82.4258 17.3796 82.4258 23.9277C82.4256 30.4755 77.5269 34.9822 71.6318 34.9824C65.7367 34.9824 60.8371 30.4756 60.8369 23.9277C60.8369 17.3795 65.7365 12.872 71.6318 12.872ZM128.054 12.871C129.391 12.8069 130.724 13.0913 131.922 13.6962C133.12 14.3012 134.145 15.2067 134.897 16.3271L135.812 17.6894V13.247H139.048V28.8046C139.048 29.5534 139.114 30.2409 139.449 30.7363C139.824 31.2892 140.436 31.4804 141.183 31.4804H141.5V34.5322H140.143C139.054 34.5322 138.128 34.3013 137.451 33.8193C136.79 33.3483 136.315 32.6008 136.181 31.4482L136.021 30.0722L135.265 31.2333C133.662 33.6961 131.084 34.9081 128.03 34.9081C122.815 34.9081 117.83 30.4864 117.83 23.9277C117.83 17.3621 122.747 12.872 128.03 12.872H128.042L128.054 12.871ZM90.0801 5.8183V21.8759H92.1768L92.3262 21.664L98.1953 13.3222H101.928L95.0811 22.6562L94.8545 22.9648L95.0938 23.2636L104.104 34.5322H99.8115L92.3828 25.1913L92.2324 25.0029H90.0059V34.5322H86.5479L86.6201 5.8183H90.0801ZM71.6318 16.2236C67.3818 16.2236 64.3691 19.6366 64.3691 23.9277C64.3693 28.2185 67.3819 31.6308 71.6318 31.6308C75.8816 31.6306 78.8934 28.2184 78.8936 23.9277C78.8936 19.6367 75.8817 16.2237 71.6318 16.2236ZM128.699 16.2236C124.449 16.2236 121.438 19.6366 121.438 23.9277C121.438 28.2185 124.449 31.6308 128.699 31.6308C132.956 31.6306 135.887 28.2108 135.887 23.9277C135.887 19.6444 132.956 16.2237 128.699 16.2236ZM106.684 29.8535L106.611 5.8183H110.068V13.247H115.716V16.2988H110.068V28.8046C110.068 29.5808 110.13 30.2921 110.517 30.79C110.935 31.3288 111.609 31.4804 112.426 31.4804H115.716V34.5322H111.088C109.84 34.5321 108.749 34.183 107.975 33.4579C107.207 32.7389 106.684 31.5896 106.684 29.8554V29.8535Z" fill="#18181B" stroke="#18181B"/>
<mask id="path-2-inside-1_0_3314" fill="white">
<path fill-rule="evenodd" clip-rule="evenodd" d="M25.7101 0.365574L24.7441 12.3713L23.3323 12.2963L21.6232 12.4464L21.1031 6.6686C21.1031 6.51853 21.2517 6.29342 21.4003 6.29342H22.3663L21.9204 0.44061C21.9204 0.290538 22.069 0.0654297 22.2177 0.0654297H25.4128C25.6358 0.0654297 25.7844 0.215502 25.7101 0.365574ZM17.685 0.965863C17.6107 0.815791 17.462 0.665718 17.3134 0.740754L14.3412 1.8663C14.1182 1.94133 14.0439 2.16644 14.1182 2.31651L16.5704 7.64407L15.6787 8.01925C15.5301 8.09429 15.4558 8.24436 15.5301 8.46947L17.9822 13.722C18.8739 13.1967 19.8398 12.8216 20.8801 12.5965L17.685 0.965863ZM10.4029 4.34249L17.3134 14.1722C16.4217 14.7725 15.6787 15.4478 15.0099 16.1982L10.7744 12.0712C10.6258 11.9211 10.6258 11.696 10.7744 11.621L11.5175 11.0207L7.43065 6.81868C7.28204 6.6686 7.28204 6.4435 7.43065 6.36846L9.88277 4.34249C10.0314 4.11738 10.2543 4.19241 10.4029 4.34249ZM4.60701 9.97019C4.45839 9.89516 4.23547 9.89516 4.16117 10.0452L2.60073 12.8216C2.52642 12.9716 2.60073 13.1967 2.74934 13.2718L8.02511 15.823L7.50496 16.6484C7.43066 16.7985 7.50496 17.0236 7.65357 17.0986L12.9293 19.4998C13.3009 18.5243 13.821 17.6239 14.4155 16.7985L4.60701 9.97019ZM0.668759 17.5488C0.668759 17.3988 0.891679 17.2487 1.04029 17.3237L12.5578 20.3252C12.2606 21.3006 12.112 22.3511 12.0377 23.4017L6.24175 22.9514C6.09314 22.9514 5.94452 22.8014 5.94452 22.5763L6.09314 21.6008L0.445839 21.0755C0.297226 21.0755 0.148613 20.9255 0.148613 20.7004L0.668759 17.5488ZM0.297226 25.4276C0.0743065 25.4276 0 25.5777 0 25.8028L0.594452 28.9543C0.594452 29.1044 0.817372 29.2545 0.965985 29.1794L6.61328 27.6787L6.7619 28.6542C6.7619 28.8042 6.98482 28.9543 7.13343 28.8793L12.7064 27.3035C12.4092 26.3281 12.1863 25.2776 12.112 24.227L0.297226 25.4276ZM2.15489 33.7566C2.08058 33.6066 2.15489 33.3814 2.3035 33.3064L13.078 28.1289C13.4495 29.1044 14.0439 30.0048 14.7127 30.8302L10.0314 34.2068C9.88277 34.2819 9.65985 34.2819 9.58554 34.1318L8.91679 33.3064L4.08686 36.683C3.93825 36.7581 3.71533 36.7581 3.64102 36.608L2.15489 33.7566ZM15.1585 31.5055L6.7619 40.0597C6.61328 40.2097 6.61328 40.4348 6.7619 40.5099L9.21401 42.5359C9.36263 42.6859 9.58554 42.6109 9.65985 42.4608L13.078 37.6585L13.821 38.3338C13.9696 38.4839 14.1926 38.4089 14.2669 38.2588L17.5363 33.4565C16.6447 32.9312 15.8273 32.2559 15.1585 31.5055ZM13.5238 45.1621C13.3752 45.0871 13.3009 44.937 13.3752 44.7119L18.2794 33.8317C19.1711 34.2819 20.2114 34.6571 21.1774 34.8822L19.6912 40.5099C19.6169 40.66 19.4683 40.81 19.3197 40.735L18.428 40.3598L16.8676 46.0625C16.7933 46.2126 16.6447 46.3627 16.4961 46.2877L13.5238 45.1621ZM21.9947 35.0322L21.0288 47.038C21.0288 47.1881 21.1774 47.4132 21.326 47.4132H24.5212C24.6698 47.4132 24.8184 47.2631 24.8184 47.038L24.3725 41.1852H25.3385C25.4871 41.1852 25.6358 41.0351 25.6358 40.81L25.1156 35.0322L23.4066 35.1823L21.9947 35.0322ZM33.5123 2.61666C33.5866 2.46658 33.5123 2.24148 33.3636 2.16644L30.3914 1.0409C30.2428 0.965863 30.0198 1.11593 30.0198 1.26601L28.4594 6.96875L27.5677 6.59357C27.4191 6.51853 27.1962 6.6686 27.1962 6.81868L25.7101 12.4464C26.7504 12.6715 27.7163 13.0467 28.608 13.4969L33.5123 2.61666ZM40.0512 7.34393L31.6546 15.898C30.9858 15.1477 30.1685 14.4724 29.2768 13.9471L32.5463 9.1448C32.6206 8.99472 32.8435 8.99472 32.9921 9.06976L33.7352 9.74508L37.1533 4.94277C37.2276 4.7927 37.4505 4.7927 37.5991 4.86774L40.0512 6.89371V7.34393ZM44.5096 14.0972C44.6582 14.0221 44.7325 13.797 44.6582 13.647L43.0978 10.8706C43.0235 10.7206 42.8006 10.6455 42.652 10.7956L37.822 14.1722L37.3019 13.3468C37.2276 13.1967 37.0047 13.1217 36.856 13.2718L32.1747 16.5734C32.8435 17.3988 33.3636 18.2992 33.8095 19.2747L44.5096 14.0972ZM46.2187 18.4493L46.7388 21.6008C46.7388 21.7509 46.6645 21.976 46.4416 21.976L34.6269 23.1015C34.5525 22.051 34.3296 21.0005 34.0324 20.025L39.6054 18.4493C39.754 18.3742 39.9769 18.5243 39.9769 18.6744L40.1255 19.6498L45.7728 18.1491C45.9958 18.1491 46.1444 18.2992 46.2187 18.4493ZM45.6985 30.0799C45.8471 30.1549 46.0701 30.0048 46.0701 29.8548L46.5902 26.7032C46.5902 26.5532 46.5159 26.3281 46.293 26.3281L40.4971 25.8028L40.6457 24.8273C40.6457 24.6773 40.5714 24.4522 40.3485 24.4522L34.5525 24.0019C34.5525 25.0524 34.3296 26.1029 34.0324 27.0784L45.6985 30.0799ZM42.652 37.2833C42.5777 37.4334 42.3547 37.5084 42.2061 37.3584L32.3977 30.5301C32.9921 29.7047 33.5123 28.8042 33.8838 27.8288L39.1595 30.2299C39.3082 30.305 39.3825 30.5301 39.3082 30.6801L38.788 31.5806L44.0638 34.1318C44.2124 34.2068 44.2867 34.432 44.2124 34.582L42.652 37.2833ZM29.4997 33.2314L36.4102 43.0611C36.4845 43.2112 36.7074 43.2112 36.856 43.1361L39.3082 41.1102C39.4568 40.9601 39.4568 40.81 39.3082 40.6599L35.2213 36.4579L35.9644 35.8576C36.113 35.7076 36.113 35.5575 35.9644 35.4074L31.8775 31.2804C31.2088 32.0308 30.3914 32.7061 29.4997 33.2314ZM29.4997 46.5878C29.3511 46.6628 29.1282 46.5128 29.1282 46.3627L26.0073 34.8071C27.0476 34.582 28.0136 34.2068 28.9052 33.6816L31.3574 38.9341C31.4317 39.0842 31.3574 39.3093 31.2087 39.3843L30.3171 39.7595L32.7692 45.0871C32.8435 45.2371 32.7692 45.4623 32.6206 45.5373L29.4997 46.5878Z"/>
</mask>
<path fill-rule="evenodd" clip-rule="evenodd" d="M25.7101 0.365574L24.7441 12.3713L23.3323 12.2963L21.6232 12.4464L21.1031 6.6686C21.1031 6.51853 21.2517 6.29342 21.4003 6.29342H22.3663L21.9204 0.44061C21.9204 0.290538 22.069 0.0654297 22.2177 0.0654297H25.4128C25.6358 0.0654297 25.7844 0.215502 25.7101 0.365574ZM17.685 0.965863C17.6107 0.815791 17.462 0.665718 17.3134 0.740754L14.3412 1.8663C14.1182 1.94133 14.0439 2.16644 14.1182 2.31651L16.5704 7.64407L15.6787 8.01925C15.5301 8.09429 15.4558 8.24436 15.5301 8.46947L17.9822 13.722C18.8739 13.1967 19.8398 12.8216 20.8801 12.5965L17.685 0.965863ZM10.4029 4.34249L17.3134 14.1722C16.4217 14.7725 15.6787 15.4478 15.0099 16.1982L10.7744 12.0712C10.6258 11.9211 10.6258 11.696 10.7744 11.621L11.5175 11.0207L7.43065 6.81868C7.28204 6.6686 7.28204 6.4435 7.43065 6.36846L9.88277 4.34249C10.0314 4.11738 10.2543 4.19241 10.4029 4.34249ZM4.60701 9.97019C4.45839 9.89516 4.23547 9.89516 4.16117 10.0452L2.60073 12.8216C2.52642 12.9716 2.60073 13.1967 2.74934 13.2718L8.02511 15.823L7.50496 16.6484C7.43066 16.7985 7.50496 17.0236 7.65357 17.0986L12.9293 19.4998C13.3009 18.5243 13.821 17.6239 14.4155 16.7985L4.60701 9.97019ZM0.668759 17.5488C0.668759 17.3988 0.891679 17.2487 1.04029 17.3237L12.5578 20.3252C12.2606 21.3006 12.112 22.3511 12.0377 23.4017L6.24175 22.9514C6.09314 22.9514 5.94452 22.8014 5.94452 22.5763L6.09314 21.6008L0.445839 21.0755C0.297226 21.0755 0.148613 20.9255 0.148613 20.7004L0.668759 17.5488ZM0.297226 25.4276C0.0743065 25.4276 0 25.5777 0 25.8028L0.594452 28.9543C0.594452 29.1044 0.817372 29.2545 0.965985 29.1794L6.61328 27.6787L6.7619 28.6542C6.7619 28.8042 6.98482 28.9543 7.13343 28.8793L12.7064 27.3035C12.4092 26.3281 12.1863 25.2776 12.112 24.227L0.297226 25.4276ZM2.15489 33.7566C2.08058 33.6066 2.15489 33.3814 2.3035 33.3064L13.078 28.1289C13.4495 29.1044 14.0439 30.0048 14.7127 30.8302L10.0314 34.2068C9.88277 34.2819 9.65985 34.2819 9.58554 34.1318L8.91679 33.3064L4.08686 36.683C3.93825 36.7581 3.71533 36.7581 3.64102 36.608L2.15489 33.7566ZM15.1585 31.5055L6.7619 40.0597C6.61328 40.2097 6.61328 40.4348 6.7619 40.5099L9.21401 42.5359C9.36263 42.6859 9.58554 42.6109 9.65985 42.4608L13.078 37.6585L13.821 38.3338C13.9696 38.4839 14.1926 38.4089 14.2669 38.2588L17.5363 33.4565C16.6447 32.9312 15.8273 32.2559 15.1585 31.5055ZM13.5238 45.1621C13.3752 45.0871 13.3009 44.937 13.3752 44.7119L18.2794 33.8317C19.1711 34.2819 20.2114 34.6571 21.1774 34.8822L19.6912 40.5099C19.6169 40.66 19.4683 40.81 19.3197 40.735L18.428 40.3598L16.8676 46.0625C16.7933 46.2126 16.6447 46.3627 16.4961 46.2877L13.5238 45.1621ZM21.9947 35.0322L21.0288 47.038C21.0288 47.1881 21.1774 47.4132 21.326 47.4132H24.5212C24.6698 47.4132 24.8184 47.2631 24.8184 47.038L24.3725 41.1852H25.3385C25.4871 41.1852 25.6358 41.0351 25.6358 40.81L25.1156 35.0322L23.4066 35.1823L21.9947 35.0322ZM33.5123 2.61666C33.5866 2.46658 33.5123 2.24148 33.3636 2.16644L30.3914 1.0409C30.2428 0.965863 30.0198 1.11593 30.0198 1.26601L28.4594 6.96875L27.5677 6.59357C27.4191 6.51853 27.1962 6.6686 27.1962 6.81868L25.7101 12.4464C26.7504 12.6715 27.7163 13.0467 28.608 13.4969L33.5123 2.61666ZM40.0512 7.34393L31.6546 15.898C30.9858 15.1477 30.1685 14.4724 29.2768 13.9471L32.5463 9.1448C32.6206 8.99472 32.8435 8.99472 32.9921 9.06976L33.7352 9.74508L37.1533 4.94277C37.2276 4.7927 37.4505 4.7927 37.5991 4.86774L40.0512 6.89371V7.34393ZM44.5096 14.0972C44.6582 14.0221 44.7325 13.797 44.6582 13.647L43.0978 10.8706C43.0235 10.7206 42.8006 10.6455 42.652 10.7956L37.822 14.1722L37.3019 13.3468C37.2276 13.1967 37.0047 13.1217 36.856 13.2718L32.1747 16.5734C32.8435 17.3988 33.3636 18.2992 33.8095 19.2747L44.5096 14.0972ZM46.2187 18.4493L46.7388 21.6008C46.7388 21.7509 46.6645 21.976 46.4416 21.976L34.6269 23.1015C34.5525 22.051 34.3296 21.0005 34.0324 20.025L39.6054 18.4493C39.754 18.3742 39.9769 18.5243 39.9769 18.6744L40.1255 19.6498L45.7728 18.1491C45.9958 18.1491 46.1444 18.2992 46.2187 18.4493ZM45.6985 30.0799C45.8471 30.1549 46.0701 30.0048 46.0701 29.8548L46.5902 26.7032C46.5902 26.5532 46.5159 26.3281 46.293 26.3281L40.4971 25.8028L40.6457 24.8273C40.6457 24.6773 40.5714 24.4522 40.3485 24.4522L34.5525 24.0019C34.5525 25.0524 34.3296 26.1029 34.0324 27.0784L45.6985 30.0799ZM42.652 37.2833C42.5777 37.4334 42.3547 37.5084 42.2061 37.3584L32.3977 30.5301C32.9921 29.7047 33.5123 28.8042 33.8838 27.8288L39.1595 30.2299C39.3082 30.305 39.3825 30.5301 39.3082 30.6801L38.788 31.5806L44.0638 34.1318C44.2124 34.2068 44.2867 34.432 44.2124 34.582L42.652 37.2833ZM29.4997 33.2314L36.4102 43.0611C36.4845 43.2112 36.7074 43.2112 36.856 43.1361L39.3082 41.1102C39.4568 40.9601 39.4568 40.81 39.3082 40.6599L35.2213 36.4579L35.9644 35.8576C36.113 35.7076 36.113 35.5575 35.9644 35.4074L31.8775 31.2804C31.2088 32.0308 30.3914 32.7061 29.4997 33.2314ZM29.4997 46.5878C29.3511 46.6628 29.1282 46.5128 29.1282 46.3627L26.0073 34.8071C27.0476 34.582 28.0136 34.2068 28.9052 33.6816L31.3574 38.9341C31.4317 39.0842 31.3574 39.3093 31.2087 39.3843L30.3171 39.7595L32.7692 45.0871C32.8435 45.2371 32.7692 45.4623 32.6206 45.5373L29.4997 46.5878Z" fill="#18181B" stroke="#18181B" stroke-width="2" mask="url(#path-2-inside-1_0_3314)"/>
</g>
<defs>
<clipPath id="clip0_0_3314">
<rect width="142" height="48" fill="white"/>
</clipPath>
</defs>
</svg>
