<svg width="307" height="48" viewBox="0 0 307 48" fill="none" xmlns="http://www.w3.org/2000/svg">
<mask id="path-1-inside-1_0_3106" fill="white">
<path d="M306.239 19.5284L289.823 18.3032L296.826 3.33474L291.079 0L282.161 13.4526L273.281 0L267.509 3.33474L274.511 18.3032L258.083 19.5284V26.2484L274.27 27.4737L267.255 42.4421L273.014 45.7642L282.161 31.9326L291.32 45.7642L297.092 42.4421L290.064 27.4737L306.239 26.2484V19.5284ZM23.0757 46.9263C6.30492 46.9263 0 36.1263 0 24.0884C0 12.24 6.30492 1.17474 23.0757 1.17474C39.8212 1.17474 46.0754 12.3032 46.0754 24.0884C46.0754 36.0632 39.8339 46.9263 23.0757 46.9263ZM10.4532 24.0884C10.4532 33.5747 13.4725 38.7411 23.0757 38.7411C32.6663 38.7411 35.6856 33.5747 35.6856 24.0884C35.6856 14.4632 32.6663 9.29684 23.0757 9.29684C13.4725 9.29684 10.4532 14.4758 10.4532 24.0758V24.0884ZM68.5041 12.5684H70.6734V21.9916H67.4512C60.9433 21.9916 58.7106 25.5284 58.7106 32.9179V45.8147H48.9805V13.0989H58.4442V20.0968C60.0299 15.4484 62.9857 12.5684 68.5041 12.5684ZM99.4959 0H109.213V45.8147H99.4959V40.9768C97.1871 44.7032 93.3813 46.8632 87.7233 46.8632C77.0164 46.8632 72.6017 38.88 72.6017 29.3811C72.6017 20.0968 77.0164 12.0379 87.7233 12.0379C93.3813 12.0379 97.1871 14.2737 99.4959 18V0ZM90.7426 39.2716C96.8572 39.2716 99.4959 36.1263 99.4959 29.4568C99.4959 22.7747 96.8572 19.6295 90.7426 19.6295C84.5645 19.6295 82.3318 22.6484 82.3318 29.4568C82.3318 36.1895 84.5645 39.2716 90.7426 39.2716ZM130.234 40.1811C134.509 40.1811 136.742 38.3495 137.668 35.9368H147.005C146.079 41.1663 141.867 46.8632 130.044 46.8632C117.231 46.8632 112.359 38.6147 112.359 29.3811C112.359 19.9074 117.878 12.0379 130.044 12.0379C142.463 12.0379 147.068 20.0968 147.068 29.3179C147.068 30.3032 147.068 31.2126 146.941 31.9326H121.874C122.47 38.16 125.553 40.1811 130.221 40.1811H130.234ZM130.171 18.5811C125.502 18.5811 122.749 20.4758 121.95 26.0463H137.807C137.465 21.0695 135.029 18.5937 130.171 18.5937V18.5811ZM169.992 12.5684H172.161V21.9916H168.939C162.431 21.9916 160.198 25.5284 160.198 32.9179V45.8147H150.468V13.0989H159.944V20.0968C161.518 15.4484 164.473 12.5684 169.992 12.5684ZM180.204 45.8147V20.4253H174.368V15.7768L180.204 12.96V9.95368C180.204 3.78947 183.312 0 191.444 0H199.854V6.9979H188.564V13.0863H198.078V20.4126H189.934V45.8021H180.204V45.8147ZM225.252 13.0863H234.969V45.8147H225.252V39.5368C223.222 43.92 219.53 46.8632 213.619 46.8632C204.992 46.8632 201.186 41.6842 201.186 33.12V13.0863H210.917V31.68C210.917 36.8589 213.213 38.9432 217.361 38.9432C222.22 38.9432 225.252 35.3432 225.252 27.9537V13.0737V13.0863ZM238.661 45.8147V0H248.391V45.8147H238.661Z"/>
</mask>
<path d="M306.239 19.5284L289.823 18.3032L296.826 3.33474L291.079 0L282.161 13.4526L273.281 0L267.509 3.33474L274.511 18.3032L258.083 19.5284V26.2484L274.27 27.4737L267.255 42.4421L273.014 45.7642L282.161 31.9326L291.32 45.7642L297.092 42.4421L290.064 27.4737L306.239 26.2484V19.5284ZM23.0757 46.9263C6.30492 46.9263 0 36.1263 0 24.0884C0 12.24 6.30492 1.17474 23.0757 1.17474C39.8212 1.17474 46.0754 12.3032 46.0754 24.0884C46.0754 36.0632 39.8339 46.9263 23.0757 46.9263ZM10.4532 24.0884C10.4532 33.5747 13.4725 38.7411 23.0757 38.7411C32.6663 38.7411 35.6856 33.5747 35.6856 24.0884C35.6856 14.4632 32.6663 9.29684 23.0757 9.29684C13.4725 9.29684 10.4532 14.4758 10.4532 24.0758V24.0884ZM68.5041 12.5684H70.6734V21.9916H67.4512C60.9433 21.9916 58.7106 25.5284 58.7106 32.9179V45.8147H48.9805V13.0989H58.4442V20.0968C60.0299 15.4484 62.9857 12.5684 68.5041 12.5684ZM99.4959 0H109.213V45.8147H99.4959V40.9768C97.1871 44.7032 93.3813 46.8632 87.7233 46.8632C77.0164 46.8632 72.6017 38.88 72.6017 29.3811C72.6017 20.0968 77.0164 12.0379 87.7233 12.0379C93.3813 12.0379 97.1871 14.2737 99.4959 18V0ZM90.7426 39.2716C96.8572 39.2716 99.4959 36.1263 99.4959 29.4568C99.4959 22.7747 96.8572 19.6295 90.7426 19.6295C84.5645 19.6295 82.3318 22.6484 82.3318 29.4568C82.3318 36.1895 84.5645 39.2716 90.7426 39.2716ZM130.234 40.1811C134.509 40.1811 136.742 38.3495 137.668 35.9368H147.005C146.079 41.1663 141.867 46.8632 130.044 46.8632C117.231 46.8632 112.359 38.6147 112.359 29.3811C112.359 19.9074 117.878 12.0379 130.044 12.0379C142.463 12.0379 147.068 20.0968 147.068 29.3179C147.068 30.3032 147.068 31.2126 146.941 31.9326H121.874C122.47 38.16 125.553 40.1811 130.221 40.1811H130.234ZM130.171 18.5811C125.502 18.5811 122.749 20.4758 121.95 26.0463H137.807C137.465 21.0695 135.029 18.5937 130.171 18.5937V18.5811ZM169.992 12.5684H172.161V21.9916H168.939C162.431 21.9916 160.198 25.5284 160.198 32.9179V45.8147H150.468V13.0989H159.944V20.0968C161.518 15.4484 164.473 12.5684 169.992 12.5684ZM180.204 45.8147V20.4253H174.368V15.7768L180.204 12.96V9.95368C180.204 3.78947 183.312 0 191.444 0H199.854V6.9979H188.564V13.0863H198.078V20.4126H189.934V45.8021H180.204V45.8147ZM225.252 13.0863H234.969V45.8147H225.252V39.5368C223.222 43.92 219.53 46.8632 213.619 46.8632C204.992 46.8632 201.186 41.6842 201.186 33.12V13.0863H210.917V31.68C210.917 36.8589 213.213 38.9432 217.361 38.9432C222.22 38.9432 225.252 35.3432 225.252 27.9537V13.0737V13.0863ZM238.661 45.8147V0H248.391V45.8147H238.661Z" fill="#18181B" stroke="#18181B" stroke-width="2" mask="url(#path-1-inside-1_0_3106)"/>
</svg>
