<svg width="191" height="48" viewBox="0 0 191 48" fill="none" xmlns="http://www.w3.org/2000/svg">
<path d="M71.2578 10.7594H60.7461C60.0249 10.7594 59.4105 11.2927 59.3036 11.9994L55.0295 38.9194C54.9493 39.4527 55.3634 39.9327 55.8977 39.9327H60.9198C61.641 39.9327 62.2554 39.3994 62.3623 38.6927L63.511 31.4394C63.5648 31.0954 63.7396 30.7818 64.0038 30.5546C64.2681 30.3275 64.6047 30.2015 64.9535 30.1994H68.2926C75.2114 30.1994 79.2184 26.8527 80.2602 20.2261C80.7277 17.3194 80.2735 15.0394 78.9245 13.4394C77.4286 11.6927 74.784 10.7727 71.2445 10.7727L71.2578 10.7594ZM72.4733 20.5994C71.8989 24.3594 69.0139 24.3594 66.2357 24.3594H64.6329L65.7549 17.3327C65.7867 17.1254 65.8917 16.9363 66.0508 16.7994C66.21 16.6625 66.4129 16.5868 66.6231 16.5861H67.3443C69.2543 16.5861 71.0441 16.5861 71.9657 17.6661C72.5133 18.3194 72.687 19.2661 72.4733 20.5994ZM102.713 20.4794H97.6639C97.2365 20.4794 96.8625 20.7861 96.8091 21.2127L96.582 22.6127L96.2347 22.1061C95.1395 20.5327 92.7086 19.9994 90.2777 19.9994C84.7079 19.9994 79.953 24.2127 79.0314 30.1194C78.7661 31.4647 78.7959 32.8513 79.1187 34.184C79.4415 35.5167 80.0497 36.7637 80.9013 37.8394C82.4507 39.6394 84.6412 40.3994 87.2591 40.3994C91.7335 40.3994 94.2312 37.5194 94.2312 37.5194L94.0042 38.9194C93.9107 39.4527 94.3247 39.9327 94.8724 39.9327H99.4136C100.122 39.9327 100.736 39.3994 100.843 38.6927L103.568 21.4927C103.589 21.3684 103.583 21.2409 103.55 21.1191C103.517 20.9974 103.457 20.8843 103.376 20.7878C103.295 20.6913 103.193 20.6137 103.078 20.5605C102.964 20.5072 102.839 20.4795 102.713 20.4794ZM95.6871 30.2661C95.4914 31.6226 94.8041 32.8604 93.7555 33.745C92.7069 34.6296 91.3697 35.0996 89.9972 35.0661C88.5279 35.0661 87.3659 34.5994 86.6179 33.7061C86.2352 33.2108 85.9661 32.6376 85.83 32.027C85.6938 31.4164 85.6938 30.7833 85.8299 30.1727C86.0214 28.8183 86.7006 27.5798 87.7404 26.689C88.7803 25.7982 90.1096 25.3161 91.4798 25.3327C92.9089 25.3327 94.071 25.8127 94.8323 26.7061C95.607 27.6127 95.9008 28.8661 95.6871 30.2661ZM129.533 20.4794H124.471C123.99 20.4794 123.536 20.7194 123.269 21.1194L116.283 31.3861L113.318 21.5194C113.226 21.219 113.041 20.9559 112.788 20.7687C112.536 20.5815 112.23 20.4801 111.915 20.4794H106.947C106.808 20.4792 106.671 20.5117 106.547 20.5742C106.424 20.6368 106.316 20.7276 106.234 20.8394C106.152 20.9511 106.098 21.0806 106.075 21.2173C106.053 21.354 106.063 21.4941 106.105 21.6261L111.688 37.9594L106.439 45.3461C106.039 45.9327 106.439 46.7327 107.16 46.7327H112.223C112.69 46.7327 113.158 46.5061 113.425 46.1061L130.254 21.8394C130.34 21.7078 130.389 21.5558 130.396 21.3989C130.403 21.2421 130.368 21.0862 130.294 20.9475C130.221 20.8087 130.111 20.6922 129.978 20.6099C129.844 20.5276 129.69 20.4825 129.533 20.4794Z" fill="#253B80"/>
<path d="M146.296 10.7594H135.771C135.049 10.7594 134.435 11.2927 134.328 11.9994L130.081 38.9194C129.987 39.4527 130.401 39.9327 130.935 39.9327H136.332C136.839 39.9327 137.266 39.5594 137.347 39.0661L138.549 31.4394C138.603 31.0954 138.777 30.7818 139.042 30.5546C139.306 30.3275 139.642 30.2015 139.991 30.1994H143.33C150.249 30.1994 154.256 26.8661 155.298 20.2261C155.765 17.3194 155.311 15.0394 153.962 13.4394C152.466 11.6927 149.822 10.7727 146.296 10.7727V10.7594ZM147.498 20.5994C146.937 24.3594 144.052 24.3594 141.26 24.3594H139.671L140.793 17.3327C140.822 17.1265 140.924 16.9376 141.081 16.8005C141.238 16.6634 141.439 16.5873 141.647 16.5861H142.382C144.279 16.5861 146.069 16.5861 146.99 17.6661C147.551 18.3194 147.711 19.2661 147.511 20.5994H147.498ZM177.737 20.4794H172.702C172.261 20.4794 171.9 20.7861 171.833 21.2127L171.606 22.6127L171.259 22.1061C170.164 20.5327 167.733 19.9994 165.315 19.9994C159.746 19.9994 154.991 24.2127 154.069 30.1194C153.804 31.4647 153.834 32.8513 154.156 34.184C154.479 35.5167 155.087 36.7637 155.939 37.8394C157.475 39.6394 159.679 40.3994 162.283 40.3994C163.58 40.4118 164.865 40.1632 166.063 39.6684C167.261 39.1735 168.347 38.4426 169.256 37.5194L169.029 38.9194C168.948 39.4527 169.363 39.9327 169.897 39.9327H174.438C175.146 39.9327 175.774 39.3994 175.881 38.6927L178.605 21.4927C178.625 21.3676 178.616 21.2399 178.582 21.1181C178.547 20.9964 178.486 20.8836 178.404 20.7874C178.321 20.6912 178.219 20.6139 178.104 20.5608C177.989 20.5076 177.864 20.4799 177.737 20.4794ZM170.712 30.2661C170.516 31.6203 169.831 32.8562 168.785 33.7405C167.739 34.6248 166.405 35.0963 165.035 35.0661C163.566 35.0661 162.39 34.5994 161.642 33.7061C161.261 33.2099 160.993 32.6367 160.857 32.0264C160.721 31.4161 160.72 30.7834 160.854 30.1727C161.046 28.8183 161.725 27.5798 162.765 26.689C163.805 25.7982 165.134 25.3161 166.504 25.3327C167.933 25.3327 169.095 25.8127 169.857 26.7061C170.631 27.6127 170.925 28.8661 170.712 30.2661ZM183.667 11.5061L179.353 38.9194C179.273 39.4527 179.687 39.9327 180.221 39.9327H184.562C185.284 39.9327 185.898 39.3994 186.005 38.6927L190.266 11.7594C190.283 11.6353 190.273 11.509 190.237 11.3889C190.202 11.2688 190.141 11.1577 190.059 11.063C189.976 10.9684 189.875 10.8923 189.761 10.84C189.647 10.7876 189.523 10.7601 189.397 10.7594H184.536C184.108 10.7594 183.734 11.0794 183.667 11.5061Z" fill="#179BD7"/>
<path d="M11.3534 45.1605L12.1681 40.0672L10.3783 40.0138H1.83008L7.76043 2.4005C7.77955 2.2875 7.83854 2.18507 7.92672 2.11171C8.01491 2.03834 8.12648 1.9989 8.24127 2.0005H22.6664C27.4481 1.98716 30.7606 2.98716 32.4836 4.93383C33.285 5.86716 33.8192 6.82716 34.0597 7.89383C34.3268 9.0005 34.3268 10.3338 34.0597 11.9472V13.1072L34.8611 13.5605C35.5289 13.9205 36.0765 14.3338 36.5039 14.8138C37.1851 15.6005 37.6392 16.6005 37.8262 17.7872C38.0266 19.0005 37.9598 20.4538 37.6392 22.1072C37.3319 23.8235 36.7309 25.4742 35.8628 26.9872C35.1518 28.1931 34.1965 29.2376 33.0579 30.0538C31.9894 30.8138 30.7205 31.3872 29.278 31.7605C27.8889 32.1205 26.2994 32.2938 24.5497 32.2938H23.4278C22.6233 32.2991 21.8466 32.5886 21.2354 33.1108C20.6242 33.6331 20.2179 34.3545 20.0886 35.1472L20.0085 35.6138L18.5927 44.6005L18.5259 44.9338C18.4992 45.0405 18.4725 45.0805 18.4324 45.1205C18.3907 45.1541 18.339 45.1729 18.2855 45.1738H11.3534V45.1605Z" fill="#253B80"/>
<path d="M35.6351 12.1733L35.5016 13.0133C33.5916 22.7733 27.0869 26.1333 18.7657 26.1333H14.5316C13.5165 26.1333 12.6617 26.8667 12.5014 27.8667L10.3376 41.6L9.72324 45.48C9.61638 46.1467 10.1239 46.7333 10.7918 46.7333H18.2982C19.1931 46.7333 19.9411 46.0933 20.088 45.2133L20.1548 44.8267L21.5706 35.88L21.6641 35.3867C21.7976 34.5067 22.559 33.8667 23.4405 33.8667H24.5625C31.8418 33.8667 37.5318 30.92 39.2013 22.3867C39.8959 18.8267 39.5353 15.8533 37.692 13.7467C37.1078 13.1019 36.4108 12.5688 35.6351 12.1733Z" fill="#179BD7"/>
<path d="M33.6589 11.3728C33.0447 11.2 32.4201 11.0664 31.7889 10.9728C30.6536 10.7862 29.4115 10.7062 28.0624 10.7062H16.7627C16.3309 10.7013 15.9119 10.8525 15.5829 11.1319C15.254 11.4112 15.0374 11.7999 14.9729 12.2262L12.5687 27.4262L12.502 27.8795C12.6622 26.8662 13.5171 26.1462 14.5322 26.1462H18.7662C27.0741 26.1462 33.5921 22.7595 35.4887 13.0128L35.6357 12.1728C35.0025 11.8366 34.3354 11.5684 33.6455 11.3728H33.6589Z" fill="#222D65"/>
<path d="M14.9733 12.2267C15.0374 11.7992 15.2536 11.4089 15.5822 11.1274C15.9109 10.8459 16.33 10.6918 16.7631 10.6934H28.0494C29.6234 10.6874 31.194 10.8393 32.7376 11.1467C33.1881 11.2461 33.6338 11.3663 34.0733 11.5067C34.6209 11.6934 35.1418 11.9067 35.6227 12.1734C36.197 8.57336 35.6227 6.12002 33.6726 3.89336C31.5222 1.45336 27.6487 0.400024 22.6801 0.400024H8.25489C7.23979 0.400024 6.38496 1.13336 6.21132 2.13336L0.200835 40.16C0.171751 40.3377 0.181759 40.5195 0.230166 40.6929C0.278572 40.8663 0.364216 41.0271 0.481146 41.1641C0.598077 41.3012 0.743491 41.4111 0.907285 41.4864C1.07108 41.5617 1.24933 41.6004 1.42965 41.6H10.3385L12.5557 27.4267L14.9599 12.2267H14.9733Z" fill="#253B80"/>
</svg>
