<svg width="299" height="48" viewBox="0 0 299 48" fill="none" xmlns="http://www.w3.org/2000/svg">
<path d="M76.5311 24.3719H65.0788V12.8195H77.1531C81.576 12.8195 83.7776 14.7762 83.7776 18.6797C83.7776 22.4646 81.3588 24.3621 76.5311 24.3621M84.7649 12.691C83.1852 11.2778 80.9935 10.5762 78.1699 10.5762L61.7715 10.675V38.2566H65.069L65.0393 26.5164H77.2518C80.3123 26.5164 82.7212 25.8148 84.4786 24.4016C86.2359 22.9884 87.1244 21.0416 87.1244 18.5413C87.1244 16.0411 86.3346 14.0943 84.7649 12.691ZM106.159 32.4755C105.843 33.38 105.303 34.1893 104.589 34.8275C103.108 36.2703 100.847 36.9917 97.8066 36.9917C95.062 36.9917 92.969 36.2999 91.4881 34.8868C90.0072 33.4736 89.2865 31.5959 89.2865 29.2341C89.2865 28.0086 89.484 26.9216 89.869 25.9729C90.2541 25.0242 90.8069 24.2138 91.5375 23.5616C93.0579 22.1781 95.1509 21.4863 97.8165 21.4863C103.71 21.4863 106.662 24.0656 106.662 29.2341C106.681 30.3346 106.514 31.4305 106.169 32.4755M106.761 22.2966C104.757 20.4585 101.775 19.5296 97.8264 19.5296C94.0945 19.5296 91.2117 20.4684 89.1681 22.3461C87.3318 24.0458 86.4037 26.3385 86.4037 29.2242C86.4037 32.0901 87.3515 34.4025 89.247 36.1616C90.2935 37.1103 91.5178 37.8021 92.9098 38.227C94.3018 38.6519 95.9407 38.8595 97.8165 38.8595C101.746 38.8595 104.727 37.9503 106.791 36.1319C108.627 34.4717 109.555 32.179 109.555 29.2242C109.555 26.2595 108.627 23.947 106.771 22.2868L106.761 22.2966ZM131.769 33.2661C131.769 36.9818 128.441 38.8397 121.797 38.8397C119.763 38.8397 118.046 38.7112 116.663 38.4543C115.281 38.1973 114.136 37.7625 113.267 37.1696C112.601 36.7149 112.055 36.1043 111.678 35.3908C111.244 34.527 110.983 33.5873 110.908 32.6237L113.998 32.5941C113.998 34.0566 114.541 35.1338 115.617 35.8256C116.782 36.6557 118.835 37.0708 121.797 37.0708C126.437 37.0708 128.767 35.9046 128.767 33.5724C128.767 32.2086 127.977 31.2797 126.427 30.7559C126.111 30.6571 124.226 30.4002 120.8 29.9752C117.374 29.5503 115.212 29.1748 114.363 28.8289C112.527 28.0976 111.609 26.7832 111.609 24.8957C111.577 24.0394 111.793 23.1921 112.231 22.4557C112.668 21.7194 113.31 21.1254 114.077 20.7451C114.886 20.3696 115.903 20.0731 117.118 19.8656C118.332 19.6581 119.734 19.5592 121.333 19.5592C127.74 19.5592 130.939 21.5653 130.939 25.5875H127.997C127.997 22.7611 125.746 21.3381 121.244 21.3381C118.964 21.3381 117.256 21.6345 116.13 22.1978C115.005 22.7611 114.442 23.6505 114.442 24.8364C114.442 25.9432 115.202 26.7437 116.713 27.2378C117.601 27.4948 119.645 27.7912 122.844 28.1272C125.707 28.3842 127.671 28.7498 128.738 29.2143C130.771 30.0049 131.788 31.3489 131.788 33.2463L131.769 33.2661ZM143.912 38.3061L142.658 38.4839L141.868 38.5432C139.854 38.5432 138.413 38.2468 137.514 37.6637C136.616 37.0806 136.182 36.0628 136.182 34.6002V22.0002H132.519V20.1423H136.162L136.191 14.1931H139.005V20.1423H143.922V22.0199L139.005 22.0002V34.2543C139.005 35.1635 139.252 35.7861 139.736 36.1319C140.219 36.4778 141.078 36.6458 142.322 36.6458C142.5 36.6656 142.698 36.6656 142.915 36.6261C143.247 36.5664 143.577 36.4905 143.902 36.3988L143.922 38.2764L143.912 38.3061ZM163.42 34.1258C162.65 34.7583 161.771 35.2425 160.784 35.5785C159.797 35.9145 158.662 36.0726 157.378 36.0726C151.484 36.0726 148.532 33.6317 148.532 28.7597C148.532 26.4868 149.292 24.7079 150.803 23.4232C152.313 22.1385 154.436 21.5061 157.181 21.5061C159.945 21.5061 162.038 22.1484 163.46 23.443C164.881 24.7376 165.612 26.467 165.612 28.6411C165.612 31.0129 164.881 32.8411 163.42 34.1159M168.426 20.1522H165.612L165.582 23.2651C164.772 22.3815 163.88 21.5774 162.917 20.8637C161.337 19.9941 159.293 19.5592 156.786 19.5592C153.113 19.5592 150.309 20.3992 148.374 22.0792C146.538 23.6209 145.63 25.8543 145.63 28.7795C145.63 30.2223 145.857 31.507 146.321 32.6336C146.785 33.7602 147.466 34.7286 148.355 35.5192C150.29 37.1399 153.024 37.9503 156.569 37.9503C160.814 37.9503 163.835 36.7842 165.612 34.4519V37.6736C165.612 39.7291 164.96 41.3301 163.667 42.4468C162.374 43.5635 160.251 44.1268 157.289 44.1268C154.505 44.1268 152.521 43.7315 151.346 42.9804C150.457 42.3875 149.845 41.3696 149.51 39.9169H146.607C146.923 41.9428 147.792 43.4152 149.174 44.3244C150.793 45.3621 153.518 45.8858 157.368 45.8858C164.733 45.8858 168.426 43.1484 168.426 37.6637V20.1621V20.1522ZM183.679 21.9804C182.896 21.8506 182.103 21.7845 181.309 21.7828C176.679 21.7828 174.369 24.3324 174.369 29.4119V38.2665H171.575L171.545 20.1621L174.369 20.1818V23.4133H174.517C174.923 22.2263 175.711 21.2078 176.758 20.5178C177.884 19.8853 179.562 19.5691 181.793 19.5691H183.679V22.0002V21.9804ZM186.305 28.0679C186.539 26.2472 187.385 24.5603 188.704 23.2849C189.514 22.6326 190.432 22.1484 191.449 21.8223C192.466 21.4962 193.621 21.3282 194.914 21.3282C197.422 21.3282 199.455 22.0199 201.055 23.3936C202.654 24.7672 203.444 26.3286 203.444 28.0679H186.305ZM203.71 22.4844C202.723 21.4962 201.499 20.755 200.038 20.2806C198.577 19.8063 196.879 19.5691 194.904 19.5691C191.251 19.5691 188.418 20.419 186.414 22.1188C184.409 23.8185 183.383 26.131 183.383 29.0562C183.383 31.9813 184.35 34.2938 186.285 36.0232C188.378 37.9206 191.32 38.8693 195.141 38.8693C196.661 38.8693 198.063 38.7013 199.357 38.3555C200.65 38.0096 201.785 37.5253 202.753 36.8929C204.339 35.8278 205.486 34.2233 205.981 32.3766H202.921C201.884 35.4698 199.278 37.0213 195.121 37.0213C192.179 37.0213 189.918 36.2604 188.339 34.7484C187.663 34.0999 187.131 33.3157 186.779 32.4471C186.426 31.5785 186.262 30.6452 186.295 29.7084H206.396C206.396 26.635 205.507 24.2237 203.701 22.4943L203.71 22.4844Z" fill="#18181B"/>
<path d="M236.202 30.8756C236.202 36.2516 231.868 38.9396 223.21 38.9396C218.017 38.9396 214.226 38.0107 211.836 36.1726C209.882 34.6507 208.914 32.3185 208.914 29.2055H212.399C212.399 34.2258 216.003 36.7359 223.21 36.7359C226.665 36.7359 229.163 36.222 230.713 35.1942C232.016 34.2851 232.668 32.862 232.668 30.9251C232.668 29.0178 231.779 27.6639 230.002 26.9029C228.995 26.4879 226.547 25.9641 222.627 25.3218C217.711 24.5806 214.522 23.8394 213.051 23.0785C210.948 21.9716 209.891 20.1039 209.891 17.4455C209.891 14.9848 210.78 13.1467 212.597 11.9411C214.532 10.6267 217.849 9.96459 222.548 9.96459C231.039 9.96459 235.284 12.7811 235.284 18.4239H231.759C231.759 14.1942 228.61 12.0893 222.311 12.0893C219.152 12.0893 216.832 12.5142 215.371 13.374C214.703 13.7987 214.16 14.3926 213.795 15.0956C213.431 15.7985 213.26 16.5854 213.298 17.3764C213.298 19.2145 214.186 20.5091 215.963 21.2601C216.911 21.6949 219.695 22.2978 224.315 23.0686C228.659 23.7208 231.592 24.4818 233.102 25.3415C235.175 26.4088 236.212 28.2568 236.212 30.8756H236.202ZM264.537 33.6131C263.233 34.6606 261.762 35.4413 260.123 35.9651C258.485 36.4888 256.638 36.7556 254.605 36.7556C250.458 36.7556 247.101 35.6291 244.535 33.3956C241.968 31.1622 240.704 28.1679 240.704 24.4422C240.704 20.5585 241.978 17.5246 244.515 15.3505C247.052 13.1764 250.419 12.1091 254.605 12.1091C258.85 12.1091 262.197 13.2356 264.625 15.5086C265.909 16.6154 266.857 17.9001 267.469 19.3825C268.081 20.8648 268.387 22.5448 268.387 24.4422C268.387 28.3062 267.103 31.3599 264.537 33.6131ZM266.393 35.4413C268.209 34.1566 269.552 32.6051 270.421 30.7867C271.289 28.9684 271.724 26.8535 271.724 24.462C271.724 20.1731 270.302 16.7538 267.459 14.1547C265.938 12.7316 264.102 11.6841 261.95 10.9924C259.798 10.3006 257.339 9.94482 254.575 9.94482C249.204 9.94482 244.999 11.2493 241.938 13.8582C238.878 16.4672 237.347 19.9952 237.347 24.462C237.347 28.8004 238.897 32.3086 241.987 34.9669C245.078 37.6253 249.293 38.9693 254.634 38.9693C256.727 38.9693 258.554 38.8211 260.114 38.5444C261.673 38.2676 262.996 37.8229 264.082 37.2399L269.236 40.8074L271.388 38.8309L266.402 35.4413H266.393ZM297.837 38.2676H273.995V10.6366L277.272 10.5773V35.9552H297.857L297.827 38.2578L297.837 38.2676Z" fill="#367FAF"/>
<path d="M39.1632 33.6327C39.4889 31.2906 39.3902 30.9447 41.4437 31.3203L41.9769 31.3598C43.6242 31.421 45.2692 31.1867 46.8342 30.668C49.4504 29.6403 51.0004 27.9207 48.4237 28.3654C42.5396 29.4031 42.1348 27.7033 42.1348 27.7033C48.3546 19.8864 50.9412 9.95461 48.7001 7.52356C42.5791 0.902379 32.0154 4.03509 31.8179 4.11414L31.7587 4.12403C30.5937 3.92638 29.2905 3.79791 27.8392 3.77814C25.1736 3.73861 23.1497 4.37109 21.6195 5.35932C21.6195 5.35932 2.7331 -1.24209 3.61177 13.6605C3.80922 16.8229 8.97261 37.645 15.1331 31.3499C17.3841 29.0572 19.5758 27.1104 19.5758 27.1104C20.7082 27.7456 22.0042 28.0277 23.2978 27.9207L23.3965 27.8417C23.3669 28.1381 23.3867 28.405 23.4459 28.741C21.8663 30.2431 22.3204 30.5099 19.1513 31.0633C15.9427 31.6266 17.8284 32.6247 19.0526 32.8916C20.5532 33.2078 24.0086 33.6525 26.3386 30.8854L26.2399 31.2017C26.8717 31.6167 26.8322 34.2356 26.9211 36.1033C27.0099 37.9711 27.158 39.7203 27.6122 40.748C28.0663 41.7758 28.5797 44.4243 32.7459 43.6732C36.2409 43.0308 38.9065 42.1217 39.1533 33.6327" fill="#231F20"/>
<path d="M39.1632 33.6327C39.4889 31.2906 39.3902 30.9447 41.4437 31.3203L41.9769 31.3598C43.6242 31.421 45.2692 31.1867 46.8342 30.668C49.4504 29.6403 51.0004 27.9207 48.4237 28.3654C42.5396 29.4031 42.1348 27.7033 42.1348 27.7033C48.3546 19.8864 50.9412 9.95461 48.7001 7.52356C42.5791 0.902379 32.0154 4.03509 31.8179 4.11414L31.7587 4.12403C30.5937 3.92638 29.2905 3.79791 27.8392 3.77814C25.1736 3.73861 23.1497 4.37109 21.6195 5.35932C21.6195 5.35932 2.7331 -1.24209 3.61177 13.6605C3.80922 16.8228 8.97261 37.645 15.1331 31.3499C17.3841 29.0572 19.5758 27.1104 19.5758 27.1104C20.7082 27.7456 22.0042 28.0277 23.2978 27.9207L23.3965 27.8417C23.3669 28.1381 23.3867 28.405 23.4459 28.741C21.8663 30.2431 22.3204 30.5099 19.1513 31.0633C15.9427 31.6266 17.8284 32.6247 19.0526 32.8916C20.5532 33.2078 24.0086 33.6525 26.3386 30.8854L26.2399 31.2017C26.8717 31.6167 26.8322 34.2356 26.9211 36.1033C27.0099 37.9711 27.158 39.7203 27.6122 40.748C28.0663 41.7758 28.5797 44.4243 32.7459 43.6732C36.2409 43.0308 38.9065 42.1217 39.1533 33.6327" stroke="#231F20" stroke-width="4.11"/>
<path d="M48.4237 28.3654C42.5396 29.4031 42.1348 27.7033 42.1348 27.7033C48.3546 19.8864 50.9412 9.95461 48.7001 7.52356C42.589 0.902379 32.0154 4.03509 31.8179 4.11414L31.7587 4.12403C30.5937 3.92638 29.2905 3.79791 27.8294 3.77814C25.1637 3.73861 23.1497 4.37109 21.6195 5.35932C21.6195 5.35932 2.7331 -1.24209 3.61177 13.6605C3.80922 16.8229 8.97261 37.645 15.1331 31.3499C17.3841 29.0572 19.566 27.1104 19.566 27.1104C20.7011 27.7475 22.0009 28.0297 23.2978 27.9207L23.3965 27.8417C23.3671 28.1422 23.3838 28.4455 23.4459 28.741C21.8663 30.2431 22.3204 30.5099 19.1513 31.0633C15.9328 31.6266 17.8284 32.6247 19.0526 32.8916C20.5532 33.2078 24.0086 33.6525 26.3386 30.8854L26.2399 31.2017C26.8717 31.6167 27.3061 33.949 27.2271 36.0638C27.1481 38.1786 27.1087 39.6214 27.6023 40.748C28.0959 41.8746 28.5895 44.4243 32.7558 43.6732C36.2408 43.0308 38.0475 41.4003 38.3042 38.653C38.4819 36.7061 38.8867 36.9927 38.9065 35.2534L39.2323 34.4233C39.6074 31.7847 39.2915 30.9349 41.4437 31.3301L41.967 31.3697C43.5466 31.429 45.6199 31.1523 46.8342 30.6779C49.4504 29.6403 51.0004 27.9207 48.4138 28.3753L48.4237 28.3654Z" fill="#417BA2"/>
<path d="M26.6051 29.8874C26.4373 34.7989 26.6446 39.75 27.2074 40.9556C27.7701 42.1613 28.9844 44.4935 33.1704 43.7326C36.6555 43.1001 37.9192 41.8747 38.472 39.1669C38.8669 37.1707 39.6568 31.6366 39.7555 30.5001M21.5997 5.24081C21.5997 5.24081 2.69359 -1.31119 3.58212 13.6013C3.77958 16.7636 8.9331 37.5858 15.1035 31.2907C17.3545 28.9881 19.3882 27.1895 19.3882 27.1895M31.8179 4.04505C31.1663 4.22293 42.3322 0.586227 48.6705 7.46434C50.9116 9.8954 48.3151 19.8173 42.1052 27.6441" stroke="white" stroke-width="1.369" stroke-linecap="round" stroke-linejoin="round"/>
<path d="M42.0952 27.645C42.0952 27.645 42.4901 29.3349 48.384 28.3072C50.9608 27.8526 49.4108 29.5721 46.7945 30.6097C44.6522 31.4497 39.8343 31.6672 39.7553 30.501C39.5579 27.4869 42.2926 28.406 42.0952 27.645ZM42.0952 27.645C41.9175 26.973 40.6932 26.301 39.8837 24.6408C39.1729 23.1881 30.1986 12.0408 42.3716 13.701C42.8159 13.622 39.1926 3.8681 27.7996 3.71987C16.4065 3.57163 16.7817 15.5886 16.7817 15.5886" stroke="white" stroke-width="1.369" stroke-linecap="round" stroke-linejoin="bevel"/>
<path d="M23.4158 28.6826C21.8263 30.1847 22.2904 30.4516 19.1212 31.005C15.9028 31.5683 17.7884 32.5664 19.0225 32.8233C20.5133 33.1396 23.9687 33.5942 26.3085 30.8172C27.0194 29.9772 26.3085 28.6233 25.3213 28.2775C24.8572 28.1193 24.2254 27.9118 23.4158 28.6727V28.6826Z" stroke="white" stroke-width="1.369" stroke-linejoin="round"/>
<path d="M23.3075 28.6529C23.1496 27.7635 23.6531 26.7159 24.1961 25.4905C25.0056 23.6327 26.8617 21.7847 25.3808 15.9244C24.2652 11.5465 16.7916 15.0152 16.7916 15.6082C16.7916 16.2011 17.1273 18.6124 16.6633 21.419C16.061 25.0755 19.4078 28.1785 23.2779 27.8623" stroke="white" stroke-width="1.369" stroke-linecap="round" stroke-linejoin="round"/>
<path d="M21.5306 15.5098C21.501 15.7074 21.9749 16.251 22.587 16.33C23.1991 16.4091 23.7223 15.9743 23.752 15.7766C23.7816 15.579 23.3176 15.3517 22.7055 15.2825C22.0934 15.2133 21.5602 15.3122 21.5306 15.5098Z" fill="white" stroke="white" stroke-width="0.46"/>
<path d="M40.1797 15.1034C40.2191 15.3011 39.7453 15.8446 39.1332 15.9138C38.5211 15.983 37.9978 15.5679 37.9583 15.3604C37.9188 15.1528 38.4026 14.9354 39.0147 14.8662C39.6268 14.7971 40.15 14.8959 40.1797 15.0935V15.1034Z" fill="white" stroke="white" stroke-width="0.23"/>
<path d="M42.3814 13.7002C42.4801 15.2814 41.9766 16.3684 41.9075 18.0583C41.8088 20.519 43.2897 23.3256 41.0684 26.1421" stroke="white" stroke-width="1.369" stroke-linecap="round" stroke-linejoin="round"/>
</svg>
