<svg width="189" height="48" viewBox="0 0 189 48" fill="none" xmlns="http://www.w3.org/2000/svg">
<g clip-path="url(#clip0_0_2549)">
<path d="M175.437 23.7098C178.571 24.5327 180.118 26.3841 180.226 29.3425C180.234 30.7273 179.802 32.0789 178.993 33.2022C178.183 34.3256 177.037 35.1625 175.721 35.5923C174.683 35.9449 173.645 36.131 172.588 36.1702C170.159 36.2584 167.74 36.2192 165.322 36.1702L164.881 36.0527C164.844 35.698 164.834 35.3411 164.851 34.9849C164.851 28.0004 164.881 20.967 164.793 13.9531C164.793 12.9245 165.077 12.6796 166.036 12.7286C168.769 12.8559 171.501 12.7286 174.194 12.9539C177.053 13.2478 178.953 15.2364 179.178 17.7539C179.296 19.8013 178.493 22.2698 175.418 23.7196H175.437V23.7098ZM168.7 25.6886C168.7 28.02 168.7 30.1653 168.749 32.3008C168.788 32.4576 168.847 32.5849 168.974 32.6927C169.102 32.7906 169.219 32.8788 169.366 32.918C170.629 32.967 171.902 32.918 173.156 32.7417C173.966 32.6464 174.707 32.2388 175.222 31.6053C175.751 30.9784 176.005 30.1653 175.976 29.3229C175.976 27.5106 175.065 26.3351 173.205 26.0315C171.721 25.8235 170.227 25.7025 168.729 25.669L168.7 25.6886ZM168.7 19.2625C168.7 20.0951 168.661 20.918 168.749 21.731C168.749 21.9564 169.102 22.3972 169.288 22.3972C170.433 22.4461 171.569 22.3972 172.705 22.1817C174.82 21.6331 175.78 18.7237 174.439 17.1172C173.694 16.2159 170.277 15.3735 169.17 16.1572C168.661 16.549 168.857 17.94 168.749 18.9C168.72 18.998 168.7 19.1351 168.7 19.2625ZM112.588 24.2584C111.51 28.0396 110.512 31.5368 109.571 35.0731C109.327 35.9449 109.013 36.2486 108.103 36.2486C105.361 36.2486 105.331 36.3466 104.577 33.6233C103.304 29.2347 102.07 24.8364 100.856 20.4282C100.758 20.1147 100.719 19.8013 100.64 19.4682C101.884 19.4682 102.991 19.4388 104.146 19.5172C104.391 19.5172 104.685 20.007 104.773 20.3008C105.645 23.7196 106.438 27.0992 107.28 30.5082C107.368 30.9098 107.525 31.3115 107.75 31.6641C108.338 29.5678 108.915 27.4323 109.493 25.3164C109.983 23.5923 110.414 21.8682 110.962 20.1245C111.04 19.9776 111.138 19.8208 111.285 19.7131C111.422 19.5898 111.592 19.5111 111.775 19.4878C113.694 19.3506 114.899 20.2421 115.369 22.1719C116.152 25.4633 116.955 28.7547 117.758 32.2225C118.698 28.2257 119.658 24.3955 120.53 20.5359C120.725 19.6935 121.029 19.4192 121.832 19.4682C122.635 19.5074 123.467 19.4682 124.447 19.4682C124.006 21.1335 123.565 22.5539 123.134 24.0331C122.057 27.7261 121 31.4486 120.001 35.2004C119.795 35.9253 119.511 36.2878 118.679 36.2584C115.672 36.2094 115.672 36.2584 114.918 33.3L112.588 24.278V24.2584ZM66.3462 36.2486C66.3169 35.7392 66.2581 35.4061 66.2581 35.1221C66.2581 28.1376 66.2581 21.1139 66.2287 14.0902C66.2287 13.0617 66.5421 12.7482 67.5312 12.7678C70.1458 12.8853 72.7899 12.7286 75.4143 13.0127C79.1943 13.4045 81.4075 16.0494 81.476 19.8013C81.5577 21.5535 81.0396 23.2813 80.0071 24.6992C78.9994 26.0887 77.5256 27.0692 75.855 27.4617C74.3175 27.7261 72.7703 27.8535 71.223 27.8241C70.469 27.8829 70.234 28.118 70.234 28.9017C70.2633 30.998 70.234 33.0551 70.2829 35.1613C70.2829 36.0331 70.0381 36.3074 69.2057 36.2192C68.295 36.131 67.3941 36.2192 66.3462 36.2192V36.2388V36.2486ZM70.2829 24.5523C71.8106 24.4347 73.2403 24.4347 74.5917 24.1604C76.3936 23.7686 77.2945 22.2208 77.2945 20.1343C77.2945 18.038 76.4622 16.8429 74.6505 16.4608C73.4166 16.2159 72.1044 16.3041 70.8313 16.3041C70.7012 16.3405 70.5873 16.4199 70.5082 16.5294C70.4169 16.6268 70.3499 16.7442 70.3123 16.8723C70.2829 19.3506 70.2829 21.7996 70.2829 24.5719V24.5523ZM90.6714 36.5915C85.7261 36.5915 82.4651 33.2315 82.4651 28.0396C82.4651 22.4853 85.8338 19.0666 91.3177 19.0274C96.2141 19.0274 99.2009 22.3286 99.2009 27.7555C99.2009 33.1923 96.028 36.611 90.6714 36.611V36.5915ZM95.3817 27.9515C95.3817 27.9515 95.2642 27.9025 95.225 27.9025C95.1761 27.3441 95.1761 26.7466 95.1075 26.1784C94.9117 24.327 93.6386 22.7302 92.0914 22.3384C90.1328 21.8878 88.2722 22.5539 87.3125 24.2388C86.7214 25.3079 86.3988 26.5047 86.3724 27.7261C86.3724 28.9408 86.627 30.1653 87.1852 31.2429C87.949 32.8102 89.3788 33.4176 91.0044 33.4176C92.6202 33.4176 93.9226 32.7221 94.5689 31.1155C94.9998 30.1359 95.1075 29.0094 95.4013 27.9515H95.3817ZM129.754 29.029C129.686 31.4682 131.223 33.2804 133.427 33.4861C135.209 33.7196 137.015 33.306 138.519 32.3204C138.617 32.2323 138.734 32.1833 138.871 32.1147H139.273C139.332 32.9866 139.312 33.878 139.224 34.74C139.178 34.9233 139.091 35.0939 138.971 35.2396C138.851 35.3853 138.7 35.5024 138.529 35.5825C137.221 36.2378 135.789 36.6089 134.327 36.6714C132.865 36.7339 131.407 36.4863 130.048 35.9449C128.915 35.472 127.95 34.6701 127.277 33.6429C125.024 30.5768 124.897 24.2192 128.344 21.0551C129.345 20.056 130.614 19.368 131.997 19.0743C133.38 18.7805 134.819 18.8935 136.139 19.3996C138.842 20.34 139.968 22.6225 140.34 25.4045C140.458 26.247 140.428 27.0502 140.497 27.8829C140.585 28.6959 140.233 28.9996 139.43 28.9996C136.58 28.9408 133.75 28.9996 130.91 28.9996H129.754V29.029ZM136.648 26.1196C136.854 23.7686 135.62 22.1719 133.603 22.0445C131.586 21.927 129.754 23.8959 129.754 26.1196H136.648ZM188.158 36.1506H184.153V12.7678C185.338 12.7678 186.523 12.7286 187.708 12.8168C187.864 12.8168 188.099 13.3947 188.099 13.718C188.158 16.6274 188.099 19.5759 188.099 22.4364V36.1506H188.158ZM147.636 36.2486H144.532C144.336 36.2486 144.14 36.1898 143.846 36.1898V19.5759H147.577V22.2013C148.047 21.5449 148.331 21.0355 148.693 20.6339C149.135 20.0605 149.735 19.6295 150.419 19.3944C151.103 19.1593 151.842 19.1304 152.542 19.3115C152.705 19.3583 152.855 19.443 152.979 19.5588C153.103 19.6745 153.199 19.818 153.257 19.9776C153.345 20.9866 153.286 22.0347 153.286 23.1417C152.816 23.0045 152.346 22.8968 151.866 22.8184C149.477 22.5735 147.734 24.5033 147.714 27.4225C147.665 29.94 147.714 32.4478 147.714 35.0045V36.2388H147.636V36.2486ZM40.8753 27.109V15.7751C40.8753 14.4527 40.3171 13.669 39.1322 13.2968C28.3993 9.92696 17.6861 6.51799 6.93365 3.18737C5.26888 2.6486 3.95666 3.67717 3.95666 5.48941V20.3792C4.00562 20.82 3.95666 21.2608 3.79997 21.6527C3.67267 21.8584 3.51598 22.0445 3.32992 22.1621C3.11448 22.2796 2.92842 22.3874 2.6836 22.407C2.32127 22.407 1.85122 21.9857 1.56723 21.6527C1.39042 21.3479 1.32142 20.9925 1.37137 20.6437C1.37137 15.6968 1.32241 10.7988 1.37137 5.85186C1.42033 1.89431 4.27982 -0.221606 7.91293 0.885332C9.46997 1.34574 10.9976 1.88452 12.5547 2.36452L39.1714 10.7792C42.1092 11.6608 43.3039 13.1596 43.3039 16.3629C43.3431 23.651 43.3431 30.9 43.3039 38.1784C43.3039 41.558 41.1985 43.9482 38.339 43.5759C36.7232 43.38 35.1368 42.6747 33.5895 42.1359C32.9432 41.9204 32.7865 41.2543 33.0019 40.6176C33.0411 40.4804 33.0999 40.3433 33.1978 40.2257C33.3974 39.9973 33.6788 39.8566 33.9812 39.8339C34.1477 39.8143 34.275 39.8143 34.4219 39.9025C35.411 40.1866 36.4098 40.4804 37.3989 40.8429C39.5043 41.5776 40.797 40.6372 40.797 38.3939V27.1384H40.8459L40.8655 27.109H40.8753Z" fill="#18181B"/>
<path d="M24.3156 32.0367V19.5959C24.2764 18.9689 24.4331 18.342 24.766 17.8228C25.1186 17.284 25.5984 16.902 26.1566 16.6669C27.3317 16.2163 28.6635 16.5004 29.349 17.5485C29.7603 18.1853 30.0247 18.9395 30.0345 19.7232C30.1324 27.9224 30.0933 36.151 30.0933 44.2816C30.0933 45.604 29.6624 46.7306 28.4383 47.2987C27.956 47.5493 27.4103 47.6514 26.87 47.5921C26.3297 47.5329 25.8191 47.3149 25.4025 46.9657C24.5702 46.3093 24.3156 45.3689 24.3156 44.2816V32.0171V32.0367ZM22.0338 32.2424V41.5093C22.072 42.1213 21.9179 42.7299 21.593 43.2498C21.2681 43.7698 20.7888 44.1751 20.2222 44.4089C19.1058 44.8595 17.9601 44.7714 17.1571 43.782C16.6339 43.1257 16.3353 42.3188 16.3051 41.48C16.2072 35.2791 16.2463 29.0391 16.3051 22.8383C16.3051 20.9085 17.5194 19.6155 19.2233 19.6644C20.8685 19.7036 22.0338 21.0065 22.0338 22.8971V32.262V32.2424ZM13.9548 32.1248V38.1493C13.9548 39.9616 12.6916 41.3232 11.0953 41.3232C9.48934 41.3232 8.23586 39.9616 8.23586 38.1493V26.0024C8.23586 24.2195 9.41099 22.9657 11.0072 22.9265C11.6052 22.9114 12.1927 23.085 12.6866 23.4225C13.1805 23.7601 13.5557 24.2446 13.759 24.8073C13.8961 25.1991 13.9646 25.591 13.9548 25.9828C14.0038 28.0693 13.9548 30.1167 13.9548 32.1738V32.1248ZM5.87581 32.213V35.4457C5.91724 36.2242 5.65778 36.9888 5.15115 37.5812C4.64889 38.148 3.94725 38.4989 3.1926 38.5608C2.43856 38.5608 1.7041 38.2865 1.1655 37.7477C0.611511 37.2078 0.276668 36.4821 0.225397 35.7102C0.138409 33.3371 0.138409 30.9616 0.225397 28.5885C0.261021 27.8194 0.596983 27.0949 1.16103 26.571C1.72507 26.0471 2.47214 25.7655 3.24156 25.7869C4.82799 25.8653 5.8856 27.1387 5.93457 28.8628V32.213H5.87581Z" fill="#18181B"/>
</g>
<defs>
<clipPath id="clip0_0_2549">
<rect width="189" height="48" fill="white"/>
</clipPath>
</defs>
</svg>
