<svg width="271" height="60" viewBox="0 0 271 60" fill="none" xmlns="http://www.w3.org/2000/svg">
<g clip-path="url(#clip0_328_3255)">
<mask id="mask0_328_3255" style="mask-type:luminance" maskUnits="userSpaceOnUse" x="0" y="0" width="271" height="60">
<path d="M270.19 0.209961H0.44043V59.21H270.19V0.209961Z" fill="white"/>
</mask>
<g mask="url(#mask0_328_3255)">
<path d="M0.44043 24.9099C1.72565 24.9545 2.99012 24.5769 4.04043 23.8349C4.42967 23.4896 4.73543 23.0604 4.93464 22.5797C5.13384 22.099 5.22131 21.5793 5.19043 21.0599C5.19043 20.1599 5.02376 18.3766 4.69043 15.7099C4.6571 15.4432 4.5571 14.5849 4.39043 13.1349C4.23292 11.8323 4.14945 10.5219 4.14043 9.2099C4.07066 7.98347 4.26688 6.75646 4.71565 5.61296C5.16442 4.46946 5.85513 3.43651 6.74043 2.5849C8.66719 0.931931 11.155 0.0817723 13.6904 0.209901H17.2904V7.2099H15.3404C14.5115 7.13163 13.6852 7.38313 13.0404 7.9099C12.7871 8.20398 12.5947 8.5455 12.4745 8.91461C12.3543 9.28371 12.3088 9.67302 12.3404 10.0599C12.3404 10.7932 12.4738 12.4599 12.7404 15.0599C13.0404 18.2932 13.1904 20.4099 13.1904 21.4099C13.2542 23.0302 12.7891 24.6272 11.8654 25.9599C10.8758 27.223 9.43106 28.0485 7.84043 28.2599V28.3599C9.42689 28.6007 10.8642 29.431 11.8654 30.6849C12.796 32.0237 13.2615 33.631 13.1904 35.2599C13.1904 36.2599 13.0404 38.3766 12.7404 41.6099C12.4738 44.1432 12.3404 45.7932 12.3404 46.5599C12.2799 47.3486 12.5313 48.1296 13.0404 48.7349C13.3557 49.0036 13.7218 49.2062 14.1169 49.3307C14.512 49.4552 14.928 49.4992 15.3404 49.4599H17.2904V56.4599H13.6904C11.155 56.588 8.66719 55.7379 6.74043 54.0849C5.85191 53.2252 5.1596 52.1836 4.71086 51.0316C4.26211 49.8795 4.06753 48.6441 4.14043 47.4099C4.14945 46.0979 4.23292 44.7875 4.39043 43.4849C4.5571 42.0349 4.6571 41.1766 4.69043 40.9099C5.02376 38.2432 5.19043 36.4599 5.19043 35.5599C5.21128 35.049 5.11901 34.5398 4.92021 34.0688C4.72141 33.5977 4.42099 33.1764 4.04043 32.8349C3.00397 32.0601 1.73365 31.6631 0.44043 31.7099V24.9099ZM52.4404 45.9099L45.1404 32.6599H43.0904V45.9099H34.5404V10.8099H48.8904C51.3291 10.7405 53.7507 11.2368 55.9654 12.2599C57.7914 13.1131 59.3166 14.4988 60.3404 16.2349C61.3149 17.9478 61.8154 19.8894 61.7904 21.8599C61.8196 24.1012 61.1271 26.2924 59.8154 28.1099C58.3706 30.0311 56.3172 31.4059 53.9904 32.0099L62.0904 45.9099H52.4404ZM43.0904 26.6099H48.3904C49.6713 26.7084 50.939 26.2948 51.9154 25.4599C52.3234 25.0275 52.6382 24.5159 52.8403 23.9569C53.0424 23.3978 53.1275 22.8032 53.0904 22.2099C53.1218 21.6323 53.0336 21.0544 52.8314 20.5124C52.6293 19.9704 52.3174 19.4759 51.9154 19.0599C50.939 18.225 49.6713 17.8115 48.3904 17.9099H43.0904V26.6099ZM93.4404 31.5099C93.4383 32.3454 93.3882 33.1801 93.2904 34.0099H73.9404C73.9684 35.5007 74.568 36.9237 75.6154 37.9849C76.5966 38.901 77.8985 39.3948 79.2404 39.3599C80.1707 39.4274 81.0988 39.2037 81.8962 38.7199C82.6936 38.2361 83.3207 37.5162 83.6904 36.6599H92.7904C92.3312 38.4786 91.4682 40.1705 90.2654 41.6099C89.0246 43.0949 87.4594 44.2752 85.6904 45.0599C83.7543 45.9144 81.6565 46.3408 79.5404 46.3099C76.9979 46.3563 74.4855 45.754 72.2404 44.5599C70.1255 43.4116 68.3887 41.6749 67.2404 39.5599C65.9988 37.2228 65.379 34.6057 65.4404 31.9599C65.3791 29.3172 65.9899 26.7021 67.2154 24.3599C68.3494 22.2428 70.079 20.5045 72.1904 19.3599C74.4521 18.1619 76.9816 17.5596 79.5404 17.6099C82.0451 17.5631 84.5212 18.1477 86.7404 19.3099C88.8151 20.4183 90.5253 22.1025 91.6654 24.1599C92.8869 26.4136 93.4988 28.9471 93.4404 31.5099ZM84.6904 29.2599C84.7185 28.6014 84.5983 27.945 84.3387 27.3392C84.079 26.7334 83.6866 26.1937 83.1904 25.7599C82.1447 24.8768 80.8083 24.4135 79.4404 24.4599C78.1201 24.4205 76.8309 24.865 75.8154 25.7099C74.788 26.6261 74.1376 27.8912 73.9904 29.2599H84.6904ZM109.29 46.3099C107.06 46.3498 104.847 45.9241 102.79 45.0599C101.02 44.3259 99.4696 43.1459 98.2904 41.6349C97.2067 40.2278 96.5631 38.5317 96.4404 36.7599H104.89C104.933 37.2257 105.076 37.6768 105.309 38.0824C105.542 38.488 105.859 38.8385 106.24 39.1099C107.097 39.7278 108.135 40.0443 109.19 40.0099C110.06 40.0627 110.925 39.8444 111.665 39.3849C111.936 39.2098 112.159 38.9689 112.312 38.6848C112.465 38.4007 112.543 38.0826 112.54 37.7599C112.542 37.3709 112.422 36.9911 112.198 36.6731C111.974 36.3551 111.657 36.1146 111.29 35.9849C109.979 35.447 108.624 35.0205 107.24 34.7099C105.542 34.3332 103.871 33.8404 102.24 33.2349C100.905 32.7169 99.7196 31.8749 98.7904 30.7849C97.7686 29.5054 97.2525 27.895 97.3404 26.2599C97.328 24.7009 97.7901 23.175 98.6654 21.8849C99.6411 20.4929 100.994 19.4087 102.565 18.7599C104.504 17.9501 106.591 17.5582 108.69 17.6099C112.19 17.6099 114.949 18.4766 116.965 20.2099C118.991 21.9596 120.241 24.4407 120.44 27.1099H112.54C112.491 26.6611 112.353 26.2265 112.134 25.8316C111.915 25.4367 111.62 25.0894 111.265 24.8099C110.449 24.2115 109.452 23.9115 108.44 23.9599C107.633 23.9087 106.829 24.1096 106.14 24.5349C105.885 24.709 105.678 24.9446 105.539 25.2199C105.399 25.4952 105.331 25.8013 105.34 26.1099C105.343 26.5045 105.466 26.8889 105.694 27.2109C105.922 27.5329 106.244 27.7769 106.615 27.9099C107.896 28.4439 109.228 28.846 110.59 29.1099C112.304 29.5319 113.991 30.0579 115.64 30.6849C116.971 31.2234 118.147 32.0822 119.065 33.1849C120.105 34.4975 120.646 36.1363 120.59 37.8099C120.611 39.3777 120.129 40.9108 119.215 42.1849C118.206 43.5408 116.838 44.5883 115.265 45.2099C113.369 45.9774 111.336 46.3517 109.29 46.3099ZM141.39 38.6599V45.9099H137.04C133.94 45.9099 131.524 45.1516 129.79 43.6349C128.057 42.1182 127.19 39.6432 127.19 36.2099V25.1099H123.79V18.0099H127.19V11.2099H135.74V18.0099H141.34V25.1099H135.74V36.3099C135.709 36.6352 135.747 36.9634 135.85 37.2734C135.953 37.5833 136.12 37.8683 136.34 38.1099C136.918 38.5311 137.629 38.7267 138.34 38.6599H141.39ZM178.59 39.7099H165.49L163.39 45.9099H154.44L167.14 10.8099H177.04L189.74 45.9099H180.69L178.59 39.7099ZM176.39 33.1099L172.04 20.2599L167.74 33.1099H176.39ZM202.14 21.9599C203.003 20.6329 204.191 19.5486 205.59 18.8099C207.178 17.9809 208.95 17.568 210.74 17.6099C212.948 17.584 215.117 18.1913 216.99 19.3599C218.904 20.5794 220.438 22.3118 221.415 24.3599C222.54 26.7147 223.097 29.3007 223.04 31.9099C223.095 34.5269 222.539 37.1206 221.415 39.4849C220.439 41.547 218.906 43.2959 216.99 44.5349C215.123 45.7186 212.952 46.3352 210.74 46.3099C208.959 46.346 207.196 45.9333 205.615 45.1099C204.215 44.3844 203.02 43.3183 202.14 42.0099V59.2099H193.59V18.0099H202.14V21.9599ZM214.34 31.9099C214.392 30.9965 214.262 30.0818 213.958 29.2191C213.653 28.3564 213.18 27.563 212.565 26.8849C212.003 26.2929 211.324 25.8247 210.571 25.5104C209.817 25.1962 209.007 25.0427 208.19 25.0599C207.38 25.047 206.576 25.2051 205.831 25.5239C205.085 25.8426 204.416 26.3149 203.865 26.9099C203.252 27.5938 202.78 28.3918 202.475 29.2583C202.171 30.1248 202.04 31.0428 202.09 31.9599C202.04 32.877 202.171 33.795 202.475 34.6615C202.78 35.528 203.252 36.326 203.865 37.0099C204.416 37.6049 205.085 38.0772 205.831 38.3959C206.576 38.7147 207.38 38.8728 208.19 38.8599C209.007 38.8704 209.816 38.7089 210.565 38.3858C211.315 38.0628 211.988 37.5854 212.54 36.9849C213.16 36.299 213.637 35.4977 213.946 34.6268C214.255 33.7559 214.389 32.8326 214.34 31.9099ZM231.84 15.1099C230.489 15.1646 229.171 14.6891 228.165 13.7849C227.707 13.3733 227.342 12.8677 227.096 12.3026C226.85 11.7375 226.729 11.1261 226.74 10.5099C226.725 9.88588 226.845 9.26594 227.091 8.69221C227.337 8.11848 227.703 7.6044 228.165 7.1849C229.171 6.28072 230.489 5.80523 231.84 5.8599C233.175 5.81115 234.477 6.28672 235.465 7.1849C235.928 7.6044 236.294 8.11848 236.54 8.69221C236.786 9.26594 236.905 9.88588 236.89 10.5099C236.902 11.1261 236.781 11.7375 236.535 12.3026C236.289 12.8677 235.924 13.3733 235.465 13.7849C234.477 14.6831 233.175 15.1587 231.84 15.1099ZM236.09 18.0099V45.9099H227.54V18.0099H236.09ZM270.19 31.7099C268.897 31.6631 267.627 32.0601 266.59 32.8349C266.21 33.1764 265.909 33.5977 265.711 34.0688C265.512 34.5398 265.42 35.049 265.44 35.5599C265.44 36.4599 265.607 38.2432 265.94 40.9099C265.974 41.1766 266.074 42.0349 266.24 43.4849C266.398 44.7875 266.481 46.0979 266.49 47.4099C266.563 48.6441 266.369 49.8795 265.92 51.0316C265.471 52.1836 264.779 53.2252 263.89 54.0849C261.964 55.7379 259.476 56.588 256.94 56.4599H253.34V49.4599H255.29C255.703 49.4992 256.119 49.4552 256.514 49.3307C256.909 49.2062 257.275 49.0036 257.59 48.7349C258.1 48.1296 258.351 47.3486 258.29 46.5599C258.29 45.7932 258.157 44.1432 257.89 41.6099C257.59 38.3766 257.44 36.2599 257.44 35.2599C257.369 33.631 257.835 32.0237 258.765 30.6849C259.767 29.431 261.204 28.6007 262.79 28.3599V28.2599C261.2 28.0485 259.755 27.223 258.765 25.9599C257.842 24.6272 257.377 23.0302 257.44 21.4099C257.44 20.4099 257.59 18.2932 257.89 15.0599C258.157 12.4599 258.29 10.7932 258.29 10.0599C258.322 9.67302 258.277 9.28371 258.156 8.91461C258.036 8.5455 257.844 8.20398 257.59 7.9099C256.946 7.38304 256.119 7.13152 255.29 7.2099H253.34V0.209901H256.94C259.476 0.0817723 261.964 0.931931 263.89 2.5849C264.776 3.43651 265.466 4.46946 265.915 5.61296C266.364 6.75646 266.56 7.98347 266.49 9.2099C266.481 10.5219 266.398 11.8323 266.24 13.1349C266.074 14.5849 265.974 15.4432 265.94 15.7099C265.607 18.3766 265.44 20.1599 265.44 21.0599C265.41 21.5793 265.497 22.099 265.696 22.5797C265.895 23.0604 266.201 23.4896 266.59 23.8349C267.641 24.5769 268.905 24.9545 270.19 24.9099V31.7099Z" fill="#1A1818"/>
</g>
</g>
<defs>
<clipPath id="clip0_328_3255">
<rect width="269.75" height="59" fill="white" transform="translate(0.44043 0.209961)"/>
</clipPath>
</defs>
</svg>
