<svg width="168" height="48" viewBox="0 0 168 48" fill="none" xmlns="http://www.w3.org/2000/svg">
<g clip-path="url(#clip0_0_2266)">
<path d="M25.7405 48.0004L4.94046 38.5104C3.57678 37.8936 2.42119 36.8946 1.61363 35.6345C0.806079 34.3743 0.381203 32.9071 0.390461 31.4104C0.381203 29.9138 0.806079 28.4465 1.61363 27.1864C2.42119 25.9262 3.57678 24.9273 4.94046 24.3104L23.2805 15.9504C23.5535 15.8257 23.7842 15.6239 23.9441 15.3699C24.104 15.1158 24.1861 14.8206 24.1805 14.5204C24.1854 14.2243 24.1026 13.9333 23.9424 13.6842C23.7823 13.435 23.5519 13.2389 23.2805 13.1204L8.56046 6.41043C8.32046 6.29043 8.06046 6.24043 7.82046 6.27043C7.56046 6.29043 7.32046 6.37043 7.09046 6.51043C6.88046 6.64043 6.69046 6.85043 6.57046 7.06043C6.44046 7.29043 6.37046 7.55043 6.37046 7.81043V14.8704H0.150461V7.82043C0.1449 6.51368 0.47028 5.22679 1.09627 4.07972C1.72226 2.93266 2.62848 1.96276 3.73046 1.26043C4.82187 0.560156 6.06817 0.137853 7.36046 0.0304262C8.66046 -0.0695738 9.96046 0.180426 11.1605 0.710426L25.8605 7.41043C27.22 8.03663 28.3718 9.03891 29.1798 10.2988C29.9879 11.5587 30.4184 13.0237 30.4205 14.5204C30.4297 16.0171 30.0048 17.4843 29.1973 18.7445C28.3897 20.0046 27.2341 21.0036 25.8705 21.6204L7.52046 30.0004C7.25046 30.1304 7.02046 30.3204 6.86046 30.5604C6.7016 30.8136 6.61734 31.1065 6.61734 31.4054C6.61734 31.7043 6.7016 31.9972 6.86046 32.2504C7.02046 32.4904 7.25046 32.7004 7.52046 32.8104L28.3205 42.3104L25.7605 48.0004H25.7505H25.7405ZM99.5105 32.7304C102.26 32.7304 104.27 31.6804 105.27 29.9804V32.4604H108.71V14.4704H105.27V24.2204C105.27 27.3604 103.28 29.6404 100.48 29.6404C97.9405 29.6404 96.2805 27.7204 96.2805 24.8504V14.4504H92.8205V25.5304C92.8205 29.8004 95.4605 32.7304 99.5205 32.7304H99.5105ZM84.9605 26.4504V17.4504H90.1205V14.4504H84.9605V8.83043H81.5005V26.5804C81.5005 30.2504 83.8105 32.4504 87.4405 32.4504H90.2405V29.4504H87.7105C85.9705 29.4504 84.9505 28.3904 84.9505 26.4604L84.9605 26.4504ZM134.62 14.1804C131.87 14.1804 129.86 15.2304 128.86 16.9304V14.4604H125.41V32.4404H128.86V22.7004C128.86 19.5604 130.86 17.2704 133.66 17.2704C136.18 17.2704 137.85 19.2004 137.85 22.0704V32.4404H141.29V21.4004C141.29 17.1004 138.66 14.2004 134.61 14.2004H134.62V14.1804ZM148.64 6.93043H145.2V32.4404H148.64V6.93043ZM53.5505 17.0004V14.4704H50.1005V32.4604H53.5505V24.3204C53.5505 20.3804 54.6005 17.4704 57.8905 17.4704H60.4905V14.4704H58.3305C55.9005 14.4704 54.4305 15.3504 53.5705 17.0104L53.5505 17.0004ZM115.86 17.0004V14.4704H112.41V32.4604H115.86V24.3204C115.86 20.3804 116.93 17.4704 120.2 17.4704H122.79V14.4704H120.62C118.19 14.4704 116.73 15.3504 115.86 17.0104V17.0004ZM78.3505 22.7104C78.3505 18.1504 75.4005 14.1804 69.8505 14.1804C64.3005 14.1804 61.2105 18.3304 61.2105 23.3404C61.2105 28.3604 64.6605 32.7404 70.2105 32.7404C74.4505 32.7404 77.5305 30.5604 78.2705 26.9904H74.9505C74.3705 28.8004 72.6805 29.7704 70.2105 29.7704C67.1805 29.7704 65.0105 27.6004 64.6205 24.3804H78.3305V22.7104H78.3505ZM69.8505 16.9704C72.7505 16.9704 74.5805 18.7304 74.8505 21.4004H64.7405C65.3005 18.5004 67.1005 16.9704 69.8505 16.9704ZM164.02 14.4604H163.91L159.3 27.9904L154.71 14.4604H151.04L157.64 32.5904L157 34.4304C156.37 36.3304 155.54 36.7504 154.65 36.7504H152.34V39.7104H154.88C157.76 39.7104 159.04 37.9604 160.1 35.0304L167.57 14.4404H164L164.01 14.4604H164.02Z" fill="#234BA2"/>
</g>
<defs>
<clipPath id="clip0_0_2266">
<rect width="168" height="48" fill="white"/>
</clipPath>
</defs>
</svg>
