<svg width="66" height="48" viewBox="0 0 66 48" fill="none" xmlns="http://www.w3.org/2000/svg">
<path fill-rule="evenodd" clip-rule="evenodd" d="M27.336 6.13423C28.5797 4.82407 30.1161 3.82706 31.8193 3.22482C33.5226 2.62259 35.3443 2.43226 37.1352 2.66943C38.9262 2.90659 40.6356 3.5645 42.1233 4.58929C43.611 5.61407 44.8348 6.97659 45.6945 8.56528C47.847 7.63054 50.1984 7.24644 52.5365 7.44768C54.8746 7.64891 57.1258 8.42913 59.0868 9.71791C61.0479 11.0067 62.657 12.7634 63.7691 14.8296C64.8811 16.8958 65.461 19.2063 65.4564 21.5526C65.4638 23.642 65.0077 25.7069 64.1209 27.5988C63.2341 29.4906 61.9386 31.1623 60.3279 32.4934C58.7172 33.8245 56.8313 34.7819 54.806 35.2966C52.7807 35.8113 50.6665 35.8705 48.6156 35.47C47.3366 37.7698 45.2243 39.4917 42.7136 40.2809C40.2029 41.0701 37.4851 40.8665 35.12 39.7121C34.1954 41.8719 32.6443 43.7049 30.6671 44.9743C28.69 46.2438 26.3775 46.8913 24.0285 46.8333C21.6795 46.7754 19.4018 46.0146 17.4897 44.6491C15.5776 43.2837 14.1188 41.3765 13.3019 39.1737C11.709 39.4958 10.0643 39.4593 8.48714 39.0669C6.91002 38.6745 5.44005 37.936 4.18388 36.905C2.9277 35.874 1.91682 34.5763 1.22458 33.1061C0.532342 31.636 0.176101 30.0302 0.181706 28.4053C0.181706 24.3263 2.36841 20.7532 5.63215 18.8605C4.39847 16.0186 4.24838 12.8233 5.21022 9.87818C6.17206 6.9331 8.17924 4.4421 10.8527 2.87569C13.5261 1.30927 16.6807 0.77587 19.7206 1.37623C22.7605 1.97659 25.4754 3.66915 27.3523 6.13423H27.336Z" fill="#00A1E0"/>
<path fill-rule="evenodd" clip-rule="evenodd" d="M9.6296 24.8488C9.58064 24.9631 9.6296 24.9794 9.64592 25.012L10.0212 25.2241C10.674 25.5831 11.3267 25.681 11.9795 25.681C13.3176 25.681 14.1499 24.9631 14.1499 23.8209V23.8046C14.1499 22.7441 13.2034 22.3525 12.3222 22.0752L12.2079 22.0425C11.5552 21.8304 10.984 21.6346 10.984 21.1941C10.984 20.8025 11.3104 20.5415 11.8326 20.5415C12.4038 20.5415 13.0892 20.7209 13.5298 20.9657C13.5298 20.9657 13.6603 21.0473 13.7093 20.9167L13.9867 20.1825C14.003 20.1173 13.954 20.0683 13.9214 20.0357C13.4155 19.7257 12.7138 19.5299 11.9958 19.5299H11.8653C10.6414 19.5299 9.77647 20.2641 9.77647 21.3246V21.341C9.77647 22.4667 10.7229 22.8257 11.6042 23.0867L11.7673 23.1194C12.4038 23.3315 12.9586 23.4946 12.9586 23.9352V23.9678C12.9586 24.392 12.5996 24.702 12.0121 24.702C11.7837 24.702 11.0656 24.702 10.2823 24.2125L10.0702 24.0494C10.0212 24.0494 9.92333 24.0004 9.8907 24.1146L9.6296 24.8488ZM29.2283 24.8488C29.1957 24.9631 29.2283 24.9794 29.261 25.012L29.6363 25.2241C30.289 25.5831 30.9255 25.681 31.5945 25.681C32.9164 25.681 33.7486 24.9631 33.7486 23.8209V23.8046C33.7486 22.7441 32.8184 22.3525 31.9372 22.0752L31.823 22.0425C31.1703 21.8304 30.5828 21.6346 30.5828 21.1941C30.5828 20.8025 30.9092 20.5415 31.4314 20.5415C32.0188 20.5415 32.7042 20.7209 33.1448 20.9657C33.1448 20.9657 33.2754 21.0473 33.308 20.9167L33.5854 20.1825C33.6181 20.1173 33.5691 20.0683 33.5201 20.0357C33.0306 19.7257 32.3289 19.5299 31.6109 19.5299H31.464C30.2401 19.5299 29.3915 20.2641 29.3915 21.3246V21.341C29.3915 22.4667 30.338 22.8257 31.2192 23.0867L31.3661 23.1194C32.0025 23.3315 32.5573 23.4946 32.5573 23.9352V23.9678C32.5573 24.392 32.1983 24.702 31.6109 24.702C31.3824 24.702 30.6644 24.702 29.8974 24.2125L29.6689 24.0494C29.6526 24.0494 29.5384 24.0004 29.5057 24.1146L29.2283 24.8488ZM42.6096 22.6136C42.6096 23.2662 42.4954 23.7557 42.2506 24.1309C42.0222 24.4899 41.6632 24.6531 41.1736 24.6531C40.684 24.6531 40.3087 24.4899 40.0803 24.1309C39.8245 23.6679 39.7056 23.1416 39.7376 22.6136C39.7376 21.9609 39.8518 21.4552 40.0803 21.0962C40.3087 20.7373 40.6677 20.5741 41.1736 20.5741C41.6632 20.5741 42.0222 20.7373 42.2506 21.0962C42.4954 21.4552 42.6096 21.9609 42.6096 22.6136ZM43.7356 21.4062C43.645 21.0485 43.4746 20.716 43.2372 20.4334C42.9998 20.1509 42.7016 19.9257 42.3649 19.7746C42.0385 19.6115 41.6142 19.5462 41.1736 19.5462C40.7167 19.5462 40.3087 19.6278 39.966 19.7746C39.6293 19.9257 39.3311 20.1509 39.0937 20.4334C38.8563 20.716 38.6859 21.0485 38.5953 21.4062C38.3645 22.189 38.3645 23.0218 38.5953 23.8046C38.7095 24.1799 38.889 24.5062 39.1175 24.7836C39.3296 25.0446 39.6233 25.2731 39.966 25.4362C40.3087 25.5831 40.7167 25.6646 41.1736 25.6646C41.6142 25.6646 42.0222 25.5831 42.3649 25.4199C42.6912 25.2567 43.0013 25.0446 43.2298 24.7673C43.4582 24.5062 43.6214 24.1799 43.7193 23.8046C43.9501 23.0218 43.9501 22.189 43.7193 21.4062H43.7356ZM52.9067 24.4899C52.8741 24.3757 52.7762 24.4083 52.7762 24.4083C52.4154 24.56 52.0246 24.6269 51.6339 24.6041C51.0954 24.6041 50.6548 24.4409 50.361 24.1146C50.0347 23.8046 49.8715 23.2988 49.8715 22.5973C49.8715 21.9609 50.0347 21.4878 50.3121 21.1288C50.5732 20.7699 50.9975 20.5904 51.5523 20.5904C52.0092 20.5904 52.3682 20.6394 52.7272 20.7536C52.7272 20.7536 52.8088 20.7862 52.8578 20.672L53.1352 19.9052C53.1678 19.8236 53.0862 19.7909 53.0699 19.7746C52.1498 19.4589 51.1506 19.4589 50.2305 19.7746C49.8867 19.9256 49.5801 20.1499 49.3321 20.4317C49.084 20.7135 48.9005 21.0461 48.7944 21.4062C48.6639 21.7652 48.6149 22.1731 48.6149 22.5973C48.6149 23.5273 48.8597 24.2778 49.3493 24.8325C49.8388 25.3709 50.5895 25.6483 51.5523 25.6483C52.1234 25.6483 52.7109 25.5341 53.1352 25.3709C53.1352 25.3709 53.2168 25.3383 53.1842 25.2404L52.9067 24.4899ZM54.865 21.9773C54.9139 21.6183 55.0282 21.3246 55.175 21.0962C55.2898 20.9171 55.4498 20.7714 55.6389 20.674C55.8281 20.5766 56.0396 20.5309 56.2521 20.5415C56.7416 20.5415 57.068 20.7373 57.3128 21.0962C57.476 21.3246 57.5412 21.6346 57.5739 21.9936H54.8487L54.865 21.9773ZM58.6183 21.1941C58.5283 20.8861 58.3762 20.5999 58.1713 20.3529C57.9664 20.106 57.7131 19.9036 57.427 19.7583C57.0571 19.6034 56.6596 19.5249 56.2586 19.5277C55.8575 19.5305 55.4612 19.6145 55.0934 19.7746C54.7514 19.929 54.4488 20.159 54.2085 20.4473C53.9683 20.7356 53.7966 21.0746 53.7064 21.4388C53.4724 22.2268 53.4724 23.0657 53.7064 23.8536C53.8369 24.2125 54.0164 24.5388 54.2612 24.8162C54.5223 25.0773 54.8323 25.3057 55.224 25.4362C55.5993 25.5994 56.0562 25.6646 56.5948 25.6646C57.6881 25.6646 58.2593 25.4199 58.5041 25.2894C58.5367 25.2567 58.5856 25.2241 58.5367 25.1099L58.2756 24.4083C58.2429 24.3104 58.145 24.3431 58.145 24.3431C57.8676 24.4409 57.4923 24.6204 56.5784 24.6204C55.991 24.6204 55.5667 24.4573 55.2893 24.1799C55.0118 23.9025 54.8813 23.4946 54.8487 22.9236H58.6346C58.6346 22.9236 58.7325 22.9236 58.7488 22.8257C58.7488 22.7767 58.8794 22.0425 58.6346 21.1941H58.6183ZM24.5612 21.9773C24.6101 21.6183 24.7244 21.3246 24.8712 21.0962C24.986 20.9171 25.146 20.7714 25.3351 20.674C25.5243 20.5766 25.7358 20.5309 25.9483 20.5415C26.4378 20.5415 26.7642 20.7373 27.009 21.0962C27.1722 21.3246 27.2375 21.6346 27.2538 21.9936H24.5612V21.9773ZM28.3145 21.1941C28.2245 20.8861 28.0724 20.5999 27.8675 20.3529C27.6626 20.106 27.4093 19.9036 27.1232 19.7583C26.7533 19.6034 26.3558 19.5249 25.9548 19.5277C25.5537 19.5305 25.1574 19.6145 24.7897 19.7746C24.4483 19.93 24.1463 20.1603 23.9061 20.4485C23.666 20.7366 23.4939 21.0751 23.4026 21.4388C23.1695 22.2269 23.1695 23.0655 23.4026 23.8536C23.5331 24.2125 23.7126 24.5388 23.9574 24.8162C24.2022 25.0773 24.5286 25.3057 24.9039 25.4362C25.2955 25.5994 25.7525 25.6646 26.291 25.6646C27.3843 25.6646 27.9555 25.4199 28.1839 25.2894C28.2329 25.2567 28.2655 25.2241 28.2166 25.1099L27.9718 24.4083C27.9392 24.3104 27.8249 24.3431 27.8249 24.3431C27.5638 24.4409 27.1722 24.6204 26.2747 24.6204C25.6872 24.6204 25.2629 24.4573 24.9692 24.1799C24.7081 23.9025 24.5612 23.4946 24.5449 22.9236H28.3308C28.3308 22.9236 28.4287 22.9236 28.445 22.8257C28.445 22.7767 28.5593 22.0425 28.3308 21.1941H28.3145ZM16.3855 24.4573C16.2951 24.4037 16.2172 24.3314 16.1571 24.2452C16.0731 24.0962 16.0335 23.9264 16.0428 23.7557C16.0428 23.4294 16.1571 23.1683 16.3855 23.0215C16.3855 23.0215 16.7119 22.7278 17.4789 22.7441C17.8216 22.7441 18.1643 22.7767 18.507 22.8257V24.5552C18.507 24.5552 18.0174 24.6531 17.4952 24.6857C16.7282 24.7346 16.3855 24.4573 16.3855 24.4573ZM17.8869 21.7978H17.2994C16.973 21.7978 16.6466 21.8304 16.3692 21.912C16.0832 21.9826 15.8124 22.1042 15.5696 22.2709C15.3411 22.4341 15.1616 22.6462 15.0311 22.8909C14.8842 23.152 14.8189 23.4457 14.8189 23.772C14.8189 24.0983 14.8842 24.392 14.9821 24.6367C15.1127 24.8652 15.2759 25.0773 15.488 25.2241C15.7001 25.3873 15.9612 25.4852 16.255 25.5504C16.565 25.632 16.9077 25.6646 17.2667 25.6646C17.6584 25.6646 18.0337 25.632 18.409 25.5667C18.7312 25.5138 19.0522 25.454 19.3719 25.3873L19.6329 25.3057C19.7309 25.2894 19.7145 25.1915 19.7145 25.1915V21.7162C19.7145 20.9494 19.5187 20.3946 19.1108 20.0357C18.7191 19.7094 18.1316 19.5136 17.381 19.5136C17.0872 19.5136 16.6303 19.5625 16.3529 19.6115C16.3529 19.6115 15.537 19.7746 15.1943 20.0357C15.1943 20.0357 15.1127 20.0846 15.1616 20.1988L15.4227 20.9167C15.4554 20.9983 15.5533 20.9657 15.5533 20.9657L15.6186 20.9331C16.3366 20.5415 17.2504 20.5578 17.2504 20.5578C17.6747 20.5578 17.9848 20.6394 18.1969 20.8025C18.409 20.9657 18.5233 21.1941 18.5233 21.6999V21.8631L17.8869 21.7815V21.7978ZM48.4028 19.8399C48.4102 19.8188 48.4102 19.7957 48.4028 19.7746C48.393 19.7529 48.3756 19.7355 48.3538 19.7257C48.1459 19.6671 47.9327 19.6288 47.7174 19.6115C47.4168 19.5796 47.1129 19.6208 46.8316 19.7316C46.5503 19.8424 46.3 20.0195 46.1018 20.2478V19.7746C46.1018 19.7094 46.0529 19.6604 45.9876 19.6604H45.0085C44.9595 19.6604 44.9106 19.7094 44.9106 19.7746V25.4199C44.9106 25.4502 44.9226 25.4792 44.944 25.5007C44.9655 25.5221 44.9945 25.5341 45.0248 25.5341H46.0203C46.0506 25.5341 46.0796 25.5221 46.101 25.5007C46.1224 25.4792 46.1345 25.4502 46.1345 25.4199V22.5973C46.1345 22.222 46.1834 21.8467 46.265 21.6183C46.3276 21.405 46.4394 21.2094 46.5914 21.0473C46.7243 20.9177 46.8867 20.8225 47.0647 20.7699C47.3682 20.6851 47.6885 20.6794 47.9948 20.7536C48.0601 20.7536 48.0927 20.721 48.1254 20.6557L48.4028 19.8399Z" fill="#FFFFFE"/>
<path fill-rule="evenodd" clip-rule="evenodd" d="M39.0688 17.2448C38.7827 17.1598 38.486 17.1159 38.1876 17.1143C37.5022 17.1143 36.9637 17.3101 36.5884 17.6854C36.213 18.0606 35.9519 18.648 35.8214 19.3985L35.7724 19.6596H34.9239C34.9239 19.6596 34.8096 19.6596 34.7933 19.7738L34.6465 20.5569C34.6465 20.6222 34.6791 20.6712 34.777 20.6712H35.6093L34.7607 25.4027C34.6954 25.7943 34.6138 26.1043 34.5322 26.3491C34.4506 26.5775 34.369 26.757 34.2711 26.8875C34.1871 27.0083 34.0672 27.0996 33.9284 27.1485C33.6858 27.2274 33.4263 27.2387 33.1778 27.1812L32.9656 27.1159C32.9656 27.1159 32.8677 27.0833 32.8351 27.1812L32.5577 27.948C32.525 28.0133 32.5577 28.0785 32.6066 28.0948L32.9656 28.1927C33.1778 28.2417 33.341 28.2417 33.5205 28.2417C33.8632 28.2417 34.1732 28.1927 34.4506 28.1112C34.7117 28.0133 34.9402 27.8501 35.136 27.6217C35.3645 27.3769 35.495 27.1322 35.6256 26.7733C35.7724 26.4306 35.8704 25.9901 35.9519 25.5006L36.8168 20.6712H38.0734C38.0734 20.6712 38.1713 20.6712 38.1876 20.5733L38.3345 19.7738C38.3345 19.7085 38.3182 19.6596 38.2039 19.6596H36.9963C36.9963 19.6269 37.0616 19.2027 37.1922 18.8112C37.2574 18.648 37.3717 18.4848 37.4696 18.4033C37.5512 18.3054 37.6654 18.2401 37.796 18.2075C38.0956 18.123 38.4134 18.1286 38.7098 18.2238C38.824 18.2564 38.8404 18.2238 38.8567 18.1585L39.1504 17.3754C39.183 17.2775 39.1015 17.2448 39.0688 17.2448ZM22.179 25.4191C22.179 25.4843 22.13 25.5333 22.0647 25.5333H21.053C20.9877 25.5333 20.9551 25.4843 20.9551 25.4191V17.3427C20.9551 17.2775 20.9877 17.2285 21.053 17.2285H22.0647C22.13 17.2285 22.179 17.2775 22.179 17.3427V25.4191Z" fill="#FFFFFE"/>
</svg>
