<svg width="244" height="48" viewBox="0 0 244 48" fill="none" xmlns="http://www.w3.org/2000/svg">
<mask id="mask0_0_2000" style="mask-type:luminance" maskUnits="userSpaceOnUse" x="0" y="0" width="244" height="47">
<path d="M0.561523 0.00244141H243.593V46.7717H0.561523V0.00244141Z" fill="white"/>
</mask>
<g mask="url(#mask0_0_2000)">
<mask id="mask1_0_2000" style="mask-type:luminance" maskUnits="userSpaceOnUse" x="0" y="0" width="244" height="47">
<path d="M243.593 0.00244141H0.561523V46.7717H243.593V0.00244141Z" fill="white"/>
</mask>
<g mask="url(#mask1_0_2000)">
<path d="M0.561523 30.5107L4.84121 27.8994C5.46349 29.2411 6.45621 30.3743 7.70091 31.1639C8.94562 31.9534 10.3898 32.3659 11.861 32.3523C14.4463 32.3523 16.3828 31.3779 16.3828 29.4097C16.3828 27.461 14.5625 26.6035 11.2026 25.6292C6.45819 24.4307 1.60724 23.203 1.60724 17.7758C1.60724 12.8846 5.36406 10.0784 10.8928 10.0784C12.905 10.0121 14.9007 10.4631 16.6915 11.3889C18.4823 12.3146 20.0089 13.6845 21.1272 15.3692L17.1671 18.4482C16.4833 17.3661 15.5492 16.4667 14.4447 15.827C13.3403 15.1873 12.0983 14.8263 10.825 14.7748C8.43343 14.7748 7.04883 15.8758 7.04883 17.3764C7.04883 19.4712 8.98533 20.202 12.3355 21.1764C16.8572 22.3456 21.6888 23.9143 21.6888 29.2051C21.6888 33.3266 18.5614 37.1169 11.3576 37.1169C9.12009 37.1564 6.91749 36.5556 5.00619 35.3843C3.09489 34.213 1.55352 32.5195 0.561523 30.501V30.5107ZM22.8314 36.4641L31.991 10.3902H37.3745L46.5342 36.4641H40.8312L38.885 30.7153H30.1707L28.2245 36.4641H22.841H22.8314ZM31.4682 26.4866H37.5101L34.586 17.6687H34.4698L31.4682 26.4866ZM49.3712 36.4641V10.5461H58.7245C64.2436 10.5461 69.3076 12.0564 69.3076 18.9061C69.3076 25.7558 63.9047 27.4123 58.7245 27.4123H55.0936V36.62H49.3712V36.4641ZM54.958 22.8035H58.8601C62.4136 22.8035 63.711 21.381 63.711 18.8964C63.711 16.4117 62.4233 15.0964 58.8601 15.0964H54.958V22.7938V22.8035ZM79.2322 36.4641L88.2853 10.3902H93.6785L102.761 36.4543H97.0577L95.1115 31.0271H86.3488L84.4026 36.4641H79.2322ZM87.7237 26.701H93.7463L90.8028 18.0292H90.6866L87.7237 26.701ZM106.024 36.4641V18.0292H111.417V21.2933H111.204C111.674 20.0116 112.526 18.9076 113.644 18.133C114.763 17.3584 116.092 16.9511 117.449 16.9671H117.643L117.527 22.1897H116.161C115.192 22.226 114.246 22.4942 113.401 22.9721C112.556 23.4499 111.836 24.1236 111.301 24.9374V36.542H106.024V36.4738V36.4641ZM121.129 10.4682H126.522V14.804H121.138V10.4682H121.129ZM121.129 36.4835V18.0292H126.522V36.4738L121.138 36.503L121.129 36.4835ZM136.214 34.1938V36.4933H130.811V10.3902H136.214V20.6015C136.804 19.6111 137.638 18.7905 138.636 18.2188C139.633 17.6471 140.76 17.3435 141.907 17.3374C146.139 17.3374 149.043 20.6015 149.043 27.003C149.043 33.4046 146.003 36.6784 141.83 36.6784C140.767 36.7193 139.709 36.5159 138.736 36.0837C137.763 35.6515 136.9 35.0018 136.214 34.1841V34.1938ZM143.534 27.0615C143.534 23.9435 142.372 21.9656 139.893 21.9656C138.489 22.0923 137.192 22.7451 136.253 23.8071V30.6569C136.712 31.2091 137.287 31.6525 137.937 31.9556C138.586 32.2588 139.294 32.4142 140.009 32.4107C142.333 32.4692 143.534 30.501 143.534 27.0517V27.0615ZM151.319 31.5923C151.319 27.2661 154.553 24.8692 163.151 24.2066V23.8851C163.151 22.4528 162.376 21.5953 160.546 21.5953C158.298 21.6523 156.133 22.4575 154.388 23.8851L152.016 20.6112C154.563 18.328 157.893 17.1328 161.301 17.2789C166.385 17.2789 168.515 19.7635 168.515 24.5476V31.7189C168.379 33.2584 168.534 34.8076 168.96 36.2789H163.373C163.131 35.3923 162.986 34.4764 162.928 33.5507C162.169 34.5136 161.201 35.289 160.099 35.8176C158.996 36.3462 157.788 36.614 156.567 36.6005C155.537 36.7004 154.504 36.4619 153.62 35.9209C152.737 35.3799 152.052 34.5654 151.667 33.5994C151.405 32.9641 151.279 32.28 151.299 31.5923H151.328H151.319ZM163.151 30.8615V27.383C158.842 27.841 156.789 28.903 156.789 30.6569C156.789 31.8456 157.632 32.4107 158.842 32.4107C159.638 32.4751 160.439 32.3676 161.19 32.0954C161.942 31.8231 162.627 31.3925 163.199 30.8323L163.151 30.8615Z" fill="#0068AF"/>
<path d="M235.827 45.3502L211.466 0.00348906H216.85C217.342 -0.022536 217.831 0.0974749 218.256 0.348631C218.681 0.599788 219.024 0.971035 219.241 1.41631L243.593 46.7727H238.209C237.717 46.7805 237.232 46.6496 236.809 46.3948C236.387 46.14 236.043 45.7714 235.818 45.3307M190.136 46.7727H195.519C196.014 46.7996 196.506 46.6778 196.931 46.4228C197.357 46.1677 197.698 45.791 197.911 45.3404L204.601 32.9855L201.154 26.4573L190.126 46.7727H190.136ZM179.688 46.7727C180.182 46.7922 180.676 46.6753 181.102 46.422C181.518 46.1589 181.857 45.7886 182.07 45.3404L201.048 10.0686L220.006 45.3404C220.227 45.7823 220.568 46.1517 220.99 46.4054C221.412 46.6591 221.897 46.7865 222.388 46.7727H227.772L203.41 1.42605C203.232 1.10621 202.993 0.825167 202.706 0.599248C202.419 0.373328 202.09 0.207038 201.739 0.110037C201.388 0.0130357 201.021 -0.012742 200.659 0.0342014C200.298 0.0811447 199.949 0.199873 199.634 0.383489C199.208 0.627079 198.86 0.987592 198.637 1.42605L174.295 46.7727L179.678 46.763L179.688 46.7727Z" fill="#FBA900"/>
</g>
</g>
</svg>
