<svg width="262" height="48" viewBox="0 0 262 48" fill="none" xmlns="http://www.w3.org/2000/svg">
<path d="M262 46.8527C262 46.8757 261.991 46.8978 261.975 46.9141C261.958 46.9304 261.936 46.9396 261.913 46.9396H215.108C215.085 46.9396 215.063 46.9304 215.047 46.9141C215.031 46.8978 215.021 46.8757 215.021 46.8527V0.093078C215.021 0.0816725 215.024 0.070377 215.028 0.0598397C215.032 0.0493023 215.039 0.0397277 215.047 0.0316628C215.055 0.0235979 215.064 0.0172013 215.075 0.0128366C215.085 0.00847185 215.097 0.00622559 215.108 0.00622559H261.913C261.925 0.00622559 261.936 0.00847185 261.947 0.0128366C261.957 0.0172013 261.967 0.0235979 261.975 0.0316628C261.983 0.0397277 261.989 0.0493023 261.993 0.0598397C261.998 0.070377 262 0.0816725 262 0.093078V46.8527ZM256.604 5.51797C256.604 5.47013 256.585 5.42425 256.551 5.39042C256.517 5.35659 256.472 5.33759 256.424 5.33759H220.478C220.43 5.33759 220.384 5.35659 220.351 5.39042C220.317 5.42425 220.298 5.47013 220.298 5.51797V41.4946C220.298 41.5425 220.317 41.5883 220.351 41.6222C220.384 41.656 220.43 41.675 220.478 41.675H256.424C256.472 41.675 256.517 41.656 256.551 41.6222C256.585 41.5883 256.604 41.5425 256.604 41.4946V5.51797Z" fill="#EEAB01"/>
<path d="M10.8129 32.4721C12.6836 32.6458 16.2258 31.8741 15.7672 29.0949C15.6099 28.1328 15.0517 27.4291 14.0925 26.9837C10.6401 25.3803 4.58253 24.9761 2.15686 21.5488C0.515371 19.2339 0.804458 15.7631 2.30971 13.5284C4.85833 9.75031 10.7198 9.39288 14.7205 10.5821C17.1595 11.3058 19.151 12.8013 20.695 15.0683C20.7424 15.139 20.7609 15.2254 20.7467 15.3098C20.7325 15.3943 20.6866 15.4704 20.6186 15.5226L17.093 18.205C17.0575 18.232 17.017 18.2516 16.9738 18.2625C16.9306 18.2735 16.8856 18.2756 16.8416 18.2687C16.7976 18.2619 16.7554 18.2462 16.7175 18.2226C16.6797 18.1991 16.6469 18.1681 16.6212 18.1315C14.7914 15.5504 12.2694 14.4292 9.05508 14.7677C7.24745 14.9581 6.05455 17.136 7.16106 18.6894C8.22437 20.1825 11.2614 20.8239 13.5077 21.4252C17.8008 22.5743 22.0241 24.7222 21.3695 30.0636C20.6717 35.7824 14.8036 37.2456 9.96221 36.9917C5.60707 36.7623 2.30195 34.7235 0.0468498 30.8753C0.0242938 30.8375 0.00948512 30.7956 0.0032944 30.7519C-0.00289631 30.7083 -0.000344337 30.6638 0.0108009 30.6212C0.0219462 30.5785 0.04146 30.5386 0.0681937 30.5036C0.0949274 30.4687 0.128342 30.4395 0.166472 30.4177L4.02429 28.1696C4.06206 28.1473 4.1039 28.1329 4.14738 28.1272C4.19085 28.1216 4.23509 28.1248 4.27748 28.1366C4.31988 28.1484 4.35959 28.1686 4.39428 28.1961C4.42897 28.2236 4.45795 28.2577 4.47952 28.2965C5.88176 30.8152 7.99288 32.207 10.8129 32.4721ZM81.3502 17.8142C83.4535 10.6589 92.4086 7.69594 98.5725 11.4807C100.823 12.8614 102.241 14.9893 102.826 17.8643C102.842 17.9455 102.828 18.0302 102.786 18.1013C102.743 18.1725 102.676 18.225 102.596 18.2484L97.8248 19.6748C97.7434 19.7 97.6553 19.6922 97.579 19.653C97.5028 19.6137 97.4444 19.5461 97.4161 19.4643C97.1215 18.6136 96.8734 17.9767 96.6718 17.5536C95.6572 15.4224 94.0578 14.4726 91.8736 14.7042C88.3647 15.075 86.6501 18.2918 86.4242 21.4085C86.1384 25.3602 86.577 31.5969 91.6344 32.3117C95.253 32.8228 96.9509 30.3008 97.7916 27.1708C97.8145 27.0876 97.8678 27.0162 97.9408 26.9715C98.0137 26.9268 98.1006 26.912 98.1837 26.9303L102.965 27.9892C103.009 27.9985 103.05 28.0167 103.086 28.0425C103.123 28.0683 103.153 28.1012 103.177 28.1393C103.2 28.1774 103.215 28.2199 103.222 28.2641C103.228 28.3084 103.226 28.3535 103.214 28.3967C102.752 30.205 102.036 31.7828 101.068 33.1301C97.6952 37.8268 90.1889 37.9871 85.7396 35.2379C80.3467 31.9075 79.722 23.3426 81.3502 17.8142ZM38.4755 30.7384H29.9126C29.8823 30.7389 29.853 30.7488 29.8286 30.7667C29.8042 30.7847 29.7859 30.8098 29.7763 30.8386L27.8424 36.4839C27.8328 36.5128 27.8146 36.5379 27.7902 36.5558C27.7658 36.5738 27.7364 36.5837 27.7062 36.5842H22.6256C22.6022 36.584 22.5792 36.5781 22.5585 36.5671C22.5378 36.5562 22.5201 36.5404 22.5067 36.5211C22.4934 36.5017 22.4848 36.4795 22.4818 36.4562C22.4788 36.4329 22.4814 36.4092 22.4893 36.3871L31.6604 10.4585C31.6705 10.4303 31.6891 10.4059 31.7134 10.3886C31.7378 10.3713 31.7668 10.3619 31.7966 10.3616H37.07C37.0998 10.3619 37.1288 10.3713 37.1532 10.3886C37.1775 10.4059 37.196 10.4303 37.2062 10.4585L46.3407 36.3871C46.3487 36.4092 46.3513 36.4329 46.3482 36.4562C46.3452 36.4795 46.3367 36.5017 46.3233 36.5211C46.31 36.5404 46.2922 36.5562 46.2715 36.5671C46.2509 36.5781 46.2279 36.584 46.2045 36.5842H40.652C40.6212 36.5844 40.5911 36.5748 40.5661 36.5568C40.541 36.5388 40.5222 36.5133 40.5124 36.4839L38.6151 30.8386C38.6053 30.8092 38.5865 30.7837 38.5615 30.7657C38.5364 30.7477 38.5063 30.7382 38.4755 30.7384ZM31.3048 26.329C31.299 26.3456 31.2972 26.3633 31.2996 26.3808C31.302 26.3982 31.3085 26.4148 31.3186 26.4292C31.3287 26.4436 31.342 26.4553 31.3576 26.4635C31.3731 26.4716 31.3903 26.4759 31.4078 26.4759L37.0799 26.4826C37.0971 26.4824 37.1139 26.4781 37.1291 26.4702C37.1443 26.4622 37.1574 26.4508 37.1674 26.4369C37.1774 26.4229 37.184 26.4068 37.1867 26.3898C37.1894 26.3728 37.1881 26.3554 37.1829 26.339L34.3619 17.9678C34.3541 17.9466 34.3401 17.9282 34.3217 17.9153C34.3033 17.9023 34.2813 17.8954 34.2588 17.8954C34.2364 17.8954 34.2144 17.9023 34.196 17.9153C34.1776 17.9282 34.1635 17.9466 34.1558 17.9678L31.3048 26.329ZM60.6289 10.5888C64.0947 10.7591 67.6368 11.8481 68.843 15.5427C69.7501 18.3319 69.5674 21.953 67.6036 24.2612C64.7526 27.6184 59.3496 27.4079 55.3257 27.291C55.2812 27.2897 55.2369 27.2973 55.1954 27.3135C55.154 27.3297 55.1162 27.3541 55.0842 27.3852C55.0523 27.4164 55.0269 27.4537 55.0096 27.4949C54.9923 27.5361 54.9834 27.5803 54.9834 27.6251L54.9967 36.2501C54.9967 36.3387 54.9617 36.4237 54.8994 36.4863C54.8371 36.549 54.7526 36.5842 54.6644 36.5842H49.5406C49.4525 36.5842 49.368 36.549 49.3056 36.4863C49.2433 36.4237 49.2083 36.3387 49.2083 36.2501L49.2183 10.8159C49.2182 10.729 49.2519 10.6456 49.3121 10.5832C49.3722 10.5208 49.4542 10.4845 49.5406 10.4819C53.2356 10.3727 56.9317 10.4084 60.6289 10.5888ZM62.2339 15.9368C61.4253 15.4848 60.4495 15.2476 59.3064 15.2253C57.9928 15.1964 56.6858 15.193 55.3855 15.2153C55.2985 15.217 55.2157 15.253 55.1548 15.3155C55.0939 15.3779 55.0598 15.4619 55.0598 15.5493L55.0698 22.3472C55.0696 22.4304 55.101 22.5107 55.1576 22.572C55.2143 22.6333 55.2921 22.6711 55.3755 22.6779C56.7312 22.7825 58.087 22.7948 59.4427 22.7146C60.774 22.6367 61.7443 22.3761 62.3535 21.9329C64.1378 20.6368 64.2209 17.0425 62.2339 15.9368Z" fill="#0175C7"/>
<path d="M229.154 14.1664C232.394 11.0765 235.55 11.1099 239.797 11.3304C240.532 11.3705 241.127 11.4896 241.581 11.6878C243.194 12.396 244.654 13.3402 245.961 14.5205C245.994 14.5513 246.021 14.5884 246.04 14.6297C246.059 14.671 246.069 14.7156 246.07 14.7609C246.072 14.8061 246.064 14.8511 246.047 14.893C246.031 14.9349 246.006 14.973 245.974 15.0049L242.678 18.352C242.618 18.413 242.537 18.4487 242.453 18.4518C242.368 18.4549 242.286 18.4251 242.223 18.3687C240.225 16.5693 237.957 16.0182 235.421 16.7152C231.742 17.724 229.403 21.7994 230.526 25.5073C232.105 30.7184 238.116 32.2115 242.236 28.8143C242.3 28.7612 242.381 28.7339 242.463 28.7376C242.546 28.7413 242.623 28.7758 242.681 28.8343L245.978 32.128C246.01 32.1599 246.035 32.1981 246.052 32.2403C246.069 32.2824 246.077 32.3277 246.076 32.3731C246.075 32.4186 246.064 32.4633 246.045 32.5045C246.026 32.5456 245.998 32.5824 245.964 32.6124C233.444 43.7962 216.899 25.8513 229.154 14.1664Z" fill="#EEAB01"/>
<path d="M124.381 28.1529C124.377 29.3001 124.148 30.4352 123.708 31.4935C123.268 32.5518 122.624 33.5126 121.814 34.3209C121.005 35.1293 120.045 35.7693 118.989 36.2046C117.933 36.6399 116.802 36.8618 115.661 36.8578L113.973 36.8518C111.669 36.8436 109.462 35.9156 107.838 34.2717C106.214 32.6278 105.306 30.4028 105.315 28.0861L105.321 26.0618C105.325 24.9146 105.554 23.7795 105.994 22.7212C106.435 21.6629 107.078 20.7021 107.888 19.8938C108.697 19.0855 109.658 18.4454 110.713 18.0101C111.769 17.5748 112.9 17.3529 114.041 17.3569L115.729 17.3629C118.033 17.3711 120.24 18.2992 121.864 19.943C123.488 21.5869 124.396 23.8119 124.388 26.1286L124.381 28.1529ZM113.173 21.9564C110.531 23.6266 110.528 27.8055 111.542 30.3743C112.964 33.9753 117.41 33.5411 118.37 29.9C118.926 27.7933 118.851 25.7812 118.144 23.8638C117.393 21.8161 115.021 20.7872 113.173 21.9564ZM133.459 19.9688C133.541 19.8975 133.62 19.8218 133.695 19.7417C135.689 17.6338 138.699 16.8021 141.381 17.5436C144.434 18.3888 144.763 20.9375 144.777 23.9673C144.797 28.0315 144.797 32.0991 144.777 36.17C144.777 36.2577 144.742 36.3418 144.679 36.4038C144.617 36.4659 144.532 36.5007 144.444 36.5007H139.48C139.392 36.5007 139.307 36.4655 139.245 36.4029C139.183 36.3402 139.148 36.2553 139.148 36.1667C139.132 32.6258 139.131 29.086 139.144 25.5474C139.149 24.2869 139.017 23.4206 138.749 22.9485C137.583 20.8941 134.429 22.5744 133.014 23.7736C132.977 23.8049 132.948 23.8439 132.928 23.8877C132.908 23.9315 132.897 23.9792 132.897 24.0275L132.854 36.1867C132.854 36.2304 132.846 36.2737 132.829 36.314C132.812 36.3544 132.787 36.391 132.756 36.4217C132.725 36.4525 132.688 36.4768 132.647 36.4932C132.606 36.5096 132.563 36.5178 132.519 36.5174L127.531 36.494C127.488 36.494 127.445 36.4854 127.404 36.4685C127.364 36.4517 127.328 36.427 127.297 36.396C127.267 36.3649 127.242 36.3281 127.226 36.2876C127.21 36.247 127.202 36.2037 127.202 36.16L127.252 18.0347C127.253 17.9458 127.288 17.8608 127.35 17.7983C127.413 17.7357 127.497 17.7007 127.584 17.7006L132.575 17.6973C132.663 17.6973 132.748 17.7325 132.81 17.7951C132.872 17.8578 132.907 17.9428 132.907 18.0314V19.7183C132.907 20.2127 133.091 20.2962 133.459 19.9688ZM149.671 20.4498C152.429 17.0927 158.254 16.3311 161.816 18.5224C163.349 19.4644 164.426 20.8808 165.046 22.7714C165.073 22.8552 165.067 22.9464 165.028 23.0252C164.988 23.1041 164.92 23.1641 164.837 23.1923L160.703 24.5853C160.623 24.6127 160.536 24.6083 160.459 24.573C160.382 24.5376 160.32 24.474 160.288 24.3949C159.54 22.561 158.586 21.1914 156.426 21.5321C152.585 22.1334 152.728 28.4469 154.017 31.0357C154.901 32.8128 156.981 33.4408 158.663 32.3251C159.462 31.7951 160.052 30.9533 160.431 29.7998C160.444 29.7572 160.466 29.718 160.496 29.6842C160.525 29.6505 160.561 29.623 160.601 29.6034C160.641 29.5837 160.684 29.5724 160.728 29.57C160.773 29.5675 160.817 29.5741 160.859 29.5893L164.91 31.0758C164.953 31.0919 164.993 31.1169 165.027 31.1493C165.061 31.1817 165.087 31.2208 165.105 31.264C165.122 31.3071 165.13 31.3534 165.129 31.3999C165.127 31.4463 165.116 31.4918 165.096 31.5335C164.686 32.3931 164.194 33.1859 163.62 33.9119C161.64 36.4172 158.148 37.2957 155.154 36.8114C150.867 36.1165 148.01 33.2605 147.658 28.831C147.415 25.7478 147.648 22.9151 149.671 20.4498ZM195.46 19.9755C195.46 20.4966 195.618 20.5512 195.935 20.1392C197.351 18.3086 199.24 17.3655 201.604 17.3098C201.648 17.3085 201.692 17.3161 201.733 17.3323C201.774 17.3485 201.811 17.3729 201.843 17.404C201.875 17.4352 201.9 17.4725 201.917 17.5137C201.934 17.5549 201.943 17.5991 201.943 17.6439L201.936 22.0399C201.936 22.0877 201.926 22.135 201.906 22.1785C201.887 22.222 201.858 22.2607 201.823 22.292C201.787 22.3234 201.745 22.3466 201.7 22.3602C201.655 22.3737 201.607 22.3773 201.561 22.3706C199.139 22.0321 197.131 22.8227 195.536 24.7423C195.487 24.8006 195.46 24.8764 195.46 24.9561V36.1667C195.46 36.2553 195.425 36.3402 195.363 36.4029C195.3 36.4655 195.216 36.5007 195.128 36.5007H190.06C189.972 36.5007 189.888 36.4655 189.825 36.4029C189.763 36.3402 189.728 36.2553 189.728 36.1667V18.0447C189.728 17.9561 189.763 17.8712 189.825 17.8085C189.888 17.7459 189.972 17.7107 190.06 17.7107H195.128C195.216 17.7107 195.3 17.7459 195.363 17.8085C195.425 17.8712 195.46 17.9561 195.46 18.0447V19.9755ZM173.788 29.733C173.798 33.992 178.307 32.0445 179.906 30.4846C179.938 30.454 179.964 30.4172 179.982 30.3764C179.999 30.3356 180.009 30.2917 180.009 30.2474V18.0481C180.009 17.9595 180.044 17.8745 180.106 17.8118C180.168 17.7492 180.253 17.714 180.341 17.714L185.408 17.7006C185.496 17.7006 185.581 17.7358 185.643 17.7985C185.706 17.8611 185.741 17.9461 185.741 18.0347V36.17C185.741 36.2586 185.706 36.3436 185.643 36.4062C185.581 36.4688 185.496 36.504 185.408 36.504L180.341 36.4974C180.253 36.4974 180.168 36.4622 180.106 36.3995C180.044 36.3369 180.009 36.2519 180.009 36.1633V34.3962C180.009 33.9441 179.856 33.8829 179.55 34.2125C177.7 36.2012 175.485 37.0842 172.904 36.8615C170.293 36.6343 168.605 35.385 168.213 32.726C168.102 31.9621 168.046 31.2718 168.046 30.6549V18.0447C168.046 17.9561 168.081 17.8712 168.144 17.8085C168.206 17.7459 168.291 17.7107 168.379 17.7107H173.439C173.528 17.7107 173.612 17.7459 173.674 17.8085C173.737 17.8712 173.772 17.9561 173.772 18.0447C173.774 21.9441 173.779 25.8402 173.788 29.733Z" fill="#0175C7"/>
<path d="M247.808 26.7398C249.554 26.7398 250.968 25.3175 250.968 23.563C250.968 21.8085 249.554 20.3862 247.808 20.3862C246.063 20.3862 244.648 21.8085 244.648 23.563C244.648 25.3175 246.063 26.7398 247.808 26.7398Z" fill="#EEAB01"/>
</svg>
