<svg width="329" height="48" viewBox="0 0 329 48" fill="none" xmlns="http://www.w3.org/2000/svg">
<path d="M13.7236 14.8086C17.2809 14.8086 20.8043 15.8333 23.832 17.7012L20.3691 23.0098C18.6082 21.8163 16.545 21.1314 14.4092 21.0391H14.3877C13.1424 21.0391 11.9653 21.2724 11.0801 21.7578C10.1845 22.249 9.54108 23.0328 9.54102 24.0986C9.54102 24.7975 9.877 25.3521 10.376 25.792C10.8624 26.2208 11.5294 26.5656 12.2705 26.873C13.0167 27.1826 13.882 27.4716 14.7861 27.7715C15.6965 28.0734 16.6531 28.3891 17.6084 28.7568C19.5238 29.4942 21.3821 30.424 22.7598 31.8125C24.1209 33.1843 25.0351 35.0254 25.0352 37.6484C25.0352 40.529 23.6261 42.8472 21.3926 44.4619C19.1494 46.0835 16.0777 46.9892 12.8184 46.9893C8.49115 46.9893 4.25894 45.6089 0.688477 43.1338L4.26465 37.8574C6.72802 39.7673 9.77428 40.7935 12.9082 40.7578V40.7588L12.9092 40.7578C12.9108 40.7578 12.9124 40.7588 12.9141 40.7588L12.9131 40.7578C14.1351 40.7571 15.2504 40.4546 16.0762 39.9111C16.9061 39.3649 17.4736 38.5494 17.4736 37.5586C17.4735 36.0359 16.2169 35.1306 14.7617 34.46C14.0105 34.1138 13.1417 33.801 12.2334 33.4883C11.3176 33.173 10.3614 32.8574 9.40137 32.498C7.47841 31.7782 5.61889 30.909 4.24121 29.6221C2.8835 28.3538 1.97857 26.6668 1.97852 24.249C1.97852 21.3634 3.37032 19.0177 5.53711 17.3789C7.71211 15.7339 10.6641 14.8086 13.7236 14.8086ZM42.79 14.8086C51.3198 14.8086 57.4022 21.9544 57.4023 30.6084V30.6191C57.4023 31.2761 57.3721 31.9488 57.2549 32.5889H34.9736L35.0283 33.1387C35.2517 35.3798 36.3237 37.4526 38.0254 38.9375C39.7269 40.422 41.9315 41.2075 44.1934 41.1377C45.7811 41.1094 47.346 40.7561 48.79 40.0986C50.0757 39.5133 51.24 38.6977 52.2275 37.6953L56.3916 41.8418C53.1682 45.2133 48.6734 47.0763 43.9922 47.0293V47.0283H42.5537C38.4537 46.8404 34.5952 45.0474 31.8223 42.041C29.0455 39.0305 27.5831 35.0491 27.7549 30.9697L27.7559 30.959V30.9492C27.7559 22.2768 33.6639 14.8086 42.79 14.8086ZM92.6924 15.4785L101.207 34.3916L101.095 34.6426L101.526 34.8564L101.546 34.8662L102.799 35.4883L102.304 34.3906L110.825 15.4785H118.615L104.386 46.3691H99.1211L84.8916 15.4785H92.6924ZM78.8447 15.1484C79.4946 15.1488 80.1764 15.2114 80.875 15.3164V22.3936C78.9663 21.9002 76.953 21.9387 75.0586 22.5146C72.946 23.157 71.0845 24.4347 69.7314 26.1719L69.626 26.3066V46.3691H62.0742V15.4785H69.3145V18.9414L70.1328 18.2637C72.5658 16.2501 75.6606 15.1495 78.8447 15.1484ZM42.7998 20.709C41.0656 20.6997 39.3825 21.2943 38.043 22.3906C36.7026 23.4877 35.7911 25.0179 35.4678 26.7148L35.3545 27.3086H49.6719L49.6045 26.749C49.192 23.3187 46.2539 20.7098 42.8018 20.709H42.7998ZM126.605 0.508789C127.93 0.519618 129.195 1.05171 130.125 1.9873C131.055 2.9228 131.573 4.18544 131.567 5.49902C131.562 6.81262 131.033 8.07115 130.096 8.99902C129.158 9.92686 127.889 10.4482 126.564 10.4482C125.24 10.4482 123.97 9.927 123.032 8.99902C122.095 8.07116 121.566 6.81251 121.561 5.49902C121.555 4.18544 122.074 2.9228 123.004 1.9873C123.876 1.11028 125.042 0.587438 126.275 0.516602L126.523 0.508789H126.605Z" fill="#18181B" stroke="#18181B"/>
<path d="M130.365 15.4795V46.3691H122.813V15.4795H130.365Z" fill="#18181B" stroke="#18181B"/>
<path d="M151.866 14.8586C154.369 14.8436 156.842 15.3921 159.101 16.4631C161.213 17.4652 163.086 18.9009 164.598 20.6721L159.299 25.2834C158.459 24.2545 157.415 23.4061 156.229 22.7942C154.881 22.0985 153.388 21.7271 151.869 21.7092H151.863C146.866 21.7092 142.751 25.7257 142.751 30.7092V30.9485C142.678 33.3072 143.546 35.5989 145.167 37.3225C146.791 39.0497 149.037 40.0658 151.413 40.1487H152.113C153.716 40.1211 155.288 39.705 156.691 38.9358C157.94 38.2518 159.021 37.3062 159.863 36.1682L165.612 40.468C164.075 42.5195 162.072 44.1858 159.764 45.3284C157.307 46.544 154.583 47.1294 151.841 47.0295L151.825 47.0286H151.811C147.517 47.1381 143.356 45.5499 140.241 42.6125C137.224 39.7672 135.429 35.8817 135.215 31.7649L135.198 31.3655C135.099 27.1027 136.702 22.9733 139.656 19.8801C142.519 16.8831 146.427 15.0949 150.57 14.8752L150.972 14.8586H151.866ZM183.083 14.7688C191.613 14.7688 197.695 21.9047 197.695 30.5686C197.695 31.2092 197.661 31.8504 197.574 32.4885H175.317L175.371 33.0374C175.592 35.2803 176.662 37.3559 178.364 38.843C180.066 40.3301 182.273 41.1179 184.537 41.0481H184.538C187.553 40.9495 190.436 39.7054 192.554 37.6038L196.683 41.7942C195.148 43.4059 193.304 44.6978 191.256 45.5891C189.061 46.5442 186.684 47.018 184.288 46.9788H184.272L184.257 46.9797C182.222 47.0748 180.189 46.7696 178.273 46.0833C176.357 45.3969 174.596 44.3427 173.091 42.9797C171.586 41.6169 170.366 39.9723 169.501 38.1409C168.639 36.3163 168.145 34.3415 168.049 32.3284V30.8987C168.049 22.2265 173.947 14.7688 183.083 14.7688ZM218.851 14.8088C222.956 14.8089 226.877 16.6007 229.558 19.761C231.948 22.8411 233.087 26.7008 232.75 30.5754L232.748 30.5969V46.3186H225.186V29.9719C225.311 28.8366 225.197 27.6876 224.85 26.5989C224.499 25.4994 223.918 24.4863 223.146 23.6252L223.132 23.6086L223.115 23.593L222.849 23.3577C222.215 22.8248 221.492 22.4059 220.711 22.1213C219.93 21.8368 219.106 21.6913 218.276 21.6907L217.92 21.6995C214.721 21.8065 211.706 23.2932 209.751 25.845L209.647 25.9797V46.3684H202.086V15.4788H209.315V18.6125L210.135 17.9338C212.579 15.9092 215.666 14.8088 218.851 14.8088ZM183.146 20.7092C181.411 20.6992 179.726 21.2937 178.386 22.3909C177.045 23.488 176.134 25.0181 175.811 26.7151L175.697 27.3088H190.019L189.947 26.7463C189.738 25.0928 188.934 23.5706 187.685 22.4612C186.435 21.3519 184.824 20.73 183.149 20.7092H183.146Z" fill="#18181B" stroke="#18181B"/>
<path fill-rule="evenodd" clip-rule="evenodd" d="M255.292 14.3087C251.534 14.2978 247.859 15.41 244.745 17.5009C241.631 19.5919 239.221 22.565 237.828 26.0344C236.435 29.5038 236.124 33.3092 236.934 36.9566C237.745 40.6041 239.64 43.9251 242.373 46.4887C243.016 47.0973 243.857 47.4564 244.743 47.5004C245.63 47.5445 246.502 47.2706 247.203 46.7287C249.509 45.0148 252.311 44.0887 255.191 44.0887C258.071 44.0887 260.873 45.0148 263.18 46.7287C264.659 47.8187 266.711 47.7287 268.009 46.4387C271.614 43.0309 273.713 38.3415 273.845 33.3984C273.977 28.4552 272.132 23.6617 268.713 20.0687C266.969 18.2764 264.885 16.8448 262.581 15.8562C260.278 14.8677 257.801 14.3417 255.292 14.3087ZM255.191 42.2587C253.997 42.2906 252.809 42.0882 251.693 41.663C250.578 41.2379 249.558 40.5983 248.692 39.781C247.826 38.9636 247.13 37.9845 246.645 36.8996C246.16 35.8148 245.895 34.6455 245.865 33.4587V32.9887C245.862 31.7706 246.101 30.564 246.569 29.4381C247.037 28.3122 247.724 27.2892 248.59 26.4279C249.457 25.5666 250.486 24.8839 251.619 24.4189C252.752 23.954 253.966 23.716 255.191 23.7187C256.417 23.716 257.631 23.954 258.764 24.4189C259.896 24.8839 260.925 25.5666 261.792 26.4279C262.659 27.2892 263.346 28.3122 263.813 29.4381C264.281 30.564 264.521 31.7706 264.518 32.9887C264.55 34.1754 264.346 35.3568 263.919 36.4653C263.491 37.5738 262.847 38.5875 262.025 39.4485C261.203 40.3095 260.218 41.0009 259.126 41.4831C258.035 41.9653 256.858 42.2289 255.664 42.2587H255.191Z" fill="#62D84E"/>
<path d="M279.899 15.4795L286.759 33.3584L287.23 34.5879L287.694 33.3555L294.413 15.4795H300.844L307.514 33.3545L307.975 34.5889L308.448 33.3594L315.347 15.4795H322.829L310.511 46.3691H304.837L298.117 28.5332L297.649 27.291L297.182 28.5332L290.462 46.3691H284.747L272.43 15.4795H279.899Z" fill="#18181B" stroke="#18181B"/>
<mask id="path-6-inside-1_0_1810" fill="white">
<path d="M323.668 43.2582H322.943V44.5882H322.319V40.8882H323.808C324.472 40.8882 325.006 41.3982 325.006 42.0682C325.006 42.5382 324.714 42.9682 324.281 43.1682L325.147 44.5882H324.472L323.668 43.2582ZM322.943 42.7282H323.849C324.191 42.7282 324.472 42.4482 324.472 42.1182C324.47 41.9546 324.403 41.7983 324.287 41.6826C324.17 41.5669 324.013 41.5008 323.849 41.4982H322.993L322.943 42.7282Z"/>
</mask>
<path d="M323.668 43.2582H322.943V44.5882H322.319V40.8882H323.808C324.472 40.8882 325.006 41.3982 325.006 42.0682C325.006 42.5382 324.714 42.9682 324.281 43.1682L325.147 44.5882H324.472L323.668 43.2582ZM322.943 42.7282H323.849C324.191 42.7282 324.472 42.4482 324.472 42.1182C324.47 41.9546 324.403 41.7983 324.287 41.6826C324.17 41.5669 324.013 41.5008 323.849 41.4982H322.993L322.943 42.7282Z" fill="#18181B"/>
<path d="M323.668 43.2582L324.523 42.7404L324.231 42.2582H323.668V43.2582ZM322.943 43.2582V42.2582H321.943V43.2582H322.943ZM322.943 44.5882V45.5882H323.943V44.5882H322.943ZM322.319 44.5882H321.319V45.5882H322.319V44.5882ZM322.319 40.8882V39.8882H321.319V40.8882H322.319ZM324.281 43.1682L323.862 42.2605L322.844 42.731L323.427 43.6885L324.281 43.1682ZM325.147 44.5882V45.5882H326.927L326.001 44.0678L325.147 44.5882ZM324.472 44.5882L323.617 45.1059L323.909 45.5882H324.472V44.5882ZM322.943 42.7282L321.944 42.6873L321.901 43.7282H322.943V42.7282ZM324.472 42.1182H325.472V42.1103L325.472 42.1023L324.472 42.1182ZM323.849 41.4982L323.864 40.4983L323.856 40.4982H323.849V41.4982ZM322.993 41.4982V40.4982H322.034L321.994 41.4573L322.993 41.4982ZM323.668 43.2582V42.2582H322.943V43.2582V44.2582H323.668V43.2582ZM322.943 43.2582H321.943V44.5882H322.943H323.943V43.2582H322.943ZM322.943 44.5882V43.5882H322.319V44.5882V45.5882H322.943V44.5882ZM322.319 44.5882H323.319V40.8882H322.319H321.319V44.5882H322.319ZM322.319 40.8882V41.8882H323.808V40.8882V39.8882H322.319V40.8882ZM323.808 40.8882V41.8882C323.88 41.8882 323.929 41.9142 323.957 41.9424C323.984 41.9688 324.006 42.0072 324.006 42.0682H325.006H326.006C326.006 40.8237 325.002 39.8882 323.808 39.8882V40.8882ZM325.006 42.0682H324.006C324.006 42.1212 323.966 42.2124 323.862 42.2605L324.281 43.1682L324.701 44.0759C325.462 43.724 326.006 42.9552 326.006 42.0682H325.006ZM324.281 43.1682L323.427 43.6885L324.293 45.1085L325.147 44.5882L326.001 44.0678L325.135 42.6478L324.281 43.1682ZM325.147 44.5882V43.5882H324.472V44.5882V45.5882H325.147V44.5882ZM324.472 44.5882L325.328 44.0704L324.523 42.7404L323.668 43.2582L322.812 43.7759L323.617 45.1059L324.472 44.5882ZM322.943 42.7282V43.7282H323.849V42.7282V41.7282H322.943V42.7282ZM323.849 42.7282V43.7282C324.727 43.7282 325.472 43.0167 325.472 42.1182H324.472H323.472C323.472 41.8797 323.655 41.7282 323.849 41.7282V42.7282ZM324.472 42.1182L325.472 42.1023C325.466 41.677 325.293 41.2723 324.992 40.9734L324.287 41.6826L323.582 42.3919C323.514 42.3244 323.474 42.2321 323.473 42.134L324.472 42.1182ZM324.287 41.6826L324.992 40.9734C324.691 40.6746 324.287 40.5049 323.864 40.4983L323.849 41.4982L323.833 42.4981C323.74 42.4966 323.65 42.4592 323.582 42.3919L324.287 41.6826ZM323.849 41.4982V40.4982H322.993V41.4982V42.4982H323.849V41.4982ZM322.993 41.4982L321.994 41.4573L321.944 42.6873L322.943 42.7282L323.942 42.769L323.993 41.539L322.993 41.4982Z" fill="#18181B" mask="url(#path-6-inside-1_0_1810)"/>
<mask id="path-8-inside-2_0_1810" fill="white">
<path d="M323.567 39.4089C324.02 39.4062 324.469 39.4929 324.887 39.6638C325.306 39.8347 325.686 40.0865 326.006 40.4046C326.327 40.7227 326.58 41.1008 326.752 41.5169C326.924 41.9331 327.011 42.379 327.008 42.8289C327.011 43.2787 326.924 43.7246 326.752 44.1408C326.58 44.5569 326.327 44.935 326.006 45.2531C325.686 45.5712 325.306 45.823 324.887 45.9939C324.469 46.1649 324.02 46.2515 323.567 46.2489C323.115 46.2515 322.666 46.1649 322.247 45.9939C321.829 45.823 321.448 45.5712 321.128 45.2531C320.808 44.935 320.555 44.5569 320.383 44.1408C320.211 43.7246 320.124 43.2787 320.127 42.8289C320.124 42.379 320.211 41.9331 320.383 41.5169C320.555 41.1008 320.808 40.7227 321.128 40.4046C321.448 40.0865 321.829 39.8347 322.247 39.6638C322.666 39.4929 323.115 39.4062 323.567 39.4089ZM323.567 38.8389C321.364 38.8389 319.543 40.5989 319.543 42.8289C319.543 45.0589 321.324 46.8289 323.567 46.8289C324.635 46.8289 325.658 46.4074 326.413 45.6573C327.168 44.9071 327.592 43.8897 327.592 42.8289C327.592 41.768 327.168 40.7506 326.413 40.0004C325.658 39.2503 324.635 38.8289 323.567 38.8289V38.8389Z"/>
</mask>
<path d="M323.567 39.4089C324.02 39.4062 324.469 39.4929 324.887 39.6638C325.306 39.8347 325.686 40.0865 326.006 40.4046C326.327 40.7227 326.58 41.1008 326.752 41.5169C326.924 41.9331 327.011 42.379 327.008 42.8289C327.011 43.2787 326.924 43.7246 326.752 44.1408C326.58 44.5569 326.327 44.935 326.006 45.2531C325.686 45.5712 325.306 45.823 324.887 45.9939C324.469 46.1649 324.02 46.2515 323.567 46.2489C323.115 46.2515 322.666 46.1649 322.247 45.9939C321.829 45.823 321.448 45.5712 321.128 45.2531C320.808 44.935 320.555 44.5569 320.383 44.1408C320.211 43.7246 320.124 43.2787 320.127 42.8289C320.124 42.379 320.211 41.9331 320.383 41.5169C320.555 41.1008 320.808 40.7227 321.128 40.4046C321.448 40.0865 321.829 39.8347 322.247 39.6638C322.666 39.4929 323.115 39.4062 323.567 39.4089ZM323.567 38.8389C321.364 38.8389 319.543 40.5989 319.543 42.8289C319.543 45.0589 321.324 46.8289 323.567 46.8289C324.635 46.8289 325.658 46.4074 326.413 45.6573C327.168 44.9071 327.592 43.8897 327.592 42.8289C327.592 41.768 327.168 40.7506 326.413 40.0004C325.658 39.2503 324.635 38.8289 323.567 38.8289V38.8389Z" fill="#18181B"/>
<path d="M323.567 39.4089L323.562 40.4089L323.573 40.4088L323.567 39.4089ZM327.008 42.8289L326.008 42.8229L326.008 42.8348L327.008 42.8289ZM323.567 46.2489L323.573 45.2488L323.562 45.2489L323.567 46.2489ZM320.127 42.8289L321.127 42.8348L321.126 42.8229L320.127 42.8289ZM323.567 38.8389V39.8389H324.567V38.8389H323.567ZM323.567 38.8289V37.8289H322.567V38.8289H323.567ZM323.567 39.4089L323.573 40.4088C323.894 40.407 324.213 40.4684 324.509 40.5896L324.887 39.6638L325.265 38.738C324.725 38.5173 324.146 38.4055 323.562 38.4089L323.567 39.4089ZM324.887 39.6638L324.509 40.5896C324.806 40.7107 325.075 40.8891 325.302 41.1139L326.006 40.4046L326.711 39.6954C326.298 39.284 325.806 38.9587 325.265 38.738L324.887 39.6638ZM326.006 40.4046L325.302 41.1139C325.528 41.3387 325.706 41.6056 325.828 41.8989L326.752 41.5169L327.676 41.135C327.453 40.596 327.125 40.1068 326.711 39.6954L326.006 40.4046ZM326.752 41.5169L325.828 41.8989C325.949 42.1922 326.01 42.5062 326.008 42.8229L327.008 42.8289L328.008 42.8348C328.012 42.2518 327.899 41.674 327.676 41.135L326.752 41.5169ZM327.008 42.8289L326.008 42.8348C326.01 43.1515 325.949 43.4656 325.828 43.7588L326.752 44.1408L327.676 44.5227C327.899 43.9837 328.012 43.4059 328.008 42.8229L327.008 42.8289ZM326.752 44.1408L325.828 43.7588C325.706 44.0521 325.528 44.319 325.302 44.5438L326.006 45.2531L326.711 45.9623C327.125 45.5509 327.453 45.0617 327.676 44.5227L326.752 44.1408ZM326.006 45.2531L325.302 44.5438C325.075 44.7687 324.806 44.947 324.509 45.0681L324.887 45.9939L325.265 46.9197C325.806 46.699 326.298 46.3737 326.711 45.9623L326.006 45.2531ZM324.887 45.9939L324.509 45.0681C324.213 45.1893 323.894 45.2508 323.573 45.2489L323.567 46.2489L323.562 47.2488C324.146 47.2523 324.725 47.1405 325.265 46.9197L324.887 45.9939ZM323.567 46.2489L323.562 45.2489C323.24 45.2508 322.922 45.1893 322.625 45.0681L322.247 45.9939L321.87 46.9197C322.41 47.1405 322.989 47.2523 323.573 47.2488L323.567 46.2489ZM322.247 45.9939L322.625 45.0681C322.329 44.947 322.06 44.7687 321.833 44.5438L321.128 45.2531L320.423 45.9623C320.837 46.3737 321.329 46.699 321.87 46.9197L322.247 45.9939ZM321.128 45.2531L321.833 44.5438C321.607 44.319 321.428 44.0521 321.307 43.7588L320.383 44.1408L319.459 44.5227C319.682 45.0617 320.01 45.5509 320.423 45.9623L321.128 45.2531ZM320.383 44.1408L321.307 43.7588C321.186 43.4655 321.125 43.1515 321.126 42.8348L320.127 42.8289L319.127 42.8229C319.123 43.406 319.236 43.9838 319.459 44.5227L320.383 44.1408ZM320.127 42.8289L321.126 42.8229C321.125 42.5063 321.186 42.1922 321.307 41.8989L320.383 41.5169L319.459 41.135C319.236 41.674 319.123 42.2517 319.127 42.8348L320.127 42.8289ZM320.383 41.5169L321.307 41.8989C321.428 41.6056 321.607 41.3387 321.833 41.1139L321.128 40.4046L320.423 39.6954C320.01 40.1068 319.682 40.596 319.459 41.135L320.383 41.5169ZM321.128 40.4046L321.833 41.1139C322.06 40.8891 322.329 40.7107 322.625 40.5896L322.247 39.6638L321.87 38.738C321.329 38.9587 320.837 39.284 320.423 39.6954L321.128 40.4046ZM322.247 39.6638L322.625 40.5896C322.922 40.4684 323.24 40.407 323.562 40.4088L323.567 39.4089L323.573 38.4089C322.989 38.4055 322.41 38.5173 321.87 38.738L322.247 39.6638ZM323.567 38.8389V37.8389C320.827 37.8389 318.543 40.0311 318.543 42.8289H319.543H320.543C320.543 41.1666 321.901 39.8389 323.567 39.8389V38.8389ZM319.543 42.8289H318.543C318.543 45.6169 320.777 47.8289 323.567 47.8289V46.8289V45.8289C321.87 45.8289 320.543 44.5008 320.543 42.8289H319.543ZM323.567 46.8289V47.8289C324.898 47.8289 326.175 47.3035 327.118 46.3665L326.413 45.6573L325.708 44.948C325.141 45.5113 324.372 45.8289 323.567 45.8289V46.8289ZM326.413 45.6573L327.118 46.3665C328.061 45.4293 328.592 44.1569 328.592 42.8289H327.592H326.592C326.592 43.6225 326.275 44.3849 325.708 44.948L326.413 45.6573ZM327.592 42.8289H328.592C328.592 41.5008 328.061 40.2284 327.118 39.2912L326.413 40.0004L325.708 40.7097C326.275 41.2728 326.592 42.0352 326.592 42.8289H327.592ZM326.413 40.0004L327.118 39.2912C326.175 38.3542 324.898 37.8289 323.567 37.8289V38.8289V39.8289C324.372 39.8289 325.141 40.1464 325.708 40.7097L326.413 40.0004ZM323.567 38.8289H322.567V38.8389H323.567H324.567V38.8289H323.567Z" fill="#18181B" mask="url(#path-8-inside-2_0_1810)"/>
</svg>
