<svg width="202" height="48" viewBox="0 0 202 48" fill="none" xmlns="http://www.w3.org/2000/svg">
<g clip-path="url(#clip0_0_1700)">
<mask id="mask0_0_1700" style="mask-type:luminance" maskUnits="userSpaceOnUse" x="0" y="0" width="202" height="48">
<path d="M0.587891 0.0688477H201.607V47.0893H0.587891V0.0688477Z" fill="white"/>
</mask>
<g mask="url(#mask0_0_1700)">
<mask id="mask1_0_1700" style="mask-type:luminance" maskUnits="userSpaceOnUse" x="0" y="0" width="202" height="48">
<path d="M201.607 0.0688477H0.587891V47.0893H201.607V0.0688477Z" fill="white"/>
</mask>
<g mask="url(#mask1_0_1700)">
<path d="M73.3467 10.8444H73.2486L73.0525 10.7464H64.7176C64.6321 10.7567 64.5509 10.7893 64.4821 10.8408C64.4132 10.8924 64.3592 10.9612 64.3254 11.0403L58.8341 36.4117V36.8035H59.0302L59.2263 36.9015H67.7574L67.9535 36.6076L73.3467 11.2362V10.9423V10.8444ZM57.3632 12.0199C56.5659 11.3076 55.636 10.7593 54.6264 10.4063C53.6169 10.0533 52.5476 9.90259 51.4797 9.96273C50.0602 9.97339 48.6579 10.2744 47.3594 10.8472C46.0608 11.4201 44.8934 12.2525 43.9292 13.2933L46.3807 2.32191V1.93007L46.1846 1.83211H37.7516C37.6572 1.79399 37.5517 1.79399 37.4574 1.83211L37.3593 2.12599L29.9069 36.4117V36.6076L30.005 36.8035H30.2011L30.2991 36.9015H38.9283C38.9283 36.7056 39.0263 36.7056 39.1244 36.6076L41.87 23.3831C42.7525 19.4648 44.8118 17.5056 47.5574 17.5056C49.3224 17.5056 49.8127 18.0933 49.9108 19.9546C49.9108 20.9342 49.7147 21.9137 49.5186 22.9913L46.6749 36.4117V36.6076L46.7729 36.8035H46.871L47.0671 36.9015H55.6962L55.7943 36.6076L58.736 22.5015C59.2263 20.9342 59.4224 19.2688 59.4224 17.6035C59.482 16.5814 59.3298 15.558 58.9755 14.5972C58.6212 13.6365 58.0723 12.7591 57.3632 12.0199ZM20.9836 16.0362C18.4341 14.8607 16.3749 14.077 15.1001 13.2933C13.6292 12.6076 13.1389 12.0199 13.1389 11.0403C13.1389 9.47293 14.7079 8.1015 17.7477 8.1015C21.2778 8.1015 22.8467 9.47293 22.8467 12.2158C22.8541 12.2767 22.8757 12.335 22.9097 12.3861C22.9438 12.4371 22.9894 12.4794 23.0428 12.5097H31.3778L31.5739 12.6076V12.3137C31.3778 4.86885 26.2787 0.852521 17.2574 0.95048C13.8081 0.772566 10.4062 1.81292 7.64768 3.88926C6.54584 4.83025 5.66655 6.00359 5.0731 7.3248C4.47965 8.64601 4.1868 10.0822 4.21564 11.5301C4.21564 16.1342 6.96127 19.2688 12.2564 21.7178C14.8059 22.9913 16.8652 23.677 18.336 24.6566C19.8069 25.4403 20.3953 26.126 20.3953 27.1056C20.3953 28.9668 18.6302 30.4362 15.1982 30.4362C11.2758 30.4362 9.70691 29.0648 9.60885 25.5382C9.60147 25.4773 9.57988 25.419 9.54581 25.368C9.51175 25.3169 9.46617 25.2746 9.41273 25.2444L9.11856 25.1464H0.979722C0.926597 25.1419 0.873112 25.1483 0.822533 25.1651C0.771953 25.1819 0.725342 25.2089 0.685547 25.2444V25.5382C1.07778 33.375 6.37293 37.8811 15.3943 37.8811C19.0224 38.077 22.6506 36.9995 25.6904 34.8444C26.9164 33.8411 27.8915 32.5663 28.5383 31.1209C29.1852 29.6756 29.4859 28.0995 29.4166 26.5178C29.4166 21.6199 26.4749 18.6811 21.0817 16.0362M173.758 18.975L175.523 10.6484V10.2566H175.425L175.229 10.1586H174.347C172.737 10.0703 171.133 10.4144 169.702 11.1552C168.271 11.896 167.064 13.0064 166.208 14.3709L166.796 11.3342C166.831 11.2746 166.849 11.207 166.849 11.1382C166.849 11.0695 166.831 11.0019 166.796 10.9423L166.698 10.8444H158.461L158.363 11.1382L152.872 36.4117V36.6076L152.97 36.8035H153.166L153.264 36.9015H161.893L162.089 36.6076L163.854 28.1831C164.149 25.7342 165.031 23.2852 166.208 21.1301C166.698 20.3464 167.483 19.6607 168.267 19.2688C169.15 18.877 170.032 18.6811 171.013 18.7791C171.797 18.7791 172.484 18.877 173.268 19.1709H173.562L173.758 18.975ZM155.127 10.8444H155.029L154.833 10.7464H146.106L146.008 11.0403L140.517 36.4117V36.6076L140.615 36.7056L140.811 36.9015H149.538L149.734 36.5097L155.127 11.2362C155.165 11.1419 155.165 11.0366 155.127 10.9423M198.371 13.1954C197.149 12.063 195.712 11.1853 194.147 10.6134C192.581 10.0416 190.917 9.78709 189.252 9.86477C187.27 9.84287 185.306 10.2321 183.483 11.0077C181.66 11.7834 180.018 12.9286 178.661 14.3709C176.003 17.3241 174.566 21.1754 174.641 25.1464C174.55 26.8033 174.789 28.4617 175.345 30.0255C175.9 31.5894 176.761 33.0275 177.877 34.2566C179.111 35.4011 180.563 36.2857 182.147 36.8579C183.73 37.4301 185.413 37.6781 187.094 37.5872C193.566 37.5872 198.763 34.1586 200.332 29.0648V28.6729H200.136L200.038 28.575H191.017L190.82 28.7709C190.526 29.4566 190.036 29.9464 189.35 30.3382C188.663 30.7301 187.977 30.926 187.192 30.828C184.839 30.828 183.76 29.6525 183.662 26.9097V26.5178H200.822C200.876 26.5223 200.929 26.516 200.98 26.4991C201.03 26.4823 201.077 26.4553 201.117 26.4199L201.215 26.126C201.509 24.8525 201.607 23.4811 201.607 22.2076C201.698 20.5507 201.459 18.8923 200.903 17.3285C200.348 15.7646 199.487 14.3265 198.371 13.0974V13.1954ZM192.684 20.6403H184.349C184.424 19.3757 184.988 18.1897 185.92 17.3312C186.853 16.4728 188.082 16.0086 189.35 16.0362C191.605 16.0362 192.88 17.4076 192.88 20.2484V20.6403H192.684ZM98.9399 12.8035C98.0938 11.8258 97.0361 11.0531 95.8469 10.544C94.6577 10.0348 93.3681 9.80258 92.0758 9.86477C90.7157 9.86149 89.3694 10.1381 88.121 10.6775C86.8726 11.2168 85.7487 12.0072 84.8195 12.9995L85.2118 11.2362C85.2499 11.1419 85.2499 11.0366 85.2118 10.9423L85.0156 10.7464H76.9749L76.6807 10.8444L76.5826 11.0403L68.9341 46.5995V46.7954L69.0322 46.8933L69.2283 47.0893H77.9555C77.9555 46.8933 78.0535 46.8933 78.1516 46.7954L80.8972 33.7668C81.5894 35.0497 82.626 36.1143 83.8905 36.8411C85.155 37.5679 86.5973 37.9281 88.0555 37.8811C95.8021 37.8811 101.391 30.6321 101.391 20.8362C101.587 17.8974 100.705 14.9586 98.9399 12.7056V12.8035ZM90.4088 27.6933C89.9956 28.3742 89.4224 28.9441 88.7389 29.3538C88.0555 29.7635 87.2823 30.0005 86.4865 30.0444C84.1331 30.0444 82.8584 28.6729 82.8584 25.7342C82.8584 20.8362 85.3098 17.1137 89.036 17.1137C90.9972 17.1137 92.0758 18.3872 92.1739 21.4239C92.1739 23.5791 91.5855 25.7342 90.4088 27.6933ZM144.145 10.9423L143.949 10.8444L143.753 10.7464H135.025L134.927 11.0403L128.063 26.224L128.357 11.2362V10.9423L128.161 10.7464H119.826C119.755 10.7629 119.689 10.7992 119.637 10.8512C119.585 10.9031 119.549 10.9687 119.532 11.0403L112.668 26.4199L112.374 11.1382V11.0403L112.276 10.8444L111.982 10.7464H103.647L103.549 10.8444L103.451 11.2362L105.608 36.6076C105.608 36.6076 105.608 36.8035 105.804 36.8035L106.098 36.9995H114.531L114.727 36.9015L114.923 36.7056L121.787 21.6199L121.395 36.5097C121.395 36.6076 121.395 36.7056 121.591 36.8035L121.787 36.9995H130.319L130.515 36.9015L130.711 36.7056L144.145 11.3342V10.9423ZM65.6001 7.6117H143.949C144.002 7.61621 144.055 7.60984 144.106 7.593C144.156 7.57616 144.203 7.54919 144.243 7.51375L144.341 7.21987L145.812 0.558644C145.839 0.496848 145.853 0.43015 145.853 0.362725C145.853 0.295301 145.839 0.228602 145.812 0.166807H145.616L145.42 0.0688477L65.6982 6.73007C65.6372 6.73744 65.5788 6.75901 65.5277 6.79304C65.4766 6.82707 65.4342 6.87261 65.404 6.92599C65.3658 7.02024 65.3658 7.12562 65.404 7.21987C65.4012 7.30885 65.4288 7.39614 65.4822 7.46736C65.5357 7.53858 65.6119 7.58949 65.6982 7.6117H65.6001Z" fill="#18181B"/>
<path d="M157.284 0.264463L156.892 0.166504H148.263L148.067 0.460381V0.754259L146.792 7.12161V7.41548L146.988 7.51344H155.715L155.911 7.21956L157.382 0.6563V0.460381L157.284 0.264463Z" fill="#3073BA"/>
</g>
</g>
</g>
<defs>
<clipPath id="clip0_0_1700">
<rect width="202" height="48" fill="white"/>
</clipPath>
</defs>
</svg>
