<svg width="305" height="48" viewBox="0 0 305 48" fill="none" xmlns="http://www.w3.org/2000/svg">
<g clip-path="url(#clip0_0_1718)">
<path d="M47.8305 19.9748C46.1915 19.9894 44.6136 19.3519 43.4434 18.2025C42.2731 17.053 41.6062 15.4854 41.5889 13.8439C41.5889 12.153 42.297 10.6148 43.4189 9.50212L38.2339 4.41848C37.358 5.26732 36.2546 5.84279 35.0579 6.07481C33.8613 6.30683 32.6231 6.18539 31.4942 5.72527C30.3652 5.26516 29.3942 4.48622 28.6994 3.48332C28.0046 2.48042 27.6159 1.29682 27.5807 0.0766602L20.2607 0.0766602C20.2607 3.45848 17.4721 6.20757 14.0191 6.20757C12.3712 6.21345 10.787 5.57097 9.6075 4.41848L4.41161 9.51302C4.98965 10.0762 5.44934 10.7495 5.76362 11.4933C6.07791 12.2371 6.24042 13.0363 6.24161 13.8439C6.24161 17.2258 3.45304 19.9748 0 19.9748V27.1748C1.63908 27.1603 3.21694 27.7977 4.38717 28.9472C5.5574 30.0967 6.22436 31.6643 6.24161 33.3058C6.24161 34.9967 5.54446 36.5348 4.41161 37.6367L9.59661 42.7312C10.4725 41.8824 11.576 41.3069 12.7726 41.0749C13.9692 40.8429 15.2074 40.9643 16.3364 41.4244C17.4653 41.8845 18.4363 42.6635 19.1312 43.6664C19.826 44.6693 20.2146 45.8529 20.2498 47.073H27.5807C27.6111 45.8506 27.997 44.6637 28.691 43.6576C29.3851 42.6516 30.3571 41.8703 31.4881 41.4094C32.619 40.9485 33.8596 40.828 35.0578 41.0628C36.2561 41.2976 37.3599 41.8774 38.2339 42.7312L43.4189 37.6367C42.8409 37.0735 42.3812 36.4002 42.0669 35.6564C41.7526 34.9126 41.5901 34.1134 41.5889 33.3058C41.5889 29.9239 44.3884 27.1748 47.8305 27.1748V19.9748ZM35.9246 30.3821L23.9207 37.2003L11.9059 30.3821V16.7676L23.9207 9.9603L35.9246 16.7676V30.4039V30.3821ZM74.6052 7.82211C79.5941 7.82211 83.1125 10.6585 84.9425 14.1603L80.6071 16.6694C78.8207 14.073 77.1759 12.8948 74.6379 12.8948C72.0127 12.8948 70.2807 14.2912 70.2807 16.3967C70.2807 18.0112 71.5661 19.2876 74.0932 20.2148L76.2391 20.9894C82.9709 23.313 85.7704 25.9858 85.7704 30.2294C85.7704 33.0658 84.6593 35.3021 82.4371 36.9276C80.1924 38.5401 77.487 39.382 74.725 39.3276C72.0018 39.3276 69.6054 38.6294 67.5139 37.233C65.5515 35.9526 64.0896 34.034 63.3746 31.8003L67.8625 29.4876C69.2459 32.5967 71.5661 34.1239 74.725 34.1239C77.7096 34.1239 79.7139 32.7276 79.7139 30.1421C79.7139 27.993 78.4286 27.1203 74.6379 25.7239L72.6771 24.9821C67.3723 23.0948 64.4857 20.7276 64.4857 16.2221C64.4857 13.6912 65.4661 11.673 67.3723 10.1458C69.4427 8.54931 72.0049 7.72742 74.6161 7.82211H74.6052ZM102.894 15.6985C105.247 15.6985 107.251 16.5276 108.95 18.2294C110.693 19.9421 111.532 22.4403 111.532 25.7567V38.8912H105.791V26.1058C105.791 22.4403 103.646 20.6403 100.792 20.6403C99.2339 20.6403 97.905 21.2076 96.8702 22.2985C95.8571 23.3894 95.2798 24.4476 95.2363 25.4621V38.8803H89.4848V7.96393H95.2254V20.6185C95.5413 19.6039 96.3909 18.5458 97.7634 17.4112C99.2121 16.2496 101.028 15.6459 102.883 15.7094L102.894 15.6985ZM115.987 7.95302H121.728V13.3312H115.987V7.95302ZM115.987 16.1348H121.728V38.8912H115.987V16.1348ZM139.374 15.6985C142.272 15.6985 144.897 16.7458 147.261 18.8512C149.613 20.9021 150.823 23.793 150.823 27.513C150.823 31.233 149.624 34.1239 147.261 36.2185C145.109 38.2011 142.298 39.3095 139.374 39.3276C135.812 39.3276 133.176 37.4512 132.25 35.6512H131.934V47.0621H126.183V16.1348H131.934V19.3748H132.25C133.187 17.5748 135.812 15.6985 139.374 15.6985ZM133.808 32.5421C135.117 33.7121 136.813 34.3536 138.568 34.3421C140.398 34.3421 141.956 33.7312 143.252 32.5421C144.581 31.3639 145.256 29.6621 145.256 27.513C145.256 25.3639 144.581 23.6621 143.252 22.4839C141.982 21.3 140.303 20.6548 138.568 20.6839C136.813 20.6725 135.117 21.3139 133.808 22.4839C132.468 23.6621 131.804 25.3639 131.804 27.513C131.804 29.6621 132.457 31.3639 133.808 32.5421ZM164.046 7.82211C169.024 7.82211 172.543 10.6585 174.373 14.1603L170.048 16.6694C168.273 14.073 166.617 12.8948 164.079 12.8948C161.454 12.8948 159.722 14.2912 159.722 16.3967C159.722 18.0112 161.007 19.2876 163.545 20.2148L165.68 20.9894C172.412 23.313 175.223 25.9858 175.223 30.2294C175.223 33.0658 174.101 35.3021 171.878 36.9276C169.634 38.5401 166.928 39.382 164.166 39.3276C161.443 39.3276 159.047 38.6294 156.955 37.233C154.993 35.9526 153.531 34.034 152.816 31.8003L157.315 29.4876C158.687 32.5967 161.018 34.1239 164.177 34.1239C167.151 34.1239 169.155 32.7276 169.155 30.1421C169.155 27.993 167.87 27.1203 164.079 25.7239L162.118 24.9821C156.824 23.0948 153.927 20.7276 153.927 16.2221C153.927 13.6912 154.907 11.673 156.824 10.1458C158.886 8.55658 161.435 7.73509 164.036 7.82211H164.046ZM190.516 16.1348V20.7712H185.571V32.0185C185.571 33.4585 186.333 34.1676 187.804 34.1676C188.566 34.1676 189.492 33.993 190.527 33.6876V38.2585C189.318 38.8367 187.891 39.1421 186.202 39.1421C182.15 39.1421 179.874 37.6585 179.874 33.2294V20.7712H176.617V16.1348H179.874V10.3094H185.571V16.1348H190.516ZM203.522 39.3276C200.586 39.3089 197.761 38.2012 195.592 36.2185C193.228 34.1239 192.074 31.233 192.074 27.513C192.074 23.8039 193.228 20.9021 195.592 18.8512C197.743 16.834 200.575 15.7042 203.522 15.6876C207.084 15.6876 209.72 17.5748 210.646 19.3748H210.973V16.1348H216.659V38.8912H210.962V35.6512H210.646C209.72 37.4512 207.084 39.3276 203.522 39.3276ZM199.601 32.5421C200.892 33.7201 202.582 34.3635 204.328 34.3421C206.147 34.3421 207.705 33.7312 209.045 32.5421C210.428 31.3639 211.093 29.6621 211.093 27.513C211.093 25.3639 210.428 23.6621 209.045 22.4839C207.756 21.3085 206.071 20.6653 204.328 20.6839C202.498 20.6839 200.941 21.2948 199.601 22.4839C198.304 23.6621 197.64 25.3639 197.64 27.513C197.64 29.6621 198.315 31.3639 199.601 32.5421ZM233.717 16.1348V20.7712H228.772V32.0185C228.772 33.4585 229.534 34.1676 230.994 34.1676C231.756 34.1676 232.693 33.993 233.717 33.6876V38.2585C232.519 38.8367 231.081 39.1421 229.393 39.1421C225.341 39.1421 223.075 37.6585 223.075 33.2294V20.7712H219.807V16.1348H223.075V10.3094H228.772V16.1348H233.706H233.717ZM236.854 7.95302H242.606V13.3312H236.854V7.95302ZM236.854 16.1348H242.606V38.8912H236.854V16.1348ZM253.793 16.4839C256.592 15.4367 259.272 15.4367 262.071 16.4839C264.882 17.4876 267.42 19.2439 268.89 22.3967C269.659 24.0079 270.058 25.7709 270.058 27.5567C270.058 29.3424 269.659 31.1055 268.89 32.7167C267.42 35.8258 264.882 37.5821 262.082 38.5858C259.411 39.593 256.464 39.593 253.793 38.5858C252.318 38.1107 250.952 37.3473 249.774 36.3399C248.596 35.3324 247.63 34.1009 246.93 32.7167C246.204 31.0936 245.829 29.3352 245.829 27.5567C245.829 25.7782 246.204 24.0197 246.93 22.3967C247.622 21.0022 248.586 19.7606 249.764 18.7451C250.943 17.7296 252.313 16.9608 253.793 16.4839ZM251.385 27.5567C251.341 28.4832 251.497 29.4084 251.843 30.2689C252.189 31.1294 252.717 31.9049 253.39 32.5421C254.629 33.6977 256.26 34.3401 257.954 34.3401C259.647 34.3401 261.278 33.6977 262.518 32.5421C263.191 31.9049 263.719 31.1294 264.064 30.2689C264.41 29.4084 264.567 28.4832 264.522 27.5567C264.522 25.4076 263.869 23.7494 262.518 22.5276C261.29 21.3413 259.649 20.6801 257.943 20.6839C256.2 20.6839 254.675 21.2948 253.346 22.5276C252.683 23.1796 252.166 23.9649 251.828 24.8318C251.49 25.6986 251.339 26.6273 251.385 27.5567ZM286.689 15.6985C289.053 15.6985 291.046 16.5276 292.746 18.2294C294.488 19.9421 295.327 22.4403 295.327 25.7567V38.8912H289.587V26.1058C289.587 22.4403 287.441 20.6403 284.598 20.6403C283.029 20.6403 281.7 21.2076 280.676 22.2985C279.652 23.3894 279.064 24.4476 279.021 25.4621V38.8803H273.28V16.1458H279.021V20.6076C279.336 19.6039 280.186 18.5458 281.569 17.4112C283.018 16.2496 284.834 15.6459 286.689 15.7094V15.6985ZM302.56 15.033C303.192 15.033 303.758 15.2621 304.248 15.7203C304.749 16.1785 305 16.7458 305 17.433C305 18.1203 304.749 18.6876 304.248 19.1458C303.877 19.5116 303.397 19.7474 302.881 19.8182C302.365 19.8889 301.84 19.7908 301.384 19.5385C301.011 19.3371 300.697 19.0443 300.469 18.6876C300.233 18.3122 300.112 17.8763 300.12 17.433C300.12 16.9748 300.229 16.5603 300.469 16.1894C300.691 15.8354 301 15.5437 301.366 15.3415C301.731 15.1393 302.142 15.0331 302.56 15.033ZM302.56 19.3312C303.061 19.3312 303.508 19.1567 303.889 18.7967C304.281 18.4367 304.477 17.9785 304.477 17.433C304.477 16.8876 304.281 16.4294 303.889 16.0803C303.508 15.7203 303.061 15.5348 302.56 15.5348C302.07 15.5348 301.612 15.7203 301.22 16.0803C300.839 16.4403 300.643 16.8876 300.643 17.433C300.643 17.9785 300.839 18.4367 301.22 18.7967C301.612 19.1567 302.059 19.3421 302.56 19.3421V19.3312ZM301.656 16.1458H302.527C303.126 16.1458 303.508 16.473 303.508 16.9421C303.508 17.3348 303.312 17.5967 302.919 17.7167L303.66 18.6658H303.192L302.506 17.7385H302.059V18.6658H301.656V16.1458ZM302.549 16.4839H302.048V17.4112H302.549C302.919 17.4112 303.105 17.2476 303.105 16.953C303.105 16.6476 302.887 16.4839 302.56 16.4839H302.549Z" fill="#013311"/>
</g>
<defs>
<clipPath id="clip0_0_1718">
<rect width="305" height="48" fill="white"/>
</clipPath>
</defs>
</svg>
