<svg width="166" height="48" viewBox="0 0 166 48" fill="none" xmlns="http://www.w3.org/2000/svg">
<g clip-path="url(#clip0_0_1658)">
<mask id="mask0_0_1658" style="mask-type:luminance" maskUnits="userSpaceOnUse" x="0" y="0" width="166" height="48">
<path d="M0 0.0688477H166V47.0893H0V0.0688477Z" fill="white"/>
</mask>
<g mask="url(#mask0_0_1658)">
<path d="M18.3262 0.568848C18.8243 0.542236 19.3219 0.633595 19.7773 0.836426C20.2327 1.03928 20.633 1.34747 20.9453 1.73486L21.1289 1.9624L21.416 1.91455C21.4862 1.90288 21.5631 1.90186 21.6982 1.90186C23.1136 1.90199 24.3393 2.64402 25.2432 4.17725L25.4199 4.49463C25.6733 4.98762 25.8815 5.50239 26.042 6.03271L26.1875 6.51318L26.667 6.36572L28.0625 5.93799C28.1259 5.91992 28.2565 5.89502 28.3848 5.8999C28.5222 5.90518 28.5651 5.9399 28.5674 5.94189L28.5742 5.94775L28.5801 5.95361L31.625 8.89307L31.7666 9.02979L31.9639 9.03271L35.3418 9.08936L40.3682 42.8823L28.5361 45.814L0.557617 40.9966L4.03223 14.2593L4.03125 14.2583C4.07368 13.9474 4.10423 13.748 4.14258 13.6011C4.17853 13.4634 4.21144 13.4154 4.23438 13.3901C4.261 13.3609 4.31829 13.315 4.47754 13.2485C4.64061 13.1805 4.86269 13.1096 5.19531 13.0073H5.19727L9.61719 11.6353L9.90918 11.5454L9.96094 11.2446C10.3552 8.98774 11.1899 6.82948 12.416 4.89209C14.1922 2.08666 16.294 0.630174 18.3145 0.568848H18.3262ZM18.3135 1.04834C16.3327 1.1099 14.5845 2.66053 13.2773 4.50146C11.9516 6.36867 10.9736 8.67951 10.5713 10.5435L10.3916 11.3774L11.207 11.1265L15.126 9.92139L15.417 9.83252L15.4707 9.53369C15.8709 7.33726 16.8513 5.28643 18.3105 3.59326C18.8247 3.04592 19.3585 2.63461 19.9092 2.34229L20.6553 1.94678L19.9482 1.48291C19.4722 1.17068 18.9175 1.04839 18.3291 1.04834H18.3135ZM20.46 2.64209C19.7089 2.94404 19.0795 3.48046 18.6562 3.94482L18.6475 3.95459C17.4387 5.35508 16.5773 7.02054 16.1338 8.81494L15.9219 9.67334L16.7666 9.4126L21.5312 7.94287L21.8779 7.83545L21.8838 7.47314C21.9037 6.22092 21.7685 4.29189 21.0977 2.89014L20.8955 2.46729L20.46 2.64209ZM21.7168 3.09521C22.1572 4.35124 22.3809 5.67287 22.377 7.00342L22.375 7.68311L23.0244 7.48193L25.2441 6.79639L25.7217 6.64893L25.5742 6.17139C25.3895 5.57282 25.0711 4.75064 24.5596 4.02686C24.048 3.30294 23.31 2.63247 22.2822 2.43799L21.4307 2.27686L21.7168 3.09521Z" fill="#18181B" stroke="#18181B"/>
<path d="M31.625 8.89209L31.7666 9.02881L31.9639 9.03271L35.1582 9.08643L35.3545 9.10498L40.3682 42.8628L29.0537 45.6665V6.41064L31.625 8.89209Z" fill="#18181B" stroke="#18181B"/>
<path d="M21.6978 14.9399L20.2539 20.308C20.2539 20.308 18.6528 19.5831 16.7571 19.7007C13.9675 19.877 13.938 21.6305 13.9675 22.0713C14.1148 24.4615 20.4503 24.9905 20.7941 30.6036C21.079 35.0215 18.4466 38.0485 14.6551 38.2836C10.1073 38.5774 7.60254 35.8934 7.60254 35.8934L8.56514 31.8085C8.56514 31.8085 11.0895 33.7089 13.1031 33.5717C13.3448 33.5669 13.583 33.5133 13.8034 33.4141C14.0237 33.3149 14.2216 33.1722 14.385 32.9945C14.5484 32.8169 14.674 32.608 14.7542 32.3806C14.8344 32.1532 14.8675 31.9119 14.8515 31.6713C14.6551 28.5366 9.49828 28.7325 9.17414 23.5897C8.89911 19.2599 11.7476 14.8713 18.034 14.4795C20.4503 14.3325 21.6978 14.9399 21.6978 14.9399Z" fill="white"/>
<path d="M152.663 18.7705C152.666 18.7943 152.668 18.8192 152.671 18.8447C152.706 19.1776 152.756 19.6549 152.816 20.2324C152.938 21.3879 153.101 22.9449 153.267 24.5498C153.599 27.7681 153.941 31.1579 153.989 31.9189L154.019 32.3867H154.938L155.052 32.042C155.833 29.6548 157.099 26.2608 158.172 23.457C158.708 22.0567 159.195 20.8058 159.548 19.9053C159.724 19.4553 159.867 19.0928 159.966 18.8428C159.976 18.8177 159.985 18.7933 159.994 18.7705H164.723L158.193 32.7256C155.756 37.7337 153.431 41.3516 150.935 43.6885H150.934C149.253 45.2646 147.294 46.1439 146.124 46.4883L144.871 42.6582C145.875 42.2858 146.827 41.7877 147.706 41.1748L147.707 41.1758C149.042 40.2693 150.14 39.0569 150.91 37.6406L150.909 37.6396C151.009 37.4581 151.084 37.2679 151.113 37.0469C151.142 36.8286 151.125 36.6088 151.079 36.375L147.82 18.7705H152.663ZM116.524 18.3203C118.419 18.3204 119.709 19.0873 120.544 20.2646C121.395 21.4651 121.8 23.1342 121.8 24.9512C121.8 28.2612 120.751 31.5414 118.921 33.9824C117.095 36.4175 114.509 37.999 111.406 37.999C110.394 37.999 109.624 37.8256 109.115 37.6572C108.861 37.5729 108.67 37.4895 108.548 37.4297C108.487 37.3999 108.442 37.3757 108.415 37.3604C108.402 37.353 108.393 37.3478 108.388 37.3447C108.387 37.3441 108.385 37.3432 108.385 37.3428H108.386L108.263 37.2646H107.573L107.497 37.6729L106.031 45.542H101.442L105.228 25.6611C105.651 23.4958 106.063 20.6649 106.316 18.6436H110.28L110.016 21.0967L109.956 21.6504H110.863L111.011 21.4209C111.011 21.4202 111.013 21.4195 111.014 21.418C111.017 21.4135 111.022 21.4058 111.029 21.3955C111.043 21.3749 111.066 21.3431 111.096 21.3018C111.156 21.2188 111.248 21.0969 111.37 20.9502C111.616 20.6563 111.982 20.2636 112.458 19.8711C113.413 19.0841 114.787 18.3203 116.524 18.3203ZM94.5811 18.3203C97.0712 18.3204 98.8275 19.2192 99.9688 20.5527C101.12 21.898 101.684 23.7305 101.684 25.6465C101.684 32.3875 97.3448 37.999 91.084 37.999C88.6868 37.999 86.8941 37.1733 85.6973 35.874C84.4947 34.5685 83.8535 32.7405 83.8535 30.6719C83.8536 24.078 88.1925 18.3203 94.5811 18.3203ZM57.7461 18.3594C59.465 18.3594 60.5923 18.5864 61.2754 18.8018C61.5271 18.8811 61.718 18.9616 61.8574 19.0264L60.8535 22.1055C60.6858 22.0445 60.4828 21.9741 60.251 21.9053C59.5804 21.7062 58.6558 21.503 57.668 21.5029C56.8082 21.5029 56.0449 21.6992 55.4824 22.1006C54.9049 22.5128 54.5645 23.1265 54.5645 23.8643C54.5645 24.4707 54.8237 24.9743 55.252 25.4131C55.6667 25.838 56.2587 26.222 56.9756 26.6143C59.143 27.8509 60.7432 29.4255 60.7432 31.5244C60.7432 33.6017 59.9085 35.1846 58.502 36.2617C57.0801 37.3505 55.0345 37.9502 52.5898 37.9502C50.9228 37.9502 49.5999 37.6202 48.6992 37.2939C48.2497 37.1311 47.9057 36.9689 47.6768 36.8496L48.7334 33.7949C48.9805 33.9061 49.305 34.0437 49.6865 34.1797C50.5667 34.4934 51.7735 34.8163 53.0312 34.8164C53.9134 34.8164 54.6485 34.5801 55.1719 34.1436C55.7012 33.7021 55.9775 33.0845 55.9775 32.416C55.9775 31.7871 55.7761 31.2448 55.332 30.7354C54.9609 30.3096 54.4247 29.9121 53.7197 29.4902L53.4072 29.3076C51.344 28.1263 49.9561 26.5536 49.9561 24.5889C49.9561 21.0275 53.0306 18.3595 57.7461 18.3594ZM145.638 9.60156C146.629 9.60156 147.351 9.71898 147.815 9.83203C147.919 9.85715 148.01 9.88286 148.088 9.90625L147.222 13.3535C147.204 13.3495 147.186 13.3439 147.168 13.3398C146.821 13.2635 146.337 13.1865 145.795 13.1865C143.559 13.1867 142.317 15.2154 141.966 17.1885L141.77 18.1289L141.644 18.7314H145.566L144.967 21.9434H141.108L141.031 22.3506L138.142 37.5879H133.551L136.405 22.5371L136.518 21.9434H133.917L134.539 18.7314H137.148L137.222 18.3184L137.388 17.3838C137.82 15.0828 138.682 12.8621 140.462 11.3428C141.864 10.1446 143.723 9.60162 145.638 9.60156ZM131.29 18.7705L127.652 37.5879H123.062L126.652 18.7705H131.29ZM72.8379 10.0127L70.791 20.6445L70.7158 21.0352L71.0791 21.1963L71.168 21.2354L71.5107 21.3877L71.7529 21.1006C73.1846 19.4022 74.9987 18.3204 77.3027 18.3203H77.6221C78.8072 18.386 79.702 18.8093 80.3174 19.4951C80.995 20.2506 81.3896 21.3865 81.3896 22.8848C81.3896 23.813 81.2281 25.2384 80.9873 26.4297L80.9863 26.4346L78.8633 37.5781H74.2822L76.2793 26.9902L76.2803 26.9912C76.4447 26.1917 76.5361 25.2269 76.5361 24.4121C76.5361 23.7542 76.4035 23.1131 76.0293 22.627C75.6372 22.1176 75.0396 21.8555 74.2871 21.8555C73.1772 21.8556 72.122 22.5516 71.2783 23.6426C70.4266 24.7441 69.7373 26.3096 69.3574 28.2139L69.3564 28.2178L67.5674 37.5781H62.9775L68.2471 10.0127H72.8379ZM114.206 21.9434C113.024 21.9434 111.948 22.6442 111.109 23.7295C110.267 24.8201 109.619 26.3489 109.284 28.1514V28.1553L108.351 33.376L108.303 33.6426L108.5 33.8281H108.501V33.8291H108.502L108.503 33.8311C108.504 33.8322 108.506 33.8334 108.508 33.835C108.511 33.838 108.515 33.8421 108.521 33.8467C108.531 33.8557 108.545 33.8675 108.562 33.8818C108.596 33.9105 108.644 33.9492 108.705 33.9941C108.827 34.0839 109.004 34.2 109.229 34.3154C109.682 34.5466 110.339 34.7773 111.161 34.7773C113.014 34.7773 114.463 33.2675 115.415 31.4902C116.384 29.6817 116.945 27.4111 116.945 25.5195C116.945 24.7249 116.807 23.8541 116.396 23.1641C115.967 22.442 115.249 21.9434 114.206 21.9434ZM93.8047 21.6201C91.9671 21.6201 90.6648 23.1864 89.8525 24.9248C89.0221 26.7022 88.5898 28.8833 88.5898 30.5547C88.5899 31.6241 88.8028 32.646 89.3203 33.416C89.8554 34.2121 90.6918 34.6982 91.8105 34.6982C93.6175 34.6982 94.8984 33.11 95.6973 31.3379C96.5166 29.5203 96.9472 27.2702 96.9473 25.4805C96.9473 24.6004 96.7767 23.6519 96.293 22.9072C95.7899 22.1329 94.9717 21.6201 93.8047 21.6201ZM62.1572 19.1865H62.1562H62.1572ZM127.593 13.0234C127.588 12.6665 127.656 12.3124 127.79 11.9814C127.924 11.6504 128.123 11.3485 128.375 11.0947C128.627 10.841 128.928 10.6399 129.259 10.5029C129.59 10.3659 129.945 10.2958 130.304 10.2969H130.305C131.041 10.2969 131.61 10.5475 131.994 10.9385C132.378 11.3294 132.612 11.8958 132.613 12.5908C132.591 13.4909 132.256 14.166 131.764 14.6182C131.265 15.0755 130.577 15.3311 129.813 15.3311H129.745C129.074 15.331 128.547 15.0945 128.187 14.7119C127.823 14.3266 127.593 13.7553 127.593 13.0293V13.0234Z" fill="#18181B" stroke="#18181B"/>
</g>
</g>
<defs>
<clipPath id="clip0_0_1658">
<rect width="166" height="48" fill="white"/>
</clipPath>
</defs>
</svg>
