<svg width="186" height="48" viewBox="0 0 186 48" fill="none" xmlns="http://www.w3.org/2000/svg">
<g clip-path="url(#clip0_0_1486)">
<path d="M109.033 13.9502C112.253 13.9502 115.225 15.4205 116.398 17.3701L117.327 18.9121V14.4863H124.167V39.8359H117.327V35.4258L116.398 36.9678C115.225 38.9161 112.255 40.3721 109.033 40.3721C102.49 40.372 97.2355 34.5383 97.2354 27.1309C97.2354 19.7412 102.488 13.9502 109.033 13.9502ZM139.312 14.3154C142.155 13.5754 145.164 13.8008 147.864 14.9561C150.41 16.0454 152.543 17.9033 153.968 20.2607L148.558 23.2607C147.79 22.1135 146.7 21.2126 145.418 20.6758C143.983 20.075 142.39 19.9628 140.885 20.3574C139.38 20.7521 138.048 21.6314 137.096 22.8584C136.144 24.0852 135.624 25.5912 135.618 27.1426C135.609 28.7019 136.122 30.2197 137.073 31.457C138.025 32.6943 139.362 33.581 140.874 33.9775C142.386 34.374 143.987 34.2584 145.426 33.6484C146.711 33.1035 147.8 32.1909 148.562 31.0322L153.965 34.0273C152.526 36.3607 150.392 38.1945 147.854 39.2676C145.161 40.4062 142.166 40.6245 139.335 39.8877C136.504 39.1508 133.999 37.5006 132.209 35.1953C130.419 32.89 129.445 30.059 129.439 27.1445V27.1426L129.447 26.5947C129.543 23.8612 130.491 21.2199 132.167 19.042C133.955 16.7189 136.469 15.0556 139.312 14.3154ZM165.963 2.52246V25.917L166.846 24.8623L175.55 14.4717H183.832L173.57 26.3594L173.287 26.6875L173.571 27.0137L184.688 39.8203H175.985L166.852 28.5322L165.963 27.4336V39.8203H159.123V2.52246H165.963ZM92.1777 2.52246V39.8203H85.3379V2.52246H92.1777ZM74.0547 32.7471C74.0467 32.0807 73.722 31.5725 73.2373 31.1943C72.7717 30.8311 72.1429 30.5721 71.457 30.3604C70.7648 30.1467 69.9644 29.9668 69.1318 29.7842C68.2924 29.6 67.4137 29.4117 66.5352 29.1787C64.7709 28.7107 63.0749 28.078 61.8164 27.0078C60.5821 25.9581 59.7382 24.4619 59.7129 22.1768C59.6708 17.6069 63.7494 13.9502 69.8047 13.9502C73.2882 13.9503 76.7459 14.7746 79.2383 16.6074L77.4912 21.0674C75.0819 19.5973 72.3283 18.772 69.498 18.6797H69.4814C68.4396 18.6797 67.5293 18.9264 66.8633 19.3711C66.1922 19.8192 65.753 20.4859 65.7529 21.2783V21.2871C65.7637 21.9461 66.0932 22.4573 66.5713 22.8486C67.035 23.2281 67.6635 23.5179 68.3545 23.7656C69.0514 24.0154 69.8568 24.2378 70.6973 24.4639C71.5443 24.6917 72.4319 24.9241 73.3203 25.1992C75.1032 25.7513 76.825 26.456 78.1084 27.5566C79.2911 28.5711 80.1169 29.9336 80.248 31.8877L80.2646 32.2871C80.262 34.649 79.2568 36.6506 77.5303 38.0713C75.7948 39.4993 73.3072 40.3564 70.3418 40.3564C66.0605 40.3564 62.1684 39.3769 59.1387 37.3594L61.001 33.0312C63.5813 34.7101 66.6061 35.5931 69.6963 35.5645V35.5654L69.6973 35.5645C69.6986 35.5644 69.6999 35.5654 69.7012 35.5654L69.7002 35.5645C70.938 35.564 72.0009 35.3266 72.7725 34.8604C73.5595 34.3847 74.0546 33.6586 74.0547 32.7529V32.7471ZM117.327 23.8535L117.258 23.7363C116.029 21.6513 113.512 20.1201 110.693 20.1201C108.938 20.1201 107.249 20.7713 105.953 21.9404L105.699 22.1816C104.374 23.502 103.63 25.2931 103.63 27.1611C103.63 29.0291 104.374 30.8203 105.699 32.1406C107.023 33.4595 108.817 34.1996 110.688 34.2012V34.2021C110.689 34.2022 110.691 34.2012 110.692 34.2012L110.693 34.2021V34.2012C111.99 34.2153 113.271 33.9048 114.415 33.2959C115.561 32.6862 116.535 31.7982 117.245 30.7139L117.327 30.5889V23.8535Z" fill="#18181B" stroke="#18181B"/>
<path d="M17.0932 1.18018C15.8701 1.18018 14.6972 1.66437 13.8323 2.52624C12.9675 3.38811 12.4816 4.55705 12.4816 5.77592C12.4816 6.99479 12.9675 8.16373 13.8323 9.0256C14.6972 9.88747 15.8701 10.3717 17.0932 10.3717H21.7048V5.77592C21.7048 4.55705 21.2189 3.38811 20.3541 2.52624C19.4892 1.66437 18.3163 1.18018 17.0932 1.18018ZM17.0932 13.4355H4.82641C3.60335 13.4355 2.43038 13.9197 1.56554 14.7816C0.700704 15.6434 0.214844 16.8124 0.214844 18.0312C0.214844 19.2501 0.700704 20.4191 1.56554 21.2809C2.43038 22.1428 3.60335 22.627 4.82641 22.627H17.0932C18.3163 22.627 19.4892 22.1428 20.3541 21.2809C21.2189 20.4191 21.7048 19.2501 21.7048 18.0312C21.7048 16.8124 21.2189 15.6434 20.3541 14.7816C19.4892 13.9197 18.3163 13.4355 17.0932 13.4355Z" fill="#36C5F0"/>
<path d="M46.2391 18.0318C46.2911 17.3988 46.2108 16.7619 46.0034 16.1614C45.7961 15.5608 45.466 15.0096 45.0341 14.5426C44.6023 14.0755 44.078 13.7027 43.4943 13.4478C42.9106 13.1928 42.2802 13.0611 41.6429 13.0611C41.0056 13.0611 40.3752 13.1928 39.7915 13.4478C39.2078 13.7027 38.6835 14.0755 38.2516 14.5426C37.8197 15.0096 37.4897 15.5608 37.2823 16.1614C37.0749 16.7619 36.9947 17.3988 37.0467 18.0318V22.6276H41.6429C42.8659 22.6276 44.0389 22.1434 44.9037 21.2815C45.7686 20.4196 46.2544 19.2507 46.2544 18.0318H46.2391ZM33.9723 18.0318V5.7765C34.0085 5.15168 33.9163 4.52607 33.7014 3.93803C33.4864 3.34998 33.1531 2.8119 32.7221 2.35676C32.291 1.90162 31.7712 1.53902 31.1945 1.29119C30.6178 1.04336 29.9964 0.915527 29.3684 0.915527C28.7404 0.915527 28.119 1.04336 27.5423 1.29119C26.9656 1.53902 26.4458 1.90162 26.0148 2.35676C25.5837 2.8119 25.2504 3.34998 25.0355 3.93803C24.8205 4.52607 24.7283 5.15168 24.7645 5.7765V18.0318C24.7283 18.6566 24.8205 19.2822 25.0355 19.8703C25.2504 20.4583 25.5837 20.9964 26.0148 21.4516C26.4458 21.9067 26.9656 22.2693 27.5423 22.5171C28.119 22.765 28.7404 22.8928 29.3684 22.8928C29.9964 22.8928 30.6178 22.765 31.1945 22.5171C31.7712 22.2693 32.291 21.9067 32.7221 21.4516C33.1531 20.9964 33.4864 20.4583 33.7014 19.8703C33.9163 19.2822 34.0085 18.6566 33.9723 18.0318Z" fill="#2EB67D"/>
<path d="M29.3606 47.1377C30.5837 47.1377 31.7566 46.6535 32.6215 45.7917C33.4863 44.9298 33.9722 43.7608 33.9722 42.542C33.9722 41.3231 33.4863 40.1542 32.6215 39.2923C31.7566 38.4304 30.5837 37.9462 29.3606 37.9462H24.7644V42.542C24.7644 43.7608 25.2503 44.9298 26.1151 45.7917C26.9799 46.6535 28.1529 47.1377 29.376 47.1377H29.3606ZM29.3606 34.8824H41.6427C42.8658 34.8824 44.0388 34.3982 44.9036 33.5363C45.7685 32.6745 46.2543 31.5055 46.2543 30.2867C46.2543 29.0678 45.7685 27.8988 44.9036 27.037C44.0388 26.1751 42.8658 25.6909 41.6427 25.6909H29.3606C28.1375 25.6909 26.9646 26.1751 26.0997 27.037C25.2349 27.8988 24.749 29.0678 24.749 30.2867C24.749 31.5055 25.2349 32.6745 26.0997 33.5363C26.9646 34.3982 28.1375 34.8824 29.3606 34.8824Z" fill="#ECB22E"/>
<path d="M0.214844 30.2866C0.214844 30.8901 0.334126 31.4877 0.565879 32.0453C0.797632 32.6029 1.13732 33.1095 1.56554 33.5363C1.99377 33.963 2.50214 34.3015 3.06164 34.5325C3.62114 34.7635 4.22081 34.8823 4.82641 34.8823C5.43201 34.8823 6.03168 34.7635 6.59119 34.5325C7.15069 34.3015 7.65906 33.963 8.08729 33.5363C8.51551 33.1095 8.8552 32.6029 9.08695 32.0453C9.3187 31.4877 9.43798 30.8901 9.43798 30.2866V25.6908H4.82641C3.60335 25.6908 2.43038 26.175 1.56554 27.0369C0.700704 27.8988 0.214844 29.0677 0.214844 30.2866ZM12.497 30.2866V42.5419C12.445 43.1749 12.5252 43.8118 12.7326 44.4123C12.94 45.0129 13.27 45.5641 13.7019 46.0311C14.1338 46.4982 14.6581 46.871 15.2418 47.126C15.8255 47.3809 16.4559 47.5126 17.0932 47.5126C17.7305 47.5126 18.3609 47.3809 18.9446 47.126C19.5283 46.871 20.0526 46.4982 20.4845 46.0311C20.9163 45.5641 21.2464 45.0129 21.4538 44.4123C21.6612 43.8118 21.7414 43.1749 21.6894 42.5419V30.2866C21.7414 29.6536 21.6612 29.0167 21.4538 28.4162C21.2464 27.8156 20.9163 27.2644 20.4845 26.7974C20.0526 26.3303 19.5283 25.9575 18.9446 25.7025C18.3609 25.4476 17.7305 25.3159 17.0932 25.3159C16.4559 25.3159 15.8255 25.4476 15.2418 25.7025C14.6581 25.9575 14.1338 26.3303 13.7019 26.7974C13.27 27.2644 12.94 27.8156 12.7326 28.4162C12.5252 29.0167 12.445 29.6536 12.497 30.2866Z" fill="#E01E5A"/>
</g>
<defs>
<clipPath id="clip0_0_1486">
<rect width="186" height="48" fill="white"/>
</clipPath>
</defs>
</svg>
