<svg width="309" height="48" viewBox="0 0 309 48" fill="none" xmlns="http://www.w3.org/2000/svg">
<g clip-path="url(#clip0_0_1444)">
<path d="M68.4814 21.2837C67.8754 20.5654 67.1179 19.9907 66.2846 19.4879C65.3755 18.9851 64.315 18.7696 63.1029 18.7696C61.8909 18.7696 60.9061 18.9851 59.997 19.4879C59.5876 19.6735 59.2461 19.9711 59.0165 20.3423C58.787 20.7136 58.68 21.1415 58.7092 21.571C58.7092 22.2893 58.9365 22.9358 59.4668 23.3668C59.997 23.7978 60.5273 24.2288 61.2849 24.4443C61.9666 24.7316 62.7242 24.9471 63.4817 25.0908L65.527 25.4499C66.5876 25.6654 67.6481 26.0246 68.5572 26.3837C69.4482 26.6908 70.2704 27.1538 70.9813 27.7485C71.6631 28.3232 72.1934 28.9697 72.5721 29.8317C72.9509 30.6218 73.1781 31.6275 73.1781 32.7768C73.1781 34.2134 72.8751 35.3627 72.1934 36.3684C71.6369 37.3968 70.7998 38.265 69.7692 38.8825C68.7341 39.5376 67.5774 40.0007 66.3603 40.2473C63.1704 40.973 59.8262 40.7983 56.7396 39.7445C55.0731 39.098 53.6337 37.9487 52.2702 36.2247L56.0579 33.2796C56.8911 34.0698 57.8002 34.7162 58.785 35.3627C59.7698 36.0092 60.9818 36.2965 62.4969 36.2965C63.1029 36.2965 63.7847 36.2247 64.3907 36.081C65.0725 35.9374 65.6028 35.7937 66.1331 35.5064C66.6634 35.2191 67.0421 34.9317 67.3451 34.5007C67.6481 34.0698 67.7997 33.6388 67.7997 33.0641C67.7997 32.3458 67.5724 31.7711 67.1179 31.3401C66.6247 30.9011 66.0624 30.5376 65.4513 30.2627L63.406 29.6162L61.5121 29.1852C59.5271 28.7767 57.6309 28.0478 55.9064 27.0302C55.0803 26.4564 54.4188 25.6958 53.9822 24.8175C53.5455 23.9393 53.3476 22.9713 53.4065 22.002C53.4065 20.709 53.7095 19.5597 54.2398 18.6259C54.8102 17.671 55.5842 16.8392 56.5124 16.1836C57.4972 15.5371 58.5577 15.1061 59.7698 14.747C62.6652 13.9378 65.7652 14.0898 68.5572 15.178C70.2238 15.8244 71.5116 16.9019 72.4964 18.3386L68.4814 21.2837ZM75.4508 15.0343H80.1475V18.9132H80.2232C80.299 18.5541 80.602 18.1231 81.0565 17.6202C81.511 17.1174 82.1171 16.6146 82.8746 16.1118C83.6321 15.609 84.4654 15.2498 85.4502 14.8906C86.435 14.5315 87.4956 14.3878 88.7076 14.3878C90.6772 14.3878 92.3438 14.747 93.7074 15.5371C95.0709 16.3273 96.1315 17.4766 96.9647 19.0569C97.798 17.4766 99.0101 16.3273 100.601 15.5371C102.192 14.747 103.707 14.3878 105.373 14.3878C107.419 14.3878 109.085 14.6751 110.373 15.3216C111.661 15.9681 112.721 16.7583 113.403 17.8357C114.161 18.8414 114.691 20.0625 114.918 21.3555C115.221 22.6485 115.373 24.0133 115.373 25.4499V40.0318H110.373V26.0964C110.373 25.1626 110.297 24.2288 110.146 23.3668C110.042 22.5535 109.758 21.7702 109.313 21.0682C108.912 20.3874 108.305 19.8367 107.57 19.4879C106.813 19.0569 105.828 18.9132 104.616 18.9132C102.192 18.9132 100.449 19.6315 99.4646 20.9963C98.4041 22.433 97.8738 24.2288 97.8738 26.4556V40.1755H92.8741V27.0302C92.8741 25.8091 92.7983 24.7316 92.6468 23.726C92.4953 22.7203 92.268 21.8583 91.8893 21.14C91.5105 20.4217 90.9045 19.847 90.2227 19.416C89.4651 18.9851 88.5561 18.8414 87.2683 18.8414C86.3813 18.8282 85.5021 18.9999 84.6927 19.3442C83.8569 19.6953 83.1084 20.2093 82.4958 20.8527C81.8898 21.4992 81.3595 22.3612 80.9808 23.4386C80.602 24.4443 80.4505 25.7372 80.4505 27.1021V40.1036H75.4508V15.0343ZM119.161 18.0512C121.26 16.3298 123.791 15.1484 126.51 14.6201C129.229 14.0919 132.046 14.2345 134.69 15.0343C135.872 15.3863 136.963 15.9715 137.89 16.7515C138.817 17.5314 139.559 18.4884 140.068 19.5597C140.523 20.5654 140.675 21.6428 140.675 22.7203V35.5064C140.612 37.0182 140.688 38.5324 140.902 40.0318H136.432L136.281 36.2247H136.205C135.273 37.7124 133.904 38.9106 132.266 39.6726C129.493 40.8261 126.377 41.0044 123.478 40.1755C122.415 39.8586 121.416 39.3728 120.524 38.7388C119.691 38.0923 119.009 37.3022 118.555 36.3684C118.1 35.4346 117.797 34.3571 117.797 33.1359C117.797 31.4838 118.176 30.1908 118.933 29.0415C119.691 27.964 120.751 27.0302 122.039 26.3837C123.327 25.6654 124.918 25.2344 126.66 24.8753C128.402 24.5879 130.296 24.4443 132.342 24.4443H136.054V23.3668C136.054 22.0082 135.513 20.6997 134.538 19.7034C133.987 19.1616 133.314 18.7443 132.569 18.4822C131.811 18.1949 130.827 18.0512 129.766 18.0512C128.781 18.0512 127.948 18.1231 127.266 18.3386C126.509 18.4822 125.903 18.7696 125.297 18.9851C124.691 19.2724 124.16 19.5597 123.706 19.9189L122.342 20.9245L119.161 18.0512ZM133.326 28.0359C130.947 28.0748 128.581 28.3884 126.281 28.9697C125.326 29.263 124.466 29.7822 123.781 30.4782C123.1 31.1246 122.797 31.9148 122.797 32.9204C122.797 34.3571 123.327 35.4346 124.312 36.0092C125.297 36.6557 126.736 36.943 128.478 36.943C129.842 36.943 131.054 36.7275 131.963 36.2965C132.88 35.9079 133.685 35.3168 134.311 34.5726C134.917 33.8543 135.296 33.0641 135.599 32.2021C135.826 31.3401 135.978 30.4782 135.978 29.6162V28.0359H133.326ZM200.368 21.2837C199.762 20.5654 199.005 19.9907 198.171 19.4879C197.262 18.9851 196.202 18.7696 194.99 18.7696C193.778 18.7696 192.793 18.9851 191.884 19.4879C191.474 19.6735 191.133 19.9711 190.903 20.3423C190.674 20.7136 190.567 21.1415 190.596 21.571C190.596 22.2893 190.823 22.9358 191.354 23.3668C191.884 23.7978 192.414 24.2288 193.172 24.4443C193.853 24.7316 194.611 24.9471 195.369 25.0908L197.414 25.4499C198.474 25.6654 199.535 26.0246 200.444 26.3837C201.335 26.6908 202.157 27.1538 202.868 27.7485C203.55 28.3232 204.08 28.9697 204.459 29.8317C204.838 30.6218 205.065 31.6275 205.065 32.7768C205.065 34.2134 204.762 35.3627 204.08 36.3684C203.474 37.374 202.641 38.1642 201.656 38.8107C200.621 39.4658 199.464 39.9289 198.247 40.1755C195.057 40.9012 191.713 40.7264 188.626 39.6726C186.96 39.0261 185.521 37.8768 184.157 36.1529L187.945 33.2078C188.778 33.9979 189.687 34.6444 190.672 35.2909C191.657 35.8655 192.869 36.2247 194.384 36.2247C194.99 36.2247 195.672 36.1529 196.278 36.0092C196.959 35.8655 197.49 35.7219 198.02 35.4346C198.55 35.1472 198.929 34.8599 199.232 34.4289C199.535 33.9979 199.686 33.5669 199.686 32.9923C199.686 32.274 199.459 31.6993 199.005 31.2683C198.526 30.8127 197.96 30.4471 197.338 30.1908L195.293 29.5443L193.399 29.1133C192.338 28.8979 191.278 28.6105 190.293 28.2514C188.437 27.7234 186.864 26.5409 185.899 24.9471C185.41 24.0113 185.175 22.974 185.218 21.9302C185.218 20.6372 185.521 19.4879 186.051 18.5541C186.621 17.5991 187.395 16.7674 188.323 16.1118C189.308 15.4653 190.369 15.0343 191.581 14.6751C194.476 13.866 197.576 14.018 200.368 15.1061C202.035 15.7526 203.323 16.8301 204.307 18.2667L200.368 21.2837ZM207.489 0.0932617H212.489V18.8414H212.565C213.232 17.4444 214.381 16.3044 215.822 15.609C217.413 14.747 219.155 14.3878 221.2 14.3878C222.488 14.3878 223.7 14.6033 224.837 14.9625C225.973 15.3216 227.033 15.8963 227.867 16.6864C228.776 17.4766 229.458 18.4822 229.988 19.7034C230.518 20.9245 230.745 22.3612 230.745 24.0133V40.1755H225.746V25.2344C225.746 24.0851 225.594 23.0795 225.215 22.2175C224.912 21.3555 224.458 20.709 223.852 20.2062C223.316 19.7137 222.668 19.3449 221.958 19.1287C221.2 18.9132 220.443 18.7696 219.685 18.7696C218.625 18.7696 217.64 18.9132 216.807 19.2724C215.897 19.57 215.087 20.0904 214.458 20.7808C213.777 21.4992 213.246 22.3612 212.868 23.3668C212.489 24.4443 212.337 25.6654 212.337 27.1021V40.0318H207.338L207.489 0.0932617ZM238.851 29.257C238.851 30.3345 239.078 31.3401 239.609 32.274C240.139 33.2078 240.745 33.9261 241.578 34.5726C243.345 35.8969 245.538 36.6067 247.79 36.5839C249.381 36.5839 250.744 36.2247 251.881 35.5782C253.017 34.8599 254.077 33.9979 255.062 32.8486L258.85 35.5782C257.476 37.2681 255.689 38.6155 253.644 39.504C251.598 40.3926 249.355 40.7956 247.108 40.6783C245.063 40.6783 243.169 40.3191 241.427 39.6726C239.76 39.0261 238.321 38.0923 237.109 36.8712C234.655 34.2962 233.327 30.9313 233.397 27.4612C233.397 25.5936 233.776 23.8696 234.457 22.2175C235.468 19.8312 237.219 17.7917 239.477 16.3682C241.736 14.9447 244.396 14.2041 247.108 14.2441C249.457 14.2441 251.426 14.6033 253.017 15.3935C254.553 16.1034 255.91 17.1189 256.995 18.3709C258.08 19.6229 258.868 21.0818 259.304 22.6485C259.759 24.2288 259.986 25.8091 259.986 27.4612V29.1852L238.851 29.257ZM254.684 25.4499C254.684 24.3724 254.456 23.4386 254.153 22.5766C253.859 21.7155 253.367 20.9272 252.711 20.2687C252.056 19.6103 251.255 19.0982 250.366 18.7696C248.192 17.9731 245.778 17.9988 243.624 18.8414C242.641 19.2285 241.762 19.8173 241.048 20.5654C240.366 21.2837 239.76 22.0738 239.381 22.9358C239.001 23.7514 238.795 24.6303 238.775 25.5218L254.684 25.4499ZM268.168 29.257C268.168 30.3345 268.395 31.3401 268.925 32.274C269.455 33.2078 270.061 33.9261 270.895 34.5726C272.662 35.8969 274.854 36.6067 277.107 36.5839C278.697 36.5839 280.061 36.2247 281.197 35.5782C282.334 34.8599 283.394 33.9979 284.379 32.8486L288.167 35.5782C286.793 37.2681 285.006 38.6155 282.96 39.504C280.915 40.3926 278.671 40.7956 276.425 40.6783C274.379 40.6783 272.486 40.3191 270.743 39.6726C269.077 39.0261 267.637 38.0923 266.425 36.8712C263.971 34.2962 262.644 30.9313 262.713 27.4612C262.713 25.5936 263.092 23.8696 263.774 22.2175C264.785 19.8312 266.535 17.7917 268.794 16.3682C271.052 14.9447 273.713 14.2041 276.425 14.2441C278.773 14.2441 280.743 14.6033 282.334 15.3935C283.87 16.1034 285.227 17.1189 286.312 18.3709C287.397 19.6229 288.184 21.0818 288.621 22.6485C289.076 24.2288 289.303 25.8091 289.303 27.4612V29.1852L268.168 29.257ZM284 25.4499C284 24.3724 283.773 23.4386 283.47 22.5766C283.176 21.7155 282.683 20.9272 282.028 20.2687C281.373 19.6103 280.572 19.0982 279.682 18.7696C277.508 17.9731 275.095 17.9988 272.94 18.8414C271.955 19.2724 271.046 19.847 270.365 20.5654C269.683 21.2837 269.077 22.0738 268.698 22.9358C268.319 23.7978 268.092 24.6598 268.092 25.5218L284 25.4499ZM160.219 15.1061C160.219 15.1061 157.265 14.747 155.674 14.8188C153.78 14.9625 153.098 15.2498 152.038 15.7526C150.661 16.5286 149.535 17.6463 148.78 18.9851H148.704V15.1061H143.705V40.1755H148.704C148.704 40.1755 148.553 29.8317 148.704 27.3176C148.856 24.8034 149.31 22.1457 150.674 20.9245C152.113 19.7034 152.719 19.416 154.462 19.2005C156.052 18.9851 158.249 19.2005 158.249 19.2005L160.219 15.1061ZM178.703 36.081L176.885 36.2247C175.9 36.2247 175.218 36.081 174.688 35.7219C174.19 35.3989 173.797 34.9513 173.552 34.4289C173.313 33.8284 173.16 33.2003 173.097 32.5613L173.021 30.4782V19.1287H180.218V15.0343H173.021V7.99477H168.022V15.0343H162.946L161.052 19.1287H168.022V32.2021L168.173 35.2191C168.216 36.2142 168.541 37.1799 169.114 38.0144C169.687 38.8488 170.488 39.521 171.43 39.96C172.491 40.4628 174.006 40.7501 175.9 40.7501C177.454 40.6988 178.989 40.4077 180.445 39.8881V35.5782C179.915 35.7937 179.385 36.0092 178.703 36.081ZM307.029 36.081L305.211 36.2247C304.226 36.2247 303.545 36.081 303.014 35.7219C302.517 35.3989 302.123 34.9513 301.878 34.4289C301.639 33.8284 301.486 33.2003 301.423 32.5613L301.348 30.4782V19.1287H308.544V15.0343H301.348V7.99477H296.348V15.0343H291.272L289.379 19.1287H296.348V32.2021L296.499 35.2191C296.542 36.2142 296.867 37.1799 297.44 38.0144C298.014 38.8488 298.814 39.521 299.757 39.96C300.817 40.4628 302.332 40.7501 304.226 40.7501C305.781 40.6988 307.316 40.4077 308.772 39.8881V35.5782C308.165 35.7937 307.635 36.0092 307.029 36.081ZM6.66659 24.2288C6.66659 24.2288 8.48467 21.8583 10.833 21.7865C14.5449 21.7147 17.4993 27.964 17.9539 28.8979C21.9447 21.0399 27.4714 13.9712 34.2409 8.0666H0.68206V43.7671C0.68206 45.7065 0.379046 47.1432 0.227539 47.7178C1.74261 47.5023 7.34837 46.5685 13.1056 44.629C23.3324 41.1811 27.2715 37.4459 27.3473 37.4459L27.5745 37.2304L27.7261 37.5177C27.7261 37.5177 29.0139 40.1755 30.3017 41.6121C31.741 43.1924 32.4985 43.3361 32.953 43.2642C33.5591 43.1206 33.9378 42.1868 34.0893 40.7501C34.2409 39.3135 34.3924 36.081 34.3924 32.1303V10.868C24.4687 22.3612 17.1963 39.6008 17.1963 39.6008C17.1963 39.6008 12.4239 24.1569 6.66659 24.2288Z" fill="#0E2947"/>
</g>
<defs>
<clipPath id="clip0_0_1444">
<rect width="309" height="48" fill="white"/>
</clipPath>
</defs>
</svg>
