<svg width="208" height="48" viewBox="0 0 208 48" fill="none" xmlns="http://www.w3.org/2000/svg">
<g clip-path="url(#clip0_0_1393)">
<mask id="mask0_0_1393" style="mask-type:luminance" maskUnits="userSpaceOnUse" x="0" y="0" width="208" height="48">
<path d="M0 0.0688477H207.765V47.0893H0V0.0688477Z" fill="white"/>
</mask>
<g mask="url(#mask0_0_1393)">
<path fill-rule="evenodd" clip-rule="evenodd" d="M204.959 13.9494H204.419V14.6351H204.969C205.214 14.6351 205.391 14.5175 205.391 14.2922C205.391 14.0669 205.234 13.9494 204.969 13.9494H204.959ZM203.742 13.3322H204.978C205.665 13.3322 206.097 13.7045 206.097 14.2727C206.1 14.4306 206.06 14.5864 205.982 14.7241C205.905 14.8618 205.792 14.9765 205.655 15.0563L206.146 15.742V15.889H205.44L204.969 15.2033H204.419V15.889H203.732L203.742 13.342V13.3322ZM207.196 14.6645C207.196 13.3127 206.274 12.2645 204.871 12.2645C203.468 12.2645 202.585 13.2441 202.585 14.6645C202.585 16.0163 203.497 17.0645 204.871 17.0645C206.244 17.0645 207.196 16.0261 207.196 14.6645ZM207.765 14.6645C207.765 16.271 206.686 17.6033 204.871 17.6033C203.065 17.6033 202.015 16.2514 202.015 14.6645C202.015 13.0678 203.085 11.7159 204.871 11.7159C206.666 11.7159 207.755 13.058 207.755 14.6547H207.765V14.6645ZM45.6819 20.3755L40.0796 23.5788L45.6721 26.782C46.0173 26.9686 46.3216 27.2225 46.5667 27.5286C46.8119 27.8347 46.9931 28.1868 47.0995 28.5641C47.2059 28.9414 47.2353 29.3362 47.1861 29.725C47.1369 30.1139 47.0101 30.4889 46.813 30.8279C46.616 31.167 46.3528 31.463 46.0391 31.6987C45.7254 31.9343 45.3675 32.1046 44.9866 32.1996C44.6057 32.2946 44.2096 32.3123 43.8218 32.2516C43.4339 32.191 43.0622 32.0532 42.7287 31.8465L32.7211 26.0963C32.2766 25.8427 31.9071 25.4763 31.6502 25.0342C31.3932 24.592 31.2578 24.0899 31.2578 23.5788C31.2578 23.0676 31.3932 22.5655 31.6502 22.1234C31.9071 21.6813 32.2766 21.3148 32.7211 21.0612L42.7287 15.3306C43.4063 14.9457 44.2086 14.843 44.9616 15.0447C45.7146 15.2464 46.3577 15.7363 46.7513 16.4082C46.9457 16.7407 47.0719 17.1085 47.1229 17.4902C47.1738 17.8719 47.1483 18.2598 47.0479 18.6316C46.9475 19.0034 46.7742 19.3516 46.538 19.656C46.3019 19.9604 46.0075 20.2149 45.6721 20.4049V20.3755H45.6819ZM40.3838 35.902L30.3959 30.1812C29.9494 29.9216 29.4425 29.7838 28.9259 29.7818C28.4092 29.7798 27.9012 29.9136 27.4528 30.1697C27.0043 30.4258 26.6313 30.7953 26.3712 31.2409C26.1111 31.6866 25.9731 32.1928 25.9709 32.7086V44.1698C25.9696 44.5552 26.045 44.937 26.1927 45.293C26.3404 45.6491 26.5575 45.9723 26.8313 46.2439C27.1052 46.5154 27.4303 46.73 27.7879 46.8751C28.1455 47.0202 28.5284 47.0929 28.9143 47.089C29.6916 47.089 30.4373 46.7821 30.9887 46.2352C31.5402 45.6883 31.8526 44.9458 31.8577 44.1698V37.7437L37.46 40.9763C37.8794 41.2166 38.3514 41.3504 38.8347 41.366C39.3179 41.3815 39.7976 41.2784 40.2316 41.0656C40.6656 40.8528 41.0407 40.5369 41.3238 40.1455C41.6069 39.7542 41.7895 39.2995 41.8555 38.8212C41.933 38.2455 41.8361 37.6598 41.5773 37.1395C41.3185 36.6193 40.9097 36.1883 40.4034 35.902H40.3936H40.3838ZM28.8653 24.7053L24.7151 28.8098C24.5729 28.9411 24.3886 29.0175 24.1951 29.0253H22.9589C22.7659 29.015 22.5824 28.939 22.4389 28.8098L18.2887 24.6955C18.1614 24.5548 18.0853 24.3753 18.0728 24.1861V22.9714C18.0728 22.7755 18.1611 22.5992 18.2887 22.4522L22.4389 18.3282C22.5824 18.199 22.7659 18.1229 22.9589 18.1126H24.1853C24.3815 18.1126 24.5581 18.191 24.7053 18.3282L28.8555 22.4424C28.983 22.5894 29.0615 22.7755 29.0713 22.9616V24.1763C29.0713 24.3722 28.9928 24.5584 28.8555 24.7053H28.8653ZM25.5491 23.5592C25.5379 23.3638 25.462 23.1777 25.3332 23.0302L24.1264 21.8547C23.9848 21.7213 23.8008 21.6416 23.6064 21.6294H23.5476C23.3544 21.6389 23.1706 21.715 23.0276 21.8449L21.8306 23.0302C21.6991 23.1761 21.6228 23.3631 21.6147 23.5592V23.5984C21.6147 23.7943 21.6932 23.9804 21.8306 24.1175L23.0276 25.3127C23.1747 25.44 23.3513 25.5086 23.5476 25.5282H23.5966C23.7928 25.5184 23.9694 25.4302 24.1166 25.3127L25.3234 24.1175C25.4521 23.9738 25.5282 23.7908 25.5393 23.5984V23.5592H25.5491ZM6.75057 11.2457L16.7581 16.9763C17.2059 17.2278 17.7115 17.3586 18.2253 17.3561C18.739 17.3535 19.2433 17.2176 19.6885 16.9617C20.1338 16.7059 20.5048 16.3388 20.7651 15.8965C21.0254 15.4543 21.166 14.9521 21.1732 14.4392V2.97796C21.1732 2.5934 21.0969 2.21266 20.9486 1.85775C20.8003 1.50284 20.5831 1.1808 20.3094 0.910248C20.0356 0.639699 19.7109 0.426011 19.354 0.28154C18.997 0.13707 18.615 0.0646842 18.2298 0.0685686C17.4526 0.0685513 16.7069 0.375481 16.1554 0.922378C15.604 1.46927 15.2916 2.21174 15.2864 2.98775V9.41388L9.69397 6.18122C9.01632 5.79632 8.21404 5.69359 7.46104 5.8953C6.70804 6.09701 6.065 6.5869 5.67132 7.25877C5.47699 7.59135 5.3507 7.95914 5.29979 8.34082C5.24889 8.72249 5.27436 9.11046 5.37475 9.48223C5.47514 9.854 5.64845 10.2022 5.88462 10.5066C6.12079 10.811 6.41513 11.0655 6.75057 11.2555V11.2457ZM28.6985 17.3584C29.2872 17.4073 29.8759 17.2604 30.3959 16.9665L40.3936 11.2457C40.8954 10.9572 41.3009 10.5272 41.5592 10.0097C41.8175 9.4922 41.9171 8.91011 41.8457 8.33632C41.7722 7.7595 41.5273 7.21789 41.1425 6.78137C40.7578 6.34485 40.2509 6.03345 39.6872 5.88734C38.9319 5.68692 38.1279 5.79255 37.4502 6.18122L31.8577 9.39428V2.96816C31.8591 2.58279 31.7837 2.20099 31.636 1.84494C31.4883 1.48889 31.2712 1.16569 30.9974 0.894099C30.7235 0.622509 30.3984 0.407944 30.0408 0.262865C29.6832 0.117785 29.3003 0.0450818 28.9143 0.0489767C28.1371 0.0489595 27.3914 0.355889 26.84 0.902786C26.2885 1.44968 25.9761 2.19215 25.9709 2.96816V14.4392C25.9669 15.1813 26.2471 15.8969 26.7541 16.4396C27.2612 16.9822 27.9567 17.3109 28.6985 17.3584ZM18.4457 29.8188C17.857 29.7698 17.2585 29.9069 16.7483 30.2106L6.74076 35.902C6.06918 36.2914 5.57891 36.9299 5.37676 37.6785C5.17461 38.4271 5.27696 39.2252 5.66151 39.8988C5.85462 40.2334 6.1119 40.5267 6.41863 40.762C6.72537 40.9973 7.07554 41.1699 7.44914 41.27C7.82273 41.3701 8.21242 41.3957 8.59592 41.3453C8.97942 41.2949 9.34922 41.1695 9.68416 40.9763L15.2766 37.7731V44.1992C15.2753 44.5846 15.3507 44.9664 15.4984 45.3224C15.6461 45.6785 15.8631 46.0017 16.137 46.2732C16.4108 46.5448 16.736 46.7594 17.0936 46.9045C17.4511 47.0496 17.834 47.1223 18.22 47.1184C18.9973 47.1184 19.743 46.8115 20.2944 46.2646C20.8458 45.7177 21.1582 44.9752 21.1634 44.1992V32.7184C21.1626 31.9812 20.8816 31.2719 20.3771 30.7336C19.8726 30.1954 19.1823 29.8684 18.4457 29.8188ZM15.7181 24.4506C15.8864 23.923 15.8967 23.3578 15.7476 22.8245C15.5513 22.0898 15.0608 21.4531 14.3838 21.0808L4.42529 15.3208C3.74764 14.9359 2.94536 14.8332 2.19236 15.0349C1.43936 15.2366 0.796323 15.7265 0.402645 16.3984C0.208308 16.7309 0.082024 17.0987 0.0311154 17.4804C-0.0197933 17.8621 0.0056857 18.2501 0.106075 18.6218C0.206465 18.9936 0.379768 19.3418 0.615938 19.6462C0.852108 19.9506 1.14645 20.2051 1.48189 20.3951L7.07434 23.5984L1.47208 26.782C1.10704 26.9584 0.782422 27.2081 0.518601 27.5156C0.254781 27.8231 0.0574432 28.1817 -0.0610328 28.5689C-0.179509 28.9561 -0.216567 29.3636 -0.169884 29.7658C-0.123201 30.168 0.00621662 30.5562 0.210252 30.9061C0.414286 31.256 0.688536 31.56 1.0158 31.7991C1.34306 32.0382 1.71628 32.2072 2.11204 32.2955C2.5078 32.3838 2.91756 32.3895 3.31563 32.3123C3.7137 32.235 4.09148 32.0764 4.42529 31.8465L14.4034 26.0963C15.0483 25.7333 15.5293 25.1373 15.7476 24.431L15.7279 24.4506H15.7181ZM139.714 7.33714H139.223C138.531 7.32565 137.842 7.42486 137.182 7.63102C136.539 7.83297 135.962 8.20538 135.514 8.70857C135.053 9.23755 134.729 9.87428 134.563 10.5502C134.366 11.3339 134.278 12.1469 134.288 12.96V14.7037H132.345C132.031 14.706 131.73 14.8297 131.505 15.0489C131.28 15.268 131.149 15.5655 131.139 15.8792C131.129 16.2122 131.246 16.5355 131.472 16.7804C131.708 17.0155 132.012 17.1624 132.355 17.1722H134.278V31.4645C134.279 31.6261 134.313 31.7858 134.377 31.9341C134.442 32.0825 134.535 32.2164 134.652 32.3279C134.769 32.4394 134.908 32.5262 135.059 32.5832C135.211 32.6402 135.372 32.6662 135.534 32.6596C135.853 32.6544 136.158 32.5242 136.382 32.297C136.605 32.0697 136.731 31.7637 136.731 31.4449V17.182H138.821C139.154 17.1624 139.458 17.0253 139.694 16.7902C139.929 16.5551 140.057 16.2416 140.057 15.9086V15.8596C140.054 15.7018 140.021 15.5461 139.957 15.4014C139.894 15.2567 139.803 15.126 139.689 15.0167C139.575 14.9074 139.441 14.8217 139.293 14.7646C139.146 14.7076 138.989 14.6802 138.831 14.6841H136.731V12.9502C136.731 12.3527 136.8 11.7551 136.937 11.1869C137.006 10.8637 137.153 10.5796 137.349 10.3249C137.516 10.1584 137.722 10.031 137.938 9.96245C138.35 9.8449 138.762 9.79592 139.174 9.80571H139.723C139.97 9.80604 140.212 9.73374 140.418 9.59784C140.623 9.46195 140.785 9.26849 140.881 9.04163C140.961 8.85191 140.992 8.64548 140.972 8.44081C140.952 8.23614 140.881 8.03961 140.767 7.8688C140.652 7.698 140.497 7.55824 140.314 7.46204C140.132 7.36584 139.929 7.3162 139.723 7.31755L139.714 7.33714ZM182.834 16.5747C182.952 16.4599 183.046 16.3228 183.11 16.1714C183.174 16.02 183.207 15.8574 183.207 15.6931C183.206 15.5338 183.171 15.3766 183.105 15.2316C183.039 15.0865 182.943 14.9568 182.825 14.8506C182.713 14.736 182.58 14.6448 182.432 14.5826C182.285 14.5204 182.126 14.4883 181.966 14.4883C181.806 14.4883 181.647 14.5204 181.5 14.5826C181.353 14.6448 181.219 14.736 181.108 14.8506L171.492 24.1371V8.48326C171.487 8.23838 171.409 8.00053 171.27 7.7991C171.13 7.59766 170.935 7.44145 170.707 7.34976C170.48 7.25807 170.23 7.23491 169.99 7.28316C169.749 7.3314 169.528 7.44893 169.354 7.62122C169.128 7.85632 169 8.16 168.991 8.48326V31.3959C168.993 31.7216 169.125 32.033 169.356 32.2624C169.588 32.4917 169.901 32.6204 170.227 32.6204C170.557 32.6231 170.874 32.4961 171.111 32.267C171.348 32.0379 171.485 31.725 171.492 31.3959V27.6147L174.632 24.5094L181.009 32.1502C181.118 32.3172 181.276 32.4471 181.461 32.5224C181.628 32.5812 181.804 32.6204 181.981 32.6204C182.275 32.6204 182.56 32.5224 182.785 32.3559H182.805C182.929 32.2368 183.028 32.0939 183.096 31.9356C183.163 31.7774 183.198 31.6071 183.197 31.4351C183.197 31.1412 183.099 30.8473 182.903 30.622L176.398 22.7755L182.834 16.5943V16.5747ZM165.468 15.0073C165.584 15.1214 165.675 15.2573 165.737 15.4069C165.8 15.5566 165.832 15.7171 165.831 15.8792V31.3959C165.826 31.7191 165.695 32.0276 165.467 32.2562C165.238 32.4847 164.929 32.6154 164.605 32.6204C164.361 32.6169 164.124 32.5428 163.922 32.4072C163.72 32.2715 163.562 32.0801 163.467 31.8563C163.398 31.7094 163.369 31.5624 163.369 31.3959V29.8775C162.601 30.7371 161.662 31.4263 160.611 31.9007C159.561 32.375 158.422 32.624 157.269 32.6313C156.116 32.6387 154.974 32.4044 153.917 31.9436C152.86 31.4827 151.912 30.8056 151.134 29.9559C149.529 28.2383 148.637 25.9768 148.637 23.6278C148.637 21.2787 149.529 19.0172 151.134 17.2996C152.31 16.0272 153.856 15.1556 155.555 14.8076C157.254 14.4596 159.019 14.6528 160.602 15.36C161.651 15.8215 162.593 16.4952 163.369 17.3388V15.8694C163.367 15.7048 163.4 15.5417 163.464 15.39C163.528 15.2384 163.622 15.1015 163.742 14.9878C163.975 14.7723 164.282 14.6526 164.6 14.6526C164.918 14.6526 165.225 14.7723 165.458 14.9878V14.9975L165.468 15.0073ZM163.369 23.6473C163.381 21.916 162.732 20.2451 161.554 18.9747C161.011 18.3678 160.345 17.8823 159.601 17.5498C158.857 17.2174 158.052 17.0455 157.237 17.0455C156.422 17.0455 155.616 17.2174 154.872 17.5498C154.128 17.8823 153.463 18.3678 152.92 18.9747C151.738 20.2374 151.082 21.9016 151.083 23.6297C151.085 25.3578 151.745 27.0205 152.929 28.2808C153.478 28.8782 154.145 29.3552 154.888 29.6815C155.632 30.0079 156.435 30.1764 157.246 30.1764C158.058 30.1764 158.861 30.0079 159.604 29.6815C160.348 29.3552 161.015 28.8782 161.563 28.2808C162.741 27.018 163.391 25.3532 163.378 23.6278L163.369 23.6473ZM64.3038 23.1869C63.2449 22.7328 62.1606 22.3404 61.0562 22.0114C60.0858 21.7366 59.1352 21.3962 58.2109 20.9927C57.8858 20.8323 57.5957 20.6092 57.3574 20.3363C57.1611 20.1208 57.063 19.8269 57.063 19.5331C57.063 19.1314 57.1808 18.7298 57.4064 18.3967C57.7989 17.8971 58.3385 17.5151 58.937 17.2996C59.7051 16.987 60.5408 16.8769 61.3638 16.9799C62.1868 17.0828 62.9695 17.3953 63.6366 17.8873C63.98 18.1224 64.2645 18.3771 64.5196 18.5633C64.657 18.6612 64.7943 18.7592 64.9415 18.8278C65.0887 18.9159 65.2555 18.9551 65.4321 18.9649C65.5467 18.9639 65.66 18.9406 65.7657 18.8963C65.9925 18.801 66.1772 18.6271 66.2857 18.4065C66.3347 18.3086 66.3642 18.191 66.3642 18.0735C66.3642 17.858 66.2955 17.6424 66.1974 17.4563C65.9754 17.0832 65.6899 16.7517 65.3536 16.4767C64.7387 15.9557 64.0513 15.5268 63.3128 15.2033C62.5668 14.8465 61.7553 14.6465 60.9287 14.6155C59.1038 14.6155 57.5732 15.0367 56.4645 15.791C55.8759 16.1535 55.3853 16.6433 55.0223 17.2212C54.6298 17.9265 54.414 18.72 54.4336 19.5233V19.6604C54.414 20.4931 54.6789 21.3061 55.1989 21.9722C55.9637 22.8288 56.9471 23.4619 58.0442 23.8041C59.1038 24.1959 60.1438 24.4212 60.8109 24.6367C61.7332 24.911 62.6162 25.2735 63.46 25.7241C63.7838 25.92 64.0781 26.1551 64.3136 26.4392C64.5098 26.7037 64.6079 27.0269 64.6177 27.36V27.3796C64.6177 27.84 64.4804 28.2906 64.2057 28.6531C63.7642 29.1918 63.1755 29.5935 62.5083 29.7992C61.9196 30.0049 61.3015 30.1224 60.6736 30.142C59.484 30.1675 58.3058 29.9054 57.2396 29.378C56.8472 29.182 56.5332 28.9861 56.2585 28.8294C56.1113 28.751 55.974 28.6824 55.8366 28.6335C55.6972 28.5726 55.5472 28.5394 55.3951 28.5355C55.2878 28.5342 55.1813 28.5543 55.0819 28.5946C54.9825 28.635 54.8921 28.6949 54.8162 28.7706C54.7083 28.8686 54.62 28.9763 54.5513 29.1037C54.4859 29.2344 54.4523 29.3787 54.4532 29.5249C54.4532 29.76 54.5317 29.9853 54.6691 30.1812C54.9045 30.4947 55.1989 30.769 55.5325 30.9747C57.0653 31.9714 58.845 32.5241 60.6736 32.5714C62.299 32.6356 63.8999 32.1602 65.226 31.2196C65.8452 30.7732 66.3507 30.1878 66.7017 29.5106C67.0528 28.8334 67.2396 28.0833 67.2472 27.3208C67.2645 26.5565 67.0747 25.8017 66.6977 25.1363C66.1104 24.2667 65.277 23.5915 64.3038 23.1967V23.1869ZM144.806 7.24898C144.481 7.25154 144.171 7.38137 143.941 7.61045C143.712 7.83954 143.582 8.1495 143.579 8.47347V31.3861C143.579 31.5467 143.611 31.7057 143.674 31.8537C143.736 32.0018 143.827 32.1359 143.942 32.2482C144.073 32.376 144.231 32.4738 144.403 32.5345C144.576 32.5953 144.76 32.6176 144.942 32.5998C145.125 32.5821 145.301 32.5248 145.458 32.4319C145.616 32.339 145.752 32.2127 145.855 32.062C145.993 31.8661 146.071 31.631 146.071 31.3763V8.49306C146.064 8.16393 145.927 7.85103 145.69 7.62193C145.453 7.39283 145.135 7.26591 144.806 7.26857V7.24898ZM201.476 23.0498V23.1673C201.475 23.3278 201.44 23.4862 201.372 23.6317C201.305 23.7771 201.206 23.9062 201.083 24.0098C200.858 24.2057 200.554 24.3233 200.24 24.3233H186.415C186.549 25.8978 187.263 27.3668 188.42 28.4454C189.576 29.5241 191.093 30.1357 192.675 30.1616H193.489C194.567 30.1432 195.616 29.8057 196.502 29.1918C197.419 28.5812 198.19 27.7749 198.758 26.831C198.876 26.6351 199.033 26.4882 199.219 26.3902C199.404 26.292 199.611 26.2423 199.82 26.2457C200.03 26.2491 200.235 26.3056 200.416 26.4098C200.59 26.5292 200.732 26.6885 200.831 26.8743C200.93 27.0602 200.983 27.2671 200.985 27.4775C200.985 27.7029 200.926 27.9184 200.809 28.1143C200.024 29.3656 198.981 30.4346 197.748 31.249C196.485 32.0871 195.006 32.5429 193.489 32.5616H192.655C191.499 32.5517 190.356 32.3118 189.293 31.856C188.23 31.4002 187.268 30.7376 186.465 29.9069C184.836 28.2322 183.921 25.9917 183.914 23.6571C183.894 21.2767 184.816 18.9943 186.465 17.28C188.058 15.6318 190.243 14.6832 192.537 14.6427C194.832 14.6023 197.048 15.4734 198.699 17.0645C200.311 18.6492 201.288 20.7672 201.446 23.0204L201.466 23.0498H201.476ZM198.778 21.8939C198.455 20.5254 197.678 19.306 196.574 18.4334C195.47 17.5607 194.103 17.0859 192.695 17.0859C191.287 17.0859 189.92 17.5607 188.816 18.4334C187.711 19.306 186.935 20.5254 186.612 21.8939H198.778ZM77.4313 14.6645C75.5672 14.6645 73.8011 15.36 72.4276 16.6041V15.889C72.4276 15.5755 72.3098 15.2718 72.0842 15.0367C71.9747 14.92 71.8426 14.8268 71.6958 14.7627C71.549 14.6987 71.3907 14.6653 71.2306 14.6645C70.9873 14.6634 70.7492 14.7345 70.5466 14.8688C70.3439 15.0031 70.1859 15.1945 70.0925 15.4188C70.0238 15.5657 69.9943 15.7322 69.9943 15.889V31.7584L70.0532 31.7975L70.1317 31.9641C70.2985 32.258 70.583 32.4833 70.9166 32.5812H71.2306C71.417 32.5812 71.5936 32.542 71.7604 32.4637C71.9075 32.3951 72.0351 32.2971 72.1332 32.1698L72.1725 32.1306C72.2884 31.9856 72.366 31.8138 72.3981 31.631V22.031C72.416 21.215 72.6316 20.4154 73.0264 19.7007C73.4211 18.986 73.9834 18.3773 74.6651 17.9268C75.3468 17.4763 76.1276 17.1973 76.9408 17.1136C77.754 17.03 78.5754 17.1442 79.3347 17.4465C80.2435 17.8204 81.0202 18.4562 81.5654 19.2728C82.1106 20.0893 82.3998 21.0496 82.3959 22.031V31.3861C82.3967 31.6273 82.4688 31.8629 82.6032 32.0633C82.7376 32.2637 82.9283 32.42 83.1513 32.5126C83.3746 32.6037 83.6195 32.628 83.8563 32.5828C84.0932 32.5376 84.3118 32.4248 84.4857 32.258C84.6032 32.145 84.6967 32.0096 84.7608 31.8599C84.8248 31.7101 84.8581 31.549 84.8585 31.3861V22.031C84.8354 20.076 84.0439 18.2083 82.6546 16.8304C81.2654 15.4525 79.3895 14.6746 77.4313 14.6645ZM101.911 17.3094C103.513 19.0221 104.405 21.2788 104.405 23.6229C104.405 25.9669 103.513 28.2236 101.911 29.9363C100.745 31.2083 99.2089 32.0826 97.5189 32.4359C95.8288 32.7892 94.0704 32.6036 92.4917 31.9053C91.446 31.4468 90.5071 30.7763 89.7347 29.9363C88.1203 28.2274 87.221 25.9671 87.221 23.618C87.221 21.2688 88.1203 19.0085 89.7347 17.2996C90.9023 16.0305 92.439 15.159 94.1286 14.8075C95.8182 14.4561 97.5756 14.6424 99.1536 15.3404C100.195 15.7972 101.13 16.4643 101.901 17.2996L101.911 17.3094ZM101.94 23.618C101.951 21.8945 101.305 20.2314 100.135 18.9649C99.5935 18.3569 98.9294 17.8702 98.1861 17.5369C97.4429 17.2037 96.6374 17.0314 95.8226 17.0314C95.0079 17.0314 94.2024 17.2037 93.4592 17.5369C92.7159 17.8702 92.0518 18.3569 91.5106 18.9649C90.3311 20.2243 89.675 21.884 89.675 23.6082C89.675 25.3323 90.3311 26.9921 91.5106 28.2514C92.0535 28.8567 92.7182 29.3409 93.4612 29.6723C94.2042 30.0038 95.0088 30.1751 95.8226 30.1751C96.6365 30.1751 97.4411 30.0038 98.1841 29.6723C98.9271 29.3409 99.5918 28.8567 100.135 28.2514C101.306 26.9931 101.952 25.3357 101.94 23.618ZM128.509 14.7722C128.372 14.7135 128.215 14.6743 128.068 14.6743C127.822 14.6756 127.583 14.7475 127.377 14.8812C127.172 15.015 127.01 15.205 126.91 15.4286L122.21 28.2024L118.58 19.6408C118.482 19.4155 118.315 19.2196 118.089 19.0922C117.934 18.9944 117.759 18.9308 117.577 18.9057C117.395 18.8805 117.21 18.8943 117.033 18.9462C116.857 18.9981 116.694 19.0869 116.554 19.2066C116.415 19.3264 116.303 19.4744 116.225 19.6408L112.595 28.2122L107.866 15.4384C107.786 15.2026 107.626 15.0018 107.415 14.8702C107.244 14.7651 107.052 14.7015 106.852 14.6844C106.653 14.6674 106.452 14.6975 106.267 14.7722C105.984 14.9067 105.763 15.1434 105.648 15.4343C105.534 15.7252 105.534 16.0488 105.649 16.3396L111.437 31.8367C111.486 31.9641 111.555 32.0718 111.643 32.1796C111.722 32.258 111.81 32.3265 111.908 32.3755L112.006 32.4539L112.183 32.5126C112.32 32.5616 112.458 32.591 112.605 32.6008C112.839 32.5957 113.067 32.5226 113.26 32.3904C113.454 32.2582 113.604 32.0726 113.694 31.8563H113.714L117.383 23.138L121.062 31.8171C121.148 32.024 121.287 32.2049 121.464 32.3423C121.641 32.4797 121.851 32.5687 122.073 32.6008H122.23C122.377 32.6106 122.514 32.5812 122.642 32.5322C122.76 32.4931 122.858 32.4343 122.956 32.3657C123.152 32.209 123.309 32.0033 123.397 31.778L129.186 16.3494C129.306 16.0544 129.304 15.724 129.181 15.4303C129.058 15.1366 128.823 14.9036 128.529 14.782L128.509 14.7722Z" fill="#29B5E8"/>
</g>
</g>
<defs>
<clipPath id="clip0_0_1393">
<rect width="208" height="48" fill="white"/>
</clipPath>
</defs>
</svg>
