<svg width="140" height="40" viewBox="0 0 140 40" fill="none" xmlns="http://www.w3.org/2000/svg">
<path d="M15.3618 39.921C7.39384 39.921 1.87384 35.553 0.241844 28.785L8.16184 26.097C9.60184 31.185 12.6258 32.193 15.2178 32.193C18.1938 32.193 20.4018 30.849 20.4018 28.593C20.4018 26.097 17.6658 25.041 14.6898 24.129L11.3778 23.121C7.72984 22.017 1.48984 19.521 1.48984 12.321C1.48984 5.50498 7.05784 0.896977 14.6898 0.896977C22.2738 0.896977 26.9298 5.45698 27.9378 9.53698L20.1618 12.705C19.1058 10.113 17.4258 8.57698 14.6418 8.57698C11.9538 8.57698 10.4178 9.96898 10.4178 11.649C10.4178 13.953 13.2018 15.105 16.3698 16.113L20.4498 17.409C23.5218 18.369 29.4258 20.385 29.4258 27.585C29.4258 34.401 24.3378 39.921 15.3618 39.921ZM51.4173 39.921C40.9533 39.921 32.4093 32.049 32.4093 20.433C32.4093 8.81698 40.9533 0.896977 51.4173 0.896977C61.9293 0.896977 70.4253 8.91298 70.4253 20.433C70.4253 31.857 62.0253 39.921 51.4173 39.921ZM51.4653 31.905C57.3213 31.905 61.4973 27.009 61.4973 20.433C61.4973 14.049 57.4653 8.91298 51.4653 8.91298C45.6573 8.91298 41.3373 13.761 41.3373 20.433C41.3373 27.249 45.7533 31.905 51.4653 31.905ZM70.524 39.105L84.396 1.66498H94.428L108.3 39.105H99.228C98.172 36.273 97.116 33.393 96.06 30.561C91.548 30.561 86.988 30.561 82.476 30.561C81.42 33.393 80.412 36.273 79.356 39.105H70.524ZM85.5 22.257C87.996 22.257 90.54 22.257 93.036 22.257C92.364 20.385 91.308 17.409 89.34 11.985H89.244C87.996 15.393 86.748 18.849 85.5 22.257ZM111.72 39.105V1.66498H126.648C128.28 1.66498 139.896 1.66498 139.896 13.857C139.896 26.145 128.184 26.529 126.6 26.529C124.488 26.529 122.328 26.529 120.216 26.529C120.216 32.049 120.216 33.585 120.216 39.105H111.72ZM120.216 18.225C121.368 18.225 122.184 18.225 124.968 18.225C126.648 18.225 130.968 18.225 130.968 13.809C130.968 9.53698 126.84 9.53698 125.208 9.53698C122.328 9.53698 121.512 9.53698 120.216 9.53698C120.216 14.961 120.216 16.833 120.216 18.225Z" fill="black"/>
</svg>
