<svg width="114" height="48" viewBox="0 0 114 48" fill="none" xmlns="http://www.w3.org/2000/svg">
<g clip-path="url(#clip0_0_1129)">
<mask id="mask0_0_1129" style="mask-type:luminance" maskUnits="userSpaceOnUse" x="0" y="0" width="114" height="48">
<path d="M0.510742 0.0693359H113.725V47.0897H0.510742V0.0693359Z" fill="white"/>
</mask>
<g mask="url(#mask0_0_1129)">
<path fill-rule="evenodd" clip-rule="evenodd" d="M113.725 24.3338C113.725 16.3012 109.833 9.97301 102.374 9.97301C94.8951 9.97301 90.3646 16.311 90.3646 24.275C90.3646 33.7085 95.7108 38.4693 103.386 38.4693C107.121 38.4693 109.961 37.6269 112.093 36.4318V30.1624C109.7 31.3425 107.058 31.9337 104.389 31.8865C101.342 31.8865 98.6296 30.8187 98.2954 27.1257H113.666C113.666 26.7142 113.725 25.0881 113.725 24.3338ZM98.1972 21.3559C98.1972 17.8097 100.359 16.3404 102.344 16.3404C104.261 16.3404 106.305 17.8097 106.305 21.3559H98.1972ZM78.2275 9.97301C75.9334 9.96568 73.7253 10.8433 72.0656 12.422L71.6529 10.4726H64.7342V47.031L72.5963 45.3657L72.6258 36.4906C74.2007 37.7674 76.168 38.466 78.198 38.4693C83.8194 38.4693 88.9494 33.9632 88.9494 24.0204C88.9199 14.9297 83.731 9.97301 78.2275 9.97301ZM76.3406 31.573C74.4734 31.573 73.3825 30.9167 72.6258 30.1036L72.5963 18.4661C73.0648 17.9496 73.6434 17.5442 74.2897 17.2798C74.9359 17.0153 75.6333 16.8985 76.3308 16.9379C79.2004 16.9379 81.1856 20.1314 81.1856 24.2359C81.1856 28.4383 79.2299 31.573 76.3406 31.573ZM53.9141 8.12158L61.8154 6.43668V0.0693359L53.9239 1.73464V8.12158H53.9141Z" fill="#635BFF"/>
<path d="M61.8154 10.5117H53.9141V37.9403H61.8056V10.5117H61.8154Z" fill="#635BFF"/>
<path fill-rule="evenodd" clip-rule="evenodd" d="M45.4523 12.8241L44.9609 10.5123H38.1602V37.9408H46.0223V19.3482C47.8797 16.9384 51.0245 17.3694 51.9975 17.7221V10.5123C50.9951 10.1302 47.3097 9.43471 45.4523 12.8241ZM29.7282 3.7041L22.0626 5.34002L22.0135 30.4372C21.9889 31.508 22.1836 32.5725 22.5858 33.5658C22.9881 34.559 23.5893 35.46 24.3528 36.2137C25.1163 36.9674 26.026 37.5579 27.0263 37.9492C28.0266 38.3405 29.0964 38.5243 30.1704 38.4894C32.7452 38.4894 34.6321 38.0192 35.6738 37.4608V31.0935C34.6616 31.5049 29.6888 32.9449 29.6888 28.3017V17.1833H35.664V10.5123H29.6888L29.7183 3.7041H29.7282ZM8.47109 18.4666C8.47109 17.2519 9.4735 16.7817 11.1442 16.7817C13.5323 16.7817 16.5494 17.4968 18.9473 18.78V11.4135C16.4635 10.4372 13.814 9.94828 11.1442 9.97349C4.75626 9.97349 0.510742 13.3041 0.510742 18.8486C0.510742 27.4984 12.4611 26.1172 12.4611 29.8494C12.4611 31.2894 11.2032 31.7596 9.44402 31.7596C6.83971 31.7596 3.49833 30.6919 0.864535 29.2519V36.7163C3.57378 37.8835 6.49259 38.49 9.44402 38.4992C15.9892 38.4992 20.4804 35.2665 20.4804 29.6633C20.4509 20.318 8.47109 21.9833 8.47109 18.4666Z" fill="#635BFF"/>
</g>
</g>
<defs>
<clipPath id="clip0_0_1129">
<rect width="114" height="48" fill="white"/>
</clipPath>
</defs>
</svg>
