<svg width="160" height="50" viewBox="0 0 160 50" fill="none" xmlns="http://www.w3.org/2000/svg">
<g clip-path="url(#clip0_0_640)">
<path d="M23.1002 18.384C23.095 19.6917 22.5746 20.9447 21.6517 21.8713C20.7288 22.7979 19.478 23.3235 18.1702 23.334C16.8616 23.3235 15.6096 22.7983 14.6852 21.872C13.7607 20.9456 13.2381 19.6926 13.2302 18.384C13.238 17.0734 13.76 15.8183 14.6839 14.8888C15.6078 13.9593 16.8598 13.4297 18.1702 13.414C20.8702 13.414 23.1102 15.664 23.1102 18.384H23.1002ZM18.1702 25.264C16.8599 25.2745 15.6064 25.8011 14.6817 26.7295C13.757 27.658 13.2355 28.9136 13.2302 30.224C13.238 31.5345 13.76 32.7896 14.6839 33.7191C15.6078 34.6487 16.8598 35.1783 18.1702 35.194C19.4485 35.1366 20.6554 34.5884 21.5396 33.6636C22.4239 32.7387 22.9174 31.5085 22.9174 30.229C22.9174 28.9494 22.4239 27.7192 21.5396 26.7943C20.6554 25.8695 19.4485 25.3213 18.1702 25.264ZM48.0002 24.314C48.0002 37.594 37.3002 48.314 24.0802 48.314C20.933 48.3113 17.8172 47.6882 14.9111 46.4802C12.0049 45.2721 9.36548 43.503 7.14378 41.2738C4.92208 39.0447 3.16171 36.3994 1.9634 33.4892C0.765085 30.5791 0.152343 27.4612 0.160231 24.314C0.160231 11.044 10.8502 0.313965 24.0802 0.313965C27.2278 0.315267 30.3442 0.937517 33.251 2.14508C36.1577 3.35263 38.7977 5.12178 41.0196 7.35117C43.2416 9.58056 45.0019 12.2264 46.1998 15.1372C47.3976 18.0479 48.0094 21.1664 48.0002 24.314ZM41.6202 24.314C41.6202 14.544 33.7902 6.71396 24.0802 6.71396C21.771 6.7113 19.4841 7.16517 17.3509 8.04945C15.2178 8.93373 13.2805 10.231 11.6504 11.8666C10.0203 13.5022 8.72972 15.444 7.85273 17.5802C6.97573 19.7163 6.52969 22.0048 6.54023 24.314C6.54023 34.074 14.3402 41.914 24.0802 41.914C33.8102 41.914 41.6202 34.074 41.6202 24.314ZM29.9702 25.264C28.6599 25.2745 27.4064 25.8011 26.4817 26.7295C25.557 27.658 25.0355 28.9136 25.0302 30.224C25.038 31.5345 25.56 32.7896 26.4839 33.7191C27.4078 34.6487 28.6598 35.1783 29.9702 35.194C31.2485 35.1366 32.4554 34.5884 33.3396 33.6636C34.2239 32.7387 34.7174 31.5085 34.7174 30.229C34.7174 28.9494 34.2239 27.7192 33.3396 26.7943C32.4554 25.8695 31.2485 25.3213 29.9702 25.264ZM29.9702 13.414C28.692 13.4713 27.4851 14.0195 26.6009 14.9443C25.7166 15.8692 25.2231 17.0994 25.2231 18.379C25.2231 19.6585 25.7166 20.8887 26.6009 21.8136C27.4851 22.7384 28.692 23.2866 29.9702 23.344C32.6702 23.344 34.9102 21.084 34.9102 18.384C34.9025 17.0734 34.3804 15.8183 33.4565 14.8888C32.5326 13.9593 31.2807 13.4297 29.9702 13.414ZM112.26 9.73396C112.42 9.73396 112.58 9.89396 112.74 10.064V15.174C112.74 15.504 112.42 15.664 112.26 15.664H103.8C103.48 15.664 103.32 15.334 103.32 15.174V10.224C103.32 9.89396 103.64 9.73396 103.8 9.73396H112.26ZM112.09 16.934H95.8302C95.6702 16.934 95.3502 17.104 95.3502 17.434L93.2802 25.434L93.1102 25.914L90.5602 17.444C90.5602 17.284 90.2302 16.954 90.0702 16.954H83.6902C83.5302 16.954 83.2002 17.124 83.2002 17.444L80.8002 25.444L80.6402 25.934L80.4802 25.444L78.5802 17.444C78.5802 17.284 78.2502 16.954 78.0802 16.954H65.3302V10.074C65.3302 9.91396 65.0102 9.59396 64.7002 9.75396L56.7402 12.314C56.4102 12.314 56.2502 12.474 56.2502 12.794V17.124H54.1802C54.0202 17.124 53.6902 17.284 53.6902 17.604V23.704C53.6902 23.854 53.8502 24.184 54.1802 24.184H56.2502V31.694C56.2502 36.974 59.1202 39.374 64.3802 39.374C66.6102 39.374 68.6802 38.884 70.1302 38.094V31.694C70.1302 31.394 69.8002 31.214 69.6402 31.394C68.8402 31.694 68.0602 31.874 67.4102 31.874C65.9702 31.874 65.1702 31.224 65.1702 29.624V24.184H69.8002C69.9702 24.184 70.2902 24.014 70.2902 23.694V18.574L76.3502 38.744C76.3502 38.904 76.6702 39.224 76.8302 39.224H83.5302C83.7002 39.224 84.0302 39.064 84.0302 38.744L86.8902 29.764L88.3302 34.414L89.6102 38.744C89.6102 38.904 89.9302 39.224 90.1002 39.224H96.8002C96.9602 39.224 97.2902 39.064 97.2902 38.744L103.34 18.574V38.744C103.34 38.904 103.51 39.224 103.83 39.224H111.96C112.12 39.224 112.44 39.064 112.44 38.744V17.464C112.44 17.294 112.28 16.974 112.12 16.974L112.1 16.944L112.09 16.934ZM122.79 9.73396H114.65C114.49 9.73396 114.17 9.89396 114.17 10.224V38.544C114.17 38.704 114.33 39.034 114.65 39.034H122.78C122.94 39.034 123.27 38.874 123.27 38.544V10.074C123.27 9.91396 123.11 9.75396 122.78 9.75396V9.73396H122.79ZM133.63 9.73396H125.18C125.02 9.73396 124.69 9.89396 124.69 10.224V15.174C124.69 15.334 124.86 15.664 125.18 15.664H133.63C133.79 15.664 134.12 15.504 134.12 15.174V10.064C134.12 9.89396 133.96 9.73396 133.63 9.73396ZM133.47 16.934H125.34C125.18 16.934 124.86 17.104 124.86 17.434V38.384C124.86 38.544 125.02 38.874 125.34 38.874H133.47C133.63 38.874 133.96 38.704 133.96 38.374V17.434C133.96 17.274 133.79 16.954 133.47 16.954V16.934ZM159.14 27.824C159.14 33.914 154.04 39.194 146.86 39.194C139.69 39.194 134.75 33.914 134.75 27.824C134.75 21.734 139.85 16.474 147.03 16.474C154.2 16.474 159.13 21.754 159.13 27.824H159.14ZM150.52 27.984C150.52 25.734 148.94 23.974 147.01 24.144C144.94 24.144 143.5 25.894 143.5 27.984C143.5 30.084 145.08 31.824 147 31.824C149.08 31.824 150.52 30.064 150.52 27.984Z" fill="#F22F46"/>
</g>
<defs>
<clipPath id="clip0_0_640">
<rect width="160" height="49" fill="white" transform="translate(0 0.294434)"/>
</clipPath>
</defs>
</svg>
