<svg width="197" height="48" viewBox="0 0 197 48" fill="none" xmlns="http://www.w3.org/2000/svg">
<g clip-path="url(#clip0_0_580)">
<path d="M175.05 16.16C176.16 16.16 177.08 15.58 177.19 14.83L178.29 2.27C178.29 1.01 176.86 0 175.05 0C173.24 0 171.81 1.01 171.81 2.27L172.91 14.83C173.02 15.58 173.94 16.16 175.05 16.16ZM168.37 20.07C168.93 19.1 168.89 18.01 168.29 17.53L158.12 10.3C157.06 9.68 155.47 10.41 154.58 12C153.68 13.6 153.84 15.34 154.89 15.96L166.17 21.29C166.88 21.57 167.83 21.05 168.39 20.07H168.37ZM181.75 20.07C182.3 21.05 183.25 21.53 183.97 21.29L195.24 15.96C196.3 15.34 196.46 13.58 195.56 12.01C194.66 10.44 193.06 9.68 192.02 10.3L181.85 17.55C181.27 18.03 181.23 19.12 181.77 20.09L181.75 20.07ZM175.05 31.84C176.16 31.84 177.08 32.42 177.19 33.17L178.29 45.73C178.29 46.99 176.86 48 175.05 48C173.24 48 171.81 46.99 171.81 45.73L172.91 33.17C173.02 32.42 173.94 31.84 175.05 31.84ZM181.75 27.9C182.3 26.93 183.25 26.43 183.97 26.7L195.24 32C196.3 32.64 196.46 34.4 195.56 35.98C194.66 37.55 193.06 38.3 192.02 37.68L181.85 30.45C181.27 29.97 181.23 28.88 181.77 27.91H181.75V27.9ZM168.37 27.9C168.93 28.88 168.89 29.95 168.29 30.45L158.12 37.68C157.06 38.3 155.47 37.55 154.58 35.98C153.68 34.41 153.84 32.64 154.89 32L166.17 26.7C166.88 26.41 167.83 26.93 168.39 27.9H168.37Z" fill="#FDB61C"/>
<path d="M116.44 25.44C116.44 20.69 114.43 16.54 107.69 16.54C105.002 16.4975 102.349 17.1411 99.9797 18.41L101.08 22.22C102.779 21.201 104.718 20.649 106.7 20.62C110.11 20.62 110.67 22.56 110.67 23.85V24.15C103.2 24.15 98.4896 26.75 98.4896 32.08C98.4896 35.34 100.89 38.42 105.07 38.42C106.212 38.4623 107.349 38.2387 108.39 37.7666C109.431 37.2946 110.349 36.5871 111.07 35.7H111.21C111.21 35.7 112.06 39.31 116.75 37.92C116.506 36.2549 116.403 34.5724 116.44 32.89V25.44ZM110.87 30.45C110.892 30.9674 110.803 31.4836 110.608 31.9634C110.413 32.4431 110.117 32.8752 109.74 33.23C109.38 33.59 108.94 33.87 108.44 34.05C107.97 34.23 107.45 34.31 106.96 34.27C105.41 34.27 104.19 33.37 104.19 31.5C104.19 28.64 107.31 27.85 110.87 27.87V30.47V30.45ZM0.179648 10.08C0.179648 10.08 5.04965 30.33 5.82965 33.63C6.73965 37.47 8.36965 38.88 13.0996 37.93L16.1396 25.36C16.8764 22.5574 17.4771 19.7207 17.9396 16.86H17.9996C18.3498 19.7244 18.8504 22.5683 19.4996 25.38L21.3596 34.07C21.9996 37.07 23.7596 38.94 28.3996 37.92L35.6497 10.08H29.7996L27.2996 22.12C26.6296 25.62 26.0296 28.36 25.5696 31.56H25.4896C25.0596 28.38 24.5396 25.76 23.8396 22.34L21.2596 10.08H15.1396L12.3796 22.04C11.5996 25.68 10.8696 28.6 10.3796 31.7H10.3096C9.82965 28.78 9.19965 25.1 8.51965 21.59L6.29965 10.08H0.139648H0.179648ZM52.2796 25.44C52.2796 20.69 50.2796 16.54 43.5296 16.54C40.8424 16.4975 38.1888 17.1411 35.8196 18.41L36.9196 22.22C38.6203 21.2032 40.5584 20.6514 42.5396 20.62C45.9596 20.62 46.5096 22.56 46.5096 23.85V24.15C39.0596 24.15 34.3297 26.75 34.3297 32.08C34.3297 35.34 36.7296 38.42 40.9096 38.42C42.052 38.4615 43.1884 38.2375 44.2295 37.7656C45.2706 37.2936 46.188 36.5865 46.9096 35.7H47.0296C47.0296 35.7 47.8797 39.31 52.5797 37.92C52.3332 36.2552 52.2262 34.5727 52.2596 32.89V25.44H52.2796ZM46.7296 30.45C46.7322 30.9712 46.6443 31.4889 46.4697 31.98C46.2696 32.46 45.9996 32.88 45.6196 33.23C45.2396 33.59 44.7996 33.87 44.3196 34.05C43.8496 34.23 43.3297 34.31 42.8396 34.27C41.2896 34.27 40.0696 33.37 40.0696 31.5C40.0696 28.64 43.1896 27.85 46.7496 27.87V30.47L46.7296 30.45ZM61.5797 32V10.08H55.9897V37.92H61.5797V32ZM134.56 10.08V30.63C134.56 33.45 135.08 35.43 136.21 36.65C136.802 37.2403 137.51 37.7008 138.29 38.0021C139.07 38.3034 139.904 38.4389 140.74 38.4C142.12 38.4 143.47 38.2 144.78 37.8L144.7 33.37C144 33.55 143.29 33.63 142.57 33.63C140.64 33.63 140.03 32.4 140.03 29.85V21.98H144.88V16.64H140V10.08H134.51H134.55H134.56ZM120.17 17.01V37.92H125.94V27.23C125.94 26.71 125.98 26.2 126.06 25.68C126.229 24.6143 126.786 23.6489 127.624 22.9694C128.462 22.29 129.522 21.9447 130.6 22C131.15 22 131.71 22.06 132.27 22.16V16.68C131.85 16.58 131.43 16.54 130.99 16.54C128.85 16.54 126.4 17.94 125.39 20.94H125.23V17.01H120.17ZM65.4996 17.01V37.92H71.0996V25.66C71.0996 25.06 71.1796 24.49 71.3596 23.95C71.8297 22.72 72.9497 21.27 74.7597 21.27C77.0197 21.27 78.0797 23.21 78.0797 26.02V37.94H83.6796V25.52C83.6796 24.94 83.7596 24.37 83.9196 23.83C84.138 23.105 84.5812 22.4683 85.1851 22.0117C85.7891 21.5551 86.5226 21.3024 87.2796 21.29C89.5596 21.29 90.6796 23.19 90.6796 26.47V37.94H96.2796V25.62C96.2796 19.12 93.0197 16.56 89.3596 16.56C87.9231 16.5418 86.5112 16.9338 85.2896 17.69C84.2538 18.3692 83.3688 19.2542 82.6897 20.29H82.6096C82.156 19.1524 81.3635 18.1819 80.3396 17.51C79.3296 16.83 78.1396 16.51 76.8997 16.56C75.6886 16.4933 74.4832 16.7694 73.4219 17.3566C72.3606 17.9438 71.4864 18.8184 70.8997 19.88H70.8196V17.03H65.4996V17.01Z" fill="#2C70B8"/>
</g>
<defs>
<clipPath id="clip0_0_580">
<rect width="197" height="48" fill="white"/>
</clipPath>
</defs>
</svg>
