<svg width="219" height="48" viewBox="0 0 219 48" fill="none" xmlns="http://www.w3.org/2000/svg">
<g clip-path="url(#clip0_0_564)">
<path d="M76.8504 11.6997H67.2404C66.3704 11.6997 65.6704 12.4297 65.6404 13.2997V15.4497C65.6404 16.0297 66.1104 16.4697 66.6904 16.4697H68.2904C68.3304 16.4697 68.4004 16.5097 68.4004 16.5397C68.4404 16.5797 68.4404 16.6497 68.4404 16.7297L64.7004 27.9997C64.6836 28.033 64.6579 28.0609 64.626 28.0803C64.5942 28.0998 64.5576 28.1099 64.5204 28.1097C64.4504 28.1097 64.3704 28.0797 64.3704 28.0097L58.7704 12.7097C58.693 12.5274 58.5673 12.3696 58.407 12.2533C58.2467 12.137 58.0577 12.0666 57.8604 12.0497H54.4704C54.0704 12.0897 53.7004 12.3497 53.5604 12.7097L47.9204 28.0097C47.9204 28.0797 47.8404 28.1097 47.7704 28.1097C47.7341 28.1109 47.6982 28.1022 47.6665 28.0846C47.6348 28.067 47.6085 28.0411 47.5904 28.0097L43.8404 16.7097C43.8404 16.6397 43.8404 16.6097 43.8704 16.5297C43.9104 16.4997 43.9504 16.4597 43.9804 16.4597H45.5804C46.1704 16.4597 46.6404 15.9897 46.6404 15.4397V13.2997C46.6404 12.4297 45.9104 11.6997 45.0404 11.6997H35.4304C35.1004 11.6997 34.7704 11.8797 34.5504 12.1397C34.4585 12.2626 34.3978 12.406 34.3734 12.5575C34.349 12.709 34.3617 12.8641 34.4104 13.0097C34.5504 13.4097 34.7004 13.8897 34.8804 14.3597C35.0604 14.8297 35.2104 15.3097 35.3504 15.7097C35.5004 16.1397 35.9004 16.4297 36.3404 16.4297H37.9404C38.0104 16.4297 38.0904 16.4697 38.1204 16.5797L45.5904 38.5797C45.7304 39.0097 46.1304 39.2997 46.5704 39.2997H48.9004C49.3404 39.2997 49.7004 39.0397 49.8804 38.6397C51.9604 32.7097 55.8504 21.3397 56.0404 20.9897C56.0704 20.9097 56.1404 20.8397 56.2204 20.8397C56.2904 20.8397 56.3604 20.8797 56.4004 20.9897C56.5504 21.3897 60.4804 32.7097 62.5504 38.6897C62.7004 39.0897 63.1004 39.3697 63.5404 39.3697H65.8704C66.3004 39.3697 66.7004 39.0797 66.8504 38.6397L74.3104 16.6497C74.3904 16.5097 74.4604 16.5097 74.5004 16.5097H76.1004C76.5304 16.5097 76.9304 16.2097 77.0804 15.8097C77.2304 15.3797 77.4104 14.9097 77.5504 14.4697C77.7004 13.9897 77.8804 13.5197 78.0304 13.1197C78.1304 12.8197 78.0604 12.4997 77.8804 12.2497C77.5204 11.8797 77.1904 11.6997 76.8604 11.6997H76.8504ZM189.43 34.8597H187.68C187.43 34.8597 187.21 34.6397 187.18 34.3497V12.6797C187.178 12.4958 187.103 12.3203 186.972 12.1912C186.841 12.062 186.664 11.9897 186.48 11.9897H181.35C181.13 11.9897 180.91 12.0997 180.8 12.2497L178.7 14.8997C178.58 15.0097 178.55 15.1997 178.55 15.3397C178.55 15.7097 178.84 16.0397 179.24 16.0697H179.89C180.15 16.0697 180.37 16.2897 180.4 16.5797V34.3097C180.4 34.4597 180.37 34.6097 180.26 34.7097C179.71 35.4397 178.47 36.9697 177.89 37.7297C177.79 37.8797 177.71 38.0297 177.71 38.2097C177.71 38.6097 178.04 38.8997 178.41 38.9397H187.32C187.5 38.9397 187.69 38.8597 187.83 38.7497L189.91 36.1297C190.34 35.5497 190.01 34.8597 189.43 34.8597ZM183.75 9.07969C184.765 9.07969 185.738 8.6767 186.455 7.95937C187.172 7.24204 187.575 6.26914 187.575 5.25469C187.575 4.24023 187.172 3.26733 186.455 2.55C185.738 1.83268 184.765 1.42969 183.75 1.42969C182.736 1.42969 181.763 1.83268 181.046 2.55C180.328 3.26733 179.925 4.24023 179.925 5.25469C179.925 6.26914 180.328 7.24204 181.046 7.95937C181.763 8.6767 182.736 9.07969 183.75 9.07969ZM217.47 14.2497C217.47 13.8897 217.29 13.5197 216.77 13.5197H215.9V15.8497H216.23V14.9797H216.53L217.1 15.8497H217.5L216.89 14.9797C217.32 14.9397 217.47 14.5797 217.47 14.2497ZM216.23 14.6897V13.8097H216.81C217.03 13.8097 217.18 13.9897 217.18 14.2097V14.2497C217.21 14.4697 217.03 14.6497 216.81 14.6897H216.23Z" fill="#7F187F"/>
<path d="M216.63 12.68C215.54 12.68 214.63 13.59 214.63 14.68C214.63 15.78 215.54 16.68 216.63 16.68C217.73 16.68 218.63 15.78 218.63 14.68C218.63 13.59 217.73 12.68 216.63 12.68ZM216.63 16.4C216.406 16.4 216.184 16.3557 215.977 16.2697C215.77 16.1836 215.583 16.0575 215.425 15.8986C215.267 15.7396 215.142 15.5511 215.057 15.3436C214.972 15.1362 214.929 14.9141 214.93 14.69V14.65C214.93 13.74 215.68 12.97 216.6 12.97H216.63C217.085 12.97 217.521 13.1507 217.843 13.4723C218.164 13.7939 218.345 14.2302 218.345 14.685C218.345 15.1399 218.164 15.5761 217.843 15.8977C217.521 16.2193 217.085 16.4 216.63 16.4ZM101.93 34.97C100.45 35.04 99.7202 34.35 99.7202 32.64V20.48C99.7202 15.16 95.2402 11.78 90.2502 11.78C82.4602 11.78 79.6502 15.48 79.3302 19.6C79.2902 20 79.6201 20.33 80.0201 20.37H83.8801C84.2401 20.37 84.5302 20.07 84.5802 19.71C84.7502 17.56 86.2102 15.96 88.6502 15.96C91.3502 15.96 92.9501 17.31 92.9501 20.4V23.06H91.5602C86.7601 23.06 83.4802 23.68 81.2602 25.06C79.0402 26.45 77.9102 29.03 77.9102 32.02C77.9102 34.24 78.6702 36.06 80.2102 37.52C81.7302 38.97 83.5102 39.59 85.8502 39.59C87.2302 39.59 88.6102 39.26 89.8902 38.69C91.1302 38.13 92.2901 37.41 93.2701 36.49C93.3726 36.3993 93.5067 36.3526 93.6434 36.3601C93.78 36.3676 93.9082 36.4286 94.0002 36.53C94.0402 36.57 94.0702 36.61 94.0702 36.64C95.1702 38.57 96.3701 39.19 98.6301 39.19C100.67 39.19 101.65 37.26 102.56 36.13C102.89 35.66 102.52 34.93 101.94 34.97H101.93ZM92.9802 33.04C92.9502 33.22 92.6902 33.44 92.5802 33.54C91.9602 34.06 91.2802 34.53 90.5402 34.86C89.8902 35.15 89.1602 35.29 88.4402 35.26C87.918 35.2704 87.3993 35.173 86.9165 34.9739C86.4336 34.7748 85.997 34.4784 85.6338 34.103C85.2707 33.7277 84.9888 33.2815 84.8058 32.7923C84.6228 32.3032 84.5426 31.7815 84.5702 31.26C84.5702 29.66 85.1502 28.6 86.3602 27.83C87.5602 27.03 89.4902 26.67 91.8602 26.67H93.0201L92.9802 33.04ZM175.05 34.97C173.55 35.04 172.83 34.35 172.83 32.64V20.48C172.83 15.16 168.35 11.78 163.36 11.78C155.57 11.78 152.76 15.48 152.44 19.6C152.4 20 152.74 20.33 153.14 20.37H156.99C157.169 20.3703 157.341 20.3021 157.472 20.1793C157.602 20.0566 157.68 19.8886 157.69 19.71C157.87 17.56 159.32 15.96 161.76 15.96C164.46 15.96 166.06 17.31 166.06 20.4V23.06H164.67C159.87 23.06 156.59 23.68 154.37 25.06C152.15 26.45 151.02 29.03 151.02 32.02C151.02 34.24 151.78 36.06 153.32 37.52C154.84 38.97 156.62 39.59 158.96 39.59C160.34 39.59 161.72 39.26 163 38.69C164.24 38.13 165.4 37.41 166.39 36.49C166.6 36.31 166.89 36.31 167.11 36.53C167.15 36.57 167.19 36.61 167.19 36.64C168.28 38.57 169.48 39.19 171.74 39.19C173.78 39.19 174.76 37.26 175.67 36.13C175.97 35.66 175.6 34.93 175.05 34.97ZM166.05 33.04C166.02 33.22 165.77 33.44 165.65 33.54C165.04 34.06 164.35 34.53 163.62 34.86C162.96 35.15 162.24 35.29 161.51 35.26C160.989 35.269 160.471 35.1705 159.99 34.9709C159.508 34.7712 159.072 34.4745 158.71 34.0993C158.348 33.7241 158.067 33.2784 157.885 32.7899C157.703 32.3015 157.623 31.7807 157.65 31.26C157.65 29.66 158.23 28.6 159.43 27.83C160.63 27.03 162.56 26.67 164.93 26.67H166.09V33.04H166.06H166.05ZM211.28 11.92C210.637 11.7012 209.959 11.5996 209.28 11.62C208.04 11.62 207.06 11.81 206.18 12.17L206.11 12.21C205.78 12.36 205.49 12.54 205.2 12.76C204.121 13.4333 203.15 14.266 202.32 15.23C201.49 16.22 201.96 15.53 201.89 15.05V12.65C201.89 12.25 201.56 11.95 201.16 11.92H196.02C195.8 11.92 195.62 12.02 195.52 12.17C195.37 12.32 193.92 14.17 193.37 14.87C193.04 15.27 193.26 16.03 193.91 16.03H194.57C194.86 16.03 195.07 16.25 195.07 16.54V34.34C195.07 34.49 195.04 34.64 194.97 34.74C194.46 35.37 193.18 36.97 192.57 37.77C192.46 37.88 192.42 38.07 192.42 38.21C192.42 38.61 192.75 38.9 193.12 38.94H204.14C204.54 38.94 204.87 38.61 204.87 38.21V35.55C204.87 35.15 204.54 34.82 204.14 34.82H202.4C202.334 34.8213 202.268 34.8094 202.206 34.7849C202.144 34.7603 202.088 34.7237 202.04 34.6771C201.993 34.6306 201.955 34.575 201.929 34.5137C201.903 34.4524 201.89 34.3865 201.89 34.32V23.92C202.07 18.97 205.02 17.48 206.44 17.04L206.66 16.97H206.73C207.13 16.87 207.49 16.82 207.89 16.82C209.57 16.82 210.19 17.08 211.09 17.3C211.46 17.4 211.83 16.97 211.83 16.57V12.53C211.79 12.27 211.53 12.02 211.28 11.91V11.92ZM151.2 11.99H143.2C143.133 11.9927 143.066 11.9818 143.003 11.9578C142.94 11.9339 142.882 11.8975 142.834 11.8508C142.785 11.8041 142.746 11.7481 142.72 11.6861C142.694 11.6241 142.68 11.5574 142.68 11.49V7.50001C142.68 5.57001 143.66 3.68001 145.7 3.68001C148.04 3.68001 148.4 5.65001 148.47 7.10001C148.51 7.47001 148.8 7.76001 149.17 7.80001H152.47C152.84 7.80001 153.13 7.47001 153.13 7.10001C153.06 2.15001 149.93 0.0400085 144.87 0.0400085C141.81 0.0400085 139.77 0.990008 138.27 2.84001C136.75 4.70001 135.98 6.74001 135.98 10.45V11.44C135.98 11.69 135.76 11.91 135.48 11.94L121.82 11.98H121.78C121.596 11.9826 121.421 12.0575 121.292 12.1885C121.163 12.3195 121.09 12.4961 121.09 12.68V15.37C121.09 15.77 121.42 16.1 121.82 16.1H123.28C123.57 16.1 123.78 16.31 123.78 16.6C123.78 16.68 123.78 16.75 123.75 16.79C123.71 16.86 120 25.53 118.47 29.06C118.4 29.24 118.22 29.35 118 29.35C117.78 29.35 117.63 29.24 117.52 29.05C115.96 25.53 112.17 16.79 112.17 16.79C112.13 16.72 112.13 16.68 112.13 16.61C112.13 16.31 112.35 16.1 112.64 16.1H113.66C114.06 16.1 114.39 15.77 114.39 15.37V12.67C114.388 12.4878 114.314 12.3138 114.185 12.185C114.056 12.0561 113.882 11.9826 113.7 11.98H101.32C100.92 11.98 100.62 12.31 100.59 12.71C100.59 12.81 100.63 12.93 100.67 13.04C101.03 13.69 101.87 15.26 102.08 15.74C102.19 15.95 102.45 16.1 102.67 16.1H105.03C105.22 16.1 105.4 16.2 105.51 16.39C105.58 16.57 114.28 36.12 114.61 36.81C114.94 37.69 114.94 38.67 114.61 39.54C114.21 41.14 111.51 44.06 110.02 43.51C109 43.15 108.86 41.29 107.62 41.07C107.397 41.039 107.169 41.0666 106.96 41.15C106.75 41.22 104.74 43.8 104.31 44.25C104.09 44.53 104.09 44.93 104.31 45.19C105.4 46.32 107.25 47.85 109.88 47.92C113.12 48.06 116.36 47.62 119.31 41.95C119.31 41.95 128.77 18.83 129.91 16.31C130.01 16.13 130.16 16.06 130.38 16.06H135.36C135.66 16.06 135.87 16.28 135.87 16.57V34.34C135.87 34.48 135.84 34.63 135.73 34.74C135.15 35.5 133.94 37 133.36 37.76C133.26 37.87 133.22 38.06 133.22 38.2C133.22 38.6 133.54 38.89 133.91 38.89H145.09C145.49 38.89 145.81 38.56 145.81 38.16V35.5C145.81 35.1 145.49 34.77 145.09 34.77H143.26C143.01 34.77 142.79 34.56 142.76 34.27V16.5C142.76 16.24 142.97 16.02 143.26 15.99H149.16C149.38 15.99 149.6 15.88 149.71 15.73C150.21 15.08 151.24 13.77 151.75 13.03C151.85 12.93 151.89 12.75 151.89 12.6C151.89 12.31 151.6 12.02 151.2 11.98V11.99Z" fill="#7F187F"/>
<path d="M30.68 20.55L28.75 13.27C28.7182 13.1488 28.6553 13.0381 28.5677 12.9486C28.48 12.8592 28.3705 12.7942 28.25 12.76L20.96 10.83C20.8459 10.7928 20.7234 10.79 20.6078 10.822C20.4922 10.854 20.3886 10.9194 20.31 11.01L15.46 15.92L25.66 26.12L30.54 21.24C30.6181 21.1433 30.6716 21.0291 30.696 20.9072C30.7204 20.7853 30.7149 20.6593 30.68 20.54V20.55Z" fill="#82D170"/>
<path d="M0.200098 31.6504L2.1401 38.9403C2.2101 39.1903 2.3901 39.3703 2.6401 39.4403L9.9301 41.3804C10.1801 41.4504 10.4301 41.3803 10.5901 41.1903L15.4601 36.3104L5.2601 26.1104L0.400098 31.0004C0.220098 31.1804 0.150098 31.4404 0.220098 31.6504H0.200098Z" fill="#F8CF1C"/>
<path d="M9.89955 10.86L2.59955 12.8C2.47905 12.8342 2.36954 12.8992 2.28186 12.9886C2.19417 13.0781 2.13133 13.1888 2.09955 13.31L0.159551 20.58C0.0895512 20.84 0.159551 21.09 0.339551 21.24L5.25955 26.12L15.4596 15.92L10.5696 11.05C10.4823 10.9592 10.3721 10.8936 10.2507 10.8601C10.1292 10.8267 10.001 10.8266 9.87955 10.86H9.89955Z" fill="#C6D636"/>
<path d="M30.46 30.93L25.66 26.12L15.46 36.32L20.27 41.12C20.49 41.34 20.82 41.42 21.11 41.34L28.17 39.44C28.47 39.37 28.72 39.12 28.79 38.83L30.69 31.76C30.76 31.47 30.69 31.14 30.46 30.93Z" fill="#D57DEA"/>
<path d="M15.4598 15.92L5.25977 26.12L15.4598 36.32L25.6598 26.12L15.4598 15.92Z" fill="#7F187F"/>
</g>
<defs>
<clipPath id="clip0_0_564">
<rect width="219" height="48" fill="white"/>
</clipPath>
</defs>
</svg>
