<svg width="175" height="49" viewBox="0 0 175 49" fill="none" xmlns="http://www.w3.org/2000/svg">
<g clip-path="url(#clip0_0_527)">
<mask id="mask0_0_527" style="mask-type:luminance" maskUnits="userSpaceOnUse" x="1" y="0" width="174" height="49">
<path d="M1.32129 0.116211H174.321V48.1162H1.32129V0.116211Z" fill="white"/>
</mask>
<g mask="url(#mask0_0_527)">
<mask id="mask1_0_527" style="mask-type:luminance" maskUnits="userSpaceOnUse" x="1" y="0" width="174" height="49">
<path d="M174.321 0.116211H1.32129V48.1162H174.321V0.116211Z" fill="white"/>
</mask>
<g mask="url(#mask1_0_527)">
<path fill-rule="evenodd" clip-rule="evenodd" d="M25.3863 20.1209C23.2353 23.7259 21.1683 27.2179 19.0663 30.6809C18.767 31.0646 18.5747 31.5209 18.5092 32.0031C18.4437 32.4853 18.5072 32.9763 18.6933 33.4259C19.1293 34.4728 19.2061 35.6347 18.9117 36.7298C18.6173 37.825 17.9684 38.7917 17.0663 39.4789C16.4679 39.9353 15.7766 40.2548 15.0413 40.4149C13.9657 40.6822 12.8331 40.6031 11.8051 40.1888C10.7771 39.7745 9.90609 39.0463 9.31629 38.1079C8.9256 37.4853 8.67008 36.7876 8.56629 36.0599C8.42685 34.9897 8.61464 33.9023 9.10495 32.9407C9.59526 31.9792 10.3651 31.1886 11.3133 30.6729C11.9429 30.33 12.6349 30.1168 13.3483 30.0459C13.6123 30.0089 13.8773 30.0039 14.3093 29.9719L19.0543 22.0539C17.5497 20.7329 16.3727 19.0803 15.616 17.2265C14.8594 15.3727 14.5438 13.3685 14.6943 11.3719C14.9183 8.4196 16.2178 5.65206 18.3463 3.59394C20.3551 1.60552 22.9819 0.361626 25.7931 0.067639C28.6042 -0.226348 31.4316 0.447154 33.8083 1.97694C36.0933 3.40027 37.8335 5.55043 38.7493 8.08194C39.6643 10.6129 39.7013 13.3779 38.8543 15.9319L34.5163 14.7609C34.8621 13.468 34.8843 12.1099 34.5809 10.8064C34.2774 9.50286 33.6576 8.29414 32.7763 7.28694C31.5634 5.92943 29.8976 5.06024 28.0903 4.84194C26.2866 4.59761 24.4549 5.00543 22.9253 5.99194C21.3961 6.97791 20.27 8.47825 19.7503 10.2219C18.5383 14.2899 20.3753 17.6169 25.3863 20.1209Z" fill="#B72551"/>
<path fill-rule="evenodd" clip-rule="evenodd" d="M31.5367 15.8557L36.1147 23.9097C39.0516 22.8604 42.2732 22.9374 45.1567 24.1257C48.0388 25.3132 50.3775 27.5283 51.7197 30.3417C52.9576 32.9879 53.2207 35.9864 52.4624 38.8077C51.7042 41.629 49.9734 44.0916 47.5757 45.7607C45.1608 47.457 42.2166 48.2286 39.2802 47.9349C36.3437 47.6412 33.6107 46.3017 31.5797 44.1607L35.1137 41.2157C39.5587 44.0827 43.4437 43.9487 46.3267 40.5517C47.5142 39.1382 48.154 37.3449 48.1296 35.499C48.1052 33.653 47.4181 31.8773 46.1937 30.4957C43.2747 27.2207 39.3587 27.1207 34.6247 30.2637C32.6657 26.7937 30.6717 23.3497 28.7737 19.8557C28.5265 19.2936 28.1394 18.8043 27.6491 18.4345C27.1589 18.0647 26.5821 17.8269 25.9737 17.7437C24.847 17.5348 23.8271 16.9428 23.087 16.068C22.3469 15.1932 21.932 14.0894 21.9127 12.9437C21.8578 11.8366 22.1554 10.7407 22.7628 9.8135C23.3701 8.88631 24.2559 8.17563 25.2927 7.78368C26.3293 7.39081 27.4636 7.33585 28.5334 7.62664C29.6032 7.91743 30.5536 8.53908 31.2487 9.40268C31.8155 10.0623 32.1984 10.8598 32.3587 11.7146C32.519 12.5695 32.451 13.4515 32.1617 14.2717C31.9817 14.7687 31.7637 15.2517 31.5367 15.8427" fill="#52525B"/>
<path fill-rule="evenodd" clip-rule="evenodd" d="M35.1521 37.647H25.8781C25.5182 39.4129 24.7855 41.0817 23.7289 42.5417C22.6723 44.0017 21.3161 45.2192 19.7511 46.113C17.24 47.5575 14.3028 48.0786 11.4481 47.586C8.6277 47.1073 6.05998 45.6671 4.18108 43.51C2.30393 41.3538 1.23234 38.6135 1.14883 35.7559C1.06532 32.8983 1.97506 30.1001 3.72308 27.838C5.4728 25.5747 7.95227 23.987 10.7401 23.345C11.1361 24.775 11.5411 26.225 11.9291 27.642C6.67808 30.312 4.86508 33.674 6.33008 37.882C6.95061 39.6661 8.20897 41.1578 9.86308 42.07C11.5181 42.9825 13.4518 43.2517 15.2931 42.826C19.3661 42.026 21.4201 38.652 21.1681 33.238C25.0241 33.238 28.8921 33.198 32.7501 33.257C33.4559 33.3539 34.1747 33.2713 34.8402 33.0168C35.5056 32.7623 36.0961 32.3442 36.5571 31.801C37.2721 31.0519 38.2014 30.5424 39.2174 30.3424C40.2335 30.1424 41.2865 30.2617 42.2321 30.684C42.8601 30.964 43.4231 31.37 43.8871 31.876C44.3707 32.3733 44.751 32.9615 45.0059 33.6067C45.2609 34.2518 45.3854 34.9411 45.3724 35.6347C45.3594 36.3282 45.2091 37.0124 44.9301 37.6475C44.6511 38.2826 44.249 38.8562 43.7471 39.335C43.2446 39.8141 42.6523 40.189 42.0043 40.438C41.3562 40.6871 40.6652 40.8054 39.9712 40.786C39.2773 40.7667 38.594 40.6101 37.9608 40.3254C37.3276 40.0406 36.7571 39.6333 36.2821 39.127C35.8731 38.695 35.5611 38.182 35.1601 37.65" fill="#52525B"/>
<path d="M64.6118 18.9355H68.1798L70.2218 28.5895L72.3248 18.9345H75.9888L72.0958 32.3415H68.4808L66.3658 22.5815L64.2278 32.3415H60.5738L56.8018 18.9345H60.5738L62.6758 28.5525L64.6118 18.9355ZM85.7808 19.2005C86.7261 19.6282 87.5307 20.3155 88.1008 21.1825C88.6658 22.0125 89.0358 22.9615 89.1808 23.9555C89.2828 24.8385 89.3188 25.7275 89.2888 26.6155H79.4968C79.4645 27.1685 79.5773 27.7203 79.8239 28.2164C80.0705 28.7124 80.4424 29.1354 80.9028 29.4435C81.4865 29.7949 82.1586 29.9719 82.8398 29.9535C83.5446 29.9853 84.2382 29.7679 84.7988 29.3395C85.1008 29.0865 85.3468 28.7725 85.5188 28.4175H89.1128C88.9501 29.3457 88.4904 30.196 87.8028 30.8405C87.1493 31.5113 86.359 32.0335 85.4857 32.3717C84.6125 32.7099 83.6766 32.8562 82.7418 32.8005C81.0187 32.823 79.3426 32.239 78.0068 31.1505C77.2742 30.4731 76.7077 29.636 76.3513 28.7041C75.9949 27.7723 75.8582 26.7708 75.9518 25.7775C75.8854 24.8087 76.015 23.8366 76.3328 22.919C76.6507 22.0015 77.1503 21.1575 77.8018 20.4375C78.4347 19.8144 79.1888 19.3279 80.0174 19.008C80.8459 18.688 81.7313 18.5415 82.6188 18.5775C83.7049 18.5596 84.7826 18.7719 85.7808 19.2005ZM80.5188 22.2405C79.9939 22.817 79.6657 23.5454 79.5818 24.3205H85.6368C85.6358 23.9216 85.5519 23.5272 85.3905 23.1624C85.229 22.7976 84.9934 22.4704 84.6988 22.2015C84.1187 21.7102 83.3765 21.4524 82.6168 21.4785C82.2324 21.4548 81.8473 21.5108 81.4855 21.6429C81.1238 21.7751 80.7933 21.9806 80.5148 22.2465M102.261 20.5565C103.316 21.9734 103.851 23.7112 103.774 25.4765C103.848 27.3178 103.326 29.1338 102.285 30.6545C101.49 31.6564 100.368 32.3454 99.1145 32.5997C97.8615 32.8541 96.5589 32.6574 95.4368 32.0445C94.92 31.6692 94.4764 31.2025 94.1278 30.6675V32.3525H90.6578V14.2405H94.1818V20.6835C94.5702 20.112 95.0711 19.6258 95.6538 19.2545C96.3862 18.8191 97.2294 18.6058 98.0808 18.6405C98.8787 18.6043 99.6739 18.7581 100.401 19.0893C101.128 19.4205 101.765 19.9196 102.262 20.5455M99.3308 28.7055C99.8718 27.8455 100.137 26.8405 100.088 25.8255C100.108 25.0223 99.9818 24.2222 99.7148 23.4645C99.556 23.0747 99.3129 22.725 99.0028 22.4404C98.6928 22.1559 98.3235 21.9436 97.9216 21.8188C97.5197 21.694 97.0952 21.6598 96.6785 21.7187C96.2618 21.7777 95.8633 21.9282 95.5118 22.1595C95.0418 22.4675 94.6728 22.9085 94.4528 23.4255C94.1736 24.1897 94.0432 25.0003 94.0688 25.8135C94.0313 26.8216 94.3039 27.8171 94.8498 28.6655C95.1085 29.041 95.4604 29.3428 95.871 29.5413C96.2816 29.7398 96.7367 29.828 97.1918 29.7975C97.612 29.8118 98.0289 29.7187 98.4031 29.5271C98.7774 29.3355 99.0966 29.0517 99.3308 28.7025M115.197 19.0095C115.865 19.2855 116.443 19.7405 116.866 20.3255C117.209 20.7805 117.44 21.3095 117.541 21.8705C117.64 22.7305 117.68 23.5975 117.661 24.4625V32.3415H114.076V24.1815C114.102 23.5773 113.978 22.976 113.715 22.4315C113.538 22.1145 113.271 21.8568 112.949 21.6905C112.626 21.5242 112.262 21.4567 111.901 21.4965C111.502 21.4718 111.102 21.5434 110.736 21.7052C110.371 21.8671 110.049 22.1144 109.799 22.4265C109.271 23.2067 109.017 24.1403 109.078 25.0805V32.3445H105.57V14.2745H109.078V20.6745C109.502 19.9778 110.112 19.413 110.84 19.0435C111.503 18.7381 112.225 18.5811 112.955 18.5835C113.724 18.5739 114.486 18.7206 115.197 19.0145M131.392 30.7045C130.006 32.0494 128.151 32.8016 126.22 32.8016C124.289 32.8016 122.434 32.0494 121.049 30.7045C119.904 29.2768 119.3 27.4909 119.343 25.6615C119.309 23.8386 119.912 22.061 121.049 20.6355C122.425 19.2723 124.283 18.5075 126.22 18.5075C128.157 18.5075 130.016 19.2723 131.392 20.6355C132.534 22.0581 133.138 23.8377 133.098 25.6615C133.146 27.4917 132.541 29.2794 131.392 30.7045ZM128.581 28.7685C129.188 27.8505 129.479 26.7597 129.41 25.6615C129.48 24.565 129.189 23.4757 128.581 22.5605C128.287 22.219 127.923 21.945 127.513 21.7572C127.104 21.5693 126.659 21.4721 126.208 21.4721C125.758 21.4721 125.313 21.5693 124.903 21.7572C124.494 21.945 124.13 22.219 123.836 22.5605C123.228 23.4756 122.937 24.5643 123.006 25.6605C122.937 26.7592 123.228 27.8503 123.836 28.7685C124.129 29.1114 124.492 29.3868 124.902 29.5755C125.311 29.7642 125.757 29.8618 126.208 29.8615C126.659 29.8611 127.104 29.7632 127.514 29.5746C127.923 29.3859 128.287 29.1109 128.581 28.7685ZM146.145 30.7045C144.759 32.0494 142.904 32.8016 140.973 32.8016C139.042 32.8016 137.187 32.0494 135.802 30.7045C134.652 29.2779 134.048 27.4881 134.099 25.6565C134.059 23.8327 134.663 22.0531 135.805 20.6305C137.181 19.2678 139.039 18.5033 140.976 18.5033C142.913 18.5033 144.772 19.2678 146.148 20.6305C147.281 22.057 147.881 23.8348 147.843 25.6565C147.89 27.4847 147.289 29.2707 146.148 30.6995M143.337 28.7635C143.934 27.8417 144.22 26.7528 144.154 25.6565C144.222 24.5619 143.935 23.4746 143.337 22.5555C143.043 22.2145 142.679 21.9408 142.269 21.753C141.86 21.5653 141.415 21.4679 140.965 21.4675C140.514 21.4678 140.069 21.5651 139.66 21.7528C139.25 21.9406 138.886 22.2143 138.592 22.5555C137.975 23.4667 137.679 24.5574 137.751 25.6555C137.679 26.756 137.975 27.8492 138.592 28.7635C139.034 29.2796 139.632 29.6377 140.296 29.7833C140.96 29.9289 141.653 29.8542 142.271 29.5705C142.68 29.3815 143.044 29.1062 143.337 28.7635ZM149.597 14.2735H153.049V24.0535L157.481 18.9975H161.854L157.037 23.9905L162.046 32.3405H157.77L154.502 26.6135L153.049 28.1215V32.3415H149.6L149.597 14.2735Z" fill="#52525B"/>
<path d="M165.41 28.0617C165.426 28.5437 165.594 29.0077 165.891 29.3897C166.23 29.6602 166.618 29.8613 167.034 29.9814C167.451 30.1016 167.887 30.1383 168.317 30.0897C168.886 30.115 169.453 30.01 169.975 29.7827C170.147 29.7063 170.294 29.5845 170.402 29.4305C170.51 29.2765 170.573 29.0961 170.586 28.9087C170.598 28.7211 170.559 28.5337 170.473 28.3667C170.386 28.1998 170.255 28.0598 170.095 27.9617C168.907 27.4922 167.675 27.1382 166.419 26.9047C165.246 26.6907 164.14 26.2062 163.187 25.4897C162.864 25.1807 162.613 24.8049 162.452 24.3885C162.29 23.9722 162.221 23.5254 162.25 23.0797C162.248 22.4733 162.378 21.8738 162.631 21.3228C162.884 20.7717 163.254 20.2824 163.715 19.8887C164.87 18.9377 166.344 18.4606 167.837 18.5537C169.274 18.4917 170.699 18.8399 171.946 19.5577C172.505 19.9466 172.962 20.4637 173.28 21.0657C173.597 21.6677 173.766 22.337 173.772 23.0177H170.248C170.225 22.6332 170.096 22.2627 169.874 21.9477C169.618 21.6888 169.307 21.4905 168.964 21.3673C168.621 21.2441 168.255 21.1991 167.893 21.2357C167.321 21.1874 166.747 21.3117 166.246 21.5927C166.103 21.6813 165.985 21.804 165.901 21.9497C165.817 22.0954 165.771 22.2597 165.766 22.4277C165.755 22.6084 165.798 22.7884 165.89 22.9442C165.982 23.1001 166.119 23.2246 166.283 23.3017C167.479 23.7287 168.709 24.0537 169.959 24.2737C171.12 24.4883 172.205 25.0011 173.107 25.7617C173.446 26.0871 173.713 26.4794 173.891 26.9136C174.07 27.3477 174.156 27.8143 174.145 28.2837C174.162 28.9037 174.036 29.5193 173.778 30.0833C173.52 30.6472 173.136 31.1444 172.655 31.5367C171.314 32.4786 169.687 32.9241 168.053 32.7967C166.377 32.9339 164.709 32.46 163.355 31.4627C162.867 31.0434 162.477 30.5207 162.215 29.9325C161.954 29.3444 161.826 28.7053 161.841 28.0617H165.41Z" fill="#52525B"/>
</g>
</g>
</g>
<defs>
<clipPath id="clip0_0_527">
<rect width="174" height="48" fill="white" transform="translate(0.744141 0.116211)"/>
</clipPath>
</defs>
</svg>
