<svg width="233" height="48" viewBox="0 0 233 48" fill="none" xmlns="http://www.w3.org/2000/svg">
<path fill-rule="evenodd" clip-rule="evenodd" d="M71.516 0.136047H7.47023C6.5088 0.136042 5.55683 0.325774 4.66888 0.694367C3.78093 1.06296 2.97446 1.60316 2.29572 2.28401C1.61698 2.96486 1.0793 3.77296 0.713511 4.66199C0.347723 5.55103 0.161019 6.50351 0.1641 7.46483V31.9097C0.162558 32.8741 0.351393 33.8293 0.719779 34.7206C1.08817 35.6119 1.62886 36.4217 2.31087 37.1037C2.99287 37.7856 3.80278 38.3262 4.69416 38.6946C5.58553 39.0629 6.54086 39.2517 7.50536 39.2502H37.8305L51.6934 46.9653L48.5438 39.2385H71.516C73.4599 39.2385 75.3242 38.4664 76.6987 37.0919C78.0733 35.7175 78.8455 33.8534 78.8455 31.9097V7.46483C78.8455 5.52112 78.0733 3.65701 76.6987 2.2826C75.3242 0.908184 73.4599 0.136047 71.516 0.136047ZM6.12375 5.79068C5.73191 5.79419 5.34599 5.88664 4.9951 6.06106C4.64421 6.23547 4.33752 6.48729 4.09817 6.79751C3.87437 7.10481 3.71362 7.45337 3.6252 7.82308C3.53678 8.1928 3.52243 8.57637 3.58299 8.95166C5.47978 21.0102 7.25948 29.1468 8.89867 33.3614C9.54264 34.8951 10.2803 35.6443 11.1584 35.5858C12.5049 35.4804 14.1207 33.619 16.0175 29.978C17.0127 27.9292 18.5582 24.8268 20.6423 20.7175C21.8524 25.7969 24.2931 30.5009 27.7494 34.4151C28.0558 34.7924 28.4434 35.0957 28.8833 35.3024C29.3232 35.5092 29.8041 35.6141 30.2902 35.6092C30.6516 35.5823 30.9996 35.4612 31.2996 35.2578C31.5995 35.0544 31.8409 34.776 31.9996 34.4502C32.3275 33.7946 32.468 33.057 32.386 32.3312C32.2572 28.2336 32.5499 24.1126 33.2642 20.0736C33.6947 16.0645 34.7454 12.1466 36.3786 8.45995C36.5895 8.06421 36.7018 7.62341 36.7058 7.17501C36.7099 6.72661 36.6057 6.28385 36.402 5.88434C36.2264 5.57995 35.9922 5.29897 35.6995 5.08824C35.1375 4.61995 34.4116 4.3858 33.674 4.44434C33.2262 4.46317 32.7921 4.604 32.4186 4.8516C32.0451 5.09921 31.7464 5.44417 31.5547 5.84922C29.5643 9.5019 28.1475 15.4024 27.3045 23.5507C25.9426 19.9874 24.9233 16.3024 24.2603 12.5458C23.909 10.6492 23.0309 9.74776 21.6259 9.85312C21.088 9.93054 20.5806 10.1505 20.1565 10.4902C19.7324 10.8299 19.4069 11.2769 19.2139 11.7848L12.1654 25.1897C11.0062 20.5302 9.92903 14.8404 8.91038 8.10873C8.91323 7.76192 8.839 7.4188 8.69304 7.10418C8.54708 6.78956 8.33304 6.51129 8.06639 6.28948C7.79974 6.06767 7.48714 5.90786 7.15118 5.82159C6.81522 5.73533 6.46429 5.72477 6.12375 5.79068ZM68.0971 8.10873C69.1795 8.30888 70.2037 8.748 71.0949 9.39407C71.9862 10.0401 72.722 10.8769 73.2488 11.8434C74.3261 13.776 74.8564 15.9657 74.7826 18.177C74.8061 21.3848 73.9396 24.5458 72.277 27.2853C71.5828 28.7078 70.5092 29.911 69.1745 30.7622C67.8399 31.6133 66.296 32.0793 64.7133 32.1087C63.0231 32.0985 61.3751 31.5805 59.983 30.6219C59.0975 29.9786 58.3657 29.1469 57.8404 28.1868C56.7639 26.2364 56.2302 24.033 56.2949 21.8063C56.2597 18.6102 57.1379 15.4726 58.8005 12.7448C59.501 11.3272 60.5761 10.1283 61.9094 9.27809C63.2427 8.42785 64.7833 7.95868 66.3642 7.92141C66.9496 7.92141 67.5351 7.99166 68.0971 8.10873ZM66.7506 25.5175C68.0579 24.2339 68.9161 22.5629 69.1977 20.7526C69.3382 19.9682 69.4084 19.1721 69.4201 18.376C69.4066 17.3727 69.2082 16.3805 68.8347 15.4492C68.3664 14.1965 67.7107 13.5175 66.9379 13.3536C65.7905 13.1195 64.6548 13.7634 63.601 15.3439C62.3152 17.1461 61.6384 19.3117 61.6691 21.5253C61.6691 22.5204 61.8681 23.5156 62.2428 24.4521C62.7228 25.7048 63.3668 26.3839 64.1396 26.536C64.6243 26.5849 65.1138 26.5181 65.5677 26.341C66.0216 26.1639 66.427 25.8817 66.7506 25.5175ZM53.075 11.8434C52.5455 10.8813 51.8103 10.0479 50.9219 9.40238C50.0334 8.75686 49.0136 8.31516 47.935 8.10873C47.3654 7.98659 46.7846 7.92382 46.2021 7.92141C44.6232 7.96079 43.0851 8.43095 41.754 9.28108C40.423 10.1312 39.3497 11.329 38.6501 12.7448C36.9772 15.4693 36.1048 18.6094 36.1327 21.8063C36.0742 24.0307 36.6011 26.22 37.6783 28.1751C38.2064 29.1394 38.9428 29.9738 39.834 30.6178C40.7252 31.2618 41.7486 31.6991 42.83 31.898C43.392 32.0268 43.9775 32.097 44.5629 32.097C46.1433 32.0641 47.6841 31.5966 49.0163 30.7457C50.3485 29.8949 51.4206 28.6936 52.1149 27.2736C53.7823 24.5301 54.6501 21.3755 54.6205 18.1653C54.6886 15.9568 54.1543 13.7714 53.075 11.8434ZM49.0238 20.7409C48.7423 22.5512 47.8841 24.2222 46.5768 25.5058C46.2555 25.8704 45.8526 26.1539 45.4008 26.3329C44.949 26.512 44.4613 26.5816 43.9775 26.536C43.2047 26.3721 42.5724 25.7048 42.0807 24.4521C41.7072 23.5208 41.5088 22.5286 41.4953 21.5253C41.4705 19.3144 42.1513 17.1532 43.4389 15.3556C44.4926 13.7634 45.6284 13.1312 46.7875 13.3536C47.5603 13.5175 48.1925 14.1848 48.6843 15.4375C49.059 16.3741 49.2463 17.3692 49.2697 18.3643C49.2697 19.1721 49.1995 19.9682 49.0356 20.7526L49.0238 20.7409Z" fill="#7F54B3"/>
<path d="M6.12343 5.79116C5.73159 5.79467 5.34567 5.88712 4.99478 6.06153C4.64389 6.23594 4.3372 6.48776 4.09785 6.79798C3.87405 7.10528 3.7133 7.45384 3.62488 7.82356C3.53646 8.19328 3.52212 8.57684 3.58268 8.95213C5.47946 21.0107 7.25916 29.1473 8.89835 33.3619C9.54232 34.8955 10.28 35.6448 11.1581 35.5863C12.5046 35.4809 14.1204 33.6194 16.0171 29.9785C17.0124 27.9297 18.5579 24.8273 20.642 20.718C21.8521 25.7974 24.2928 30.5014 27.7491 34.4155C28.0555 34.7928 28.4431 35.0962 28.883 35.3029C29.3229 35.5097 29.8038 35.6145 30.2899 35.6097C30.6513 35.5828 30.9993 35.4617 31.2993 35.2583C31.5992 35.0549 31.8406 34.7764 31.9993 34.4507C32.3271 33.7951 32.4676 33.0575 32.3857 32.3316C32.2569 28.2341 32.5496 24.1131 33.2638 20.0741C33.6944 16.065 34.745 12.1471 36.3783 8.46042C36.5892 8.06468 36.7014 7.62389 36.7055 7.17549C36.7096 6.72709 36.6054 6.28433 36.4017 5.88481C36.2261 5.58042 35.9919 5.29945 35.6992 5.08872C35.1372 4.62042 34.4113 4.38628 33.6736 4.44481C33.2259 4.46364 32.7918 4.60447 32.4183 4.85208C32.0448 5.09968 31.746 5.44465 31.5544 5.84969C29.5639 9.50238 28.1472 15.4029 27.3042 23.5512C25.9423 19.9878 24.9229 16.3029 24.26 12.5463C23.9087 10.6497 23.0306 9.74823 21.6255 9.85359C21.0877 9.93102 20.5803 10.151 20.1562 10.4907C19.7321 10.8304 19.4066 11.2774 19.2136 11.7853L12.165 25.1902C11.0059 20.5307 9.92871 14.8409 8.91006 8.1092C8.91291 7.76239 8.83868 7.41928 8.69272 7.10465C8.54676 6.79003 8.33272 6.51176 8.06607 6.28995C7.79942 6.06814 7.48682 5.90833 7.15086 5.82207C6.8149 5.73581 6.46397 5.72525 6.12343 5.79116Z" fill="white"/>
<path fill-rule="evenodd" clip-rule="evenodd" d="M53.0746 11.8438C52.5438 10.884 51.808 10.0528 50.9197 9.40938C50.0313 8.76594 49.0121 8.32603 47.9345 8.1209C47.3649 7.99876 46.7842 7.93599 46.2017 7.93358C44.6228 7.97296 43.0846 8.44312 41.7536 9.29325C40.4226 10.1434 39.3492 11.3411 38.6497 12.757C36.9768 15.4814 36.1044 18.6216 36.1323 21.8185C36.0738 24.0429 36.6007 26.2321 37.6779 28.1872C38.206 29.1515 38.9424 29.986 39.8336 30.63C40.7247 31.274 41.7482 31.7113 42.8296 31.9102C43.3916 32.0389 43.977 32.1092 44.5625 32.1092C46.1429 32.0763 47.6837 31.6088 49.0159 30.7579C50.3481 29.907 51.4201 28.7057 52.1145 27.2858C53.7819 24.5423 54.6497 21.3877 54.6201 18.1775C54.6882 15.969 54.1539 13.7836 53.0746 11.8555V11.8438ZM46.5763 25.518C47.8857 24.2391 48.748 22.5723 49.0351 20.7648V20.7531C49.1874 19.9687 49.2693 19.1726 49.2459 18.3648C49.2361 17.3622 49.0416 16.3701 48.6722 15.438C48.1921 14.1853 47.5482 13.518 46.7754 13.3541C45.6162 13.1199 44.4922 13.7638 43.4267 15.3443C42.1386 17.1498 41.4616 19.3199 41.4948 21.5375C41.5065 22.5326 41.7056 23.5277 42.0803 24.4643C42.5603 25.717 43.2043 26.3843 43.977 26.5482C44.4609 26.5938 44.9486 26.5241 45.4004 26.3451C45.8522 26.166 46.2551 25.8826 46.5763 25.518ZM68.0966 8.10919C69.1791 8.30935 70.2033 8.74846 71.0945 9.39453C71.9857 10.0406 72.7216 10.8774 73.2484 11.8438C74.3257 13.7765 74.856 15.9661 74.7822 18.1775C74.8056 21.3853 73.9392 24.5463 72.2766 27.2858C71.5824 28.7083 70.5088 29.9115 69.1741 30.7626C67.8394 31.6137 66.2956 32.0797 64.7129 32.1092C63.0227 32.0989 61.3747 31.5809 59.9826 30.6224C59.0971 29.9791 58.3653 29.1474 57.84 28.1872C56.7635 26.2369 56.2298 24.0335 56.2944 21.8068C56.2593 18.6107 57.1375 15.4731 58.8001 12.7453C59.5006 11.3277 60.5757 10.1288 61.909 9.27855C63.2423 8.42831 64.7829 7.95914 66.3638 7.92188C66.9492 7.92188 67.5346 7.99212 68.0966 8.10919ZM69.1972 20.7531C68.9125 22.5648 68.0501 24.236 66.7385 25.518C66.4149 25.8822 66.0095 26.1644 65.5556 26.3415C65.1017 26.5185 64.6122 26.5854 64.1275 26.5365C63.3547 26.3843 62.7224 25.7053 62.2307 24.4526C61.8612 23.5205 61.6667 22.5283 61.6569 21.5258C61.6322 19.3149 62.313 17.1536 63.6006 15.356C64.6543 13.7638 65.7901 13.1316 66.9375 13.3658C67.7103 13.518 68.3542 14.1853 68.846 15.4497C69.209 16.3863 69.408 17.3697 69.4197 18.3765C69.4197 19.1726 69.3378 19.9687 69.1855 20.7531H69.1972Z" fill="white"/>
<mask id="path-4-inside-1_0_482" fill="white">
<path d="M86.9829 11.5512C85.9155 12.6082 85.0784 13.8747 84.5243 15.271C83.9701 16.6673 83.711 18.1631 83.763 19.6643C83.6948 21.2259 83.9417 22.7853 84.4888 24.2496C85.0359 25.7138 85.8722 27.0529 86.9478 28.1873C88.0389 29.273 89.3426 30.1215 90.7772 30.6796C92.2118 31.2376 93.7462 31.4932 95.2842 31.4302C96.4083 31.4185 97.544 31.2429 98.6212 30.9151V25.7053C97.6845 25.998 96.6893 26.1736 95.6941 26.1853C94.9306 26.2155 94.1696 26.0794 93.464 25.7862C92.7584 25.4931 92.125 25.05 91.6078 24.4877C90.5268 23.1792 89.9791 21.5111 90.0739 19.8165C90.0099 18.1836 90.5474 16.584 91.5844 15.3209C92.0464 14.7549 92.6313 14.3016 93.2947 13.9953C93.9581 13.689 94.6825 13.5378 95.413 13.5531C96.5019 13.5531 97.5791 13.7287 98.6212 14.0214V8.82336C97.4738 8.53067 96.3029 8.39019 95.1086 8.4136C93.6116 8.35275 92.1179 8.59982 90.7202 9.13951C89.3225 9.6792 88.0505 10.5 86.9829 11.5512ZM109.311 8.36677C108.005 8.30389 106.702 8.53774 105.499 9.05075C104.297 9.56376 103.226 10.3426 102.368 11.3287C100.584 13.7 99.7111 16.6333 99.9091 19.5941C99.6867 22.7199 100.565 25.8224 102.368 28.3746C103.249 29.4078 104.358 30.2218 105.608 30.7522C106.857 31.2825 108.214 31.5147 109.569 31.4302C110.9 31.5076 112.23 31.2727 113.454 30.7441C114.678 30.2156 115.761 29.4081 116.617 28.3863C118.399 25.8981 119.268 22.871 119.076 19.8165C119.275 16.7726 118.385 13.7756 116.57 11.3287C115.657 10.3257 114.532 9.5393 113.276 9.02686C112.02 8.51442 110.665 8.2889 109.311 8.36677ZM111.852 25.0965C111.585 25.5255 111.21 25.8761 110.763 26.1126C110.317 26.3491 109.816 26.4631 109.311 26.4429C108.834 26.4572 108.363 26.339 107.95 26.1012C107.536 25.8635 107.197 25.5157 106.969 25.0965C106.277 23.3743 105.996 21.5142 106.15 19.6643C106.15 15.4497 107.204 13.3541 109.37 13.3541C111.629 13.3541 112.777 15.4848 112.777 19.758C112.903 21.5872 112.582 23.4197 111.84 25.0965H111.852ZM134.976 8.97555L133.817 13.9043C133.524 15.157 133.232 16.4448 132.974 17.7677L132.33 21.1629C131.721 17.7677 130.902 13.7053 129.824 8.97555H122.366L119.556 30.8799H125.164L126.687 15.8009L130.504 30.8799H134.484L138.161 15.8243L139.73 30.8799H145.584L142.634 8.97555H134.976ZM161.765 8.97555L160.606 13.9043C160.325 15.157 160.021 16.4448 159.775 17.7677L159.131 21.1746C158.384 17.0946 157.548 13.0312 156.625 8.98726H149.155L146.357 30.8799H151.954L153.476 15.8009L157.293 30.8799H161.285L164.915 15.8243L166.496 30.8799H172.35L169.388 8.97555H161.777H161.765ZM179.972 22.2282H185.218V17.6975H179.972V13.6819H186.025V9.01067H174.059V30.9268H186.061V26.2673H179.972V22.2399V22.2282ZM202.71 18.7629C203.307 17.838 203.635 16.7726 203.647 15.6721C203.68 14.7208 203.476 13.7762 203.056 12.9224C202.635 12.0685 202.009 11.3321 201.235 10.7785C199.287 9.48728 196.977 8.8553 194.643 8.97555H187.758V30.8799H193.671V20.917H193.777L198.577 30.8799H204.806L200.076 21.0224C201.162 20.5528 202.081 19.765 202.71 18.7629ZM193.648 18.4117V13.1902C194.701 13.1316 195.755 13.3775 196.669 13.9043C196.988 14.166 197.238 14.503 197.396 14.8852C197.553 15.2673 197.613 15.6826 197.57 16.0936C197.57 17.6156 196.259 18.3765 193.648 18.3999V18.4117ZM207.113 11.5512C206.047 12.6092 205.212 13.8762 204.66 15.2724C204.108 16.6686 203.851 18.1639 203.904 19.6643C203.837 21.2259 204.084 22.7851 204.631 24.2492C205.178 25.7133 206.014 27.0526 207.089 28.1873C208.18 29.273 209.484 30.1215 210.919 30.6796C212.353 31.2376 213.888 31.4932 215.426 31.4302C216.55 31.4185 217.674 31.2429 218.763 30.9151V25.7053C217.814 25.998 216.831 26.1736 215.835 26.1853C215.072 26.2155 214.311 26.0794 213.605 25.7862C212.9 25.4931 212.266 25.05 211.749 24.4877C210.664 23.1809 210.112 21.5127 210.204 19.8165C210.143 18.1821 210.685 16.5823 211.726 15.3209C212.186 14.7559 212.769 14.303 213.43 13.9967C214.092 13.6904 214.814 13.5387 215.543 13.5531C216.632 13.5531 217.72 13.7287 218.763 14.0214V8.82336C217.615 8.53067 216.444 8.39019 215.25 8.4136C213.753 8.35622 212.261 8.60489 210.863 9.14439C209.466 9.68389 208.194 10.5029 207.124 11.5512H207.113ZM226.315 26.1853V22.2048H231.56V17.6624H226.326V13.6468H232.403V8.96385H220.437V30.8799H232.438V26.2204H226.326V26.1853H226.315Z"/>
</mask>
<path d="M86.9829 11.5512C85.9155 12.6082 85.0784 13.8747 84.5243 15.271C83.9701 16.6673 83.711 18.1631 83.763 19.6643C83.6948 21.2259 83.9417 22.7853 84.4888 24.2496C85.0359 25.7138 85.8722 27.0529 86.9478 28.1873C88.0389 29.273 89.3426 30.1215 90.7772 30.6796C92.2118 31.2376 93.7462 31.4932 95.2842 31.4302C96.4083 31.4185 97.544 31.2429 98.6212 30.9151V25.7053C97.6845 25.998 96.6893 26.1736 95.6941 26.1853C94.9306 26.2155 94.1696 26.0794 93.464 25.7862C92.7584 25.4931 92.125 25.05 91.6078 24.4877C90.5268 23.1792 89.9791 21.5111 90.0739 19.8165C90.0099 18.1836 90.5474 16.584 91.5844 15.3209C92.0464 14.7549 92.6313 14.3016 93.2947 13.9953C93.9581 13.689 94.6825 13.5378 95.413 13.5531C96.5019 13.5531 97.5791 13.7287 98.6212 14.0214V8.82336C97.4738 8.53067 96.3029 8.39019 95.1086 8.4136C93.6116 8.35275 92.1179 8.59982 90.7202 9.13951C89.3225 9.6792 88.0505 10.5 86.9829 11.5512ZM109.311 8.36677C108.005 8.30389 106.702 8.53774 105.499 9.05075C104.297 9.56376 103.226 10.3426 102.368 11.3287C100.584 13.7 99.7111 16.6333 99.9091 19.5941C99.6867 22.7199 100.565 25.8224 102.368 28.3746C103.249 29.4078 104.358 30.2218 105.608 30.7522C106.857 31.2825 108.214 31.5147 109.569 31.4302C110.9 31.5076 112.23 31.2727 113.454 30.7441C114.678 30.2156 115.761 29.4081 116.617 28.3863C118.399 25.8981 119.268 22.871 119.076 19.8165C119.275 16.7726 118.385 13.7756 116.57 11.3287C115.657 10.3257 114.532 9.5393 113.276 9.02686C112.02 8.51442 110.665 8.2889 109.311 8.36677ZM111.852 25.0965C111.585 25.5255 111.21 25.8761 110.763 26.1126C110.317 26.3491 109.816 26.4631 109.311 26.4429C108.834 26.4572 108.363 26.339 107.95 26.1012C107.536 25.8635 107.197 25.5157 106.969 25.0965C106.277 23.3743 105.996 21.5142 106.15 19.6643C106.15 15.4497 107.204 13.3541 109.37 13.3541C111.629 13.3541 112.777 15.4848 112.777 19.758C112.903 21.5872 112.582 23.4197 111.84 25.0965H111.852ZM134.976 8.97555L133.817 13.9043C133.524 15.157 133.232 16.4448 132.974 17.7677L132.33 21.1629C131.721 17.7677 130.902 13.7053 129.824 8.97555H122.366L119.556 30.8799H125.164L126.687 15.8009L130.504 30.8799H134.484L138.161 15.8243L139.73 30.8799H145.584L142.634 8.97555H134.976ZM161.765 8.97555L160.606 13.9043C160.325 15.157 160.021 16.4448 159.775 17.7677L159.131 21.1746C158.384 17.0946 157.548 13.0312 156.625 8.98726H149.155L146.357 30.8799H151.954L153.476 15.8009L157.293 30.8799H161.285L164.915 15.8243L166.496 30.8799H172.35L169.388 8.97555H161.777H161.765ZM179.972 22.2282H185.218V17.6975H179.972V13.6819H186.025V9.01067H174.059V30.9268H186.061V26.2673H179.972V22.2399V22.2282ZM202.71 18.7629C203.307 17.838 203.635 16.7726 203.647 15.6721C203.68 14.7208 203.476 13.7762 203.056 12.9224C202.635 12.0685 202.009 11.3321 201.235 10.7785C199.287 9.48728 196.977 8.8553 194.643 8.97555H187.758V30.8799H193.671V20.917H193.777L198.577 30.8799H204.806L200.076 21.0224C201.162 20.5528 202.081 19.765 202.71 18.7629ZM193.648 18.4117V13.1902C194.701 13.1316 195.755 13.3775 196.669 13.9043C196.988 14.166 197.238 14.503 197.396 14.8852C197.553 15.2673 197.613 15.6826 197.57 16.0936C197.57 17.6156 196.259 18.3765 193.648 18.3999V18.4117ZM207.113 11.5512C206.047 12.6092 205.212 13.8762 204.66 15.2724C204.108 16.6686 203.851 18.1639 203.904 19.6643C203.837 21.2259 204.084 22.7851 204.631 24.2492C205.178 25.7133 206.014 27.0526 207.089 28.1873C208.18 29.273 209.484 30.1215 210.919 30.6796C212.353 31.2376 213.888 31.4932 215.426 31.4302C216.55 31.4185 217.674 31.2429 218.763 30.9151V25.7053C217.814 25.998 216.831 26.1736 215.835 26.1853C215.072 26.2155 214.311 26.0794 213.605 25.7862C212.9 25.4931 212.266 25.05 211.749 24.4877C210.664 23.1809 210.112 21.5127 210.204 19.8165C210.143 18.1821 210.685 16.5823 211.726 15.3209C212.186 14.7559 212.769 14.303 213.43 13.9967C214.092 13.6904 214.814 13.5387 215.543 13.5531C216.632 13.5531 217.72 13.7287 218.763 14.0214V8.82336C217.615 8.53067 216.444 8.39019 215.25 8.4136C213.753 8.35622 212.261 8.60489 210.863 9.14439C209.466 9.68389 208.194 10.5029 207.124 11.5512H207.113ZM226.315 26.1853V22.2048H231.56V17.6624H226.326V13.6468H232.403V8.96385H220.437V30.8799H232.438V26.2204H226.326V26.1853H226.315Z" fill="#18181B" stroke="#18181B" stroke-width="2" mask="url(#path-4-inside-1_0_482)"/>
</svg>
