<svg width="119" height="48" viewBox="0 0 119 48" fill="none" xmlns="http://www.w3.org/2000/svg">
<g clip-path="url(#clip0_0_457)">
<mask id="mask0_0_457" style="mask-type:luminance" maskUnits="userSpaceOnUse" x="0" y="0" width="119" height="48">
<path d="M0 0H118.823V48H0V0Z" fill="white"/>
</mask>
<g mask="url(#mask0_0_457)">
<mask id="mask1_0_457" style="mask-type:luminance" maskUnits="userSpaceOnUse" x="0" y="0" width="119" height="48">
<path d="M118.823 0H0V48H118.823V0Z" fill="white"/>
</mask>
<g mask="url(#mask1_0_457)">
<path d="M34.354 22.044C36.6636 16.6085 40.5133 11.9741 45.4247 8.71682C50.3361 5.45956 56.0927 3.72302 61.979 3.72302C67.8654 3.72302 73.6219 5.45956 78.5334 8.71682C83.4448 11.9741 87.2945 16.6085 89.604 22.044C89.6924 22.2775 89.8257 22.4912 89.9963 22.6729C90.167 22.8547 90.3716 23.0009 90.5985 23.1032C90.8254 23.2056 91.0702 23.2621 91.3189 23.2694C91.5676 23.2768 91.8152 23.2349 92.0478 23.1462C92.2803 23.0575 92.4932 22.9237 92.6742 22.7524C92.8553 22.5811 93.0009 22.3757 93.1029 22.1478C93.2048 21.92 93.2611 21.6743 93.2684 21.4246C93.2758 21.175 93.2341 20.9264 93.1457 20.6929C90.5366 14.5642 86.1921 9.33961 80.6514 5.66779C75.1108 1.99597 68.618 0.0385742 61.979 0.0385742C55.3401 0.0385742 48.8473 1.99597 43.3066 5.66779C37.766 9.33961 33.4215 14.5642 30.8124 20.6929C30.7415 20.8707 30.7061 21.1551 30.7061 21.404C30.7025 21.8501 30.8567 22.2831 31.1413 22.6258C31.4258 22.9685 31.8222 23.1987 32.26 23.2755C32.6978 23.3523 33.1485 23.2707 33.5319 23.0452C33.9154 22.8197 34.2067 22.4649 34.354 22.044Z" fill="#F38B00"/>
<path d="M17.3535 41.6704C17.2473 41.9904 16.9994 42.2038 16.5389 42.2038H14.0598C13.6348 42.2038 13.4223 42.0616 13.316 41.6704L10.9431 32.7104C10.6952 31.786 10.5889 30.7549 10.4473 29.6882C10.341 30.7549 10.1994 31.8216 9.95145 32.7104L7.57853 41.5993C7.5077 41.9549 7.22437 42.1682 6.79937 42.1682H4.24937C3.82437 42.1682 3.61187 42.026 3.54103 41.6349L-0.000634849 28.7993C-0.0714682 28.3727 0.176448 28.0882 0.566032 28.0882H2.1952C2.65562 28.0882 2.90353 28.266 2.97436 28.6927L5.20562 37.866C5.45353 38.9327 5.52437 39.9993 5.5952 40.9949C5.77228 40.0349 5.94937 38.8616 6.19728 37.9016L8.67645 28.6571C8.74728 28.3016 9.06603 28.1238 9.49103 28.1238H11.4744C11.8994 28.1238 12.2535 28.3371 12.3598 28.6927L14.839 37.9016C15.1223 38.8971 15.2285 40.0349 15.3702 40.9949C15.5119 40.0349 15.6535 38.8971 15.866 37.9016L17.9202 28.6571C17.9556 28.3016 18.3098 28.1238 18.7348 28.1238H20.2577C20.6119 28.1238 20.8952 28.3371 20.7889 28.7993L17.3535 41.6704ZM30.8473 42.3104C26.8452 42.3104 24.2244 39.5727 24.2244 35.0571C24.2244 30.5771 26.8452 27.8749 30.8473 27.8749C34.8494 27.8749 37.3994 30.5771 37.3994 35.0571C37.3994 39.5727 34.8494 42.3104 30.8473 42.3104ZM30.8119 29.866C28.4389 29.866 27.1285 31.5727 27.1285 35.0927C27.1285 38.6838 28.4389 40.426 30.8119 40.426C33.1848 40.426 34.4952 38.6838 34.4952 35.0927C34.4598 31.5371 33.1494 29.866 30.8119 29.866ZM50.291 30.1149C50.1848 30.506 49.866 30.7549 49.2994 30.6127C48.8035 30.506 48.0244 30.2927 47.3515 30.2927C46.3598 30.2927 45.014 31.4304 45.014 33.9904V41.5993C45.014 41.9549 44.6598 42.2038 44.3056 42.2038H42.9598C42.6056 42.2038 42.2514 41.9193 42.2514 41.5993V28.6927C42.2514 28.3371 42.6056 28.1238 42.9598 28.1238H43.7744C44.1285 28.1238 44.3764 28.266 44.4827 28.5504L44.9785 30.1149C45.9348 28.7638 47.2452 27.8749 48.8744 27.8749C49.9369 27.8749 50.8223 28.3016 50.6452 28.906L50.291 30.1149ZM81.8119 42.0616H81.1035C80.5723 42.0616 80.3244 41.8838 80.2181 41.4927L79.9348 40.3193C78.9431 41.7416 77.7035 42.3104 75.8973 42.3104C72.3556 42.3104 70.4785 39.8571 70.4785 35.1282C70.4785 32.2482 70.9744 30.826 72.1431 29.4393C73.0285 28.4438 74.516 27.8749 76.0035 27.8749C77.7035 27.8749 78.9785 28.586 79.864 29.9727V22.0082C79.864 21.6527 80.2181 21.4393 80.5723 21.4393H81.8473C82.2015 21.4393 82.5556 21.6527 82.5556 22.0082V41.4927C82.5556 41.8127 82.2015 42.0616 81.8473 42.0616H81.8119ZM76.5702 29.866C75.5431 29.866 74.764 30.2216 74.2681 31.0038C73.6075 32.2722 73.3131 33.7007 73.4181 35.1282C73.4181 38.8616 74.3744 40.3904 76.5348 40.3904C78.8015 40.3904 79.9348 38.7193 79.9348 35.1993C79.9348 31.7149 78.6952 29.866 76.5702 29.866ZM66.1223 42.2038H64.0327C63.6785 42.2038 63.3952 41.9904 63.2181 41.706L57.9056 34.9504V41.5993C57.9056 41.9193 57.5515 42.1682 57.1619 42.1682H55.9223C55.5681 42.1682 55.214 41.9193 55.214 41.5638V22.1504C55.214 21.7949 55.5681 21.546 55.9223 21.546H57.1619C57.516 21.546 57.8702 21.7949 57.8702 22.1504V34.7016L63.3952 28.5504C63.4977 28.4131 63.6317 28.3025 63.7859 28.2282C63.94 28.154 64.1097 28.1181 64.2806 28.1238H66.1577C66.6535 28.1238 66.8306 28.5149 66.5119 28.8349L60.7035 34.7016L66.5473 41.4927C66.7952 41.7771 66.6535 42.2038 66.1931 42.2038H66.1223ZM102.885 28.6927C102.743 28.3727 103.097 28.1238 103.487 28.1238H105.116C105.541 28.1238 105.895 28.3371 106.037 28.6927L109.224 37.226C109.401 37.5816 109.543 38.2216 109.579 38.6482L110.181 36.6927L112.766 28.6571C112.872 28.3016 113.226 28.1238 113.651 28.1238H115.21C115.599 28.1238 115.918 28.3727 115.812 28.6927L110.499 44.1593C109.933 45.7238 108.87 46.9682 107.064 47.6793L106.285 47.9638C105.931 48.0704 105.506 47.9638 105.329 47.6793L104.833 46.9327C104.691 46.6838 104.833 46.2216 105.187 46.1149L105.754 45.9016C107.099 45.4038 108.091 43.9104 108.516 41.9904L102.849 28.7282L102.885 28.6927ZM93.641 27.8749C89.639 27.8749 87.266 30.6127 87.266 35.0927C87.266 39.5727 89.6744 42.2749 93.4285 42.2749C95.0577 42.2749 96.0848 41.7416 97.0765 40.2838L97.3598 41.4927C97.466 41.9193 97.714 42.0971 98.2452 42.0971H98.9535C99.3431 42.0971 99.6973 41.8127 99.6973 41.4927V35.0571C99.6973 30.5771 97.6431 27.8749 93.641 27.8749ZM93.5702 40.3193C91.1973 40.3193 90.1702 38.6838 90.1702 35.0927C90.1702 31.5371 91.1973 29.8304 93.5702 29.8304C95.9431 29.8304 97.0765 31.5727 97.0765 35.0927C97.0765 38.6482 95.9431 40.3549 93.5348 40.3549L93.5702 40.3193ZM117.689 38.4704C118.027 38.6171 118.315 38.8605 118.517 39.1703C118.718 39.4801 118.825 39.8426 118.822 40.2127C118.824 40.4563 118.779 40.6979 118.687 40.9237C118.596 41.1494 118.462 41.3549 118.291 41.5282C118.079 41.706 117.901 41.8838 117.654 41.9549C117.287 42.1044 116.882 42.1336 116.498 42.0383C116.113 41.943 115.769 41.7281 115.513 41.4244C115.258 41.1206 115.105 40.7435 115.076 40.3471C115.047 39.9506 115.143 39.5551 115.351 39.2171C115.582 38.8261 115.947 38.5339 116.378 38.3962C116.809 38.2585 117.276 38.2849 117.689 38.4704ZM116.343 38.7549C116.001 38.8882 115.717 39.1383 115.541 39.4612C115.365 39.784 115.308 40.1589 115.379 40.5199C115.451 40.8809 115.648 41.2049 115.934 41.4349C116.221 41.6648 116.579 41.786 116.945 41.7771C117.248 41.7687 117.542 41.6739 117.793 41.5039C118.043 41.3339 118.241 41.0957 118.362 40.8171C118.468 40.6393 118.504 40.4616 118.504 40.2482C118.504 39.9993 118.504 39.786 118.397 39.6082C118.326 39.4304 118.22 39.2527 118.043 39.1104C117.901 38.9327 117.76 38.826 117.547 38.7549C117.161 38.5968 116.729 38.5968 116.343 38.7549ZM116.981 39.1104C117.264 39.1104 117.512 39.1816 117.654 39.2882C117.795 39.3593 117.866 39.5371 117.866 39.7149C117.866 39.8571 117.866 39.9993 117.76 40.0704C117.689 40.1771 117.547 40.2482 117.406 40.2838L117.901 41.2082H117.335L116.91 40.3549H116.662V41.2082H116.166V39.1104H116.981ZM116.662 40.0349H116.91C117.087 40.0349 117.193 40.0349 117.264 39.9638C117.335 39.9638 117.37 39.8571 117.37 39.7504C117.37 39.6438 117.335 39.5727 117.229 39.5371C117.158 39.466 117.051 39.4304 116.874 39.4304H116.662V40.0349Z" fill="#005CB9"/>
</g>
</g>
</g>
<defs>
<clipPath id="clip0_0_457">
<rect width="119" height="48" fill="white"/>
</clipPath>
</defs>
</svg>
