<svg width="268" height="60" viewBox="0 0 268 60" fill="none" xmlns="http://www.w3.org/2000/svg">
<g clip-path="url(#clip0_328_3262)">
<mask id="mask0_328_3262" style="mask-type:luminance" maskUnits="userSpaceOnUse" x="0" y="0" width="268" height="60">
<path d="M267.24 0.234863H0.19043V59.1849H267.24V0.234863Z" fill="white"/>
</mask>
<g mask="url(#mask0_328_3262)">
<path d="M15.1904 0.234863V7.13486H8.19043V49.3849H15.1904V56.3349H0.19043V0.234863H15.1904ZM71.0904 10.7849L61.9404 45.8849H51.5904L45.9904 22.7849L40.1904 45.8849H29.8404L20.9404 10.7849H30.0904L35.1404 36.3349L41.3904 10.7849H50.7904L56.7904 36.3349L61.8904 10.7849H71.0904ZM83.9404 22.6349C84.89 21.1501 86.1744 19.9086 87.6904 19.0099C89.2059 18.1224 90.9344 17.6643 92.6904 17.6849V26.7349H90.3404C88.6276 26.606 86.9252 27.0937 85.5404 28.1099C84.4738 29.0265 83.9404 30.6349 83.9404 32.9349V45.8849H75.3904V17.9849H83.9404V22.6349ZM95.0904 31.8849C95.0338 29.2757 95.5904 26.6897 96.7154 24.3349C97.6932 22.2868 99.2264 20.5544 101.14 19.3349C103.014 18.1662 105.183 17.5589 107.39 17.5849C109.189 17.5451 110.968 17.9577 112.565 18.7849C113.968 19.5101 115.151 20.5978 115.99 21.9349V17.9849H124.54V45.8849H115.99V41.9349C115.123 43.2663 113.926 44.3513 112.516 45.0849C110.919 45.912 109.14 46.3247 107.341 46.2849C105.147 46.3054 102.993 45.6888 101.141 44.5099C99.2254 43.2709 97.693 41.522 96.7164 39.4599C95.5928 37.0956 95.0361 34.5019 95.0904 31.8849ZM115.99 31.9349C116.041 31.0178 115.91 30.0998 115.606 29.2333C115.302 28.3668 114.829 27.5688 114.216 26.8849C113.666 26.2899 112.996 25.8176 112.251 25.4988C111.506 25.1801 110.702 25.022 109.891 25.0349C109.083 25.0209 108.281 25.176 107.536 25.4903C106.791 25.8045 106.12 26.2711 105.566 26.8599C104.952 27.5379 104.479 28.3313 104.174 29.194C103.869 30.0567 103.739 30.9714 103.79 31.8849C103.692 33.7441 104.329 35.5674 105.565 36.9599C106.112 37.5612 106.781 38.0394 107.526 38.3626C108.272 38.6859 109.078 38.8469 109.89 38.8349C110.701 38.8477 111.505 38.6897 112.25 38.3709C112.995 38.0521 113.665 37.5798 114.215 36.9849C114.829 36.301 115.301 35.503 115.605 34.6365C115.91 33.77 116.041 32.852 115.99 31.9349ZM139.29 21.9349C140.153 20.6079 141.341 19.5236 142.74 18.7849C144.328 17.9558 146.1 17.543 147.89 17.5849C150.098 17.5589 152.267 18.1662 154.14 19.3349C156.054 20.5544 157.588 22.2868 158.565 24.3349C159.69 26.6897 160.247 29.2757 160.19 31.8849C160.245 34.5019 159.689 37.0956 158.565 39.4599C157.589 41.522 156.056 43.2709 154.14 44.5099C152.273 45.6936 150.102 46.3102 147.89 46.2849C146.109 46.3209 144.346 45.9083 142.765 45.0849C141.365 44.3594 140.17 43.2933 139.29 41.9849V59.1849H130.74V17.9849H139.29V21.9349ZM151.49 31.8849C151.542 30.9714 151.412 30.0568 151.108 29.1941C150.803 28.3314 150.33 27.5379 149.715 26.8599C149.153 26.2678 148.474 25.7997 147.721 25.4854C146.967 25.1711 146.157 25.0177 145.34 25.0349C144.53 25.0221 143.726 25.1803 142.981 25.499C142.236 25.8178 141.567 26.29 141.016 26.8849C140.403 27.5688 139.931 28.3667 139.626 29.2333C139.322 30.0998 139.191 31.0178 139.241 31.9349C139.191 32.852 139.322 33.77 139.626 34.6365C139.931 35.503 140.403 36.301 141.016 36.9849C141.567 37.5798 142.237 38.0521 142.982 38.3709C143.727 38.6897 144.531 38.8477 145.341 38.8349C146.158 38.8454 146.967 38.6839 147.716 38.3608C148.466 38.0378 149.139 37.5604 149.691 36.9599C150.31 36.2739 150.788 35.4725 151.097 34.6016C151.405 33.7308 151.539 32.8075 151.49 31.8849ZM173.24 21.9349C174.103 20.6079 175.291 19.5236 176.69 18.7849C178.278 17.9558 180.05 17.543 181.84 17.5849C184.048 17.5589 186.217 18.1662 188.09 19.3349C190.004 20.5544 191.538 22.2868 192.515 24.3349C193.641 26.6896 194.198 29.2756 194.141 31.8849C194.196 34.5019 193.64 37.0956 192.516 39.4599C191.54 41.522 190.007 43.2709 188.091 44.5099C186.224 45.6936 184.053 46.3102 181.841 46.2849C180.06 46.3209 178.297 45.9083 176.716 45.0849C175.316 44.3594 174.121 43.2933 173.241 41.9849V59.1849H164.69V17.9849H173.24V21.9349ZM185.44 31.8849C185.492 30.9714 185.362 30.0568 185.058 29.1941C184.753 28.3314 184.28 27.5379 183.665 26.8599C183.103 26.2678 182.424 25.7997 181.671 25.4854C180.917 25.1711 180.107 25.0177 179.29 25.0349C178.48 25.0221 177.676 25.1803 176.931 25.499C176.186 25.8178 175.517 26.29 174.966 26.8849C174.353 27.5687 173.881 28.3666 173.576 29.2331C173.271 30.0996 173.14 31.0177 173.19 31.9349C173.14 32.852 173.271 33.77 173.575 34.6365C173.88 35.503 174.352 36.301 174.965 36.9849C175.516 37.5798 176.186 38.0521 176.931 38.3709C177.676 38.6897 178.48 38.8477 179.29 38.8349C180.107 38.8454 180.916 38.6839 181.665 38.3608C182.415 38.0378 183.088 37.5604 183.64 36.9599C184.26 36.2741 184.738 35.4727 185.047 34.6019C185.356 33.731 185.49 32.8077 185.441 31.8849H185.44ZM224.94 31.4849C224.938 32.3204 224.888 33.1551 224.79 33.9849H205.44C205.468 35.4756 206.068 36.8987 207.115 37.9599C208.097 38.8759 209.399 39.3698 210.74 39.3349C211.671 39.4024 212.599 39.1787 213.396 38.6949C214.194 38.2111 214.821 37.4911 215.19 36.6349H224.29C223.831 38.4536 222.968 40.1455 221.765 41.5849C220.525 43.0699 218.959 44.2502 217.19 45.0349C215.255 45.8892 213.157 46.3156 211.041 46.2849C208.499 46.3312 205.987 45.729 203.741 44.5349C201.626 43.3866 199.89 41.6498 198.741 39.5349C197.5 37.1977 196.88 34.5806 196.941 31.9349C196.88 29.2921 197.491 26.6771 198.716 24.3349C199.85 22.2178 201.58 20.4795 203.691 19.3349C205.953 18.1369 208.483 17.5346 211.041 17.5849C213.546 17.5381 216.022 18.1227 218.241 19.2849C220.316 20.3933 222.026 22.0775 223.166 24.1349C224.388 26.3885 225 28.9221 224.941 31.4849H224.94ZM216.19 29.2349C216.219 28.5764 216.098 27.92 215.839 27.3142C215.579 26.7084 215.187 26.1687 214.69 25.7349C213.645 24.8518 212.308 24.3885 210.94 24.4349C209.62 24.3954 208.331 24.84 207.315 25.6849C206.288 26.601 205.638 27.8662 205.49 29.2349H216.19ZM237.99 22.6349C238.94 21.1501 240.224 19.9086 241.74 19.0099C243.256 18.1224 244.984 17.6643 246.74 17.6849V26.7349H244.39C242.678 26.606 240.975 27.0937 239.59 28.1099C238.524 29.0265 237.99 30.6349 237.99 32.9349V45.8849H229.44V17.9849H237.99V22.6349ZM267.24 56.3349H252.24V49.3849H259.24V7.13486H252.24V0.234863H267.24V56.3349Z" fill="#1A1818"/>
</g>
</g>
<defs>
<clipPath id="clip0_328_3262">
<rect width="267.05" height="58.95" fill="white" transform="translate(0.19043 0.234863)"/>
</clipPath>
</defs>
</svg>
