<svg width="150" height="48" viewBox="0 0 150 48" fill="none" xmlns="http://www.w3.org/2000/svg">
<path d="M68.1396 41.1L70.1396 40.02C70.7596 40.99 71.6397 41.52 72.9097 41.52C74.1797 41.52 74.8896 40.9 74.8896 40.17C74.8896 39.32 73.6196 39.13 72.2896 38.84C70.5096 38.49 68.6296 37.91 68.6296 35.77C68.6296 34.14 70.2296 32.62 72.7096 32.65C74.7496 32.65 76.1097 33.39 76.9797 34.65L75.1096 35.67C74.8477 35.28 74.4885 34.9651 74.0676 34.7564C73.6467 34.5477 73.1786 34.4524 72.7096 34.48C71.4796 34.48 70.8997 35.05 70.8997 35.74C70.8997 36.49 71.7996 36.65 73.3796 37C75.1396 37.38 77.1396 37.96 77.1396 40.13C77.1396 41.67 75.7396 43.46 72.8196 43.45C70.5496 43.45 69.0496 42.63 68.1396 41.1ZM78.8596 38.9V32.88H81.1396V38.72C81.1396 40.42 81.9896 41.49 83.6796 41.49C85.1696 41.49 86.3196 40.37 86.3196 38.56V32.88H88.5596V43.24H86.3396V41.87C85.9693 42.3626 85.4902 42.7631 84.9397 43.04C84.3797 43.31 83.7696 43.44 83.1396 43.44C80.3796 43.44 78.8596 41.74 78.8596 38.9ZM93.1996 41.95V48H90.9996V32.9H93.2197V34.35C93.6397 33.83 94.1696 33.41 94.7696 33.12C95.3763 32.8342 96.0391 32.6873 96.7096 32.69C97.4096 32.6867 98.103 32.8253 98.7479 33.0975C99.3928 33.3696 99.9758 33.7697 100.462 34.2734C100.948 34.7772 101.327 35.3742 101.576 36.0285C101.824 36.6827 101.938 37.3806 101.91 38.08C101.91 41.38 99.3497 43.45 96.7197 43.45C96.0581 43.4789 95.3985 43.3592 94.7894 43.0996C94.1802 42.84 93.637 42.4472 93.1996 41.95ZM99.6996 38.03C99.709 37.5917 99.6304 37.156 99.4685 36.7486C99.3066 36.3412 99.0647 35.9704 98.7571 35.6581C98.4494 35.3458 98.0823 35.0984 97.6774 34.9304C97.2725 34.7624 96.838 34.6772 96.3997 34.68C95.9615 34.6813 95.5279 34.7691 95.1237 34.9383C94.7196 35.1074 94.3528 35.3547 94.0444 35.6659C93.7359 35.9771 93.492 36.3462 93.3264 36.7518C93.1609 37.1575 93.077 37.5919 93.0797 38.03C93.0797 39.87 94.4897 41.42 96.3997 41.42C98.2997 41.42 99.6996 39.92 99.6996 38.03ZM106.08 41.95V48H103.86V32.9H106.08V34.35C106.51 33.83 107.04 33.41 107.63 33.12C108.236 32.8342 108.899 32.6873 109.57 32.69C110.27 32.6854 110.965 32.823 111.611 33.0945C112.257 33.3661 112.841 33.7659 113.328 34.2698C113.815 34.7737 114.195 35.3712 114.445 36.0261C114.694 36.681 114.808 37.3798 114.78 38.08C114.78 41.38 112.22 43.45 109.58 43.45C108.92 43.4753 108.263 43.3539 107.656 43.0945C107.049 42.8351 106.507 42.4442 106.07 41.95H106.08ZM112.58 38.03C112.589 37.5917 112.51 37.156 112.349 36.7486C112.187 36.3412 111.945 35.9704 111.637 35.6581C111.329 35.3458 110.962 35.0984 110.557 34.9304C110.152 34.7624 109.718 34.6772 109.28 34.68C108.841 34.6813 108.408 34.7691 108.004 34.9383C107.6 35.1074 107.233 35.3547 106.924 35.6659C106.616 35.9771 106.372 36.3462 106.206 36.7518C106.041 37.1575 105.957 37.5919 105.96 38.03C105.96 39.87 107.36 41.42 109.28 41.42C111.18 41.42 112.58 39.92 112.58 38.03ZM116.24 38.05C116.242 36.9827 116.563 35.9404 117.162 35.0567C117.761 34.1731 118.609 33.4883 119.6 33.09C120.341 32.7816 121.141 32.6409 121.942 32.678C122.744 32.7152 123.527 32.9292 124.237 33.3048C124.946 33.6805 125.563 34.2084 126.044 34.8507C126.525 35.493 126.859 36.2338 127.02 37.02C127.173 37.8036 127.149 38.6115 126.951 39.3849C126.753 40.1583 126.384 40.8777 125.873 41.4908C125.361 42.1038 124.719 42.5951 123.994 42.9289C123.269 43.2626 122.478 43.4304 121.68 43.42C120.97 43.4213 120.266 43.2826 119.61 43.0118C118.954 42.741 118.357 42.3435 117.855 41.8419C117.352 41.3403 116.954 40.7446 116.682 40.0888C116.41 39.433 116.27 38.73 116.27 38.02L116.24 38.05ZM124.89 38.05C124.896 37.6206 124.818 37.194 124.66 36.7948C124.502 36.3955 124.266 36.0313 123.967 35.723C123.668 35.4147 123.312 35.1683 122.917 34.9979C122.523 34.8276 122.099 34.7365 121.67 34.73C119.87 34.73 118.47 36.23 118.47 38.05C118.47 39.87 119.87 41.37 121.67 41.37C123.47 41.37 124.89 39.87 124.89 38.05ZM129.05 32.88H131.29V34.51C131.85 33.45 132.89 32.88 134.34 32.88H135.34V34.98H133.98C132.08 34.98 131.31 35.94 131.31 38.09V43.22H129.04V32.86L129.05 32.88ZM136.78 32.88H138.56V30.43L140.83 29.21V32.88H143.06V34.86H140.83V39C140.83 40.87 141.13 41.15 143.06 41.15V43.23H142.73C139.53 43.23 138.58 42.25 138.58 39V34.87H136.8V32.89H136.78V32.88ZM122.01 22.24C123.082 22.2619 124.121 21.8677 124.91 21.14L126.35 22.67C125.789 23.2326 125.117 23.6718 124.376 23.9594C123.636 24.247 122.843 24.3766 122.05 24.34C118.55 24.34 116.28 22.04 116.28 18.95C116.278 18.2363 116.419 17.5294 116.693 16.8703C116.967 16.2113 117.369 15.6132 117.876 15.1108C118.383 14.6085 118.985 14.2118 119.646 13.9439C120.308 13.6759 121.016 13.5421 121.73 13.55C125.2 13.55 127.16 16.16 127 19.79H118.79C119.09 21.29 120.15 22.26 122.01 22.26V22.24ZM124.51 18.06C124.31 16.66 123.45 15.61 121.75 15.61C120.17 15.61 119.07 16.51 118.79 18.06H124.51ZM68.1396 22.12L74.4596 15.78H68.2997V13.8H77.3896V15.84L71.0696 22.18H77.4697V24.18H68.1396V22.13V22.12ZM84.5596 22.24C85.6287 22.2593 86.664 21.8653 87.4496 21.14L88.8896 22.67C88.3288 23.2326 87.6566 23.6718 86.9161 23.9594C86.1756 24.247 85.3832 24.3766 84.5896 24.34C81.0896 24.34 78.8297 22.04 78.8297 18.95C78.8143 18.2374 78.9447 17.5292 79.213 16.8689C79.4813 16.2085 79.8817 15.61 80.3896 15.11C81.4289 14.1022 82.822 13.5421 84.2696 13.55C87.7496 13.55 89.6997 16.16 89.5497 19.79H81.3496C81.6496 21.29 82.7096 22.24 84.5696 22.24H84.5596ZM87.0596 18.06C86.8596 16.66 85.9897 15.61 84.2896 15.61C82.7097 15.61 81.6097 16.51 81.3297 18.06H87.0596ZM103.16 18.94C103.134 18.2362 103.251 17.5345 103.505 16.8775C103.758 16.2205 104.143 15.6218 104.635 15.1178C105.126 14.6138 105.716 14.2149 106.366 13.9454C107.017 13.6759 107.715 13.5414 108.42 13.55C109.81 13.55 111.14 14.15 111.9 15.11V9H114.14V24.12H111.92V22.7C111.496 23.2173 110.961 23.6331 110.356 23.9169C109.75 24.2007 109.088 24.3452 108.42 24.34C107.718 24.3416 107.023 24.2023 106.376 23.9302C105.729 23.6581 105.143 23.2589 104.654 22.7562C104.164 22.2535 103.78 21.6575 103.526 21.0037C103.271 20.3499 103.15 19.6515 103.17 18.95L103.16 18.94ZM112.05 18.92C112.062 18.3657 111.935 17.8171 111.68 17.3249C111.425 16.8327 111.05 16.4128 110.589 16.1038C110.129 15.7949 109.598 15.607 109.046 15.5574C108.494 15.5077 107.938 15.5981 107.43 15.82C106.814 16.0675 106.288 16.4967 105.921 17.0505C105.555 17.6042 105.366 18.2563 105.38 18.92C105.38 19.8045 105.731 20.6528 106.356 21.2782C106.982 21.9036 107.83 22.255 108.715 22.255C109.599 22.255 110.447 21.9036 111.073 21.2782C111.698 20.6528 112.05 19.8045 112.05 18.92ZM128.44 21.92L130.46 20.89C130.73 21.36 131.12 21.76 131.59 22.02C132.06 22.29 132.6 22.42 133.15 22.41C134.42 22.41 135.06 21.77 135.06 21.04C135.06 20.23 133.84 20.03 132.51 19.77C130.73 19.39 128.87 18.81 128.87 16.67C128.87 15.04 130.44 13.52 132.93 13.55C134.89 13.55 136.34 14.32 137.16 15.55L135.28 16.59C135.02 16.2078 134.667 15.8987 134.254 15.6921C133.84 15.4855 133.381 15.3884 132.92 15.41C131.72 15.41 131.1 15.98 131.1 16.66C131.1 17.4 132.07 17.62 133.59 17.95C135.31 18.31 137.27 18.88 137.27 21.03C137.27 22.46 136 24.38 133.01 24.37C130.82 24.37 129.29 23.5 128.41 21.95M143.35 19.53L141.59 21.43V24.13H139.35V9H141.59V18.9L146.33 13.76H149.03L144.93 18.19L149.14 24.11H146.62L143.37 19.51L143.35 19.53ZM96.4296 13.57C93.7896 13.57 91.5596 15.27 91.5596 18.09V24.14H93.8297V18.36C93.8297 16.66 94.8197 15.64 96.5097 15.64C98.1997 15.64 99.0396 16.68 99.0396 18.36V24.14H101.31V18.09C101.31 15.28 99.0896 13.57 96.4496 13.57" fill="#02363D"/>
<path d="M11.8696 0L0.139648 42.04L20.8796 48L32.5996 5.94L11.8696 0Z" fill="#78A440"/>
<path d="M38.4 47.9995L59.14 42.0595L53.28 21.0195L32.54 26.9795L38.41 47.9995H38.4Z" fill="#02363D"/>
</svg>
